<?xml version="1.0" encoding="utf-8"?>
<!-- Generator: Adobe Illustrator 23.1.1, SVG Export Plug-In . SVG Version: 6.00 Build 0)  -->
<svg version="1.1" id="Layer_1" xmlns="http://www.w3.org/2000/svg" xmlns:xlink="http://www.w3.org/1999/xlink" x="0px" y="0px"
	 viewBox="0 0 400 400" style="enable-background:new 0 0 400 400;" xml:space="preserve">
<style type="text/css">
	.st0{clip-path:url(#SVGID_2_);fill:url(#SVGID_3_);}
	.st1{clip-path:url(#SVGID_5_);fill:url(#SVGID_6_);}
	.st2{clip-path:url(#SVGID_8_);fill:url(#SVGID_9_);}
	.st3{clip-path:url(#SVGID_11_);fill:url(#SVGID_12_);}
	.st4{clip-path:url(#SVGID_14_);fill:url(#SVGID_15_);}
	.st5{clip-path:url(#SVGID_17_);fill:url(#SVGID_18_);}
	.st6{clip-path:url(#SVGID_20_);fill:url(#SVGID_21_);}
	.st7{clip-path:url(#SVGID_23_);fill:url(#SVGID_24_);}
	.st8{clip-path:url(#SVGID_26_);fill:url(#SVGID_27_);}
	.st9{clip-path:url(#SVGID_29_);fill:url(#SVGID_30_);}
</style>
<g>
	<defs>
		<path id="SVGID_1_" d="M16.5,238V98.9c0-7,5.7-12.7,12.7-12.7h341.6c7,0,12.6,5.7,12.6,12.7V238c0,7-5.7,12.6-12.6,12.6H29.1
			C22.2,250.7,16.5,245,16.5,238 M29.1,73.6c-14,0-25.3,11.3-25.3,25.3V238c0,14,11.3,25.3,25.3,25.3h341.6
			c14,0,25.3-11.3,25.3-25.3V98.9c0-14-11.3-25.3-25.3-25.3H29.1z"/>
	</defs>
	<clipPath id="SVGID_2_">
		<use xlink:href="#SVGID_1_"  style="overflow:visible;"/>
	</clipPath>
	
		<linearGradient id="SVGID_3_" gradientUnits="userSpaceOnUse" x1="-1163.6439" y1="2102.3354" x2="-1154.4698" y2="2102.3354" gradientTransform="matrix(42.7464 0 0 -42.7464 49745.4805 90035.8359)">
		<stop  offset="0" style="stop-color:#812CD3"/>
		<stop  offset="0.9996" style="stop-color:#4B2DD0"/>
		<stop  offset="1" style="stop-color:#4B2DD0"/>
	</linearGradient>
	<rect x="3.8" y="73.6" class="st0" width="392.2" height="189.8"/>
</g>
<g>
	<defs>
		<path id="SVGID_4_" d="M60.8,212.7h31.6v12.6H60.8V212.7z M105,212.7H143v12.6H105V212.7z M155.6,212.7h38v12.6h-38V212.7z
			 M206.2,212.7h37.9v12.6h-37.9V212.7z M256.8,212.7h38v12.6h-38V212.7z M307.5,212.7h31.6v12.6h-31.6V212.7z M54.4,200.1
			c-3.5,0-6.3,2.8-6.3,6.3v25.3c0,3.5,2.8,6.3,6.3,6.3h290.9c3.5,0,6.3-2.8,6.3-6.3v-25.3c0-3.5-2.8-6.3-6.3-6.3H54.4z"/>
	</defs>
	<clipPath id="SVGID_5_">
		<use xlink:href="#SVGID_4_"  style="overflow:visible;"/>
	</clipPath>
	
		<linearGradient id="SVGID_6_" gradientUnits="userSpaceOnUse" x1="-1168.1814" y1="2093.4875" x2="-1159.0073" y2="2093.4875" gradientTransform="matrix(33.094 0 0 -33.094 38707.9336 69500.9922)">
		<stop  offset="0" style="stop-color:#812CD3"/>
		<stop  offset="0.9996" style="stop-color:#4B2DD0"/>
		<stop  offset="1" style="stop-color:#4B2DD0"/>
	</linearGradient>
	<rect x="48.1" y="200.1" class="st1" width="303.6" height="38"/>
</g>
<g>
	<defs>
		<path id="SVGID_7_" d="M41.8,111.5h75.9v12.7H41.8V111.5z M35.5,98.9c-3.5,0-6.3,2.8-6.3,6.3v25.3c0,3.5,2.8,6.3,6.3,6.3H124
			c3.5,0,6.3-2.8,6.3-6.3v-25.3c0-3.5-2.8-6.3-6.3-6.3H35.5z"/>
	</defs>
	<clipPath id="SVGID_8_">
		<use xlink:href="#SVGID_7_"  style="overflow:visible;"/>
	</clipPath>
	
		<linearGradient id="SVGID_9_" gradientUnits="userSpaceOnUse" x1="-1218.0765" y1="2032.6364" x2="-1208.902" y2="2032.6364" gradientTransform="matrix(11.0313 0 0 -11.0313 13466.1572 22540.5723)">
		<stop  offset="0" style="stop-color:#812CD3"/>
		<stop  offset="0.9996" style="stop-color:#4B2DD0"/>
		<stop  offset="1" style="stop-color:#4B2DD0"/>
	</linearGradient>
	<rect x="29.1" y="98.9" class="st2" width="101.2" height="38"/>
</g>
<g>
	<defs>
		<path id="SVGID_10_" d="M326.4,98.9c-3.5,0-6.3,2.8-6.3,6.3c0,3.5,2.8,6.3,6.3,6.3h38c3.5,0,6.3-2.8,6.3-6.3
			c0-3.5-2.8-6.3-6.3-6.3H326.4z"/>
	</defs>
	<clipPath id="SVGID_11_">
		<use xlink:href="#SVGID_10_"  style="overflow:visible;"/>
	</clipPath>
	
		<linearGradient id="SVGID_12_" gradientUnits="userSpaceOnUse" x1="-1245.1525" y1="1939.3175" x2="-1235.9781" y2="1939.3175" gradientTransform="matrix(5.5157 0 0 -5.5157 7187.9448 10801.8457)">
		<stop  offset="0" style="stop-color:#812CD3"/>
		<stop  offset="0.9996" style="stop-color:#4B2DD0"/>
		<stop  offset="1" style="stop-color:#4B2DD0"/>
	</linearGradient>
	<rect x="320.1" y="98.9" class="st3" width="50.6" height="12.6"/>
</g>
<g>
	<defs>
		<path id="SVGID_13_" d="M345.4,117.9c-3.5,0-6.3,2.8-6.3,6.3c0,3.5,2.8,6.3,6.3,6.3h19c3.5,0,6.3-2.8,6.3-6.3
			c0-3.5-2.8-6.3-6.3-6.3H345.4z"/>
	</defs>
	<clipPath id="SVGID_14_">
		<use xlink:href="#SVGID_13_"  style="overflow:visible;"/>
	</clipPath>
	
		<linearGradient id="SVGID_15_" gradientUnits="userSpaceOnUse" x1="-1300.938" y1="1821.203" x2="-1291.7653" y2="1821.203" gradientTransform="matrix(3.4473 0 0 -3.4473 4823.7905 6402.4092)">
		<stop  offset="0" style="stop-color:#812CD3"/>
		<stop  offset="0.9996" style="stop-color:#4B2DD0"/>
		<stop  offset="1" style="stop-color:#4B2DD0"/>
	</linearGradient>
	<rect x="339.1" y="117.9" class="st4" width="31.6" height="12.7"/>
</g>
<g>
	<defs>
		<path id="SVGID_16_" d="M196.7,282.3c0,0.5,0,0.5-1.3,1.8c-1.9,1.9-5,5-5,10.8c0,5.8,3.1,8.9,5,10.8c1.3,1.3,1.3,1.4,1.3,1.9
			s0,0.5-1.3,1.9c-1.9,1.9-5,5-5,10.8c0,3.5,2.8,6.3,6.3,6.3c3.5,0,6.3-2.8,6.3-6.3c0-0.5,0-0.5,1.3-1.8c1.9-1.9,5-5,5-10.8
			c0-5.8-3.1-8.9-5-10.8c-1.3-1.3-1.3-1.4-1.3-1.9c0-0.5,0-0.5,1.3-1.9c1.9-1.9,5-5,5-10.8c0-3.5-2.8-6.3-6.3-6.3
			S196.7,278.8,196.7,282.3"/>
	</defs>
	<clipPath id="SVGID_17_">
		<use xlink:href="#SVGID_16_"  style="overflow:visible;"/>
	</clipPath>
	
		<linearGradient id="SVGID_18_" gradientUnits="userSpaceOnUse" x1="-1469.5929" y1="1540.38" x2="-1460.4205" y2="1540.38" gradientTransform="matrix(2.0684 0 0 -2.0684 3230.1062 3487.3774)">
		<stop  offset="0" style="stop-color:#812CD3"/>
		<stop  offset="0.9996" style="stop-color:#4B2DD0"/>
		<stop  offset="1" style="stop-color:#4B2DD0"/>
	</linearGradient>
	<rect x="190.4" y="276" class="st5" width="19" height="50.6"/>
</g>
<g>
	<defs>
		<path id="SVGID_19_" d="M149.3,282.3c0,0.5,0,0.5-1.3,1.8c-1.9,1.9-5,5-5,10.8c0,5.8,3.1,8.9,5,10.8c1.3,1.3,1.3,1.4,1.3,1.9
			s0,0.5-1.3,1.9c-1.9,1.9-5,5-5,10.8c0,3.5,2.8,6.3,6.3,6.3s6.3-2.8,6.3-6.3c0-0.5,0-0.5,1.3-1.8c1.9-1.9,5-5,5-10.8
			c0-5.8-3.1-8.9-5-10.8c-1.3-1.3-1.3-1.4-1.3-1.9c0-0.5,0-0.5,1.3-1.9c1.9-1.9,5-5,5-10.8c0-3.5-2.8-6.3-6.3-6.3
			C152.1,276,149.3,278.8,149.3,282.3"/>
	</defs>
	<clipPath id="SVGID_20_">
		<use xlink:href="#SVGID_19_"  style="overflow:visible;"/>
	</clipPath>
	
		<linearGradient id="SVGID_21_" gradientUnits="userSpaceOnUse" x1="-1490.0316" y1="1540.38" x2="-1480.8555" y2="1540.38" gradientTransform="matrix(2.0684 0 0 -2.0684 3224.9353 3487.3774)">
		<stop  offset="0" style="stop-color:#812CD3"/>
		<stop  offset="0.9996" style="stop-color:#4B2DD0"/>
		<stop  offset="1" style="stop-color:#4B2DD0"/>
	</linearGradient>
	<rect x="143" y="276" class="st6" width="19" height="50.6"/>
</g>
<g>
	<defs>
		<path id="SVGID_22_" d="M98.7,282.3c0,0.5,0,0.5-1.3,1.8c-1.9,1.9-5,5-5,10.8c0,5.8,3.1,8.9,5,10.8c1.3,1.3,1.3,1.4,1.3,1.9
			s0,0.5-1.3,1.9c-1.9,1.9-5,5-5,10.8c0,3.5,2.8,6.3,6.3,6.3s6.3-2.8,6.3-6.3c0-0.5,0-0.5,1.3-1.8c1.9-1.9,5-5,5-10.8
			c0-5.8-3.1-8.9-5-10.8c-1.3-1.3-1.3-1.4-1.3-1.9c0-0.5,0-0.5,1.3-1.9c1.9-1.9,5-5,5-10.8c0-3.5-2.8-6.3-6.3-6.3
			C101.5,276,98.7,278.8,98.7,282.3"/>
	</defs>
	<clipPath id="SVGID_23_">
		<use xlink:href="#SVGID_22_"  style="overflow:visible;"/>
	</clipPath>
	
		<linearGradient id="SVGID_24_" gradientUnits="userSpaceOnUse" x1="-1511.8263" y1="1540.38" x2="-1502.6539" y2="1540.38" gradientTransform="matrix(2.0684 0 0 -2.0684 3219.4197 3487.3774)">
		<stop  offset="0" style="stop-color:#812CD3"/>
		<stop  offset="0.9996" style="stop-color:#4B2DD0"/>
		<stop  offset="1" style="stop-color:#4B2DD0"/>
	</linearGradient>
	<rect x="92.4" y="276" class="st7" width="19" height="50.6"/>
</g>
<g>
	<defs>
		<path id="SVGID_25_" d="M301.1,282.3c0,0.5,0,0.5-1.3,1.8c-1.9,1.9-5,5-5,10.8c0,5.8,3.1,8.9,5,10.8c1.3,1.3,1.3,1.4,1.3,1.9
			s0,0.5-1.3,1.9c-1.9,1.9-5,5-5,10.8c0,3.5,2.8,6.3,6.3,6.3s6.3-2.8,6.3-6.3c0-0.5,0-0.5,1.3-1.8c1.9-1.9,5-5,5-10.8
			c0-5.8-3.1-8.9-5-10.8c-1.3-1.3-1.3-1.4-1.3-1.9c0-0.5,0-0.5,1.3-1.9c1.9-1.9,5-5,5-10.8c0-3.5-2.8-6.3-6.3-6.3
			C303.9,276,301.1,278.8,301.1,282.3"/>
	</defs>
	<clipPath id="SVGID_26_">
		<use xlink:href="#SVGID_25_"  style="overflow:visible;"/>
	</clipPath>
	
		<linearGradient id="SVGID_27_" gradientUnits="userSpaceOnUse" x1="-1424.6393" y1="1540.38" x2="-1415.4674" y2="1540.38" gradientTransform="matrix(2.0684 0 0 -2.0684 3241.4822 3487.3774)">
		<stop  offset="0" style="stop-color:#812CD3"/>
		<stop  offset="0.9996" style="stop-color:#4B2DD0"/>
		<stop  offset="1" style="stop-color:#4B2DD0"/>
	</linearGradient>
	<rect x="294.8" y="276" class="st8" width="19" height="50.6"/>
</g>
<g>
	<defs>
		<path id="SVGID_28_" d="M250.5,282.3c0,0.5,0,0.5-1.3,1.8c-1.9,1.9-5,5-5,10.8c0,5.8,3.2,8.9,5,10.8c1.3,1.3,1.3,1.4,1.3,1.9
			s0,0.5-1.3,1.9c-1.9,1.9-5,5-5,10.8c0,3.5,2.8,6.3,6.3,6.3c3.5,0,6.3-2.8,6.3-6.3c0-0.5,0-0.5,1.3-1.8c1.9-1.9,5-5,5-10.8
			c0-5.8-3.1-8.9-5-10.8c-1.3-1.3-1.3-1.4-1.3-1.9c0-0.5,0-0.5,1.3-1.9c1.9-1.9,5-5,5-10.8c0-3.5-2.8-6.3-6.3-6.3
			C253.3,276,250.5,278.8,250.5,282.3"/>
	</defs>
	<clipPath id="SVGID_29_">
		<use xlink:href="#SVGID_28_"  style="overflow:visible;"/>
	</clipPath>
	
		<linearGradient id="SVGID_30_" gradientUnits="userSpaceOnUse" x1="-1446.4387" y1="1540.38" x2="-1437.2615" y2="1540.38" gradientTransform="matrix(2.0684 0 0 -2.0684 3235.9666 3487.3774)">
		<stop  offset="0" style="stop-color:#812CD3"/>
		<stop  offset="0.9996" style="stop-color:#4B2DD0"/>
		<stop  offset="1" style="stop-color:#4B2DD0"/>
	</linearGradient>
	<rect x="244.2" y="276" class="st9" width="19" height="50.6"/>
</g>
</svg>
