<?xml version="1.0" encoding="utf-8"?>
<!-- Generator: Adobe Illustrator 23.1.1, SVG Export Plug-In . SVG Version: 6.00 Build 0)  -->
<svg version="1.1" id="Layer_1" xmlns="http://www.w3.org/2000/svg" xmlns:xlink="http://www.w3.org/1999/xlink" x="0px" y="0px"
	 viewBox="0 0 400 400" style="enable-background:new 0 0 400 400;" xml:space="preserve">
<style type="text/css">
	.st0{clip-path:url(#SVGID_2_);fill:url(#SVGID_3_);}
</style>
<g>
	<defs>
		<path id="SVGID_1_" d="M271.3,298.7c8.8,0,17.5-1,26-2.9c0,33.2,0.5,58.7,15,87.5H204.2c14.5-28.8,15-54.3,15-87.5
			c8.6,1.9,17.3,2.8,26,2.9H271.3z M82.5,272.1c-19.1-14.9-36.9-29-39.1-64.6h91.1c2.9,39,31.6,71.6,71.2,84.6
			c0,36.7,0,61.5-16.8,91.1h-66.1C134.6,313.5,108.1,292.2,82.5,272.1 M148,207.6h220.5c-3.8,43.6-46,78.1-97.2,78.1h-26
			C194,285.7,151.8,251.2,148,207.6 M154.1,181.5h221.3c3.6,0,6.5,2.9,6.5,6.5c0,3.6-2.9,6.5-6.5,6.5H154.1V181.5z M128.1,77.4h6.5
			c3.6,0,6.5,2.9,6.5,6.5c0,3.6-2.9,6.5-6.5,6.5h-6.5V77.4z M30.5,44.8h84.6v149.7H30.5V44.8z M17.4,18.8h110.7v13H17.4V18.8z
			 M10.9,5.8c-3.6,0-6.5,2.9-6.5,6.5v26c0,3.6,2.9,6.5,6.5,6.5h6.5V201c0,3.6,2.9,6.5,6.5,6.5h6.5c2.1,41.9,24.1,59.4,43.6,74.8
			c24.7,19.5,48,38,34.4,106.2c-0.7,3.5,1.6,7,5.1,7.7c0.5,0.1,1,0.1,1.5,0.1h208.3c3.6,0,6.5-2.9,6.5-6.5c0-1.2-0.3-2.3-0.9-3.3
			c-18.6-31-18.6-56.2-18.6-94.3c40-13,68.8-46.4,71.6-85.7c10.2-3.6,15.5-14.7,12-24.9c-2.8-7.8-10.2-13.1-18.5-13H147.6
			c-3.6,0-6.5,2.9-6.5,6.5v19.5h-13v-91.1h6.5c10.8,0,19.5-8.7,19.5-19.5s-8.8-19.5-19.5-19.5h-6.5V44.8h6.5c3.6,0,6.5-2.9,6.5-6.5
			v-26c0-3.6-2.9-6.5-6.5-6.5H10.9z"/>
	</defs>
	<clipPath id="SVGID_2_">
		<use xlink:href="#SVGID_1_"  style="overflow:visible;"/>
	</clipPath>
	
		<linearGradient id="SVGID_3_" gradientUnits="userSpaceOnUse" x1="-1163.0641" y1="2101.1594" x2="-1154.2133" y2="2101.1594" gradientTransform="matrix(44.1293 0 0 -44.1293 51329.5859 92923.6797)">
		<stop  offset="0" style="stop-color:#812CD3"/>
		<stop  offset="0.9996" style="stop-color:#4B2DD0"/>
		<stop  offset="1" style="stop-color:#4B2DD0"/>
	</linearGradient>
	<rect x="4.4" y="5.8" class="st0" width="393" height="390.6"/>
</g>
</svg>
