<?xml version="1.0" encoding="utf-8"?>
<!-- Generator: Adobe Illustrator 23.1.1, SVG Export Plug-In . SVG Version: 6.00 Build 0)  -->
<svg version="1.1" id="Layer_1" xmlns="http://www.w3.org/2000/svg" xmlns:xlink="http://www.w3.org/1999/xlink" x="0px" y="0px"
	 viewBox="0 0 400 400" style="enable-background:new 0 0 400 400;" xml:space="preserve">
<style type="text/css">
	.st0{fill:#4B2DD0;}
</style>
<g>
	<path class="st0" d="M267.5,122.6c5.6,0,11,0,16.3,0c20,0,33.5,13.5,33.5,33.5c0,24.8,0.1,49.7,0,74.5
		c-0.1,15.3-9.9,27.7-24.6,31.1c-2.6,0.6-5.4,0.8-8.1,0.9c-5.6,0.1-11.1,0-16.8,0c-0.1,0.6-0.3,1.1-0.3,1.7c0,9.5,0,19-0.1,28.5
		c0,1.6,0.6,2.2,2,2.8c8.3,3.3,12.9,11.6,11.3,19.9c-1.8,8.9-8.9,14.9-18,14.9c-45.1,0-90.3,0-135.4,0c-9,0-16.2-6.1-17.9-15
		c-1.6-8.1,3-16.4,11.2-19.7c1.7-0.7,2.2-1.5,2.2-3.2c0-60.3,0-120.6-0.1-180.9c0-1.3-0.8-2.9-1.7-3.8c-12.7-12.2-8.1-32.7,8.6-38.3
		c1.2-0.4,2.3-1.2,3.1-2.2c4.1-4.6,9.2-7.3,15.4-8c1.1-0.1,2.3-0.7,3-1.5c7-7.5,16.9-9.5,26.4-5.4c1,0.4,2.6,0.4,3.6,0
		c5.4-2.3,10.9-2.7,16.5-0.9c1.2,0.4,2.6,0.4,3.7,0c7.5-2.3,14.3-1.1,20.7,3.3c1,0.7,2.6,0.9,3.8,0.7c9-1.8,16.5,0.8,22.7,7.5
		c0.8,0.9,1.9,1.5,2.9,2c5,2.5,10.4,4.4,15.1,7.5c12.1,7.9,13.4,24.9,2.8,34.9c-1.4,1.4-2,2.7-1.9,4.6
		C267.6,115.4,267.5,118.9,267.5,122.6 M258.3,294.1V113.5c-4.3-0.9-7.2,0.5-9.1,4.5c-0.7,1.5-2.3,2.4-3.4,3.7
		c-0.6,0.8-1.1,1.9-1.1,2.8c0.3,4.2-0.4,8.2-2.1,12.1c-0.4,1-0.2,2.4,0,3.6c0.6,3,1.9,6,2,9c0.4,9.3-5.3,17.7-13.9,21.3
		c-8.4,3.5-18.3,1.5-24.8-5.1c-6.6-6.7-8.3-16.4-4.4-25.1c1.3-3,0.8-3.9-2.3-4.8c-2.4-0.7-4.8-1.6-7-2.9c-1.4-0.8-2.3-0.8-3.7,0.1
		c-9.4,5.7-20.8,4-28.4-4c-0.9-0.9-2.3-1.5-3.5-1.7c-6.6-0.9-12.3-3.6-15.9-9.2c-2.2-3.5-4.6-5-8.5-4.6c-0.2,0-0.3,0.1-0.6,0.2
		v180.6H258.3z M150.9,68.4c-5.1-0.2-9.2,1.8-12.1,6c-1.3,1.9-2.9,3-5.2,3.5c-7.5,1.7-12.2,8.6-10.6,15.8c1.6,7.5,8.5,12,16.1,10.5
		c3.9-0.8,5.6,0.2,6.8,4c2,6.5,7.2,10.2,14.1,9.9c2.5-0.1,4.3,0.7,5.8,2.7c5.4,7.7,14.2,8.6,21.1,2.1c2.7-2.6,4.9-2.6,7.6,0
		c2.8,2.8,6.1,4.3,10.1,4.2c2.4,0,3.8,1.2,4.7,3.3c0.6,1.5,1.1,3.1,2,4.3c1.9,2.6,1.8,4.8-0.1,7.4c-4.1,5.9-3,13.2,2.3,17.8
		c5.1,4.4,12.5,4.4,17.6,0c5.3-4.6,6.4-11.9,2.3-17.8c-1.8-2.6-2-4.8-0.1-7.4c2.5-3.5,3.1-7.3,1.9-11.5c-1.1-3.8-0.7-5,2.7-7
		c3.2-1.9,5.4-4.6,6.5-8.2c1.1-3.8,2.8-4.7,6.8-3.9c7.5,1.5,14.2-2.9,16-10.3c1.6-6.9-2.6-13.8-9.7-15.9c-1.5-0.4-2.8-1.4-4.3-2.1
		c-1.8-0.9-3.7-1.9-5.6-2.4c-2.2-0.6-3.8-1.6-5.2-3.5c-3.8-5.6-10.5-7.5-16.7-4.7c-3,1.4-5.1,0.8-7.2-1.5c-4.3-4.6-10-5.6-15.7-2.9
		c-2.1,1-4.1,1.1-6.2,0c-4.8-2.4-9.5-2-13.9,1.2c-2.4,1.7-4.5,1.6-7-0.1c-6.7-4.6-14.4-3.1-19,3.6C155.3,67.7,153.6,69,150.9,68.4
		 M195.3,303.3h-24.6c-14.4,0-28.8,0-43.3,0c-4.8,0-8.6,3.4-9.1,8c-0.5,4.5,2.5,8.8,7.1,9.8c1.3,0.3,2.6,0.2,3.9,0.2
		c43.9,0,87.9,0,131.8,0c0.8,0,1.7,0.1,2.5,0c3.8-0.4,6.5-2.3,7.9-5.9c2.3-6.1-2.2-12.1-9.2-12.1
		C239.9,303.2,217.6,303.3,195.3,303.3 M267.7,149.7v85.8c5.4,0,10.7,0,16,0c5.2,0,6.5-1.3,6.5-6.5v-72.8c0-0.6,0-1.3,0-2
		c-0.2-2.7-1.8-4.5-4.5-4.5C279.8,149.6,273.8,149.7,267.7,149.7 M267.7,253.6c6.2,0,12.2,0.1,18.2,0c12.4-0.2,22.3-10,22.3-22.4
		c0.1-25.8,0.1-51.5,0-77.3c0-10.9-7.7-20.3-18.5-21.7c-7.2-0.9-14.6-0.2-22-0.2v8.6c5.7,0,11.3,0,16.8,0c9,0,14.6,5.6,14.7,14.6
		c0,24.8,0,49.7,0,74.5c0,9.2-5.6,14.7-14.8,14.8c-5.5,0-11.1,0-16.7,0V253.6z"/>
	<path class="st0" d="M196,332.1c-23.4,0-46.1,0-68.6,0c-9.8,0-17.7-6.6-19.6-16.4c-1.7-9,3.4-18.1,12.2-21.7c1-0.4,1.1-0.5,1.1-1.6
		c0-23.5,0-46.9,0-70.4c0-36.8,0-73.7-0.1-110.5c0-0.8-0.5-1.9-1.1-2.5c-6.4-6.2-9.2-14.9-7.2-23.3c1.9-8.4,8.1-15.1,16.5-17.8
		c0.8-0.3,1.7-0.9,2.4-1.7c4.4-4.9,10-7.8,16.5-8.5c0.7-0.1,1.5-0.5,2-1c7.5-8,18.1-10.2,28.3-5.8c0.6,0.2,1.6,0.2,2.2,0
		c5.9-2.5,11.7-2.9,17.7-1c0.8,0.3,1.9,0.3,2.7,0c7.8-2.4,15.3-1.2,22.2,3.5c0.6,0.4,1.7,0.6,2.4,0.4c9.5-1.9,17.7,0.8,24.3,8
		c0.5,0.6,1.3,1.1,2.4,1.6c1.7,0.8,3.4,1.6,5.1,2.4c3.4,1.5,6.9,3.1,10.1,5.2c6.1,4,10,10.4,10.7,17.6c0.7,7.5-2.1,14.8-7.6,20
		c-1.1,1-1.5,1.9-1.4,3.3c0.1,2.5,0.1,4.9,0.1,7.4c0,0.5,0,1,0,1.5l3.9,0l10.7,0c21,0,35.2,14.2,35.2,35.2l0,18.8
		c0,18.3,0,37.2,0,55.8c-0.1,16-10.5,29.2-25.9,32.8c-2.9,0.7-5.9,0.8-8.5,0.9c-3.9,0.1-8,0.1-11.9,0.1c-1.2,0-2.3,0-3.5,0
		c0,3.1,0,6.1,0,9.2c0,6.3,0,12.8,0,19.2c0,0.7,0,0.8,0.9,1.1c9,3.6,14.1,12.8,12.3,21.8c-1.9,9.7-9.8,16.3-19.7,16.3
		C239.8,332.1,217.7,332.1,196,332.1 M167.9,52.1c-5.7,0-11.1,2.4-15.4,6.9c-1,1.1-2.6,1.9-4.1,2c-5.8,0.7-10.5,3.1-14.3,7.4
		c-1.1,1.2-2.5,2.2-3.9,2.6c-7.3,2.4-12.6,8.1-14.2,15.3c-1.6,7.2,0.7,14.7,6.2,20c1.3,1.2,2.2,3.3,2.2,5c0,36.9,0.1,73.7,0.1,110.6
		c0,23.5,0,46.9,0,70.4c0,2.5-0.9,3.9-3.3,4.9c-7.3,2.9-11.5,10.4-10.1,17.8c1.6,8.1,8.1,13.6,16.2,13.6c43.4,0,87.7,0,135.4,0
		c8.3,0,14.7-5.3,16.3-13.5c1.5-7.4-2.8-15-10.2-17.9c-1.6-0.7-3.1-1.6-3.1-4.4c0.1-6.4,0.1-12.9,0-19.2c0-3.1,0-6.2,0-9.3
		c0-0.5,0.1-1,0.2-1.4c0-0.2,0.1-0.3,0.1-0.5l0.2-1.4h1.5c1.7,0,3.3,0,5,0c4,0,7.9,0,11.8-0.1c2.4,0,5.2-0.2,7.8-0.8
		c13.8-3.3,23.2-15.1,23.2-29.5c0.1-18.6,0-37.5,0-55.7l0-18.8c0-19-12.8-31.8-31.7-31.8h-10.7h-7.3v-1.7c0-1.1,0-2.2,0-3.3
		c0-2.5,0-4.9-0.1-7.3c-0.1-2.4,0.6-4.2,2.5-5.9c4.7-4.5,7.1-10.8,6.5-17.2c-0.6-6.2-3.9-11.6-9.1-15c-3-1.9-6.2-3.4-9.7-4.9
		c-1.7-0.8-3.5-1.6-5.2-2.4c-1.5-0.8-2.6-1.5-3.4-2.4c-5.9-6.3-12.8-8.6-21.1-7c-1.7,0.3-3.7-0.1-5.1-1c-6.1-4.1-12.4-5.1-19.2-3
		c-1.5,0.5-3.2,0.4-4.8,0c-5.2-1.6-10.3-1.3-15.3,0.9c-1.5,0.6-3.6,0.7-5,0C173.9,52.7,170.8,52.1,167.9,52.1 M262.5,323.1
		c-0.3,0-0.5,0-0.8,0c-0.2,0-0.5,0-0.7,0h-10.1c-40.5,0-81.1,0-121.6,0h-0.4c-1.2,0-2.5,0-3.9-0.3c-5.3-1.2-9-6.3-8.4-11.7
		c0.6-5.5,5.2-9.5,10.9-9.5c10.5,0,20.9,0,31.4,0h36.5h18.4c16.2,0,32.4,0,48.6,0c4,0,7.7,1.8,9.7,4.9c1.9,2.8,2.3,6.3,1.1,9.6
		c-1.6,4.1-4.8,6.6-9.4,7C263.3,323.1,262.9,323.1,262.5,323.1 M261,319.6c0.3,0,0.5,0,0.8,0c0.6,0,1.1,0,1.6,0
		c3.2-0.3,5.3-1.9,6.5-4.8c0.9-2.2,0.6-4.5-0.7-6.4c-1.5-2.1-4-3.3-6.9-3.3c-16.2,0-32.4,0-48.6,0h-43l-11.9,0
		c-10.5,0-20.9,0-31.4,0c-3.9,0-7,2.7-7.4,6.4c-0.4,3.7,2.1,7.2,5.7,8c0.9,0.2,2,0.2,3.1,0.2h0.5c40.6,0,81.1,0,121.6,0H261z
		 M260.1,295.8H130.2V112.2l1.4-0.4c0.2-0.1,0.4-0.2,0.8-0.2c4.4-0.5,7.5,1.2,10.1,5.4c2.9,4.6,7.7,7.4,14.6,8.4
		c1.4,0.2,3.3,0.9,4.6,2.2c7,7.4,17.5,8.9,26.2,3.7c1.9-1.2,3.5-1.2,5.5-0.1c1.9,1.1,4.1,2,6.6,2.7c1.6,0.5,3.2,1.1,3.9,2.6
		c0.7,1.5,0.1,3.2-0.5,4.6c-3.6,7.9-2,17,4,23.1c5.9,6,15.1,8,22.9,4.7c8-3.3,13.2-11.2,12.9-19.6c-0.1-1.7-0.5-3.4-1.1-5.2
		c-0.3-1.1-0.7-2.3-0.9-3.5c-0.3-1.6-0.5-3.2,0.1-4.6c1.6-3.7,2.2-7.4,1.9-11.3c-0.1-1.7,0.9-3.4,1.4-4c0.5-0.7,1.1-1.2,1.7-1.7
		c0.6-0.6,1.2-1.1,1.5-1.7c2.1-4.7,5.8-6.5,11-5.4l1.4,0.3V295.8z M133.7,292.4h122.9V115c-2.7-0.2-4.5,0.9-5.7,3.7
		c-0.5,1.2-1.5,2-2.3,2.8c-0.5,0.4-0.9,0.9-1.3,1.3c-0.5,0.7-0.7,1.4-0.7,1.6c0.3,4.5-0.4,8.7-2.2,12.9c-0.3,0.6,0,2.1,0.1,2.6
		c0.2,1.1,0.5,2.1,0.8,3.2c0.6,2,1.1,4,1.2,6.1c0.4,9.9-5.6,19.1-15,23c-9,3.8-19.8,1.5-26.7-5.5c-7-7.2-8.9-17.8-4.7-27
		c0.6-1.3,0.5-1.7,0.5-1.7c0,0-0.3-0.3-1.7-0.7c-2.8-0.8-5.2-1.8-7.4-3c-0.9-0.5-1.1-0.5-2,0c-10.1,6.1-22.4,4.4-30.5-4.3
		c-0.5-0.5-1.6-1-2.5-1.2c-7.9-1.1-13.7-4.5-17.1-10c-1.7-2.7-3.3-3.8-5.8-3.8h0V292.4z M279.2,255.3c-1.9,0-3.7,0-5.7,0
		c-1.9,0-3.8,0-5.8,0H266v-12.5h6.9c3.9,0,7.7,0,11.5,0c8.3,0,13.1-4.8,13.1-13c0-24.8,0-49.7,0-74.5c0-8.1-4.8-12.9-12.9-12.9
		c-3.8,0-7.6,0-11.4,0H266v-12.1h1.7c2.2,0,4.6-0.1,6.8-0.1c5.1-0.2,10.3-0.3,15.4,0.3c11.4,1.4,20,11.5,20.1,23.4
		c0.1,26.5,0.1,52.5,0,77.3c-0.1,13.3-10.6,23.9-24,24.1C283.7,255.3,281.4,255.3,279.2,255.3 M269.4,251.8c1.4,0,2.7,0,4.1,0
		c4.3,0,8.3,0,12.4,0c11.5-0.2,20.6-9.3,20.6-20.6c0.1-24.8,0.1-50.9,0-77.3c0-10.1-7.4-18.7-17-19.9c-4.8-0.6-9.7-0.5-14.8-0.3
		c-1.7,0.1-3.4,0.1-5.2,0.1v5.2h3.7c3.8,0,7.6,0,11.4,0c9.9,0,16.4,6.4,16.4,16.3c0,24.8,0,49.7,0,74.5c0,10.2-6.3,16.5-16.5,16.5
		c-3.8,0-7.6,0-11.5,0l-3.5,0V251.8z M277.4,237.2h-4.8l-6.6,0V148h1.7c1.8,0,3.5,0,5.3,0c4.4,0,8.5,0,12.7,0
		c3.5,0.1,5.9,2.5,6.2,6.1c0,0.5,0,1,0,1.6v0.5V229c0,6.2-2.1,8.3-8.2,8.3C281.6,237.2,279.5,237.2,277.4,237.2 M269.5,233.8h3.2
		c3.7,0,7.4,0,11.1,0c4.2,0,4.7-0.5,4.7-4.8v-73.3c0-0.4,0-0.8,0-1.3c-0.1-1.3-0.7-2.9-2.8-2.9c-4.2-0.1-8.3-0.1-12.6,0
		c-1.2,0-2.4,0-3.6,0V233.8z M222.3,165c-3.5,0-7.1-1.2-9.9-3.7c-6.1-5.3-7.2-13.5-2.6-20.1c1.5-2.2,1.5-3.5,0.1-5.4
		c-0.9-1.2-1.4-2.6-1.9-3.9c-0.1-0.3-0.2-0.5-0.3-0.8c-0.7-1.6-1.5-2.3-3.1-2.2c-4.2,0.1-8.1-1.5-11.4-4.7c-2-2-3.1-2-5.2,0
		c-3.8,3.5-8.2,5.2-12.6,4.7c-4.3-0.5-8.3-3-11.2-7.1c-1.1-1.5-2.3-2.1-4.3-2c-7.6,0.3-13.5-3.8-15.8-11.1c-0.9-3-1.7-3.4-4.8-2.8
		c-8.6,1.7-16.3-3.3-18.1-11.8c-1.8-8.1,3.5-16,11.9-17.8c1.9-0.4,3.1-1.2,4.1-2.8c3.2-4.6,7.9-7,13.6-6.7l0.3,0
		c1.4,0.3,2.6,0,4.1-2.1c2.5-3.6,6-6,9.9-6.8c3.9-0.7,8,0.2,11.5,2.7c1.9,1.3,3.2,1.4,5,0.1c4.9-3.5,10.3-4,15.6-1.3
		c1.6,0.8,2.9,0.8,4.7,0c6.5-3.1,12.9-1.9,17.7,3.3c1.8,1.9,3,2.1,5.3,1.1c6.9-3.2,14.5-1.1,18.8,5.3c1,1.5,2.2,2.3,4.2,2.8
		c1.6,0.4,3,1.2,4.4,1.9c0.5,0.2,1,0.5,1.5,0.7c0.5,0.3,1.1,0.5,1.6,0.8c0.8,0.5,1.6,0.9,2.4,1.1c8.1,2.4,12.8,10.1,10.9,18
		c-2,8.4-9.5,13.3-18,11.6c-3.1-0.6-3.9-0.2-4.8,2.7c-1.2,3.9-3.6,7-7.2,9.2c-2.7,1.6-2.8,2-1.9,5c1.4,4.8,0.7,9.2-2.2,13
		c-1.4,1.9-1.4,3.3,0.1,5.4c4.6,6.6,3.5,14.9-2.6,20.1C229.3,163.7,225.8,165,222.3,165 M204.6,125.3c2.1,0,4.8,0.8,6.2,4.4
		c0.1,0.3,0.2,0.6,0.3,0.8c0.4,1.1,0.9,2.2,1.5,3.1c2.3,3.1,2.3,6.1,0,9.5c-3.5,5.1-2.7,11.4,2,15.5c4.4,3.8,10.9,3.8,15.4,0
		c4.7-4.1,5.5-10.4,2-15.5c-2.3-3.3-2.3-6.3,0-9.4c2.2-2.9,2.7-6.3,1.6-10c-1.3-4.6-0.6-6.5,3.5-8.9c2.9-1.7,4.8-4.1,5.7-7.2
		c1.4-4.6,3.9-6.1,8.8-5.1c6.6,1.3,12.4-2.5,14-9c1.4-6.1-2.3-12-8.5-13.9c-1.1-0.3-2.1-0.9-3.1-1.4c-0.5-0.3-0.9-0.5-1.4-0.7
		c-0.5-0.2-1-0.5-1.5-0.7c-1.3-0.6-2.5-1.3-3.8-1.6c-2.8-0.8-4.7-2.1-6.1-4.2c-3.4-5-9.1-6.6-14.5-4.1c-3.6,1.6-6.5,1-9.2-1.9
		c-3.8-4-8.7-4.9-13.7-2.5c-2.7,1.3-5.1,1.3-7.7,0c-4.2-2.1-8.2-1.8-12.1,1c-2.9,2.1-5.8,2.1-8.9-0.1c-2.9-2-6-2.7-9-2.1
		c-3,0.6-5.7,2.4-7.6,5.3c-1.3,1.9-3.5,4.3-7.5,3.6c-4.6-0.1-8,1.6-10.5,5.2c-1.5,2.3-3.5,3.6-6.2,4.2c-6.6,1.4-10.7,7.5-9.3,13.7
		c1.5,6.6,7.4,10.5,14.1,9.1c4.8-0.9,7.3,0.5,8.7,5.2c1.8,5.8,6.3,8.9,12.3,8.6c3.2-0.1,5.5,1,7.3,3.5c2.3,3.3,5.3,5.3,8.7,5.6
		c3.3,0.4,6.8-1,9.8-3.8c3.4-3.2,6.7-3.2,10,0.1c2.6,2.6,5.5,3.8,8.9,3.7H204.6z"/>
	<path class="st0" d="M140.8,230.7c0-13.5-0.1-27.1,0-40.6c0.1-6.6,4.9-12,11.4-13.1c6.1-1,12.4,2.5,14.7,8.5c0.6,1.7,1,3.7,1,5.5
		c0.1,26.7,0.1,53.4,0,80.1c0,8.1-6,14.2-13.7,14.1c-7.6-0.1-13.4-6.1-13.4-14.1C140.8,257.6,140.8,244.1,140.8,230.7 M158.9,231
		v-38.7c0-0.8,0.1-1.7-0.1-2.5c-0.5-2.4-2-3.9-4.4-3.9c-2.5,0-4,1.5-4.4,3.9c-0.2,0.9-0.1,1.9-0.1,2.8v76.8c0,0.9-0.1,1.9,0.1,2.8
		c0.4,2.4,1.9,3.9,4.4,3.9c2.5,0,4-1.5,4.4-3.9c0.2-0.8,0.1-1.7,0.1-2.5V231z"/>
	<path class="st0" d="M154.4,286.9c-0.1,0-0.1,0-0.2,0c-8.6-0.1-15.1-6.9-15.1-15.9c0-9.8,0-19.6,0-29.5v-10.9c0-4.1,0-8.3,0-12.4
		c0-9.2,0-18.8,0-28.2c0.1-7.3,5.5-13.6,12.9-14.8c7-1.2,14.1,2.9,16.6,9.6c0.7,1.9,1.1,4,1.1,6.1c0.1,24,0.1,50.2,0,80.1
		c0,4.5-1.7,8.6-4.6,11.5C162.2,285.4,158.5,286.9,154.4,286.9 M142.6,230.7v10.9c0,9.8,0,19.6,0,29.4c0,7,5,12.3,11.7,12.4
		c0,0,0.1,0,0.1,0c3.1,0,6.1-1.2,8.2-3.3c2.3-2.3,3.6-5.5,3.6-9.1c0-29.9,0-56.2,0-80.1c0-1.7-0.3-3.4-0.9-4.9
		c-1.9-5.1-7.4-8.3-12.7-7.4c-5.8,1-9.9,5.8-10,11.4c-0.1,9.4-0.1,19,0,28.2C142.6,222.4,142.6,226.5,142.6,230.7 M154.4,277.8
		c-3.2,0-5.5-2-6.2-5.3c-0.1-0.8-0.1-1.7-0.1-2.4c0-0.2,0-0.5,0-0.7v-76.8c0-0.2,0-0.5,0-0.7c0-0.7,0-1.6,0.1-2.4
		c0.6-3.3,2.9-5.3,6.2-5.3c3.2,0,5.5,2,6.2,5.3c0.1,0.8,0.1,1.6,0.1,2.2c0,0.2,0,0.4,0,0.6v46.4v30.9c0,0.2,0,0.4,0,0.6
		c0,0.7,0,1.4-0.1,2.2C159.9,275.8,157.6,277.8,154.4,277.8 M154.4,187.6L154.4,187.6c-1,0-2.3,0.3-2.7,2.5
		c-0.1,0.5-0.1,1.1-0.1,1.7c0,0.3,0,0.5,0,0.8v76.8c0,0.3,0,0.5,0,0.8c0,0.6,0,1.2,0.1,1.7c0.4,2.2,1.8,2.5,2.7,2.5
		c1,0,2.3-0.3,2.7-2.5c0.1-0.4,0.1-1,0.1-1.5c0-0.2,0-0.5,0-0.7v-46.4v-30.9c0-0.2,0-0.5,0-0.7c0-0.6,0-1.1-0.1-1.5
		C156.7,187.9,155.4,187.6,154.4,187.6"/>
	<path class="st0" d="M249.4,230.9c0,13.5,0,27.1,0,40.6c0,6-3.7,11.1-9.2,12.9c-5.3,1.8-11.4,0.3-14.7-4.3
		c-1.7-2.4-3.1-5.6-3.1-8.5c-0.2-27.1-0.2-54.2-0.1-81.3c0-7.7,6.1-13.7,13.6-13.6c7.5,0,13.4,6,13.5,13.8
		C249.5,204,249.4,217.5,249.4,230.9 M240.4,231v-38.4c0-0.8,0-1.7,0-2.5c-0.3-2.5-2.1-4.2-4.4-4.3c-2.3,0-4.2,1.7-4.5,4.2
		c-0.1,0.7,0,1.5,0,2.3v77.3c0,0.8-0.1,1.7,0.1,2.5c0.4,2.4,1.9,3.9,4.4,3.9c2.5,0,4-1.4,4.5-3.9c0.2-0.8,0.1-1.7,0.1-2.5V231z"/>
	<path class="st0" d="M235.7,286.9c-4.6,0-9-2.1-11.6-5.8c-2.1-3-3.4-6.6-3.4-9.5c-0.2-26.8-0.2-54-0.1-80.3v-0.9
		c0-4.2,1.6-8.1,4.5-10.9c2.9-2.9,6.8-4.4,10.9-4.4c8.5,0.1,15.1,6.9,15.2,15.5c0,9.6,0,19.3,0,28.7v11.7h-1.7h1.7v12
		c0,9.5,0,19.1,0,28.6c0,6.6-4.2,12.5-10.4,14.5C239.1,286.7,237.4,286.9,235.7,286.9 M235.9,178.5c-3.2,0-6.1,1.2-8.3,3.4
		c-2.2,2.2-3.5,5.2-3.5,8.5v0.9c-0.1,26.3-0.1,53.5,0.1,80.3c0,2.2,1.1,5.1,2.8,7.5c2.7,3.8,7.9,5.3,12.7,3.7c4.9-1.6,8-6.1,8-11.3
		c0-9.5,0-19,0-28.6v-12v-11.7c0-9.4,0-19.1,0-28.6C247.6,183.9,242.5,178.6,235.9,178.5L235.9,178.5z M235.9,277.8L235.9,277.8
		c-3.3,0-5.6-2-6.2-5.4c-0.1-0.8-0.1-1.5-0.1-2.2c0-0.2,0-0.4,0-0.6v-77.3l0-0.5c0-0.6,0-1.2,0.1-1.9c0.4-3.3,3-5.7,6.2-5.7h0.1
		c3.3,0,5.8,2.4,6.1,5.8c0.1,0.7,0.1,1.4,0.1,2.1v0.7v46.1v30.9c0,0.2,0,0.4,0,0.6c0,0.7,0,1.5-0.1,2.3
		C241.4,275.9,239.1,277.8,235.9,277.8 M235.9,187.6c-1.4,0-2.6,1.1-2.8,2.6c0,0.4,0,0.9,0,1.5l0,0.6v77.3c0,0.2,0,0.5,0,0.7
		c0,0.6,0,1.1,0,1.5c0.4,2.2,1.7,2.5,2.7,2.5c1,0,2.3-0.2,2.8-2.5c0.1-0.4,0.1-1,0.1-1.5c0-0.2,0-0.5,0-0.7v-48.3v-28.8v-0.7
		c0-0.6,0-1.1,0-1.7C238.5,188.7,237.4,187.6,235.9,187.6L235.9,187.6z"/>
	<path class="st0" d="M200,400C89.7,400,0,310.3,0,200C0,89.7,89.7,0,200,0c110.3,0,200,89.7,200,200C400,310.3,310.3,400,200,400
		 M200,19.7c-99.4,0-180.3,80.9-180.3,180.4c0,99.4,80.9,180.3,180.3,180.3c99.5,0,180.3-80.9,180.3-180.3
		C380.3,100.6,299.4,19.7,200,19.7"/>
	
		<rect x="193.7" y="7" transform="matrix(0.7071 -0.7071 0.7071 0.7071 -79.3709 203.8824)" class="st0" width="25.4" height="381.6"/>
	<path class="st0" d="M332.3,344.1L60.1,71.8l20.4-20.4l272.3,272.3L332.3,344.1z M65,71.8l267.3,267.4l15.5-15.5L80.5,56.3L65,71.8
		z"/>
</g>
</svg>
