<?xml version="1.0" encoding="utf-8"?>
<!-- Generator: Adobe Illustrator 24.2.1, SVG Export Plug-In . SVG Version: 6.00 Build 0)  -->
<svg version="1.1" id="Layer_1" xmlns="http://www.w3.org/2000/svg" xmlns:xlink="http://www.w3.org/1999/xlink" x="0px" y="0px"
	 viewBox="0 0 400 400" style="enable-background:new 0 0 400 400;" xml:space="preserve">
<style type="text/css">
	.st0{fill:url(#SVGID_1_);}
	.st1{fill:url(#SVGID_2_);}
	.st2{fill:url(#SVGID_3_);}
	.st3{fill:url(#SVGID_4_);}
	.st4{fill:url(#SVGID_5_);}
</style>
<g>
	<linearGradient id="SVGID_1_" gradientUnits="userSpaceOnUse" x1="90.5942" y1="115.8047" x2="340.1844" y2="131.4041">
		<stop  offset="0" style="stop-color:#812CD3"/>
		<stop  offset="0.9996" style="stop-color:#4B2DD0"/>
	</linearGradient>
	<path class="st0" d="M400,195.4c-2,3.6-4.9,4.8-9,4.7c-25.9-0.1-51.8,0-77.7-0.1c-2.7,0-4.6,0.6-6.5,2.6c-3.8,4.1-7.8,8-11.8,11.9
		c-9.1,8.9-20.8,9-29.8,0.1c-1.7-1.6-3.2-3.4-4.9-5.2c-1.3,1.2-2.3,2.1-3.2,3c-11.7,11.7-23.4,23.3-35.1,35
		c-9.6,9.5-21.1,9.5-30.6,0c-13-12.9-26-25.9-38.9-38.9c-9.4-9.4-9.4-20.9,0-30.3c12.6-12.6,25.2-25.2,38.9-38.8
		c-2.1-1.6-4.2-2.8-5.9-4.6c-8.8-8.8-8.8-20.6,0-29.4c13.1-13.2,26.3-26.3,39.5-39.4c9.2-9.1,21.2-9,30.5,0.2
		c3.7,3.6,7.3,7.4,11.2,11.3c1.2-1.2,2.3-2.1,3.2-3.1c23.4-23.3,46.8-46.7,70.1-70C345.4-1,348-1,353.6,4.5
		c14.1,14,28.2,28.1,42.2,42.2c1.4,1.4,2.8,3,4.2,4.4c0,1.6,0,3.1,0,4.7c-1.5,1.7-3,3.6-4.6,5.2c-20.8,20.8-41.6,41.5-62.4,62.3
		c-1,1-1.8,2-3.3,3.6c2.2,0,3.6,0,5,0c18.7,0,37.5,0.1,56.2-0.1c4.1,0,7,1.2,9.1,4.7C400,152.7,400,174,400,195.4z M383,53.7
		c-12.1-12-24.4-24.3-36.4-36.2c-23.1,23-46.4,46.3-69.4,69.2c12,12,24.3,24.3,36.3,36.3C336.6,100,359.9,76.7,383,53.7z
		 M240.2,71.7c-2.3,1.5-4.4,2.5-6,4c-13,12.8-25.8,25.7-38.7,38.5c-4.4,4.4-4.5,7.5,0,12c9.4,9.4,18.8,18.8,28.2,28.1
		c16.8,16.7,33.5,33.5,50.3,50.2c4.1,4.1,7.6,4.6,11.2,1c13.6-13.4,27.1-27,40.6-40.5c3-3,2.9-6.6,0-9.7c-1.7-1.9-3.7-3.7-5.5-5.5
		c-24.6-24.5-49.1-49.1-73.8-73.6C244.7,74.5,242.5,73.3,240.2,71.7z M322.7,186.4c22.1,0,43,0,63.7,0c0-15.6,0-30.8,0-46.1
		c-18.8,0-37.4,0-55.9,0c-0.3,0.3-0.5,0.7-0.8,1c1.5,1.2,3.1,2.2,4.5,3.6c9.3,9.4,9.4,20.9,0.1,30.3
		C330.7,178.8,327,182.3,322.7,186.4z M249.8,200.7c-17-17-33.6-33.6-50.4-50.4c-12.7,12.6-25.7,25.5-38.6,38.5
		c-2.8,2.9-2.7,6.4,0.2,9.4c13.5,13.6,27.2,27.2,40.8,40.7c2.9,2.8,6.6,3,9.4,0.2C224.3,226.3,237.2,213.3,249.8,200.7z"/>
	<linearGradient id="SVGID_2_" gradientUnits="userSpaceOnUse" x1="79.0937" y1="299.8126" x2="328.6839" y2="315.412">
		<stop  offset="0" style="stop-color:#812CD3"/>
		<stop  offset="0.9996" style="stop-color:#4B2DD0"/>
	</linearGradient>
	<path class="st1" d="M0,344.3c4.6-4.8,9.1-9.6,13.7-14.3c7.7-7.8,15.4-15.4,24-24c-2.3-2-4.6-3.6-6.6-5.7c-7.6-8-7.8-19.6-0.1-27.4
		c23.3-23.6,46.9-47,70.4-70.4c3.6-3.6,7-3.5,10.9,0.4c7.1,6.9,14,14,21,20.9c20.9,20.9,41.8,41.7,62.7,62.6
		c5.4,5.4,5.4,8.1,0.1,13.4c-22.4,22.3-44.7,44.7-67.1,67c-9.9,9.9-21.3,10-31.2,0.1c-1.4-1.4-2.5-3-4-4.8c-1.6,1.5-2.6,2.4-3.6,3.4
		c-9.9,9.8-19.7,19.7-29.6,29.5c-1.6,1.6-3.5,3.1-5.2,4.6c-1.6,0-3.1,0-4.7,0C33.9,382.8,16.9,365.9,0,349C0,347.4,0,345.8,0,344.3z
		 M183.3,293.7c-25.8-25.7-51.4-51.3-77.4-77.2c-0.3,0.4-0.8,1.2-1.5,1.9c-20.7,20.7-41.4,41.3-62.1,62c-4.8,4.7-4.7,7.7,0.1,12.5
		c21.4,21.4,42.9,42.8,64.3,64.2c5.1,5.1,8,5.1,13.1-0.1c20.4-20.4,40.9-40.8,61.3-61.2C182.1,295,182.8,294.1,183.3,293.7z
		 M82.9,353.4c-12.2-12.2-24.4-24.4-36.5-36.5c-9.7,9.7-19.7,19.7-29.5,29.4c12.1,12.1,24.4,24.3,36.5,36.4
		C63.2,373,73.2,363,82.9,353.4z"/>
	<linearGradient id="SVGID_3_" gradientUnits="userSpaceOnUse" x1="89.735" y1="129.5518" x2="339.3252" y2="145.1512">
		<stop  offset="0" style="stop-color:#812CD3"/>
		<stop  offset="0.9996" style="stop-color:#4B2DD0"/>
	</linearGradient>
	<path class="st2" d="M307.2,160.1c-1.1,1.9-1.7,3.8-3,5.1c-6.2,6.4-12.6,12.8-19,19c-3.5,3.4-6.9,3.4-10.3,0.1
		c-19.7-19.6-39.4-39.3-59.1-59c-3.4-3.4-3.4-6.8-0.1-10.3c6.3-6.4,12.6-12.7,19-19c3.4-3.3,7-3.4,10.3-0.1
		c19.7,19.6,39.4,39.3,59.1,59C305.5,156.2,306.1,158.2,307.2,160.1z M230.5,119.9c16.6,16.6,33.3,33.3,49.4,49.4
		c3.2-3,6.6-6.2,9.9-9.3c-16.6-16.6-33.2-33.2-49.8-49.7C236.8,113.6,233.5,116.9,230.5,119.9z"/>
	<linearGradient id="SVGID_4_" gradientUnits="userSpaceOnUse" x1="85.9952" y1="189.3892" x2="335.5854" y2="204.9886">
		<stop  offset="0" style="stop-color:#812CD3"/>
		<stop  offset="0.9996" style="stop-color:#4B2DD0"/>
	</linearGradient>
	<path class="st3" d="M233.8,200.1c-1,1.9-1.6,3.7-2.8,4.9c-6.3,6.5-12.8,13-19.3,19.3c-3.4,3.3-6.9,3.3-10.3-0.1
		c-8.6-8.5-17.2-17-25.7-25.6c-3.4-3.4-3.4-6.9-0.1-10.3c6.3-6.4,12.6-12.7,19-19c3.4-3.3,7-3.5,10.3-0.2
		c8.7,8.5,17.4,17.2,25.9,25.9C232.2,196.3,232.8,198.3,233.8,200.1z M189.8,193.2c5.8,5.7,11.4,11.2,16.5,16.3
		c3.3-3.2,6.7-6.6,9.7-9.4c-5.4-5.4-11-10.9-16.6-16.5C196.5,186.6,193.2,189.8,189.8,193.2z"/>
	<linearGradient id="SVGID_5_" gradientUnits="userSpaceOnUse" x1="79.8484" y1="287.7379" x2="329.4386" y2="303.3373">
		<stop  offset="0" style="stop-color:#812CD3"/>
		<stop  offset="0.9996" style="stop-color:#4B2DD0"/>
	</linearGradient>
	<path class="st4" d="M106.7,232.7c1.9,1.2,4,1.9,5.3,3.2c17.5,17.3,34.9,34.7,52.2,52.1c3.3,3.3,3.4,7,0.1,10.3
		c-15.2,15.3-30.5,30.5-45.8,45.7c-3.4,3.3-6.9,3.3-10.3-0.1c-17.4-17.3-34.8-34.7-52.2-52.1c-3.5-3.6-3.6-7.1-0.1-10.6
		c15.1-15.2,30.3-30.4,45.6-45.4C102.7,234.6,104.6,233.9,106.7,232.7z M107.1,250.5c-12.3,12.2-24.6,24.4-36.5,36.2
		c14.1,14.1,28.5,28.5,42.5,42.6c12.1-12.1,24.4-24.3,36.5-36.5C135.5,278.8,121.1,264.4,107.1,250.5z"/>
</g>
</svg>
