<?xml version="1.0" encoding="utf-8"?>
<!-- Generator: Adobe Illustrator 24.2.1, SVG Export Plug-In . SVG Version: 6.00 Build 0)  -->
<svg version="1.1" id="Layer_1" xmlns="http://www.w3.org/2000/svg" xmlns:xlink="http://www.w3.org/1999/xlink" x="0px" y="0px"
	 viewBox="0 0 400 400" style="enable-background:new 0 0 400 400;" xml:space="preserve">
<style type="text/css">
	.st0{fill:url(#SVGID_1_);}
	.st1{fill:url(#SVGID_2_);}
	.st2{fill:url(#SVGID_3_);}
	.st3{fill:url(#SVGID_4_);}
	.st4{fill:url(#SVGID_5_);}
</style>
<g>
	<linearGradient id="SVGID_1_" gradientUnits="userSpaceOnUse" x1="67.8785" y1="10.9798" x2="329.4799" y2="4.896">
		<stop  offset="0" style="stop-color:#812CD3"/>
		<stop  offset="0.9996" style="stop-color:#4B2DD0"/>
	</linearGradient>
	<path class="st0" d="M193.5,7.7c0.1-4.3,3.5-7.7,7.7-7.6c4.2,0,7.7,3.5,7.7,7.7c0,4.4-3.7,8-8,7.8C196.7,15.5,193.5,12,193.5,7.7z"
		/>
	<linearGradient id="SVGID_2_" gradientUnits="userSpaceOnUse" x1="74.4119" y1="291.9182" x2="336.0133" y2="285.8345">
		<stop  offset="0" style="stop-color:#812CD3"/>
		<stop  offset="0.9996" style="stop-color:#4B2DD0"/>
	</linearGradient>
	<path class="st1" d="M200.4,265.6c12.9,0,25.7,0,38.6,0c6.7,0,9.4,2.8,9.4,9.5c0,9.4,0,18.7,0,28.1c0,6.4-2.9,9.3-9.3,9.3
		c-26,0-52,0-78,0c-6.6,0-9.5-2.9-9.5-9.6c0-9.2,0-18.5,0-27.7c0-6.9,2.8-9.6,9.8-9.6C174.4,265.6,187.4,265.6,200.4,265.6z
		 M167.4,296.5c22,0,43.6,0,65.2,0c0-5.2,0-10.1,0-15.1c-21.8,0-43.4,0-65.2,0C167.4,286.5,167.4,291.4,167.4,296.5z"/>
	<linearGradient id="SVGID_3_" gradientUnits="userSpaceOnUse" x1="74.3631" y1="289.8163" x2="335.9644" y2="283.7326">
		<stop  offset="0" style="stop-color:#812CD3"/>
		<stop  offset="0.9996" style="stop-color:#4B2DD0"/>
	</linearGradient>
	<path class="st2" d="M109.4,265.6c12.9,0,23.4,10.4,23.4,23.3c0,13-10.6,23.7-23.6,23.6c-12.8-0.1-23.3-10.7-23.3-23.5
		C86,276,96.5,265.6,109.4,265.6z M117.2,288.8c-0.1-4.4-3.7-7.8-8.1-7.6c-4.2,0.2-7.5,3.7-7.5,7.9c0.1,4.1,3.6,7.6,7.7,7.7
		C113.6,296.8,117.2,293.1,117.2,288.8z"/>
	<linearGradient id="SVGID_4_" gradientUnits="userSpaceOnUse" x1="74.461" y1="294.0272" x2="336.0623" y2="287.9435">
		<stop  offset="0" style="stop-color:#812CD3"/>
		<stop  offset="0.9996" style="stop-color:#4B2DD0"/>
	</linearGradient>
	<path class="st3" d="M290.5,265.6c12.9,0,23.4,10.3,23.5,23.2c0.1,13-10.6,23.7-23.5,23.6c-12.8-0.1-23.3-10.6-23.3-23.5
		C267.2,276.1,277.6,265.6,290.5,265.6z M298.4,289c0-4.2-3.4-7.7-7.5-7.8c-4.4-0.1-8,3.3-8,7.7c0,4.1,3.4,7.7,7.5,7.9
		C294.5,296.9,298.3,293.3,298.4,289z"/>
	<linearGradient id="SVGID_5_" gradientUnits="userSpaceOnUse" x1="72.342" y1="202.9107" x2="333.9434" y2="196.8269">
		<stop  offset="0" style="stop-color:#812CD3"/>
		<stop  offset="0.9996" style="stop-color:#4B2DD0"/>
	</linearGradient>
	<path class="st4" d="M400,98.4c0-9.9-4.4-17.3-13.2-21.7c-2-1-2.5-2.2-2.4-4.2c0.1-5.9,0.1-11.7,0-17.6c-0.1-13.7-9-22.8-22.7-22.8
		c-4,0-8,0-12.1,0c-0.8-2.5-1.4-4.9-2.3-7.2c-5.8-14.9-19.9-24.7-36-24.8c-25.1-0.1-50.3-0.1-75.4,0c-5.4,0-8.9,3.1-9,7.7
		c-0.1,4.7,3.6,7.9,9.1,7.9c24.3,0,48.7,0,73,0c15.6,0,25.3,9.7,25.3,25.3c0,7,0,14,0,21.3c-25,0-49.8,0-75,0c0-7.1,0-14.1,0-21.1
		c0-7.2-2.7-9.9-9.9-9.9c-32.9,0-65.9,0-98.8,0c-7.4,0-10,2.6-10,10.2c0,6.9,0,13.7,0,20.8c-25,0-49.7,0-75.4,0
		c0.5-10.1,0.1-20.3,1.9-30.1c1.8-10.1,11.7-16.5,22.4-16.5c25.1-0.1,50.3,0,75.4,0c1.3,0,2.6,0.1,3.9-0.1c4-0.6,6.7-4,6.5-8
		c-0.1-3.8-2.9-6.9-6.8-7.4c-1.3-0.2-2.6-0.1-3.9-0.1c-24.2,0-48.4,0-72.6,0c-21.1,0-34.8,10.2-40.9,30.4c-0.1,0.5-0.4,0.9-0.6,1.6
		c-4.4,0-8.8,0-13.3,0C25,32.3,15.8,41.5,15.6,53.7c-0.1,6.4,0,12.8-0.1,19.1c0,1-0.3,2.7-1,3C6.8,79.1,2.7,85.4,0,93
		c0,12.8,0,25.5,0,38.3c0.5,1.3,1.1,2.6,1.6,3.9c4,10.5,15,16.7,26,14.7c10.6-1.9,19-11.2,19.2-22.1c0.2-10.4,0.3-20.8,0-31.2
		c-0.3-9-4.9-15.8-13-19.9c-1.9-1-2.6-2-2.6-4.1c0.1-6,0-12,0.1-18c0-4.8,2.1-6.9,6.9-6.9c3.8-0.1,7.5,0,11.9,0c0,1.8,0,3.4,0,5.1
		c0,84,0,167.9,0,251.9c0,16.2,6.6,28.6,20.7,36.8c1,0.6,1.9,2.4,1.9,3.6c0.2,7.7,0.1,15.4,0.1,23c0,16.3,8.2,26.9,24,31.2
		c0.3,0.1,0.6,0.4,0.9,0.6c3.1,0,6.2,0,9.4,0c2.6-0.9,5.3-1.5,7.7-2.7c11-5.4,17-14.2,17.4-26.6c0.2-8,0-16.1,0-24.4
		c45.4,0,90.5,0,135.9,0c0,7,0,13.8,0,20.7c0,17.6,7.4,27.5,24.4,32.5c0.2,0.1,0.4,0.3,0.6,0.5c3.1,0,6.2,0,9.4,0
		c1.8-0.6,3.7-1.1,5.5-1.8c11.4-4.1,19.3-15,19.5-27.2c0.1-8.6,0-17.2,0.1-25.8c0-1.3,1-3.2,2.1-3.9c13.7-8.2,20.4-20.3,20.4-36.2
		c0-84,0-167.9,0-251.9c0-1.7,0-3.4,0-5.5c4.8,0,9.5-0.3,14.1,0.1c2.9,0.2,4.6,2.5,4.7,5.4c0.1,6.8,0.1,13.5,0,20.3
		c0,0.9-1.1,2.2-2,2.7c-9.1,4.7-13.5,12.2-13.5,22.4c0,9.1,0,18.2,0,27.3c0.1,13.7,10.2,24,23.4,24c13.2,0,23.3-10.3,23.4-24
		C400,116.9,400,107.6,400,98.4z M31.2,98.8c0,4.5,0,9.1,0,13.6c0,4.5,0.1,9.1,0,13.6c-0.1,5.2-3.1,8.4-7.7,8.5
		c-4.8,0.1-7.9-3.3-7.9-8.6c-0.1-9.1-0.1-18.2,0-27.3c0-5.3,3.2-8.8,7.9-8.7C28.2,89.9,31.2,93.4,31.2,98.8z M156.6,47.2
		c28.8,0,57.7,0,87,0c0,5.1,0,10,0,15.1c-29,0-57.8,0-87,0C156.6,57.5,156.6,52.5,156.6,47.2z M65.9,78.4c34.7,0,69,0,102.9,0
		l23.4-0.2v20l-0.1,0.1c0,44.2,0,88.7,0,133.4c-23.3,0-46.4,0-70.3,0c1.4-1.5,2.3-2.5,3.3-3.4c10.6-10.6,21.2-21.2,31.7-31.8
		c1.1-1.1,2.2-2.2,3.1-3.5c2.1-3,1.6-7.1-1-9.7c-2.5-2.5-6.7-3.1-9.7-1c-1.3,0.9-2.4,2-3.5,3.1c-14.6,14.6-29.3,29.3-43.9,43.9
		c-3.8,3.8-6.3,3.7-10.2-0.1c-5.4-5.3-10.8-10.7-16-15.9l0,0c-1.7-1.7-3.3-3.3-5-5c0,0,0,0,0,0l-4.3-4.3v-16
		c-0.1,0.1-0.3,0.3-0.4,0.4C65.9,152.2,65.9,115.4,65.9,78.4z M116.2,372.7c-0.4,6.7-7.1,11.7-14,11.6c-7.1-0.1-13.3-5.6-13.7-12.9
		c-0.4-8.3-0.1-16.6-0.1-25.2c9.5,0,18.6,0,27.9,0C116.3,355.2,116.7,364,116.2,372.7z M311.7,370.6c-0.2,7.5-6,13.4-13.3,13.7
		c-7.3,0.4-14.1-4.9-14.6-12.3c-0.5-8.5-0.1-17.1-0.1-25.8c9.3,0,18.4,0,28,0c0,4.7,0,9.4,0,14.2
		C311.7,363.8,311.8,367.2,311.7,370.6z M334.3,306.2c-0.1,14.1-10.1,24.2-24.1,24.2c-73.6,0-147.1,0-220.7,0
		c-13.1,0-23.6-9.7-23.8-22.5c-0.3-27.1-0.1-54.1-0.1-81.9c1.1,0.8,1.9,1.3,2.5,2c5.4,5.3,10.5,10.9,16.1,15.9
		c2.1,1.9,5.4,3.5,8.2,3.5c71.6,0.2,143.2,0.2,214.8,0c2.8,0,6.1-1.5,8.2-3.4c6.2-5.7,12-11.8,17.9-17.8c0.3,0.2,0.6,0.3,0.8,0.5
		c0,17.9,0,35.9,0,53.8C334.3,289,334.4,297.6,334.3,306.2z M334.7,200.1l-0.5,0.1c-0.1,1.9-1.1,4.1-2.4,5.5
		c-7.8,8.2-15.9,16.1-24,24c-1.1,1.1-2.8,2.1-4.3,2.1c-31.5,0.1-63,0.1-94.5,0c-0.2,0-0.5-0.1-1.3-0.4c0-1.8,0-3.6,0-5.4l0,0V82
		l0.3-0.2c0-1.2,0-2.4,0-3.6c2.5,0,4.9,0,7.4,0c12.9,0,25.8,0,39,0H279c0.6-0.1,1.3-0.2,2.1-0.2c13.7,0.1,27.3,0.1,40.1,0.1
		c0,0-0.1,0.1-0.1,0.1h13.6V200.1z M384.3,126.5c-0.1,4.8-3.3,8-7.8,8c-4.5,0-7.7-3.1-7.8-8c-0.1-4.8,0-9.6,0-14.4
		c0-4.7-0.1-9.4,0-14c0.1-5,3.4-8.3,8-8.2c4.4,0.1,7.6,3.4,7.6,8.2C384.4,107.6,384.4,117,384.3,126.5z"/>
</g>
</svg>
