<?xml version="1.0" encoding="utf-8"?>
<!-- Generator: Adobe Illustrator 23.1.1, SVG Export Plug-In . SVG Version: 6.00 Build 0)  -->
<svg version="1.1" id="Layer_1" xmlns="http://www.w3.org/2000/svg" xmlns:xlink="http://www.w3.org/1999/xlink" x="0px" y="0px"
	 viewBox="0 0 400 400" style="enable-background:new 0 0 400 400;" xml:space="preserve">
<style type="text/css">
	.st0{fill:#4B2DD0;}
</style>
<g>
	<path class="st0" d="M327.2,374.2c0,5.9,0,11.1,0,16.4c0,7.3-2.1,9.4-9.5,9.4c-64.4,0-128.8,0-193.2,0c-23,0-46,0-69,0
		c-7.3,0-9.4-2.1-9.4-9.4V36.1c0-7.4,2-9.3,9.5-9.4c5.6,0,11.1,0,17.3,0c0-6.1,0-12,0-17.9C72.8,2.2,75,0,81.6,0
		c88,0.3,175.9,0.6,263.9,0.9c6,0,8.4,2.4,8.4,8.3c0,118.9,0,237.7,0,356.6c0,6-2.4,8.3-8.3,8.4
		C339.6,374.2,333.7,374.2,327.2,374.2 M59.8,40.3v346.1h253.7V106.9c-19.5,0-38.8,0-58,0c-6.3,0-8.6-2.3-8.6-8.5
		c0-17.8,0-35.6,0-53.4v-4.7H59.8z M86.4,26.7h5.4c53,0,106,0,158.9-0.1c3.9,0,6.8,1.2,9.6,4C281.1,51.6,302,72.4,323,93.2
		c3,3,4.2,6.1,4.2,10.3c-0.1,83.9-0.1,167.8-0.1,251.8v5.2h13.2V14H86.4V26.7z M260.4,93.3h41.8c-13.8-13.8-28-27.9-41.8-41.7V93.3z
		"/>
	<path class="st0" d="M179.9,113.6c10.6,0,21.2,0.1,31.8-0.1c4.2-0.1,6.8,1.6,8.5,5.3c3.2,6.7,6.4,13.3,10,19.7
		c0.8,1.5,2.6,2.9,4.2,3.3c6.4,1.9,12.9,3.3,19.4,5c5,1.3,6.5,3.2,6.5,8.2c0,8.1,0.1,16.1,0,24.2c0,5.2-2.5,7.7-7.6,7.8
		c-1.3,0-2.5,0.1-3.8,0c-5.6-0.4-9.7,0.2-13.7,5.9c-8,11.5-25.6,9.4-32.5-3c-1.3-2.3-2.5-3.1-5.1-3c-9.5,0.2-18.9,0.1-28.4,0
		c-2.5,0-3.9,0.5-5.2,2.9c-3.6,6.8-9.6,10.4-17.3,10.4c-7.9,0.1-14-3.6-17.7-10.5c-1.2-2.3-2.5-2.9-4.8-2.8c-3.6,0.2-7.2,0.1-10.9,0
		c-4.2-0.2-6.8-2.6-6.9-6.8c-0.1-8.8,0-17.5,0-26.3c0-3.3,1.7-5.5,4.8-6.6c0.5-0.2,1-0.4,1.6-0.5c12.2-1.8,18.8-9.2,23.5-20.3
		c6.4-15,4.2-12.8,20.3-12.9C164.3,113.5,172.1,113.6,179.9,113.6 M119.7,173.8c3.3-0.9,6.8,1.9,9-2.5c3.6-7,9.6-10.8,17.5-10.8
		c8.1-0.1,14,3.8,18.1,10.8c0.7,1.2,2.6,2.4,4,2.4c9.6,0.2,19.2,0,28.9,0.2c2.6,0,4.1-0.6,5.5-3.1c7.3-13.1,26.2-14,33.9-1.2
		c2.9,4.8,5.9,4.6,10.1,3.9v-14.4c-10.9-2.9-21.5-5.7-32.9-5.4c-23.3,0.5-46.6,0.4-69.8,0c-7.7-0.1-14.9,1.5-21.9,4.3
		c-0.9,0.4-2.2,1.5-2.3,2.3C119.6,164.5,119.7,168.9,119.7,173.8 M173,140.1v-13.2c-7,0-13.8,0-20.5,0c-0.8,0-2.1,0.5-2.4,1.1
		c-2.1,3.8-3.9,7.8-6,12H173z M215.9,140.2c-2.1-4.3-3.9-8-5.9-11.7c-0.4-0.7-1.4-1.5-2.1-1.5c-7-0.1-14-0.1-20.9-0.1v13.2H215.9z
		 M146.4,173.7c-3.6,0-6.6,3-6.6,6.6c0,3.6,2.9,6.6,6.5,6.7c3.7,0.1,6.9-3,6.9-6.8C153.1,176.7,150,173.7,146.4,173.7 M219.9,187
		c3.6,0.1,6.7-2.8,6.9-6.4c0.2-3.7-2.9-7-6.7-6.9c-3.6,0-6.6,3-6.6,6.6C213.4,183.9,216.3,186.9,219.9,187"/>
	<path class="st0" d="M223.3,298.2c4-3,7.9-5.9,11.8-8.8c4-2.9,7.8-2.7,10.3,0.6c2.5,3.3,1.7,7-2.3,10.1c-3.5,2.7-7,5.5-10.7,8
		c-2,1.4-2.1,2.7-1.4,4.8c8.2,25.9-6.4,52.9-32.2,59.6c-26.2,6.8-52-9.2-57.8-35.7c-4.4-20,5.6-41,23.9-50.6
		c18.6-9.7,41.4-6,55.7,9.1C221.5,296.2,222.3,297.1,223.3,298.2 M212.4,306.4c-10.7-13.4-30-16.3-44.2-6.9
		c-14.5,9.7-19.3,28.5-10.9,43.8c8.3,15.2,26.9,21.6,42.8,14.6c15.2-6.6,23.6-24.2,18.5-39.1c-1.2,0.8-2.3,1.5-3.4,2.3
		c-7.8,5.8-15.6,11.7-23.4,17.5c-4.2,3.1-7,2.9-10.7-0.7c-3.9-3.8-7.7-7.6-11.5-11.5c-3.5-3.6-3.8-7.4-1-10.3c2.9-3,6.9-2.7,10.6,1
		c2.6,2.7,5.1,5.5,7.8,8.4C195.7,318.9,204.1,312.6,212.4,306.4"/>
	<path class="st0" d="M149.4,233.9c-16.2,0-32.4,0-48.5,0c-4.6,0-7.4-2.2-7.9-5.8c-0.6-4.2,2.6-7.4,7.5-7.5c7.7-0.1,15.3,0,23,0
		c24.8,0,49.6,0,74.5,0.1c2.1,0,5,0.3,6.1,1.7c1.5,1.7,2.4,4.7,2.1,7c-0.5,3.4-3.5,4.7-7,4.7c-11.3,0-22.6,0-33.9,0H149.4z"/>
	<path class="st0" d="M223,267.3c-9.3,0-18.7,0-28,0c-5.3,0-8.3-2.5-8.3-6.7c0-4.2,3-6.7,8.3-6.7c19,0,37.9,0,56.9,0
		c5.3,0,8.3,2.5,8.3,6.7c0,4.2-3.1,6.7-8.3,6.7C242.2,267.3,232.6,267.3,223,267.3"/>
	<path class="st0" d="M250.4,220.5c7.4,0,14.8,0,22.2,0c4.9,0,7.9,2.8,7.8,6.8c-0.1,3.9-3,6.5-7.7,6.5c-14.9,0-29.8,0-44.8,0
		c-4.8,0-7.9-2.8-7.8-6.8c0.1-3.9,3-6.5,7.7-6.5C235.3,220.4,242.8,220.5,250.4,220.5"/>
	<path class="st0" d="M276.6,360.8c-5.2,0-10.3,0.1-15.5,0c-4.6-0.1-7.5-2.7-7.5-6.7c0-3.9,2.9-6.6,7.5-6.7
		c10.6-0.1,21.2-0.1,31.8,0c4.6,0,7.5,2.7,7.5,6.6c0,3.9-2.9,6.6-7.5,6.7C287.4,360.9,282,360.8,276.6,360.8"/>
	<path class="st0" d="M122.9,267.3c-2.9,0-5.9,0-8.8,0c-4.9-0.1-7.9-2.7-7.8-6.8c0.1-3.9,3-6.5,7.6-6.6c6.1-0.1,12.3-0.1,18.4,0
		c4.5,0.1,7.5,2.8,7.4,6.8c0,3.9-3,6.5-7.6,6.6C129.1,267.3,126,267.3,122.9,267.3"/>
	<path class="st0" d="M270.2,334.1c-3.2,0-6.4,0.1-9.6,0c-4.3-0.2-7.1-2.9-7-6.7c0-3.8,2.8-6.5,7.1-6.6c6.4-0.1,12.8-0.1,19.2,0
		c4.3,0.1,7,2.9,7,6.7c0,3.8-2.9,6.4-7.2,6.6C276.6,334.2,273.4,334.1,270.2,334.1"/>
	<path class="st0" d="M163,267.2c-1.3,0-2.5,0.1-3.8,0c-3.6-0.4-6.2-3.4-6-6.8c0.3-3.7,2.4-5.9,6-6.4c2.2-0.3,4.5-0.2,6.7-0.1
		c4.5,0.2,7.4,3,7.3,6.9c-0.1,3.8-3,6.3-7.3,6.5C164.9,267.3,164,267.2,163,267.2L163,267.2z"/>
</g>
</svg>
