<?xml version="1.0" encoding="utf-8"?>
<!-- Generator: Adobe Illustrator 23.1.1, SVG Export Plug-In . SVG Version: 6.00 Build 0)  -->
<svg version="1.1" id="Layer_1" xmlns="http://www.w3.org/2000/svg" xmlns:xlink="http://www.w3.org/1999/xlink" x="0px" y="0px"
	 viewBox="0 0 400 400" style="enable-background:new 0 0 400 400;" xml:space="preserve">
<style type="text/css">
	.st0{fill:#4B2DD0;}
</style>
<g>
	<path class="st0" d="M346.3,373.3c-5.3,16.6-16.4,26-31.3,26.6c-15.8,0.7-26.5-7.5-34.5-26.4H113c-6.7,17.6-17.4,26.3-32.5,26.5
		c-15.4,0.2-26-8.2-33.5-26.7c-6.8,0-13.7,0.1-20.6,0c-12.5-0.3-23.9-8.9-26-20.1c-0.6-3.3-0.3-6.9,0.4-10.2
		c2-9.1,4.3-18.1,6.6-27.1c3.2-12.6,11.4-24,29-22.5c15.2,1.3,28.6-2.2,41.1-11c7.1-5,15.1-8.9,22.7-13.2
		c10.2-5.8,21.5-7.3,32.9-8.2c19.7-1.6,39.4-2.3,59,1.4c14.1,2.7,27.8,6.6,40.4,13.6c16.9,9.3,34,18.3,50.7,27.9
		c6.2,3.6,12.9,4.1,19.5,5.1c24.7,3.9,49.4,7.4,74.1,11.3c8.8,1.4,15.4,5.9,17.7,15.3c1.2,4.8,3,9.5,4.5,14.3
		c3.8,11.9-4.2,23.3-16.7,23.5C370.4,373.4,358.5,373.3,346.3,373.3 M346.4,359.9c11.8,0,23.8,0.1,35.7,0c3.6,0,5.1-2.6,4.1-6
		c-1.3-4.3-3-8.4-3.9-12.7c-1.1-5.5-4.6-7.3-9.6-8c-17-2.5-34-5.3-51-7.8c-12.2-1.9-24.4-4.7-36.6-5.2c-45.2-1.9-90.5-2.6-135.8-4.6
		c-22.7-1-45.4-3.5-68.1-5.5c-15.1-1.4-30-4.3-45.2-3.6c-9,0.4-13.1,3.1-15.5,12c-2.5,9.4-5,18.8-6.9,28.3c-0.5,2.4,0.2,6,1.9,7.5
		c2.8,2.5,6.6,5,10.3,5.4c7,0.8,14.1,0.2,21.3,0.2c4.9-16.2,15.3-26.2,32.4-26.4c17.7-0.3,28.4,9.8,33.5,26.3h167.6
		c6.4-17.5,17.3-26.3,32.5-26.5C328.6,333.2,339.6,341.8,346.4,359.9 M258,306.4c-35.4-23.2-73.3-36.3-91.1-32.5v29.6
		C197.4,304.4,227.7,305.4,258,306.4 M153.1,273.9c-27.6-2.7-51,6.6-72.9,23.1c24.6,2,48.7,3.9,72.9,5.8V273.9z M99.9,366.6
		c-0.1-11.2-9-20.1-20.2-20c-10.9,0.1-19.8,9.2-19.8,20c0,11,9.2,20,20.3,20C91.1,386.5,100,377.6,99.9,366.6 M333.4,366.6
		c0-11.2-9.1-20.1-20.2-20c-10.9,0.1-19.8,9.1-19.8,20c0,11,9.1,20.1,20.3,20C324.5,386.6,333.4,377.5,333.4,366.6"/>
	<path class="st0" d="M340,57.2c-9.1-0.8-17.8-1.4-26.5-2.4c-39.5-4.7-76.1-17.6-109.9-38.5c-2.8-1.7-4.7-1.6-7.4,0.1
		c-40,24.5-83.4,38-130.3,40.2c-1.5,0.1-3.1,0.2-4.6,0.3c-0.4,0-0.8,0.2-1.5,0.4v4.9c0,42.7,0.1,85.4,0,128
		c-0.1,25.8,4.1,50.9,13.3,75c0.4,1,0.7,2.1,1.1,3.4c-2.6,1.5-5.1,3-7.6,4.4c-1.2,0.7-2.4,1.3-3.9,2c-6.1-14.4-10.7-28.9-12.8-44.1
		c-1.9-13.7-3.2-27.6-3.4-41.5c-0.4-45.5-0.2-90.9-0.2-136.4c0-7.5,1.8-9.4,9.2-9.5c49.8-0.9,95.8-14.4,137.8-41.3
		c4.7-3,8.3-2.9,12.9,0c31.9,20.5,66.7,33.4,104.2,38.6c11.3,1.6,22.7,1.9,34.1,2.6c6.7,0.4,8.7,2.2,8.7,8.8
		c0,47.3,0.1,94.5,0,141.8c-0.1,36-9,69.8-25.9,101.5c-1.3,2.4-2.5,3.6-5.4,2.8c-3.1-0.9-6.5-1.1-10.1-1.7c0.7-1.4,1.1-2.4,1.6-3.3
		c17.8-31.7,26.5-65.7,26.5-102c0-43.1,0-86.2,0-129.3V57.2z"/>
	<path class="st0" d="M99.8,93.6v4.6c0,30.7,0.1,61.4,0,92.2c-0.1,19.6,2.9,38.7,9.4,57.3c0.3,0.8,0.5,1.6,0.7,2.4
		c0.1,0.2-0.1,0.5-0.2,0.9c-3.8,1.3-7.7,2.6-12.7,4.3c-2.7-11-6.1-21.6-7.8-32.5c-1.8-11.6-2.5-23.5-2.6-35.3
		c-0.3-32.4-0.1-64.8-0.1-97.1c0-7,1.6-8.9,8.5-9.8c35-4.8,68.1-15.7,99.2-32.3c4.2-2.2,7.5-2.1,11.6,0C236.9,65,270,75.8,305,80.6
		c6.6,0.9,8.3,2.9,8.3,9.5c0,34.2,0.1,68.4,0,102.6c-0.1,32.2-8.3,62.3-24.6,90.1c-1.2,2-2.4,4-3.9,6.4c-3.9-2.1-7.6-4.1-11.6-6.2
		c0.8-1.4,1.4-2.5,2.1-3.7c16-25.9,24.3-54.1,24.6-84.5c0.3-32.8,0.1-65.6,0.1-98.4c0-0.8-0.1-1.7-0.1-2.7c-7.6-1.5-15.2-3-22.7-4.7
		c-25.6-5.6-50-14.6-73.3-26.7c-2.7-1.4-4.8-1.6-7.6-0.1c-29.8,15.4-61.3,25.7-94.5,30.9C101.3,93.2,100.9,93.3,99.8,93.6"/>
	<path class="st0" d="M173.8,184.3c1.3-1.8,2-3.3,3.2-4.5c23.2-23.2,46.3-46.4,69.5-69.6c5.4-5.4,8.1-5.4,13.6,0.1
		c5.5,5.5,11,11,16.5,16.5c4.5,4.5,4.6,7.7,0.2,12.1c-32.5,32.5-65,65.1-97.5,97.5c-4.5,4.5-7.6,4.4-12.1,0
		c-14.7-14.6-29.3-29.3-43.9-43.9c-4.7-4.7-4.6-7.7,0-12.4c5.8-5.8,11.6-11.6,17.4-17.4c4.3-4.3,7.5-4.3,11.8,0
		C159.2,169.6,166,176.4,173.8,184.3 M172.8,222.6c30.1-30.1,60.1-60.1,89.4-89.4c-2.9-3.1-6.2-6.6-9.7-10.4c-0.9,1.1-1.9,2.2-3,3.3
		c-23.2,23.2-46.4,46.4-69.5,69.6c-5.5,5.5-8.2,5.5-13.6,0.1c-6.5-6.6-13.1-13.1-19.4-19.5c-3.6,3.7-7,7.1-10.2,10.4
		C148.8,198.7,161,210.8,172.8,222.6"/>
</g>
</svg>
