<?xml version="1.0" encoding="utf-8"?>
<!-- Generator: Adobe Illustrator 23.1.1, SVG Export Plug-In . SVG Version: 6.00 Build 0)  -->
<svg version="1.1" id="Layer_1" xmlns="http://www.w3.org/2000/svg" xmlns:xlink="http://www.w3.org/1999/xlink" x="0px" y="0px"
	 viewBox="0 0 400 400" style="enable-background:new 0 0 400 400;" xml:space="preserve">
<style type="text/css">
	.st0{fill:#4B2DD0;}
</style>
<g>
	<path class="st0" d="M45.9,35.7c-10.5,0-20.8,0.1-31.2,0C4.1,35.5-2.8,25.6,1.1,16.2c2.3-5.6,6.6-8.9,12.7-9C28.5,7,43.2,7,58,7.2
		c6.9,0.1,11.8,4.3,13.7,11.9c6.9,27.4,13.6,54.8,20.4,82.2c6.1,24.8,12.3,49.6,18.4,74.4c0.2,0.8,0.4,1.7,0.7,2.7h244.4
		c4.3-23.4,8.6-47,13-71.2h-5.6c-77.5,0-155,0-232.5,0c-11.6,0-19-9.4-15.2-19.4c2.3-6,7.4-9.2,14.8-9.2c37.2,0,74.4,0,111.6,0
		c47.3,0,94.6,0,141.9,0c12.3,0,18.1,7.2,15.9,19.3c-9.1,50-18.2,100-27.2,150c-2.3,12.8-6.3,16.4-19.4,16.4
		c-74.5,0-149,0-223.6-0.1c-3.5,0-5.2,0.7-6.2,4.4c-1.7,6.4-4.1,12.7-6.3,19.2c10,6.9,17.9,15.6,21.7,27.1c1.8,5.3,4.2,6.7,9.7,6.6
		c45.1-0.3,90.1-0.2,135.2-0.1c3.1,0,4.6-0.8,5.6-4c8.7-25.9,35.1-42.4,61.3-38.5c28.2,4.3,48.9,26.9,49.7,54.1
		c0.8,28.7-17.9,52.8-45.5,58.6c-28,5.9-55.8-10-65.4-37.5c-1.1-3.2-2.5-4.2-5.9-4.2c-45.8,0.1-91.6,0.1-137.4,0
		c-3.4,0-5.1,0.8-6.3,4.3c-8.6,25.2-33.8,41.3-59.3,38.5c-27.2-3.1-48-23.4-51.3-50.2c-4.1-32.8,21.9-63.1,54.9-63.7
		c4.7-0.1,6.8-1.4,8.1-5.8c2.4-7.9,7.3-15.6,7.6-23.6c0.3-8-3.6-16.1-5.6-24.2c-15.5-61.6-31-123.3-46.5-184.9
		C46.9,38.8,46.4,37.5,45.9,35.7 M125.3,235.3h219.9c1.7-9.5,3.3-18.6,4.9-27.9H118.4C120.8,216.9,123.1,226.1,125.3,235.3
		 M371.3,335.7c0.2-15.5-12.6-28.4-28.1-28.6c-15.8-0.2-28.8,12.6-29,28.3c-0.1,15.6,12.5,28.7,27.9,28.8
		C358.2,364.4,371.2,351.8,371.3,335.7 M85.9,307.1c-15.8-0.1-28.7,12.7-28.7,28.5c0,15.6,12.6,28.5,28.1,28.6
		c15.8,0.1,28.8-12.5,28.9-28.3C114.4,320.1,101.7,307.2,85.9,307.1"/>
</g>
</svg>
