<?xml version="1.0" encoding="utf-8"?>
<!-- Generator: Adobe Illustrator 23.1.1, SVG Export Plug-In . SVG Version: 6.00 Build 0)  -->
<svg version="1.1" id="Layer_1" xmlns="http://www.w3.org/2000/svg" xmlns:xlink="http://www.w3.org/1999/xlink" x="0px" y="0px"
	 viewBox="0 0 64 64" style="enable-background:new 0 0 64 64;" xml:space="preserve">
<style type="text/css">
	.st0{clip-path:url(#SVGID_2_);}
	.st1{clip-path:url(#SVGID_4_);}
	.st2{opacity:0.7;clip-path:url(#SVGID_6_);}
	.st3{clip-path:url(#SVGID_8_);}
	.st4{clip-path:url(#SVGID_10_);}
	.st5{clip-path:url(#SVGID_12_);fill:url(#SVGID_13_);}
	.st6{clip-path:url(#SVGID_15_);fill:url(#SVGID_16_);}
	.st7{clip-path:url(#SVGID_18_);fill:none;stroke:#FFFFFF;stroke-width:1.2;stroke-miterlimit:10;}
	.st8{clip-path:url(#SVGID_20_);fill:#FFFFFF;}
	.st9{clip-path:url(#SVGID_20_);fill:none;stroke:#FFFFFF;stroke-miterlimit:10;}
	.st10{clip-path:url(#SVGID_20_);fill:none;stroke:#000000;stroke-miterlimit:10;}
	.st11{clip-path:url(#SVGID_20_);fill:#ED3580;}
	.st12{clip-path:url(#SVGID_24_);fill:#606060;}
	.st13{clip-path:url(#SVGID_26_);fill:none;stroke:#ED3580;stroke-width:1.05;stroke-miterlimit:10;}
	.st14{clip-path:url(#SVGID_28_);fill:#4B2DD0;}
	.st15{clip-path:url(#SVGID_28_);fill:url(#SVGID_29_);}
	.st16{clip-path:url(#SVGID_31_);fill:url(#SVGID_32_);}
	.st17{clip-path:url(#SVGID_34_);fill:#4B2DD0;}
	.st18{clip-path:url(#SVGID_36_);fill:url(#SVGID_37_);}
	.st19{clip-path:url(#SVGID_39_);fill:url(#SVGID_40_);}
	.st20{clip-path:url(#SVGID_42_);fill:url(#SVGID_43_);}
	.st21{clip-path:url(#SVGID_45_);fill:url(#SVGID_46_);}
	.st22{clip-path:url(#SVGID_48_);fill:url(#SVGID_49_);}
	.st23{clip-path:url(#SVGID_51_);fill:url(#SVGID_52_);}
	.st24{clip-path:url(#SVGID_54_);fill:url(#SVGID_55_);}
	.st25{clip-path:url(#SVGID_57_);fill:url(#SVGID_58_);}
	.st26{clip-path:url(#SVGID_60_);fill:url(#SVGID_61_);}
	.st27{clip-path:url(#SVGID_63_);fill:url(#SVGID_64_);}
	.st28{clip-path:url(#SVGID_66_);fill:url(#SVGID_67_);}
	.st29{clip-path:url(#SVGID_69_);fill:#4B2DD0;}
	.st30{clip-path:url(#SVGID_71_);}
	.st31{clip-path:url(#SVGID_75_);fill:none;stroke:#606060;stroke-miterlimit:10;}
	.st32{clip-path:url(#SVGID_77_);fill:#4B2DD0;}
	.st33{opacity:0.45;clip-path:url(#SVGID_79_);}
	.st34{clip-path:url(#SVGID_81_);}
	.st35{clip-path:url(#SVGID_79_);fill:#FFFFFF;}
	.st36{clip-path:url(#SVGID_79_);fill:none;stroke:#000000;stroke-miterlimit:10;}
	.st37{clip-path:url(#SVGID_79_);fill:none;stroke:#606060;stroke-miterlimit:10;}
	.st38{clip-path:url(#SVGID_83_);fill:#FFFFFF;}
	.st39{clip-path:url(#SVGID_83_);fill:#021A7F;}
	.st40{clip-path:url(#SVGID_83_);fill:#000E16;}
	.st41{clip-path:url(#SVGID_83_);fill:#003049;}
	.st42{clip-path:url(#SVGID_85_);fill:url(#SVGID_86_);}
	.st43{clip-path:url(#SVGID_88_);fill:#FFA986;}
	.st44{clip-path:url(#SVGID_88_);fill:#FFFFFF;}
	.st45{clip-path:url(#SVGID_90_);fill:url(#SVGID_91_);}
	.st46{clip-path:url(#SVGID_93_);fill:url(#SVGID_94_);}
	.st47{clip-path:url(#SVGID_96_);}
	.st48{clip-path:url(#SVGID_98_);fill:url(#SVGID_99_);}
	.st49{clip-path:url(#SVGID_101_);}
	.st50{clip-path:url(#SVGID_103_);fill:url(#SVGID_104_);}
	.st51{clip-path:url(#SVGID_106_);fill:#FFFFFF;}
	.st52{clip-path:url(#SVGID_106_);fill:#FFA986;}
	.st53{clip-path:url(#SVGID_106_);fill:#FF9100;}
	.st54{opacity:0.7;clip-path:url(#SVGID_106_);}
	.st55{clip-path:url(#SVGID_108_);fill:#FFA986;}
	.st56{clip-path:url(#SVGID_106_);fill:#003049;}
	.st57{clip-path:url(#SVGID_110_);fill:url(#SVGID_111_);}
	.st58{clip-path:url(#SVGID_113_);}
	.st59{clip-path:url(#SVGID_113_);fill:#FF9100;}
	.st60{clip-path:url(#SVGID_113_);fill:#DEDEDE;}
	.st61{clip-path:url(#SVGID_113_);fill:#FFFFFF;}
	.st62{clip-path:url(#SVGID_115_);}
	.st63{clip-path:url(#SVGID_117_);fill:url(#SVGID_118_);}
	.st64{clip-path:url(#SVGID_120_);}
	.st65{clip-path:url(#SVGID_122_);}
	.st66{clip-path:url(#SVGID_124_);fill:url(#SVGID_125_);}
	.st67{clip-path:url(#SVGID_127_);}
	.st68{clip-path:url(#SVGID_129_);fill:url(#SVGID_130_);}
	.st69{clip-path:url(#SVGID_132_);fill:#E0E0E0;}
	.st70{clip-path:url(#SVGID_132_);fill:#F1F1F1;}
	.st71{clip-path:url(#SVGID_132_);fill:#FFFFFF;}
	.st72{clip-path:url(#SVGID_134_);}
	.st73{clip-path:url(#SVGID_136_);fill:url(#SVGID_137_);}
	.st74{clip-path:url(#SVGID_139_);fill:#FFFFFF;}
	.st75{clip-path:url(#SVGID_139_);fill:#FFA986;}
	.st76{clip-path:url(#SVGID_139_);fill:#955C48;}
	.st77{clip-path:url(#SVGID_141_);fill:url(#SVGID_142_);}
	.st78{clip-path:url(#SVGID_144_);fill:url(#SVGID_145_);}
	.st79{clip-path:url(#SVGID_147_);fill:url(#SVGID_148_);}
	.st80{clip-path:url(#SVGID_150_);fill:#64FFE9;}
	.st81{clip-path:url(#SVGID_150_);fill:#ED3580;}
	.st82{clip-path:url(#SVGID_150_);fill:none;stroke:#ED3580;stroke-miterlimit:10;}
</style>
<g>
	<defs>
		<rect id="SVGID_1_" x="-569" y="-608.4" width="1921.5" height="1516"/>
	</defs>
	<clipPath id="SVGID_2_">
		<use xlink:href="#SVGID_1_"  style="overflow:visible;"/>
	</clipPath>
	<g class="st0">
		<defs>
			<rect id="SVGID_3_" x="-569" y="-608.4" width="1921.5" height="1516"/>
		</defs>
		<clipPath id="SVGID_4_">
			<use xlink:href="#SVGID_3_"  style="overflow:visible;"/>
		</clipPath>
	</g>
	<g class="st0">
		<defs>
			<rect id="SVGID_17_" x="-569" y="-608.4" width="1921.5" height="1516"/>
		</defs>
		<clipPath id="SVGID_6_">
			<use xlink:href="#SVGID_17_"  style="overflow:visible;"/>
		</clipPath>
	</g>
	<g class="st0">
		<defs>
			<rect id="SVGID_19_" x="-569" y="-608.4" width="1921.5" height="1516"/>
		</defs>
		<clipPath id="SVGID_8_">
			<use xlink:href="#SVGID_19_"  style="overflow:visible;"/>
		</clipPath>
	</g>
	<g class="st0">
		<defs>
			<rect id="SVGID_23_" x="-569" y="-608.4" width="1921.5" height="1516"/>
		</defs>
		<clipPath id="SVGID_10_">
			<use xlink:href="#SVGID_23_"  style="overflow:visible;"/>
		</clipPath>
	</g>
	<g class="st0">
		<defs>
			<rect id="SVGID_25_" x="-569" y="-608.4" width="1921.5" height="1516"/>
		</defs>
		<clipPath id="SVGID_12_">
			<use xlink:href="#SVGID_25_"  style="overflow:visible;"/>
		</clipPath>
	</g>
	<g class="st0">
		<defs>
			<rect id="SVGID_27_" x="-569" y="-608.4" width="1921.5" height="1516"/>
		</defs>
		<clipPath id="SVGID_13_">
			<use xlink:href="#SVGID_27_"  style="overflow:visible;"/>
		</clipPath>
	</g>
	<g class="st0">
		<defs>
			<rect id="SVGID_33_" x="-569" y="-608.4" width="1921.5" height="1516"/>
		</defs>
		<clipPath id="SVGID_15_">
			<use xlink:href="#SVGID_33_"  style="overflow:visible;"/>
		</clipPath>
	</g>
	<g class="st0">
		<defs>
			<rect id="SVGID_68_" x="-569" y="-608.4" width="1921.5" height="1516"/>
		</defs>
		<clipPath id="SVGID_16_">
			<use xlink:href="#SVGID_68_"  style="overflow:visible;"/>
		</clipPath>
	</g>
	<g class="st0">
		<defs>
			<rect id="SVGID_74_" x="-569" y="-608.4" width="1921.5" height="1516"/>
		</defs>
		<clipPath id="SVGID_18_">
			<use xlink:href="#SVGID_74_"  style="overflow:visible;"/>
		</clipPath>
	</g>
	<g class="st0">
		<defs>
			<rect id="SVGID_76_" x="-569" y="-608.4" width="1921.5" height="1516"/>
		</defs>
		<clipPath id="SVGID_20_">
			<use xlink:href="#SVGID_76_"  style="overflow:visible;"/>
		</clipPath>
	</g>
	<g class="st0">
		<defs>
			<rect id="SVGID_78_" x="-569" y="-608.4" width="1921.5" height="1516"/>
		</defs>
		<clipPath id="SVGID_22_">
			<use xlink:href="#SVGID_78_"  style="overflow:visible;"/>
		</clipPath>
		<g style="opacity:0.45;clip-path:url(#SVGID_22_);">
			<g>
				<defs>
					<rect id="SVGID_80_" x="-611" y="-636" width="2119" height="1914"/>
				</defs>
				<clipPath id="SVGID_24_">
					<use xlink:href="#SVGID_80_"  style="overflow:visible;"/>
				</clipPath>
				<rect x="-611" y="-636" style="clip-path:url(#SVGID_24_);" width="2119" height="1914"/>
			</g>
		</g>
		<path style="clip-path:url(#SVGID_22_);fill:#FFFFFF;" d="M803.9,402.6H-20.4c-6.6,0-12-5.4-12-12v-809c0-6.6,5.4-12,12-12h824.3
			c6.6,0,12,5.4,12,12v809C815.9,397.2,810.5,402.6,803.9,402.6"/>
		<path style="clip-path:url(#SVGID_22_);fill:none;stroke:#000000;stroke-miterlimit:10;" d="M803.9,402.6H-20.4
			c-6.6,0-12-5.4-12-12v-809c0-6.6,5.4-12,12-12h824.3c6.6,0,12,5.4,12,12v809C815.9,397.2,810.5,402.6,803.9,402.6z"/>
	</g>
	<g class="st0">
		<defs>
			<path id="SVGID_82_" d="M-20.4-440.4c-6.6,0-12,5.4-12,12v809c0,6.6,5.4,12,12,12h824.3c6.6,0,12-5.4,12-12v-809
				c0-6.6-5.4-12-12-12H-20.4z"/>
		</defs>
		<clipPath id="SVGID_26_">
			<use xlink:href="#SVGID_82_"  style="overflow:visible;"/>
		</clipPath>
	</g>
	<g class="st0">
		<defs>
			<path id="SVGID_87_" d="M-20.4-440.4c-6.6,0-12,5.4-12,12v809c0,6.6,5.4,12,12,12h824.3c6.6,0,12-5.4,12-12v-809
				c0-6.6-5.4-12-12-12H-20.4z"/>
		</defs>
		<clipPath id="SVGID_28_">
			<use xlink:href="#SVGID_87_"  style="overflow:visible;"/>
		</clipPath>
	</g>
	<g class="st0">
		<defs>
			<path id="SVGID_95_" d="M-20.4-440.4c-6.6,0-12,5.4-12,12v809c0,6.6,5.4,12,12,12h824.3c6.6,0,12-5.4,12-12v-809
				c0-6.6-5.4-12-12-12H-20.4z"/>
		</defs>
		<clipPath id="SVGID_29_">
			<use xlink:href="#SVGID_95_"  style="overflow:visible;"/>
		</clipPath>
	</g>
	<g class="st0">
		<defs>
			<path id="SVGID_100_" d="M-20.4-440.4c-6.6,0-12,5.4-12,12v809c0,6.6,5.4,12,12,12h824.3c6.6,0,12-5.4,12-12v-809
				c0-6.6-5.4-12-12-12H-20.4z"/>
		</defs>
		<clipPath id="SVGID_31_">
			<use xlink:href="#SVGID_100_"  style="overflow:visible;"/>
		</clipPath>
	</g>
	<g class="st0">
		<defs>
			<path id="SVGID_105_" d="M-20.4-440.4c-6.6,0-12,5.4-12,12v809c0,6.6,5.4,12,12,12h824.3c6.6,0,12-5.4,12-12v-809
				c0-6.6-5.4-12-12-12H-20.4z"/>
		</defs>
		<clipPath id="SVGID_32_">
			<use xlink:href="#SVGID_105_"  style="overflow:visible;"/>
		</clipPath>
	</g>
	<g class="st0">
		<defs>
			<path id="SVGID_112_" d="M-20.4-440.4c-6.6,0-12,5.4-12,12v809c0,6.6,5.4,12,12,12h824.3c6.6,0,12-5.4,12-12v-809
				c0-6.6-5.4-12-12-12H-20.4z"/>
		</defs>
		<clipPath id="SVGID_34_">
			<use xlink:href="#SVGID_112_"  style="overflow:visible;"/>
		</clipPath>
	</g>
	<g class="st0">
		<defs>
			<path id="SVGID_114_" d="M-20.4-440.4c-6.6,0-12,5.4-12,12v809c0,6.6,5.4,12,12,12h824.3c6.6,0,12-5.4,12-12v-809
				c0-6.6-5.4-12-12-12H-20.4z"/>
		</defs>
		<clipPath id="SVGID_36_">
			<use xlink:href="#SVGID_114_"  style="overflow:visible;"/>
		</clipPath>
	</g>
	<g class="st0">
		<defs>
			<path id="SVGID_119_" d="M-20.4-440.4c-6.6,0-12,5.4-12,12v809c0,6.6,5.4,12,12,12h824.3c6.6,0,12-5.4,12-12v-809
				c0-6.6-5.4-12-12-12H-20.4z"/>
		</defs>
		<clipPath id="SVGID_37_">
			<use xlink:href="#SVGID_119_"  style="overflow:visible;"/>
		</clipPath>
	</g>
	<g class="st0">
		<defs>
			<path id="SVGID_121_" d="M-20.4-440.4c-6.6,0-12,5.4-12,12v809c0,6.6,5.4,12,12,12h824.3c6.6,0,12-5.4,12-12v-809
				c0-6.6-5.4-12-12-12H-20.4z"/>
		</defs>
		<clipPath id="SVGID_39_">
			<use xlink:href="#SVGID_121_"  style="overflow:visible;"/>
		</clipPath>
	</g>
	<g class="st0">
		<defs>
			<path id="SVGID_126_" d="M-20.4-440.4c-6.6,0-12,5.4-12,12v809c0,6.6,5.4,12,12,12h824.3c6.6,0,12-5.4,12-12v-809
				c0-6.6-5.4-12-12-12H-20.4z"/>
		</defs>
		<clipPath id="SVGID_40_">
			<use xlink:href="#SVGID_126_"  style="overflow:visible;"/>
		</clipPath>
	</g>
	<g class="st0">
		<defs>
			<path id="SVGID_131_" d="M-20.4-440.4c-6.6,0-12,5.4-12,12v809c0,6.6,5.4,12,12,12h824.3c6.6,0,12-5.4,12-12v-809
				c0-6.6-5.4-12-12-12H-20.4z"/>
		</defs>
		<clipPath id="SVGID_42_">
			<use xlink:href="#SVGID_131_"  style="overflow:visible;"/>
		</clipPath>
	</g>
	<g class="st0">
		<defs>
			<path id="SVGID_133_" d="M-20.4-440.4c-6.6,0-12,5.4-12,12v809c0,6.6,5.4,12,12,12h824.3c6.6,0,12-5.4,12-12v-809
				c0-6.6-5.4-12-12-12H-20.4z"/>
		</defs>
		<clipPath id="SVGID_43_">
			<use xlink:href="#SVGID_133_"  style="overflow:visible;"/>
		</clipPath>
	</g>
	<g class="st0">
		<defs>
			<path id="SVGID_138_" d="M-20.4-440.4c-6.6,0-12,5.4-12,12v809c0,6.6,5.4,12,12,12h824.3c6.6,0,12-5.4,12-12v-809
				c0-6.6-5.4-12-12-12H-20.4z"/>
		</defs>
		<clipPath id="SVGID_45_">
			<use xlink:href="#SVGID_138_"  style="overflow:visible;"/>
		</clipPath>
	</g>
	<g class="st0">
		<defs>
			<rect id="SVGID_146_" x="-569" y="-608.4" width="1921.5" height="1516"/>
		</defs>
		<clipPath id="SVGID_46_">
			<use xlink:href="#SVGID_146_"  style="overflow:visible;"/>
		</clipPath>
	</g>
	<g class="st0">
		<defs>
			<rect id="SVGID_149_" x="-569" y="-608.4" width="1921.5" height="1516"/>
		</defs>
		<clipPath id="SVGID_48_">
			<use xlink:href="#SVGID_149_"  style="overflow:visible;"/>
		</clipPath>
		<path style="clip-path:url(#SVGID_48_);fill:#ED3580;" d="M64,32c0,17.7-14.3,32-32,32C14.3,64,0,49.7,0,32C0,14.3,14.3,0,32,0
			C49.7,0,64,14.3,64,32"/>
	</g>
</g>
</svg>
