<?xml version="1.0" encoding="utf-8"?>
<!-- Generator: Adobe Illustrator 24.2.1, SVG Export Plug-In . SVG Version: 6.00 Build 0)  -->
<svg version="1.1" id="Layer_1" xmlns="http://www.w3.org/2000/svg" xmlns:xlink="http://www.w3.org/1999/xlink" x="0px" y="0px"
	 viewBox="0 0 400 400" style="enable-background:new 0 0 400 400;" xml:space="preserve">
<style type="text/css">
	.st0{fill:none;stroke:#812CD3;stroke-width:3;stroke-miterlimit:10;}
	.st1{fill:#812CD3;}
</style>
<g>
	<circle class="st0" cx="200" cy="200" r="200"/>
	<g id="d1C4qE.tif_21_">
		<g>
			<path class="st1" d="M123.3,212.8c0-1.2,0-2.4,0-3.6c0.7-2.1,1.7-4,3.3-5.5c4.1-4,8.2-8.2,12.3-12.3c0.7-0.7,1.5-1.4,2.4-2
				c4-2.4,8.5-1.7,12.1,1.9c9.1,9.1,18.2,18.2,27.3,27.4c0.4,0.4,0.7,1,1.3,1.8c0.6-0.9,0.9-1.3,1.3-1.7c21-21,41.9-42,62.9-63
				c4.7-4.7,10.2-4.7,14.9,0c3.6,3.6,7.2,7.3,10.9,10.9c2.1,2,4,4.1,4.6,7c0,1.1,0,2.2,0,3.3c-0.7,3-2.8,5.1-4.9,7.2
				c-8.6,8.6-17.2,17.2-25.8,25.8c-18.8,18.8-37.5,37.6-56.3,56.3c-1.2,1.2-2.7,2.4-4.2,2.9c-4.1,1.6-7.7,0.3-10.7-2.8
				c-15.4-15.4-30.8-30.8-46.2-46.2C126.3,217.9,124.2,215.8,123.3,212.8z"/>
		</g>
	</g>
</g>
</svg>
