<?xml version="1.0" encoding="utf-8"?>
<!-- Generator: Adobe Illustrator 24.2.1, SVG Export Plug-In . SVG Version: 6.00 Build 0)  -->
<svg version="1.1" id="Layer_1" xmlns="http://www.w3.org/2000/svg" xmlns:xlink="http://www.w3.org/1999/xlink" x="0px" y="0px"
	 viewBox="0 0 400 400" style="enable-background:new 0 0 400 400;" xml:space="preserve">
<style type="text/css">
	.st0{fill:url(#SVGID_1_);}
</style>
<linearGradient id="SVGID_1_" gradientUnits="userSpaceOnUse" x1="0" y1="200" x2="400" y2="200">
	<stop  offset="0.1794" style="stop-color:#812CD3"/>
	<stop  offset="0.9996" style="stop-color:#4B2DD0"/>
</linearGradient>
<path class="st0" d="M399.7,245.2c0.1-1.4,0.2-2.5,0.2-3.7c0-14.5,0.1-28.9,0-43.4c-0.2-43.9-46.5-70.3-84.5-48.2
	c-0.6,0.4-1.3,0.7-2.9,1.6c-1.1-5.5-2.1-10.5-3-15.5c-0.7-4-0.8-8-1.8-11.9c-0.6-2.2-0.2-3.5,1.4-5.1c2.8-2.7,5.4-5.7,8.9-9.4
	c4.2,0,9.7,0,15.3,0c13.5-0.1,21.4-7.9,21.3-21.4c0-3.7,0.7-5.9,4.2-8c7.4-4.2,10.4-13.3,8-21.4c-2.4-8.2-10.2-13.9-18.7-13.9
	c-8.4,0.1-16,5.8-18.4,13.8c-2.4,8.3,0.9,17.1,8.2,21.7c3.9,2.5,5,6,3.6,11.1c-1.2,4.2-4.3,5.1-8.2,5c-5.6-0.1-11.2,0-17,0
	c-0.1-1.1-0.3-2-0.3-2.8c0-29.2,0-58.3,0-87.5H83.8c0,28.4,0,56.7,0,85.1c0,1.5,0,3.1,0,5.1c-7.1,0-13.9,0.2-20.7-0.2
	c-1.5-0.1-3.6-2-4.2-3.5c-0.9-2.2-0.5-4.9-0.9-7.3c-0.7-3.6,2.4-3.8,4.3-5.1c7.2-4.8,10.4-13.7,7.8-21.9c-2.5-8-10.2-13.6-18.6-13.5
	c-8.4,0.1-16,5.8-18.4,13.8c-2.5,8.3,0.7,17.3,8.2,21.6c3.3,1.9,4.3,3.8,3.9,7.3c-1.2,12.3,7.9,22.5,21.9,21.9
	c5.3-0.2,10.6,0,14.8,0c3.4,3.7,6.1,6.8,9,9.6c1.5,1.5,1.7,2.7,1.2,4.7c-0.9,3.8-1.2,7.7-1.8,11.5c-0.9,5.2-1.8,10.3-2.8,15.5
	c-5.9-2.5-10.7-5.1-15.8-6.7c-32.3-9.9-65.7,11.2-71.1,44.6c-0.1,0.7-0.5,1.4-0.7,2.2c0,18,0,35.9,0,53.9c4.1,0,8.3,0,12.6,0
	c0,8.6,0,17,0,25.7c-6.4,0.6-10.5,4.3-12.6,10.2c0,10.7,0,21.4,0,32c2.6,5.2,6.2,9.3,12.9,9.5c0,1.6,0,3,0,4.5c0,15.1,0,30.2,0,45.3
	c0,13.3,7.9,21.1,21.1,21.2c7.8,0,15.6,0.1,23.4,0c11.7-0.1,19.9-8.3,19.9-20c0.1-16.8,0-33.6,0-50.7c81.7,0,163.2,0,245.2,0
	c0,1.4,0,2.8,0,4.2c0,15.4,0,30.7,0,46.1c0,12.2,8.2,20.3,20.3,20.4c7.7,0,15.4,0,23,0c13.2,0,21.1-7.8,21.1-21.2
	c0.1-15,0-29.9,0-44.9c0-1.5,0-3.1,0-4.5c9.8-2.4,12.9-6.3,12.9-16c0-6.8,0-13.5,0-20.3c0-9.7-2.9-13.5-12.7-16.1
	c0-8.3,0-16.7,0-25.4C391.5,245.2,395.5,245.2,399.7,245.2z M342,64.5c0-3.5,2.6-6.2,6.1-6.3c3.7-0.1,6.5,2.5,6.6,6.2
	c0.1,3.6-2.7,6.5-6.3,6.6C344.8,71,342,68.2,342,64.5z M51.5,70.9c-3.6,0-6.4-2.9-6.3-6.6c0.1-3.6,3-6.3,6.6-6.2
	c3.6,0.1,6.2,3,6,6.7C57.7,68.4,55,71,51.5,70.9z M96.8,21.8c0-0.6,0.1-1.3,0.1-2.1c68.6,0,137.2,0,206.2,0c0,2.9,0,5.4,0,8
	c0,25.3,0,50.5-0.1,75.8c0,2.2-1.1,4.4-1.8,7.3c-3.3-2.8-5.6-5-8.1-6.7c-12.4-8.4-25.6-9.5-39.2-3.1c-2.3,1.1-3.9,1-6.1,0.1
	c-16.2-6.5-32.8-11.1-50.4-10.6c-15.9,0.5-31,4.8-45.7,10.6c-1.5,0.6-3.6,0.6-5,0c-16.2-7.6-32.5-5-45.3,7.4c-0.5,0.4-0.9,0.9-2.2,2
	c-0.9-2.3-2.3-4.1-2.3-5.9C96.8,76.9,96.8,49.4,96.8,21.8z M135.6,244.9c0-4.2,0-8,0-12.2c42.9,0,85.6,0,128.9,0c0,2.1,0,4.1,0,6.1
	c0,1.9,0,3.9,0,6.1C221.5,244.9,178.7,244.9,135.6,244.9z M264.4,258.5c0,4.2,0,8.1,0,12.2c-42.9,0-85.7,0-128.7,0
	c0-3.9,0-7.9,0-12.2C178.5,258.5,221.2,258.5,264.4,258.5z M141.7,172.2c0,15.7,0,31.1,0,47.1c-2.4,0-5,0.1-7.5-0.1
	c-0.8-0.1-1.6-1.1-2.1-1.9c-8.7-14.9-17.4-29.9-26.2-44.8c-2.1-3.6-4.7-6.9-7-10.3c-0.5-0.8-1-1.6-1.4-2.5c0.2-0.3,0.5-0.5,0.7-0.8
	C109.8,172.6,124.2,177.1,141.7,172.2z M103.2,135.7c-0.1-14.2,11.4-25.8,25.6-25.9c14.3-0.1,25.8,11.2,25.9,25.5
	c0.1,14.3-11.3,25.9-25.5,26C115.1,161.5,103.3,149.8,103.2,135.7z M167.7,142.3c0,25.5,0,51,0,76.8c-4.2,0-8.3,0-12.7,0
	c-0.1-1.1-0.2-2.3-0.2-3.4c0-16-0.1-32,0.1-48c0-1.8,0.9-4.1,2.1-5.4C162.4,156.5,165.5,149.6,167.7,142.3z M160.4,111.6
	c2.1-0.7,4.5-1.6,7.3-2.6c0,7,0,13.3,0,19.2C165.4,123,162.9,117.5,160.4,111.6z M180.8,219.1c0-37.8,0-75.5,0-113.6
	c4-0.7,8.1-1.3,12.6-2.1c0,39,0,77.2,0,115.7C189.2,219.1,185.1,219.1,180.8,219.1z M206.7,219.1c0-38.3,0-76.6,0-115.7
	c4.3,0.7,8.2,1.3,12.4,1.9c0,38,0,75.8,0,113.8C215,219.1,211,219.1,206.7,219.1z M232.3,128.2c0-5.9,0-12.3,0-19.2
	c2.8,1,5.1,1.8,7.3,2.6C237.1,117.4,234.6,123,232.3,128.2z M244.3,163.6c0.6,0.5,0.8,1.6,0.8,2.5c0,17.6,0,35.1,0,53.2
	c-4.5,0-8.4,0-12.7,0c0-25.7,0-51.4,0-77.7C234.5,150.3,238.1,157.6,244.3,163.6z M245.2,135.5c0-14.3,11.4-25.7,25.7-25.8
	c14.2,0,25.8,11.5,25.9,25.7c0,14.1-11.7,25.8-25.8,25.9C256.8,161.4,245.2,149.8,245.2,135.5z M258.2,218.9c0-15.4,0-30.8,0-46.6
	c17.4,4.8,32,0.4,44.3-12.6c-0.4,0.8-0.7,1.7-1.2,2.5c-10.4,17.1-21,34-31.2,51.2C266.2,220,266.3,220.3,258.2,218.9z M13.2,195.2
	c0.9-18.3,13.5-33.7,31.1-38.7c17.4-4.9,36.7,1.3,46.5,16.6c10.9,17.1,20.7,34.9,30.9,52.4c0.5,0.9,0.9,1.9,0.9,2.9
	c0.1,14,0,28.1,0,43.6c-2.3-1.4-4.1-1.9-5.1-3.1c-4.4-5-8.5-10.2-12.8-15.2c-11.4-13.4-25.8-20.9-43.4-21.3
	c-14.4-0.3-28.9-0.1-43.3-0.1c-1.5,0-3.1,0-5,0c0-4.5,0-8.5,0-12.5C13,211.6,12.7,203.4,13.2,195.2z M102,270.7
	c-8.4,0-16.2,0-24.4,0c0-7.3,0-14.3,0-21.6C88.5,253.1,94.9,261.8,102,270.7z M64.5,270.7c-4.4,0-8.3,0-12.6,0c0-8.3,0-16.7,0-25.5
	c3.5,0,6.7-0.1,9.9,0.1c0.9,0.1,2.6,1.2,2.6,1.9C64.6,255,64.5,262.7,64.5,270.7z M38.4,245.4c0,8.4,0,16.7,0,25.4
	c-4.2,0-8.2,0-12.4,0c0-8.5,0-16.9,0-25.4C30.2,245.4,34.1,245.4,38.4,245.4z M64.6,370.1c0,8-2.1,10.9-8.9,10.5H32.1v-0.1
	c-0.2,0-0.5,0-0.7-0.1c-3.3-0.3-5.4-2.5-5.5-5.6c-0.2-17.3-0.1-34.5-0.1-52c4.3,0,8.3,0,12.7,0c0,0,0,0.1,0,0.1h13c0,0,0,0,0-0.1
	c4.4,0,8.3,0,12.8,0c0.1,1.3,0.2,2.6,0.2,4C64.6,341.2,64.6,355.7,64.6,370.1z M365.5,380.6L365.5,380.6l-20.3,0c-0.6,0-1.2,0-1.7,0
	h-0.9v0c-0.2,0-0.4,0-0.6,0c-3.8-0.3-6.3-2.3-6.4-6.1c-0.2-17.1-0.1-34.3-0.1-51.7c4.4,0,8.4,0,12.9,0c0,0,0,0,0,0h12.7c0,0,0,0,0,0
	c4.5,0,8.6,0,13.1,0c0,3.1,0,6.2,0,9.3c0,12.6-0.3,25.2,0.1,37.8C374.5,377.8,372.2,380.9,365.5,380.6z M386.8,309.8
	c-1.5,0-2.9,0-4.3,0c-121.7,0-243.4,0-365.2,0.1c-3.6,0-4.7-1-4.6-4.6c0.3-6.9,0.1-13.8,0.1-21c124.7,0,249.2,0,373.9,0
	C386.8,292.7,386.8,300.9,386.8,309.8z M298,270.8c6.8-9,13.4-17.4,24.3-21.7c0,7.3,0,14.3,0,21.7
	C314.2,270.8,306.5,270.8,298,270.8z M335.6,247.1c0-0.6,1.5-1.7,2.3-1.8c3.3-0.2,6.7-0.1,10.3-0.1c0,8.6,0,17,0,25.5
	c-4.1,0-8.1,0-12.7,0C335.5,262.8,335.4,255,335.6,247.1z M361.4,270.6c0-8.5,0-16.8,0-25.3c4.2,0,8.1,0,12.4,0c0,8.3,0,16.6,0,25.3
	C369.9,270.6,365.9,270.6,361.4,270.6z M387.1,232.3c-3,0-5.3,0-7.7,0c-12.6,0-25.2,0-37.9,0c-19.3,0-35,7.5-47.2,22.5
	c-3.9,4.7-7.7,9.5-11.8,14.1c-1.1,1.2-2.9,1.8-5.2,3.1c0-15.5-0.5-29.7,0.3-43.8c0.2-4.3,3.5-8.6,5.8-12.6
	c7.9-13.5,15.9-26.9,24.1-40.1c9.4-15.3,27.1-23,44.2-19.8c17.6,3.3,31.4,16.7,34.4,34.5c1.2,7,0.7,14.3,0.9,21.4
	C387.2,218.2,387.1,225,387.1,232.3z"/>
</svg>
