<?xml version="1.0" encoding="utf-8"?>
<!-- Generator: Adobe Illustrator 24.2.1, SVG Export Plug-In . SVG Version: 6.00 Build 0)  -->
<svg version="1.1" id="Layer_1" xmlns="http://www.w3.org/2000/svg" xmlns:xlink="http://www.w3.org/1999/xlink" x="0px" y="0px"
	 viewBox="0 0 400 400" style="enable-background:new 0 0 400 400;" xml:space="preserve">
<style type="text/css">
	.st0{fill:url(#SVGID_1_);}
	.st1{fill:url(#SVGID_2_);}
</style>
<g>
	<linearGradient id="SVGID_1_" gradientUnits="userSpaceOnUse" x1="-10.0237" y1="210.3561" x2="305.1506" y2="194.5974">
		<stop  offset="0" style="stop-color:#812CD3"/>
		<stop  offset="0.9996" style="stop-color:#4B2DD0"/>
	</linearGradient>
	<path class="st0" d="M187.5,0.4c8.3,0,16.7,0,25,0c6.8,0.9,13.7,1.5,20.4,2.7c37.6,6.4,70.8,22.1,99.3,47.4
		c34.8,30.9,56.6,69.3,64.7,115.2c1.3,7.3,2.1,14.6,3.1,21.9c0,8.3,0,16.6,0,25c-0.9,6.5-1.5,13.1-2.6,19.6
		c-9.1,52.3-34.7,95-77.1,127c-43.6,33-93.1,45.6-147.4,38.6c-39.7-5.2-74.8-21.4-104.8-47.9c-34.9-30.8-56.7-69.2-65-115
		C1.8,227.4,1,219.9,0,212.5c0-8.3,0-16.6,0-25c0.9-6.7,1.5-13.4,2.7-20C9.7,126,28,90.1,57.6,60.1c29.9-30.3,65.9-49.3,107.9-56.6
		C172.8,2.2,180.2,1.4,187.5,0.4z M200,365.9c91.4,0,166.2-74.6,166.3-165.9c0-91.3-74.7-165.9-166.2-165.9
		C108.6,34,33.8,108.7,33.8,200C33.7,291.2,108.5,365.9,200,365.9z"/>
	<linearGradient id="SVGID_2_" gradientUnits="userSpaceOnUse" x1="-12.735" y1="156.1306" x2="302.4393" y2="140.3719">
		<stop  offset="0" style="stop-color:#812CD3"/>
		<stop  offset="0.9996" style="stop-color:#4B2DD0"/>
	</linearGradient>
	<path class="st1" d="M211.8,193.8c2.1,0,3.7,0,5.2,0c24.5,0,48.9,0,73.4,0c9.1,0,15.9,6.2,17.1,15c1.1,7.7-4.1,15.6-11.9,17.9
		c-2,0.6-4.1,0.7-6.2,0.7c-31,0-61.9,0.1-92.9,0c-11.7,0-18.4-6.7-18.4-18.4c0-44.2,0-88.3,0-132.5c0-8,4.5-14.2,11.8-16.5
		c7-2.2,15.1,0.2,18.8,6.6c1.9,3.3,3,7.5,3,11.4c0.2,36.9,0.1,73.8,0.1,110.7C211.8,190.2,211.8,191.8,211.8,193.8z"/>
</g>
</svg>
