<?xml version="1.0" encoding="utf-8"?>
<!-- Generator: Adobe Illustrator 23.1.1, SVG Export Plug-In . SVG Version: 6.00 Build 0)  -->
<svg version="1.1" id="Layer_1" xmlns="http://www.w3.org/2000/svg" xmlns:xlink="http://www.w3.org/1999/xlink" x="0px" y="0px"
	 viewBox="0 0 400 400" style="enable-background:new 0 0 400 400;" xml:space="preserve">
<style type="text/css">
	.st0{fill:#606060;}
</style>
<g>
	<path class="st0" d="M400,72.1v286.9c-0.3,0.8-0.6,1.6-0.8,2.5c-4.5,21.9-23.2,38-45.3,38c-102.6,0.1-205.2,0.1-307.8,0
		c-15.1,0-27.2-6.7-36.6-18.6C4.4,374.5,2,366.8,0,359.1V72.1c0.2-0.3,0.5-0.6,0.6-1c3.1-21.7,23-40.7,49.3-39.6
		c5.1,0.2,10.3,0,15.7,0V0.4h31.2v30.9h206.2V0.4h31.3v31.2c6.9,0,13.3-0.2,19.6,0c14.9,0.5,27,6.7,36.3,18.3
		C395.5,56.5,397.9,64.2,400,72.1 M31.2,147.1v4.3c0,66.4,0,132.8,0,199.2c0,11.6,6.2,17.8,17.8,17.8c100.7,0,201.3,0,301.9,0
		c11.6,0,17.7-6.2,17.7-17.8c0-66.4,0-132.8,0-199.2v-4.2H31.2z M31.3,115.5h337.4c0-12.9,0.2-25.5-0.1-38.1
		c-0.1-7.3-5.7-13.7-13-14.4c-6.9-0.6-14-0.1-21.4-0.1v30.8h-31.2V63H96.8v30.7H65.5V62.8c-6.8,0-13.2-0.2-19.5,0.1
		c-7.9,0.3-14.4,6.7-14.6,14.6C31.1,90,31.3,102.6,31.3,115.5"/>
	<rect x="59.7" y="179.9" class="st0" width="30.7" height="30.8"/>
	<rect x="122.1" y="180" class="st0" width="30.8" height="30.7"/>
	<rect x="184.7" y="180" class="st0" width="30.6" height="30.8"/>
	<rect x="247.2" y="180" class="st0" width="30.7" height="30.8"/>
	<rect x="309.5" y="179.9" class="st0" width="30.8" height="30.7"/>
	<rect x="59.6" y="242.4" class="st0" width="30.8" height="30.7"/>
	<rect x="122" y="242.4" class="st0" width="30.8" height="30.7"/>
	<rect x="184.7" y="242.4" class="st0" width="30.8" height="30.7"/>
	<rect x="247.1" y="242.4" class="st0" width="30.8" height="30.7"/>
	<rect x="309.6" y="242.3" class="st0" width="30.8" height="30.8"/>
	<rect x="59.7" y="304.8" class="st0" width="30.8" height="30.7"/>
	<rect x="122.1" y="304.7" class="st0" width="30.8" height="30.7"/>
	<rect x="184.6" y="304.6" class="st0" width="30.8" height="30.7"/>
	<rect x="247.2" y="304.8" class="st0" width="30.8" height="30.7"/>
</g>
</svg>
