<?xml version="1.0" encoding="utf-8"?>
<!-- Generator: Adobe Illustrator 23.1.1, SVG Export Plug-In . SVG Version: 6.00 Build 0)  -->
<svg version="1.1" id="Layer_1" xmlns="http://www.w3.org/2000/svg" xmlns:xlink="http://www.w3.org/1999/xlink" x="0px" y="0px"
	 viewBox="0 0 400 400" style="enable-background:new 0 0 400 400;" xml:space="preserve">
<style type="text/css">
	.st0{fill:#4B2DD0;}
</style>
<g>
	<path class="st0" d="M200,400C89.7,400,0,310.3,0,200C0,89.7,89.7,0,200,0c110.3,0,200,89.7,200,200C400,310.3,310.3,400,200,400
		 M200,19.7c-99.4,0-180.3,80.9-180.3,180.3c0,99.4,80.9,180.3,180.3,180.3c99.4,0,180.3-80.9,180.3-180.3
		C380.3,100.6,299.4,19.7,200,19.7"/>
	
		<rect x="193.7" y="7" transform="matrix(0.7071 -0.7071 0.7071 0.7071 -79.369 203.8821)" class="st0" width="25.4" height="381.6"/>
	<path class="st0" d="M332.3,344.1L60.1,71.8l20.4-20.4l272.3,272.3L332.3,344.1z M65,71.8l267.4,267.4l15.5-15.5L80.5,56.3L65,71.8
		z"/>
	<path class="st0" d="M200,400C89.7,400,0,310.3,0,200C0,89.7,89.7,0,200,0c110.3,0,200,89.7,200,200C400,310.3,310.3,400,200,400
		 M200,19.7c-99.4,0-180.3,80.9-180.3,180.3c0,99.4,80.9,180.3,180.3,180.3c99.4,0,180.3-80.9,180.3-180.3
		C380.3,100.6,299.4,19.7,200,19.7"/>
	
		<rect x="193.7" y="7" transform="matrix(0.7071 -0.7071 0.7071 0.7071 -79.369 203.8821)" class="st0" width="25.4" height="381.6"/>
	<path class="st0" d="M332.3,344.1L60.1,71.8l20.4-20.4l272.3,272.3L332.3,344.1z M65,71.8l267.4,267.4l15.5-15.5L80.5,56.3L65,71.8
		z"/>
	<path class="st0" d="M200,400C89.7,400,0,310.3,0,200C0,89.7,89.7,0,200,0c110.3,0,200,89.7,200,200C400,310.3,310.3,400,200,400
		 M200,19.7c-99.4,0-180.3,80.9-180.3,180.3c0,99.4,80.9,180.3,180.3,180.3c99.4,0,180.3-80.9,180.3-180.3
		C380.3,100.6,299.4,19.7,200,19.7"/>
	
		<rect x="193.7" y="7" transform="matrix(0.7071 -0.7071 0.7071 0.7071 -79.369 203.8821)" class="st0" width="25.4" height="381.6"/>
	<path class="st0" d="M332.3,344.1L60.1,71.8l20.4-20.4l272.3,272.3L332.3,344.1z M65,71.8l267.4,267.4l15.5-15.5L80.5,56.3L65,71.8
		z"/>
	<path class="st0" d="M200,400C89.7,400,0,310.3,0,200C0,89.7,89.7,0,200,0c110.3,0,200,89.7,200,200C400,310.3,310.3,400,200,400
		 M200,19.7c-99.4,0-180.3,80.9-180.3,180.3c0,99.4,80.9,180.3,180.3,180.3c99.4,0,180.3-80.9,180.3-180.3
		C380.3,100.6,299.4,19.7,200,19.7"/>
	
		<rect x="193.7" y="7" transform="matrix(0.7071 -0.7071 0.7071 0.7071 -79.369 203.8821)" class="st0" width="25.4" height="381.6"/>
	<path class="st0" d="M332.3,344.1L60.1,71.8l20.4-20.4l272.3,272.3L332.3,344.1z M65,71.8l267.4,267.4l15.5-15.5L80.5,56.3L65,71.8
		z"/>
	<path class="st0" d="M330.2,152.7l-2.1-4.2c-1.2-2.4-4.2-3.4-6.6-2.2c-0.4,0.2-0.7,0.4-1,0.7c-17.9,15.3-44.4,15-62-0.7l-15.6-14
		c-1.7-1.5-4.1-1.7-5.9-0.5l-16.5,10.4l-5.6-8.9l-8.4,5.3l5.6,8.9l-8.4,5.3l-5.6-8.9l-8.4,5.3l5.6,8.9l-8.4,5.3l-5.6-8.9l-8.4,5.3
		l5.6,8.9l-8.4,5.3l-5.6-8.9l-8.4,5.3l5.5,8.7l-5.2,3.4c-0.5,0.3-1,0.8-1.5,1.2l-11.3,7.2L71,206.8c-11.3,2.5-19.4,12.5-19.3,24.1
		v33.6c0,2.7,2.2,5,4.9,5h128.6c0.3,0,0.7,0,1-0.1l68.3-13.6v8.8c0,2.7,2.2,5,4.9,5h84.1c2.7,0,5-2.2,5-5v-34.6
		C348.3,203.1,342.1,176.7,330.2,152.7 M331,181.3c4.4,14.1,6.9,28.8,7.4,43.6h-70.9C274.3,213.9,292.1,192.1,331,181.3 M61.6,230.9
		c0-7,4.8-13,11.6-14.5l72.3-16.1c-0.5,4,0.1,8.1,1.6,11.8l3.9,9.6c0.9,2.2,3.3,3.5,5.6,3l34.4-7.4c15.5-3.3,31.7,1.3,43,12.5
		l-49.2,9.8H61.6V230.9z M254.4,245.6l-69.7,13.9H61.6v-9.9h123.6c0.3,0,0.7,0,1-0.1l68.3-13.6V245.6z M255.9,225.5l-10.6,2.1
		c-13.6-16.8-35.4-24.5-56.5-19.9l-30.3,6.5l-2.3-5.8c-2.3-5.9-0.7-12.6,4.2-16.8l6.8-4.3l4.9,7.8l8.4-5.3l-4.9-7.8l8.4-5.3l4.9,7.8
		l8.4-5.3l-4.9-7.8l8.4-5.3l4.9,7.8l8.4-5.3l-4.9-7.8l8.3-5.3l4.9,7.8l8.4-5.3l-4.9-7.8l13.3-8.4l12.8,11.5
		c19.5,17.5,48.4,19.4,70.1,4.7c2.2,4.5,4.1,9,5.9,13.7C278.3,185.9,260.2,216.4,255.9,225.5 M338.5,259.5h-74.2v-24.7h74.2V259.5z"
		/>
</g>
</svg>
