<?xml version="1.0" encoding="utf-8"?>
<!-- Generator: Adobe Illustrator 23.1.1, SVG Export Plug-In . SVG Version: 6.00 Build 0)  -->
<svg version="1.1" id="Layer_1" xmlns="http://www.w3.org/2000/svg" xmlns:xlink="http://www.w3.org/1999/xlink" x="0px" y="0px"
	 viewBox="0 0 400 400" style="enable-background:new 0 0 400 400;" xml:space="preserve">
<style type="text/css">
	.st0{fill:#4B2DD0;}
</style>
<path class="st0" d="M200.8,5.1c3.7,1,7.4,1.7,11,3c20.5,7.4,33.3,21.7,37,42.9c3.7,20.7-3.3,38.3-19.4,52c-2.6,2.2-3.4,3.9-2.6,7.3
	c4.6,21.6,8.9,43.2,13.5,64.8c0.5,2.3,2.2,4.3,3.6,6.3c6.7,9.4,16.8,10.4,27.3,11.2c15.9,1.1,31.9,2.9,47.8,4.6
	c12.8,1.4,22.7,12.5,22.5,25.3c-0.1,6.3-1,12.6-1.9,18.9c-0.4,3.4-3.4,5.5-6.5,5.1c-3.2-0.4-5.2-3-4.9-6.6c0.3-3.9,0.7-7.8,1.3-11.7
	c1.8-12.3-2.9-18.5-15.4-19.9c-15.9-1.7-31.8-3.2-47.7-4.7c-0.5,0-0.9,0-1.3,0c3.8,7.2,7.7,14.1,11.3,21.2c1.7,3.4,3.1,7,4.1,10.6
	c0.7,2.5,2,3.1,4.4,3c4.2-0.2,8.5-0.1,12.7,0c5,0.2,7.1,2.7,6.6,7.7c-1.6,15-3.2,30-4.7,45c-0.1,1,0,2,0,3.1h22.3
	c0.9-7.9,1.9-15.6,2.8-23.4c0.5-4.3,1-8.6,1.5-12.8c0.5-3.8,3-6,6.3-5.7c3.3,0.3,5.6,2.9,5.2,6.7c-1,9.8-2.3,19.7-3.4,29.5
	c-0.2,1.8-0.4,3.5-0.6,6c5.3,0,10.4,0,15.4,0c7.7,0,9.1,1.4,9.1,9.1c0,6.5,0,13,0,19.4c0,6.6-1.3,7.9-7.9,8.5
	c-0.5,0-0.9,0.2-1.5,0.3c13.7,21.7,12.3,40.8-3.7,54.3c-14.3,12.1-35.5,11.8-49.6-0.5c-12.5-10.9-19.5-33.3-2.7-54.1
	c-6.9,0-13.4-0.1-19.8,0.1c-0.9,0-2,1.7-2.7,2.9c-19.3,31.6-47,51.4-83.6,58.4C125.2,404.6,63.6,367,46.5,307.4
	c-15.7-54.6,8.1-112.1,58-139.8c2.6-1.4,2.9-2.8,2.3-5.4c-4.9-19.2-9.7-38.3-14.5-57.5c-3-12,3.2-23.1,14.5-26.6
	c11.3-3.5,22.7,2.2,27.2,13.7c4.9,12.4,9.7,24.8,14.5,37.2c0.2,0.6,0.5,1.1,1.1,2.4c1.3-6,2-11.5,3.8-16.5
	c2.9-8.2,4.1-15.7-4.3-21.6c-24.9-33.2-5.2-81.1,36-87.5c0.9-0.1,1.7-0.5,2.5-0.7H200.8z M147.7,191.5c-13.5,2.7-25.4,7.9-35.6,16.3
	c-5.4,4.4-10.1,9.7-14.9,14.7c-3.3,3.5-7.8,3.6-10,0c-1.8-2.8-0.7-5.3,1.2-7.6c14.6-18.2,33.3-29.6,56.2-34.7c1.1-0.3,2.9-1.3,3-2
	c0.3-4.3,0.1-8.7,0.1-13.1c-50.1,6.8-96.2,51.4-94.3,112.6c1.8,57.5,49.8,104.5,108.7,105.6c58.6,1.1,106.9-42.6,112.4-98.7
	c6.2-62.7-38.9-104.6-74.2-114.4c0,3.6,0.3,7.2-0.1,10.6c-0.3,3.3,1,4.8,4,6.2c39.5,17.9,62.1,60,54.9,102.1
	c-8.8,51.3-56.8,85.9-108.9,78.6c-62.3-8.8-99.5-75.3-73.9-132.4c2-4.4,4.9-6,8.3-4.5c3.4,1.4,4.3,4.8,2.4,9.1
	c-4.3,9.8-6.6,19.9-7,30.6c-2.4,52.8,47,95.4,99.4,85.5c34-6.4,60.6-32.1,67.6-64.9c7-33.4-6.8-67.3-35.5-86.7
	c-3.3-2.2-6.9-4-11.1-6.5v5c0,18.1,0.2,36.3-0.1,54.4c-0.2,14.2-12.1,25.2-26.5,25.1c-14.1-0.1-25.6-11.4-25.8-25.5
	c-0.2-11.3-0.1-22.6-0.1-33.9V191.5z M149.9,60.5c0.1,24.1,19.7,43.6,43.9,43.6c24.4,0,44.3-19.7,44.2-43.8
	c-0.1-24-19.8-43.6-44-43.7C169.8,16.6,149.9,36.3,149.9,60.5 M188.5,233.4v-27.3c0-22.4,0-44.9,0-67.3c0-4.3,2.3-7,5.8-7
	c3.6,0,5.7,2.6,5.8,7c0.1,3.9,0,7.9,0,11.8c0,6.7,0,6.7,6.5,9.1c1.6,0.6,3.1,1.1,4.6,1.8c5.1,2.4,10.2,4.8,15.7,7.4
	c-4-19.3-7.9-38.1-11.8-57.2c-16.5,6.1-32.3,5.3-47.9-2.6c-0.3,0.7-0.7,1.2-0.9,1.8c-4.3,15.5-7.1,31.1-7.1,47.2c0,24,0,47.9,0,71.9
	c0,1.1,0.1,2.2,0.2,3.5H188.5z M118.2,160.4c9.3-2.5,18.1-4.9,27-7.3c-7.5-19.3-14.9-38.5-22.4-57.7c-2.1-5.4-7.6-7.8-12.8-6.1
	c-5.2,1.7-7.8,6.8-6.5,12.6c1.1,4.7,2.4,9.3,3.5,14C110.7,130.6,114.5,145.4,118.2,160.4 M294.3,357.3
	c-0.1,14.3,11.5,25.9,25.9,26.1c14.4,0.2,26.5-11.7,26.5-25.9c0.1-14.3-11.8-26.1-26.3-26.1C305.9,331.5,294.3,343,294.3,357.3
	 M346,306.4c-0.4-0.2-0.6-0.4-0.9-0.4c-20.3,0-40.6-0.1-61,0c-0.8,0-2,0.7-2.3,1.3c-1.5,4-2.8,8.1-4.2,12.1h68.4c0-4,0-7.7,0-11.3
	C346.2,307.5,346.1,306.9,346,306.4 M159.3,245.4c0,4.3-0.2,8.1,0,11.8c0.5,7.1,6.1,12.7,13.3,13.4c6.8,0.7,13.7-3.8,15.1-10.7
	c1-4.7,0.6-9.6,0.8-14.6H159.3z M284.3,250.2c3.1,14.9,2.9,29.5,0.6,44.7c2.7-2,7.1-37.2,6.3-44.7H284.3z"/>
</svg>
