<?xml version="1.0" encoding="utf-8"?>
<!-- Generator: Adobe Illustrator 23.1.1, SVG Export Plug-In . SVG Version: 6.00 Build 0)  -->
<svg version="1.1" id="Layer_1" xmlns="http://www.w3.org/2000/svg" xmlns:xlink="http://www.w3.org/1999/xlink" x="0px" y="0px"
	 viewBox="0 0 400 400" style="enable-background:new 0 0 400 400;" xml:space="preserve">
<style type="text/css">
	.st0{fill:#ED3580;}
</style>
<g>
	<path class="st0" d="M168.8,0h62.5C241.6,0,250,8.4,250,18.7V150h68.5c13.9,0,20.9,16.8,11,26.6L210.7,295.5
		c-5.9,5.9-15.5,5.9-21.3,0l-119-118.9c-9.8-9.8-2.9-26.6,11-26.6H150V18.7C150,8.4,158.4,0,168.8,0 M400,293.7v87.5
		c0,10.4-8.4,18.8-18.7,18.8H18.8C8.4,400,0,391.6,0,381.2v-87.5C0,283.4,8.4,275,18.8,275h114.6l38.3,38.3
		c15.7,15.7,41,15.7,56.7,0l38.3-38.3h114.6C391.6,275,400,283.4,400,293.7 M303.1,362.5c0-8.6-7-15.6-15.6-15.6s-15.6,7-15.6,15.6
		c0,8.6,7,15.6,15.6,15.6S303.1,371.1,303.1,362.5 M353.1,362.5c0-8.6-7-15.6-15.6-15.6c-8.6,0-15.6,7-15.6,15.6
		c0,8.6,7,15.6,15.6,15.6C346.1,378.1,353.1,371.1,353.1,362.5"/>
</g>
</svg>
