<?xml version="1.0" encoding="utf-8"?>
<!-- Generator: Adobe Illustrator 24.2.1, SVG Export Plug-In . SVG Version: 6.00 Build 0)  -->
<svg version="1.1" id="Layer_1" xmlns="http://www.w3.org/2000/svg" xmlns:xlink="http://www.w3.org/1999/xlink" x="0px" y="0px"
	 viewBox="0 0 400 400" style="enable-background:new 0 0 400 400;" xml:space="preserve">
<style type="text/css">
	.st0{fill:url(#SVGID_1_);}
	.st1{fill:url(#SVGID_2_);}
	.st2{fill:url(#SVGID_3_);}
	.st3{fill:url(#SVGID_4_);}
	.st4{fill:url(#SVGID_5_);}
</style>
<g>
	<linearGradient id="SVGID_1_" gradientUnits="userSpaceOnUse" x1="5.5592" y1="204.2515" x2="341.2719" y2="197.7955">
		<stop  offset="0" style="stop-color:#812CD3"/>
		<stop  offset="0.9996" style="stop-color:#4B2DD0"/>
	</linearGradient>
	<path class="st0" d="M400,324.2c-0.3,0.7-0.6,1.4-0.8,2.1c-3.8,16.8-17.8,28.3-35,28.3c-9.6,0-19.4,0.5-28.8-0.8
		c-16.8-2.4-28.6-16.6-29.2-33.6c-0.2-6,0-11.9,0-18.2c-70.8,0-141.2,0-212.1,0c0,5,0,9.9,0,14.8c-0.1,22.9-15,37.9-37.9,37.9
		c-8.8,0-17.8,0.5-26.5-0.8c-17.2-2.5-29.5-17.2-29.5-34.6c-0.1-40.5-0.2-81,0-121.5C0.2,184,5.4,171.8,16,163
		c10.2-8.4,16.6-18.5,20.8-31c6.9-20.8,15-41.3,22.7-61.9c6-16.2,18.5-24.8,35.8-24.8c71.6,0,143.2,0,214.8,0
		c17.5,0,29.9,8.7,36.1,25.1c9.6,25.7,19.1,51.4,28.7,77.1c0.8,2.2,2.2,4.4,3.8,6.2c3.9,4.5,8.2,8.7,12,13.4
		c5.3,6.6,7.5,14.7,9.5,22.8C400,234.6,400,279.4,400,324.2z M200,284.5c12,0,23.9,0,35.9,0c42.3,0,84.6,0,126.9,0
		c12.8,0,20.1-7.5,20.1-20.2c0-19.3-0.8-38.6,0.2-57.8c0.8-16.3-3.5-29.6-15.9-40.3c-2.3-2-4.3-3.1-7.4-3.1
		c-100.9,0.1-201.7,0.1-302.6,0.1c-5.6,0-11.8-1.3-16.6,0.6c-4.8,1.9-8.3,7.3-12.4,11c-7.4,6.8-10.9,15.2-10.9,25.3
		c0.1,21.6,0,43.2,0,64.8c0,1.8,0.1,3.7,0.5,5.4c2.2,9.1,9.2,14.1,19.8,14.1C91.7,284.5,145.8,284.5,200,284.5z M355.8,145.9
		c-0.5-1.6-0.9-2.9-1.3-4.1c-8-21.6-16-43.1-24-64.7c-4-10.9-9.5-14.7-21.1-14.7c-71.1,0-142.1,0-213.2,0
		c-11.6,0-17.1,3.8-21.1,14.7c-8,21.6-16,43.1-24,64.7c-0.5,1.3-0.9,2.6-1.3,4.1c57.1,0,113.8,0,170.4,0
		c5.4-30.9,30.8-49.3,57.4-49.8c22.5-0.4,51.8,13.9,58.9,49.9C342.7,145.9,349,145.9,355.8,145.9z M17.2,296.8
		c0,8.5-0.3,16.2,0.1,23.8c0.4,9,8.2,16.6,17.4,16.8c8.2,0.2,16.4,0.2,24.6,0c8.1-0.2,15.9-6.1,16.9-14.1c0.9-7,0.2-14.2,0.2-21.8
		c-1.3,0-2.7,0-4.1,0c-10,0-20-0.1-30,0C33.8,301.7,25.4,301.7,17.2,296.8z M323.1,301.6c0,5.5,0,10.3,0,15.1c0,1.7,0.1,3.4,0.3,5.1
		c1.1,8.5,8.5,15.5,17.3,15.7c8.2,0.2,16.4,0.2,24.6,0c8.8-0.2,16.6-6.8,17.3-15.5c0.7-8.1,0.1-16.3,0.1-23.8
		c-5.5,1.2-10.8,3-16.2,3.3c-8.7,0.6-17.4,0.2-26.1,0.2C334.8,301.6,329.2,301.6,323.1,301.6z M318.3,146
		c-1.9-17.7-20.6-32.9-40.4-32.8c-19.6,0.1-38.1,15.3-40,32.8C264.7,146,291.5,146,318.3,146z"/>
	<linearGradient id="SVGID_2_" gradientUnits="userSpaceOnUse" x1="6.1353" y1="234.2083" x2="341.8479" y2="227.7523">
		<stop  offset="0" style="stop-color:#812CD3"/>
		<stop  offset="0.9996" style="stop-color:#4B2DD0"/>
	</linearGradient>
	<path class="st1" d="M319.1,258.9c-10,0-20,0-30,0c-7.4,0-10.3-3-10.4-10.4c0-13.5,0-27.1,0-40.6c0-7.5,2.9-10.4,10.4-10.4
		c20.2,0,40.3,0,60.5,0c7.1,0,10.2,3.1,10.3,10.2c0.1,13.7,0.1,27.3,0,41c0,7.1-3.1,10.2-10.3,10.2
		C339.4,258.9,329.3,258.9,319.1,258.9z M296.1,214.8c0,9.2,0,18,0,26.8c15.7,0,31.1,0,46.4,0c0-9.1,0-17.9,0-26.8
		C326.9,214.8,311.6,214.8,296.1,214.8z"/>
	<linearGradient id="SVGID_3_" gradientUnits="userSpaceOnUse" x1="6.0471" y1="229.619" x2="341.7597" y2="223.163">
		<stop  offset="0" style="stop-color:#812CD3"/>
		<stop  offset="0.9996" style="stop-color:#4B2DD0"/>
	</linearGradient>
	<path class="st2" d="M81,197.5c10.1,0,20.3,0,30.4,0c6.8,0,9.8,3,9.9,9.7c0.1,14,0.1,28.1,0,42.1c0,6.3-3.1,9.5-9.3,9.5
		c-20.8,0.1-41.6,0.1-62.4,0c-6,0-9.3-3.2-9.3-9.2c-0.1-14.3-0.1-28.6,0-42.9c0.1-6.1,3.4-9.3,9.6-9.3
		C60.2,197.4,70.6,197.5,81,197.5z M104.1,214.8c-15.7,0-31.1,0-46.6,0c0,9,0,17.8,0,26.8c15.6,0,31,0,46.6,0
		C104.1,232.6,104.1,224,104.1,214.8z"/>
	<linearGradient id="SVGID_4_" gradientUnits="userSpaceOnUse" x1="5.8456" y1="219.1416" x2="341.5582" y2="212.6856">
		<stop  offset="0" style="stop-color:#812CD3"/>
		<stop  offset="0.9996" style="stop-color:#4B2DD0"/>
	</linearGradient>
	<path class="st3" d="M200,206.9c13.7,0,27.3-0.1,41,0c7,0.1,11,6.7,7.8,12.5c-1.8,3.3-4.9,4.5-8.5,4.5c-6.2,0-12.5,0-18.7,0
		c-19.8,0-39.5,0-59.3,0c-1.2,0-2.3,0.1-3.5,0c-4.9-0.4-8.5-4-8.5-8.5c0-4.7,3.7-8.4,8.8-8.5C172.7,206.8,186.3,206.9,200,206.9z"/>
	<linearGradient id="SVGID_5_" gradientUnits="userSpaceOnUse" x1="6.3556" y1="245.6616" x2="342.0682" y2="239.2056">
		<stop  offset="0" style="stop-color:#812CD3"/>
		<stop  offset="0.9996" style="stop-color:#4B2DD0"/>
	</linearGradient>
	<path class="st4" d="M200.1,233.4c13.5,0,27.1-0.1,40.6,0c6.8,0.1,11.2,5.8,8.4,11.4c-1.1,2.2-3.9,3.9-6.2,5.2
		c-1.3,0.7-3.3,0.4-5,0.4c-25.2,0-50.5,0-75.7,0c-0.5,0-1,0-1.6,0c-6.4-0.1-10.4-3.4-10.4-8.6c0-5.2,4-8.4,10.5-8.4
		C173.8,233.3,186.9,233.4,200.1,233.4z"/>
</g>
</svg>
