<?xml version="1.0" encoding="utf-8"?>
<!-- Generator: Adobe Illustrator 23.1.1, SVG Export Plug-In . SVG Version: 6.00 Build 0)  -->
<svg version="1.1" id="Layer_1" xmlns="http://www.w3.org/2000/svg" xmlns:xlink="http://www.w3.org/1999/xlink" x="0px" y="0px"
	 viewBox="0 0 400 400" style="enable-background:new 0 0 400 400;" xml:space="preserve">
<style type="text/css">
	.st0{fill:#4B2DD0;}
</style>
<g>
	<path class="st0" d="M90.3,25.8c0-6.3,0-12.1,0-17.8c0-5.6,2.3-7.9,7.7-8c12.1,0,24.2-0.1,36.3,0c5.2,0,7.5,2.4,7.6,7.7
		c0,5.9,0,11.8,0,17.8h116.1V8.9c0-6.9,2-8.9,8.8-8.9c11.6,0,23.1,0,34.7,0c5.8,0,8.1,2.3,8.1,8c0,5.8,0,11.5,0,17.6
		c1.5,0.1,2.8,0.2,4.1,0.2c8.6,0,17.2,0,25.8,0c6.8,0,8.8,2,8.8,8.9V36v354c0,8.5-1.6,10-10.1,10H61.7c-8.5,0-10.1-1.6-10.1-10.1
		c0-118,0-236,0-354c0-8.6,1.6-10.1,10-10.1C71.1,25.8,80.4,25.8,90.3,25.8 M64.7,386.8h270.4V103.5H64.7V386.8z M258.1,39H141.9
		c0,5.9,0,11.6,0,17.2c0,6.1-2.2,8.3-8.2,8.3c-11.7,0-23.4,0-35.1,0c-6.1,0-8.3-2.2-8.3-8.2c0-5.7,0-11.5,0-17.3H64.9v51.1h270.3
		V39.1h-25.5c0,6.2,0.1,12.1,0,18c-0.1,5-2.5,7.4-7.5,7.4c-12.2,0.1-24.5,0.1-36.7,0c-5,0-7.3-2.5-7.4-7.5
		C258,51.1,258.1,45.2,258.1,39 M103.5,51.3h25.3V13.1h-25.3V51.3z M271.2,51.3h25.3V13.1h-25.3V51.3z"/>
	<path class="st0" d="M77.4,245.2c0-39.9,0-79.8,0-119.7c0-7.4,1.9-9.3,9.3-9.3c75.5,0,151.1,0,226.6,0c7.4,0,9.3,1.9,9.3,9.3v239.5
		c0,7.4-1.9,9.3-9.3,9.3c-75.5,0-151,0-226.6,0c-7.4,0-9.3-1.9-9.3-9.3C77.4,325,77.4,285.1,77.4,245.2 M309.5,129.3H90.7v25.3
		h218.8V129.3z M193.4,168H90.5v38.2h102.8V168z M193.4,219.7H90.7v38.2h102.7V219.7z M309.5,271.2H206.8v38.2h102.7V271.2z
		 M90.5,361h102.8v-38.2H90.5V361z M265.2,168h-58.4v38.3h42.6c-5.3-5.3-10-10-14.3-14.4c2.7-2.9,5.5-6,8.9-9.7
		c2.1,2.7,4,5.3,6.3,8.3C255.5,182.5,260.1,175.5,265.2,168 M265.1,219.7h-58.4v38.2h42.8c-5.4-5.4-10.1-10.2-14.2-14.3
		c2.5-2.8,5.3-5.9,8.6-9.5c2.1,2.6,4.1,5,6.4,7.8C255.5,234.1,260.2,227.1,265.1,219.7 M149,271.3H90.7v38.2h42.8
		c-5.4-5.4-10.1-10.2-14.2-14.3c2.5-2.8,5.3-5.9,8.6-9.5c2.1,2.6,4.1,5,6.5,7.8C139.4,285.7,144.1,278.7,149,271.3 M206.6,361h41.8
		c0.2-0.3,0.5-0.7,0.7-1c-4.7-4.7-9.4-9.4-14-13.8c2.4-2.6,5.2-5.5,8.5-9c2.1,2.7,4.1,5.3,6.4,8.3c5.4-8.1,10.1-15.2,15.1-22.7
		h-58.6V361z M309.5,167.8c-6.1,0-11.9,0.6-17.6-0.1c-8.1-1-13.1,1.8-17.3,9c-5.8,10.3-13,19.8-19.6,29.6h54.4V167.8z M309.5,219.4
		c-8.7,0-17,0.1-25.3-0.1c-2.5,0-3.8,0.8-5.2,2.8c-7.9,12-16,23.9-23.9,35.7h54.4V219.4z M193.3,309.6V271c-8.6,0-16.9,0.1-25.2-0.1
		c-2.4,0-3.9,0.7-5.2,2.8c-7.9,12-16,23.9-24,35.9H193.3z M255.1,361h54.2v-38.4c-9,0-17.7-0.1-26.4,0.1c-1.3,0-2.9,1.2-3.6,2.3
		c-4.4,6.4-8.7,12.9-13,19.3C262.6,349.9,258.9,355.4,255.1,361"/>
</g>
</svg>
