<?xml version="1.0" encoding="utf-8"?>
<!-- Generator: Adobe Illustrator 23.1.1, SVG Export Plug-In . SVG Version: 6.00 Build 0)  -->
<svg version="1.1" id="Layer_1" xmlns="http://www.w3.org/2000/svg" xmlns:xlink="http://www.w3.org/1999/xlink" x="0px" y="0px"
	 viewBox="0 0 400 400" style="enable-background:new 0 0 400 400;" xml:space="preserve">
<style type="text/css">
	.st0{clip-path:url(#SVGID_2_);fill:url(#SVGID_3_);}
	.st1{clip-path:url(#SVGID_5_);fill:url(#SVGID_6_);}
	.st2{clip-path:url(#SVGID_8_);fill:url(#SVGID_9_);}
	.st3{clip-path:url(#SVGID_11_);fill:url(#SVGID_12_);}
	.st4{clip-path:url(#SVGID_14_);fill:url(#SVGID_15_);}
	.st5{clip-path:url(#SVGID_17_);fill:url(#SVGID_18_);}
	.st6{clip-path:url(#SVGID_20_);fill:url(#SVGID_21_);}
	.st7{clip-path:url(#SVGID_23_);fill:url(#SVGID_24_);}
	.st8{clip-path:url(#SVGID_26_);fill:url(#SVGID_27_);}
</style>
<g>
	<defs>
		<path id="SVGID_1_" d="M134.2,333.6h25c-4.3,5.4-8.2,10.3-12.5,15.6C142.5,344,138.5,339,134.2,333.6 M53.8,346.6
			c-4.2,0-7-2.9-7-6.7c0-3.8,2.8-6.5,7.1-6.6c20.2-0.1,40.5-0.1,60.7,0c1.1,0,2.5,0.5,3.2,1.3c3.1,3.6,6.1,7.4,9.7,12
			c-12.6,0-25,0-37.2,0C78,346.6,65.9,346.6,53.8,346.6 M122.6,302.8c4.4-2.1,8.7-4.2,13-6.5c2.9-1.6,5.7-1.6,8.7-0.1
			c3.8,2,7.7,3.8,11.5,5.8c7.2,3.8,14.3,3.9,21.5,0.1c3.8-2,7.6-4.2,11.6-5.6c2.5-0.9,5.6-0.8,8.3-0.5c3.1,0.4,6.1,1.6,9.2,2.4
			c1.5,11.3-7.7,21.4-19.9,21.5c-23.9,0.1-47.7,0-71.6,0c-16,0-31.9,0.1-47.9,0c-10.9-0.1-19-7.7-19.8-17.6c5.7,0.4,11.6,1.5,17.3,1
			c4.1-0.3,8.4-2.1,11.9-4.4c7-4.4,13.5-4.9,20.4,0c2.2,1.6,4.9,2.6,7.4,3.7c3.1,1.5,6.2,2.2,9.2,2.2
			C116.5,305,119.6,304.3,122.6,302.8 M43.3,282.3c-0.4-0.5-0.7-1.1-1.2-2.1h170.2c-2.5,4-5.5,5.4-9.5,3.6
			c-7.7-3.5-14.6-2.1-21.9,1.5c-17.2,8.6-11.4,8.6-28.3,0c-8.7-4.4-16.6-4.3-25.3,0.1c-16.8,8.6-11.1,8.5-27.9,0
			c-8.7-4.4-16.8-5-25.2,0c-1.9,1.1-4,2-6,3c-2.7,1.3-5.6,1.9-8.5,1.9C53.5,290.3,47.2,287.4,43.3,282.3 M292.9,221.8
			c4.6,1.1,8.8,2.1,13.4,3.2c-0.5,9.4-1,18.7-1.5,27.9c-0.5,8.6-1.1,17.2-1.4,25.8c-0.1,3-1,4.6-4,5.2c-3.1,0.6-6.2,1.4-10,2.3
			C290.5,264.4,291.7,243.4,292.9,221.8 M232.3,261.2c-1.8-6.9-4.3-13.7-6.6-20.5c-3.7-10.8-8.2-21.5-11.1-32.5
			c-1-3.8,1.7-8.7,2.8-13.4c3.6,1.2,6.5,2,9.2,3.3c1.1,0.5,2.1,1.8,2.5,2.9c5.7,15.8,12,31.3,16.5,47.4c2.6,9.3,2.3,19.4,3.4,29.4
			C241.9,276.2,233.9,267.4,232.3,261.2 M180.9,202.8c-2.4-1.6-3.1-5.7-4.8-8.9c1.1-0.4,1.2-0.4,1.4-0.5c12.2-0.6,13,0.1,16.6,14.6
			C189.6,206.3,184.7,205.4,180.9,202.8 M318.6,243.2c0.4-6.6,0.7-13.3,1.3-19.9c0.4-4.8-0.6-8.5-5.7-10.2c1.5-12.2,3-24.3,4.7-37
			c7,2.8,13.5,5.4,20.2,8c-2.9,15.3-5.8,30.4-8.6,45.5c-2.3,12.4-4.9,24.7-7,37.1c-0.7,4-2.9,6.2-6.6,8.4
			C317.4,264.1,318,253.7,318.6,243.2 M261.6,272.6c-2.2-28.3-4.7-56.7-7.1-85c-0.3-3.5-0.6-6.9-0.8-10.4c-0.1-0.9,0-2,0.6-2.7
			c4.2-5.8,8.5-11.5,13.4-18.1c4.2,4.4,8,8.3,11.6,12.5c0.9,1,1.1,2.8,1.2,4.3c0.9,10.7,1.8,21.3,2.6,32c0.1,0.9-0.1,1.9-0.4,2.8
			c-0.9,3.1-2.5,6.1-2.7,9.2c-1.4,21.9-2.6,43.8-3.9,65.7c-0.1,1.1-0.2,2.2-0.4,3.5C262.4,285.4,262.6,285.4,261.6,272.6
			 M86.8,120.3c0.2-4.4,2.7-6.9,7.2-6.9c35.2,0,70.5,0,105.7,0c4.4,0,6.9,2.6,7.1,7c0.1,1.9,0,3.8,0,6h-120
			C86.7,124.2,86.7,122.2,86.8,120.3 M140.1,81.9c0-7.6-0.2-15.3,0.1-22.9c0.1-2.3,1.3-5.5,3.1-6.7c17.8-12.2,35.9-24.1,54.2-36.4
			c2.5,3.7,4.8,7.2,7.4,11c-4.2,2.8-8.1,5.5-12,8.1c-11.3,7.5-22.6,15.2-34,22.5c-3.9,2.5-5.7,5.5-5.6,10.2
			c0.3,10.5,0.1,21.1,0.1,32h-13.3V81.9z M193.6,2.5c-18.9,12.6-37.8,25.3-56.8,37.8c-6.8,4.5-10.2,10.7-10.1,18.9
			c0.1,12.1,0,24.2,0,36.2v4.2c-0.9,0.2-1.1,0.3-1.4,0.3c-10.4,0-20.8,0-31.2,0.1c-12.2,0.1-20.6,8.6-20.7,20.8c0,1.9,0,3.8,0,5.9
			c-4.5,0-8.3,0-12.2,0c-12.7,0.1-21.6,8.5-21,21.2c0.7,15.4,2.4,30.7,3.8,46c0.5,5.2,3.6,7.7,7.9,7c3.9-0.7,5.8-4,5.2-8.9
			c-1-8.2-1.9-16.5-2.9-25.2H59c15.3,0,30.6,0,45.8,0c5.5,0,8.7-2.5,8.6-6.8c-0.1-4.1-3.1-6.5-8.5-6.5c-15.4,0-30.8,0-46.2,0h-4.8
			c-1.4-9.1-0.2-13.5,10.7-13.5c55,0.3,110,0.1,164.9,0.1c1.4,0,2.8-0.1,4.2,0c3.7,0.4,5.9,2.5,6.3,6.1c0.3,2.3,0,4.6,0,7.2h-5
			c-32.8,0-65.5,0-98.3,0c-1.4,0-2.8-0.1-4.2,0.1c-3.6,0.7-5.8,2.9-5.7,6.6c0,3.7,2.2,5.9,5.8,6.5c1.4,0.2,2.8,0.1,4.1,0.1
			c33.9,0,67.8,0,101.6,0h4.3c-5.5,9.6,0,19-1.2,26.9c-2-2-4.2-5.4-7.2-6.8c-5.7-2.7-11.9-4.4-18-6.4c-4.6-1.5-7.5,0-9.3,4.5
			c-1.1,2.9-2.1,5.9-3.4,9.7c-1.4-3.5-2.6-6.3-3.6-9.1c-1.4-3.9-4.1-5.6-8.2-5.5c-4.5,0.1-9,0.1-13.5,0.1c-3.4,0-6.8,0-10.2,0
			c-6.5,0-9.3,4-7.2,10.2c1.1,3.2,2.3,6.3,3.5,9.8c-21.2,0-41.7-0.1-62.3,0c-6.4,0-12.8,0.1-19.1,0.8c-10.8,1.2-20.7,5.2-29.7,11.2
			c-3.4,2.2-4.2,5.9-2.3,9.1c1.9,3.1,5.5,4.1,9.1,2.3c0.7-0.4,1.4-0.8,2.2-1.3c9.6-5.8,20-8.8,31.2-8.8c22.4,0,44.7-0.1,67.1,0
			c27.1,0.2,51,18.9,57.6,45c0.7,2.6,0.9,5.3,1.4,8H34c0.9-9.5,4.2-17.7,9-25.5c2.3-3.8,1.5-7.4-1.7-9.5c-3.2-2.1-7-1.4-9.4,2.2
			c-7.8,11.9-11.7,25.1-11.8,39.3c0,3.3,1.4,6,4.6,6.6c2.7,0.6,3,2.5,4.2,4.2c4.1,5.9,5.9,12.2,4.6,19.3c-0.1,0.6,0.1,1.4,0.3,2
			c2.5,6.2,5,12.3,7.4,18.2c-2,3-5.1,6.2-6.5,10.1c-1.4,4-1,8.6-1.4,13.3c-1.3,0-3.2,0-5.2,0c-5.7,0.1-8.1,2.4-8.1,8.1
			c0,4.3-0.1,8.6,0,12.9c0.4,15.5,11.6,29.2,27,31.4c6.1,0.9,12.4,0.9,18.7,0.8c2.2,0,4.4,0,6.6,0c4.6,0,7.5-2.6,7.6-6.5
			c0.1-4-2.9-6.7-7.8-6.7c-3.5,0-7,0-10.5,0c-1.9,0-3.8,0-5.7,0c-16,0-24.6-10.3-22.1-26.5c0.7,0,1.5-0.1,2.4-0.1
			c33,0,66.1,0,99.1,0.1c1.7,0,3.8,1.4,5,2.7c4.5,5.1,8.5,5.2,12.7-0.1c7.2-9,14.3-18,21.7-26.9c1-1.3,3.1-2.3,4.7-2.4
			c6.5-0.3,13-0.2,19.6-0.1c4.6,0,7.5,2.6,7.7,6.5c0.1,4-2.9,6.8-7.7,6.8c-1.9,0-3.7,0-5.6,0c-2.7,0-5.4,0-8.1,0.1
			c-3.3,0.1-5.5,1.9-6.2,5.1c-0.7,3.1,0.3,5.6,3.1,7.1c1.5,0.8,3.4,1,5.2,1c10.8,0.1,21.6,0,32.3,0c2.5,16.5-6.1,26.7-22.1,26.7
			c-12,0-24.1,0-36.1,0c-20,0-40.1,0-60.1,0c-4.9,0-7.8,2.7-7.8,6.8c0.1,3.9,3,6.5,7.6,6.5c33.3,0,66.6,0.1,100-0.1
			c15.6-0.1,29.1-11.6,31.5-26.9c1.1-6.6,0.9-13.6,0.7-20.3c-0.1-3.8-2.9-5.9-6.8-6c-2.4-0.1-4.8,0-7.3,0c1.8-11.5,0.2-16-8.2-23.7
			c7.9-10.3,9.5-15.5,8.5-28.3c-0.1-0.7-0.1-1.5,0.2-2c2.6-4.1,5.3-8.2,8.1-12.6c0.3,0.2,1.1,0.5,1.8,1.1
			c17.5,15.2,37.8,21.2,60.7,17.9c27.6-4,48.3-16.9,56.4-45.6h19c-2.8,21-5.6,41.7-8.5,62.5c-0.7,5.4,1.2,8.9,5.5,9.5
			c4,0.6,6.9-2.1,7.6-7.4c3.3-23.2,6.5-46.5,9.6-69.7c0.7-5.2-2.1-8.3-7.2-8.4c-1.9-0.1-3.9,0-5.8,0h-24.7
			c4.7-25.1,9.3-49.7,14.1-75.5c3.1,5.1,5.8,9.1,7.9,13.4c1,2.1,1.6,5,1.1,7.3c-2,10.6-4.4,21.2-6.6,31.7c-1.1,5.2,0.6,8.8,4.6,9.7
			c4.1,0.9,7.3-1.5,8.4-6.5c2.7-12.3,5.4-24.6,7.7-37c0.5-2.5,0-5.6-1.2-7.8c-5.9-10.4-12.2-20.5-18.3-30.8
			c-1.7-2.8-3.8-4.9-7.4-4.4c-3.7,0.5-5.2,3.1-6,6.5c-1.6,7.9-3.4,15.6-5.2,23.8c-1.8-0.6-3.2-1.1-4.6-1.7c-6.7-2.7-13.4-5.4-20.1-8
			c-5.5-2.1-9.3,0.2-10,6.1c-0.9,6.6-1.7,13.2-2.5,19.8c-1,7.6-2,15.3-3,23.2c-1.8-0.5-3.1-0.8-4.4-1.2c-0.9-11.2-1.9-22.1-2.5-33.1
			c-0.6-8.7-3.4-17.3-1.7-26.3c0.9-5.2,4.4-7.5,9.2-5c5,2.6,10,5.4,15.1,8c3.8,1.9,7.5,0.7,9.2-2.8c1.7-3.3,0.6-6.8-3-8.8
			c-3-1.8-6.1-3.3-9.1-4.9c-13.6-7.3-13.6-7.3-28.2-2.5c-0.1,0-0.3,0.1-0.4,0.1c-3.3,1.1-5,3.2-5.3,6.7c-0.2,2.9-0.6,5.8-1,9.9
			c-2.7-3-4.5-5.1-6.5-7c-4.5-4.4-8.2-4.1-12.1,1c-2.1,2.7-4.2,5.5-7,9.1c0-2-0.1-2.7,0-3.4c1.3-12.3-7.7-24.3-23.5-23.1
			c-3.2,0.3-6.5,0-9.9,0v-5.3c-0.1-13.1-8.3-21.4-21.3-21.4c-8.5,0-16.9,0-25.4,0h-6.6c0-9.8,0.1-19-0.1-28.1c0-2.6,0.9-4,2.9-5.3
			c15.5-10.2,31-20.6,46.4-30.9c5.6-3.7,6.1-6.6,2.5-12.1c-4.1-6.2-8.3-12.5-12.5-18.7C203.9,1.5,202,0,199.7,0
			C198,0,196.1,0.8,193.6,2.5"/>
	</defs>
	<clipPath id="SVGID_2_">
		<use xlink:href="#SVGID_1_"  style="overflow:visible;"/>
	</clipPath>
	
		<linearGradient id="SVGID_3_" gradientUnits="userSpaceOnUse" x1="-1165.9674" y1="2107.217" x2="-1156.3085" y2="2107.217" gradientTransform="matrix(37.2618 0 0 -37.2618 43466.043 78718.7422)">
		<stop  offset="0" style="stop-color:#812CD3"/>
		<stop  offset="0.9996" style="stop-color:#4B2DD0"/>
		<stop  offset="1" style="stop-color:#4B2DD0"/>
	</linearGradient>
	<rect x="20" y="0" class="st0" width="360.5" height="400.1"/>
</g>
<g>
	<defs>
		<path id="SVGID_4_" d="M249.9,176.5c-1.9,13.4-3.8,26.9-5.7,40.8h-5c-31.3,0-62.7,0-94,0c-5.3,0-8.3,2.4-8.4,6.6
			c0,4.2,3,6.7,8.2,6.7c34.5,0,69.1,0,103.6,0c5.3,0,7.4-1.9,8.2-7.3c2-14.8,4-29.7,6.1-44.5c0.7-5.3-1.1-8.6-5.2-9.3
			c-0.5-0.1-0.9-0.1-1.4-0.1C252.9,169.4,250.6,171.8,249.9,176.5"/>
	</defs>
	<clipPath id="SVGID_5_">
		<use xlink:href="#SVGID_4_"  style="overflow:visible;"/>
	</clipPath>
	
		<linearGradient id="SVGID_6_" gradientUnits="userSpaceOnUse" x1="-1199.401" y1="2070.1277" x2="-1189.7421" y2="2070.1277" gradientTransform="matrix(13.0777 0 0 -13.0777 15822.2041 27272.4961)">
		<stop  offset="0" style="stop-color:#812CD3"/>
		<stop  offset="0.9996" style="stop-color:#4B2DD0"/>
		<stop  offset="1" style="stop-color:#4B2DD0"/>
	</linearGradient>
	<rect x="136.8" y="169.4" class="st1" width="126.9" height="61.2"/>
</g>
<g>
	<defs>
		<path id="SVGID_7_" d="M199.7,213.3c-7.2-0.1-13.2-6.2-13.1-13.5c0.1-7.3,6.1-13.2,13.3-13.2c7.4,0,13.5,6.2,13.3,13.7
			c-0.2,7.2-6.2,13-13.4,13C199.9,213.3,199.8,213.3,199.7,213.3 M199.6,173.3c-14.5,0.1-26.3,12.1-26.3,26.7
			c0,14.7,12.1,26.7,26.8,26.6c14.7-0.1,26.6-12.1,26.5-26.9c-0.1-14.6-12.1-26.4-26.8-26.4C199.8,173.3,199.7,173.3,199.6,173.3"/>
	</defs>
	<clipPath id="SVGID_8_">
		<use xlink:href="#SVGID_7_"  style="overflow:visible;"/>
	</clipPath>
	
		<linearGradient id="SVGID_9_" gradientUnits="userSpaceOnUse" x1="-1268.9138" y1="1990.4276" x2="-1259.2549" y2="1990.4276" gradientTransform="matrix(5.5188 0 0 -5.5188 7176.2207 11184.8418)">
		<stop  offset="0" style="stop-color:#812CD3"/>
		<stop  offset="0.9996" style="stop-color:#4B2DD0"/>
		<stop  offset="1" style="stop-color:#4B2DD0"/>
	</linearGradient>
	<rect x="173.3" y="173.3" class="st2" width="53.4" height="53.4"/>
</g>
<g>
	<defs>
		<path id="SVGID_10_" d="M199.8,193.4c-3.6,0.1-6.5,3.2-6.5,6.8c0.1,3.6,3.2,6.6,6.8,6.5c3.6-0.1,6.6-3.2,6.5-6.8
			c-0.1-3.6-3.1-6.5-6.6-6.5C199.9,193.4,199.9,193.4,199.8,193.4"/>
	</defs>
	<clipPath id="SVGID_11_">
		<use xlink:href="#SVGID_10_"  style="overflow:visible;"/>
	</clipPath>
	
		<linearGradient id="SVGID_12_" gradientUnits="userSpaceOnUse" x1="-1620.3569" y1="1566.5798" x2="-1610.698" y2="1566.5798" gradientTransform="matrix(1.3732 0 0 -1.3732 2418.5161 2351.3467)">
		<stop  offset="0" style="stop-color:#812CD3"/>
		<stop  offset="0.9996" style="stop-color:#4B2DD0"/>
		<stop  offset="1" style="stop-color:#4B2DD0"/>
	</linearGradient>
	<rect x="193.3" y="193.4" class="st3" width="13.4" height="13.4"/>
</g>
<g>
	<defs>
		<path id="SVGID_13_" d="M199.9,193.4c-3.6,0-6.6,3.1-6.6,6.7c0,3.6,3.1,6.6,6.7,6.6c3.6,0,6.6-3.1,6.6-6.7
			S203.6,193.4,199.9,193.4C200,193.4,199.9,193.4,199.9,193.4"/>
	</defs>
	<clipPath id="SVGID_14_">
		<use xlink:href="#SVGID_13_"  style="overflow:visible;"/>
	</clipPath>
	
		<linearGradient id="SVGID_15_" gradientUnits="userSpaceOnUse" x1="-1624.4971" y1="1566.4591" x2="-1614.8381" y2="1566.4591" gradientTransform="matrix(1.3729 0 0 -1.3729 2423.6406 2350.6104)">
		<stop  offset="0" style="stop-color:#812CD3"/>
		<stop  offset="0.9996" style="stop-color:#4B2DD0"/>
		<stop  offset="1" style="stop-color:#4B2DD0"/>
	</linearGradient>
	<rect x="193.3" y="193.4" class="st4" width="13.3" height="13.3"/>
</g>
<g>
	<defs>
		<path id="SVGID_16_" d="M193.4,199.9c-0.1,3.6,2.9,6.7,6.5,6.8c3.6,0.1,6.7-2.9,6.7-6.5c0.1-3.6-2.9-6.7-6.5-6.7c0,0-0.1,0-0.1,0
			C196.4,193.4,193.4,196.3,193.4,199.9"/>
	</defs>
	<clipPath id="SVGID_17_">
		<use xlink:href="#SVGID_16_"  style="overflow:visible;"/>
	</clipPath>
	
		<linearGradient id="SVGID_18_" gradientUnits="userSpaceOnUse" x1="-1616.9135" y1="1567.0033" x2="-1607.2546" y2="1567.0033" gradientTransform="matrix(1.373 0 0 -1.373 2413.4363 2351.5732)">
		<stop  offset="0" style="stop-color:#812CD3"/>
		<stop  offset="0.9996" style="stop-color:#4B2DD0"/>
		<stop  offset="1" style="stop-color:#4B2DD0"/>
	</linearGradient>
	<rect x="193.3" y="193.4" class="st5" width="13.4" height="13.3"/>
</g>
<g>
	<defs>
		<path id="SVGID_19_" d="M193.4,200c0,3.6,3,6.7,6.6,6.7c3.6,0,6.7-3,6.7-6.6c0-3.6-3-6.7-6.6-6.7c0,0,0,0,0,0
			C196.4,193.4,193.4,196.3,193.4,200"/>
	</defs>
	<clipPath id="SVGID_20_">
		<use xlink:href="#SVGID_19_"  style="overflow:visible;"/>
	</clipPath>
	
		<linearGradient id="SVGID_21_" gradientUnits="userSpaceOnUse" x1="-1622.4989" y1="1566.9523" x2="-1612.84" y2="1566.9523" gradientTransform="matrix(1.3729 0 0 -1.3729 2420.8467 2351.2378)">
		<stop  offset="0" style="stop-color:#812CD3"/>
		<stop  offset="0.9996" style="stop-color:#4B2DD0"/>
		<stop  offset="1" style="stop-color:#4B2DD0"/>
	</linearGradient>
	<rect x="193.3" y="193.4" class="st6" width="13.3" height="13.3"/>
</g>
<g>
	<defs>
		<path id="SVGID_22_" d="M193.4,199.9c0,3.6,3,6.7,6.6,6.7c3.6,0,6.7-3,6.7-6.6c0-3.6-3-6.6-6.6-6.7c0,0,0,0,0,0
			C196.4,193.4,193.4,196.3,193.4,199.9"/>
	</defs>
	<clipPath id="SVGID_23_">
		<use xlink:href="#SVGID_22_"  style="overflow:visible;"/>
	</clipPath>
	
		<linearGradient id="SVGID_24_" gradientUnits="userSpaceOnUse" x1="-1618.98" y1="1567.4559" x2="-1609.321" y2="1567.4559" gradientTransform="matrix(1.3729 0 0 -1.3729 2416.0164 2351.928)">
		<stop  offset="0" style="stop-color:#812CD3"/>
		<stop  offset="0.9996" style="stop-color:#4B2DD0"/>
		<stop  offset="1" style="stop-color:#4B2DD0"/>
	</linearGradient>
	<rect x="193.3" y="193.4" class="st7" width="13.3" height="13.3"/>
</g>
<g>
	<defs>
		<path id="SVGID_25_" d="M200,193.4c-3.6,0-6.6,3-6.6,6.6c0,3.6,3,6.6,6.6,6.6c3.6,0,6.6-3,6.6-6.7S203.6,193.4,200,193.4
			C200,193.4,200,193.4,200,193.4"/>
	</defs>
	<clipPath id="SVGID_26_">
		<use xlink:href="#SVGID_25_"  style="overflow:visible;"/>
	</clipPath>
	
		<linearGradient id="SVGID_27_" gradientUnits="userSpaceOnUse" x1="-1626.5393" y1="1567.4459" x2="-1616.8804" y2="1567.4459" gradientTransform="matrix(1.3728 0 0 -1.3728 2426.3228 2351.8452)">
		<stop  offset="0" style="stop-color:#812CD3"/>
		<stop  offset="0.9996" style="stop-color:#4B2DD0"/>
		<stop  offset="1" style="stop-color:#4B2DD0"/>
	</linearGradient>
	<rect x="193.4" y="193.4" class="st8" width="13.3" height="13.3"/>
</g>
</svg>
