<?xml version="1.0" encoding="utf-8"?>
<!-- Generator: Adobe Illustrator 23.1.1, SVG Export Plug-In . SVG Version: 6.00 Build 0)  -->
<svg version="1.1" id="Layer_1" xmlns="http://www.w3.org/2000/svg" xmlns:xlink="http://www.w3.org/1999/xlink" x="0px" y="0px"
	 viewBox="0 0 400 400" style="enable-background:new 0 0 400 400;" xml:space="preserve">
<style type="text/css">
	.st0{fill:#4B2DD0;}
</style>
<g>
	<path class="st0" d="M200,400C89.7,400,0,310.3,0,200C0,89.7,89.7,0,200,0c110.3,0,200,89.7,200,200C400,310.3,310.3,400,200,400
		 M200,19.7c-99.4,0-180.3,80.9-180.3,180.3c0,99.4,80.9,180.3,180.3,180.3c99.4,0,180.3-80.9,180.3-180.3
		C380.3,100.6,299.4,19.7,200,19.7"/>
	
		<rect x="193.7" y="7" transform="matrix(0.7071 -0.7071 0.7071 0.7071 -79.369 203.8821)" class="st0" width="25.4" height="381.6"/>
	<path class="st0" d="M332.3,344.1L60.1,71.8l20.4-20.4l272.3,272.3L332.3,344.1z M65,71.8l267.4,267.4l15.5-15.5L80.5,56.3L65,71.8
		z"/>
	<path class="st0" d="M200,400C89.7,400,0,310.3,0,200C0,89.7,89.7,0,200,0c110.3,0,200,89.7,200,200C400,310.3,310.3,400,200,400
		 M200,19.7c-99.4,0-180.3,80.9-180.3,180.3c0,99.4,80.9,180.3,180.3,180.3c99.4,0,180.3-80.9,180.3-180.3
		C380.3,100.6,299.4,19.7,200,19.7"/>
	
		<rect x="193.7" y="7" transform="matrix(0.7071 -0.7071 0.7071 0.7071 -79.369 203.8821)" class="st0" width="25.4" height="381.6"/>
	<path class="st0" d="M332.3,344.1L60.1,71.8l20.4-20.4l272.3,272.3L332.3,344.1z M65,71.8l267.4,267.4l15.5-15.5L80.5,56.3L65,71.8
		z"/>
	<path class="st0" d="M200,400C89.7,400,0,310.3,0,200C0,89.7,89.7,0,200,0c110.3,0,200,89.7,200,200C400,310.3,310.3,400,200,400
		 M200,19.7c-99.4,0-180.3,80.9-180.3,180.3c0,99.4,80.9,180.3,180.3,180.3c99.4,0,180.3-80.9,180.3-180.3
		C380.3,100.6,299.4,19.7,200,19.7"/>
	
		<rect x="193.7" y="7" transform="matrix(0.7071 -0.7071 0.7071 0.7071 -79.369 203.8821)" class="st0" width="25.4" height="381.6"/>
	<path class="st0" d="M332.3,344.1L60.1,71.8l20.4-20.4l272.3,272.3L332.3,344.1z M65,71.8l267.4,267.4l15.5-15.5L80.5,56.3L65,71.8
		z"/>
	<path class="st0" d="M200,400C89.7,400,0,310.3,0,200C0,89.7,89.7,0,200,0c110.3,0,200,89.7,200,200C400,310.3,310.3,400,200,400
		 M200,19.7c-99.4,0-180.3,80.9-180.3,180.3c0,99.4,80.9,180.3,180.3,180.3c99.4,0,180.3-80.9,180.3-180.3
		C380.3,100.6,299.4,19.7,200,19.7"/>
	
		<rect x="193.7" y="7" transform="matrix(0.7071 -0.7071 0.7071 0.7071 -79.369 203.8821)" class="st0" width="25.4" height="381.6"/>
	<path class="st0" d="M332.3,344.1L60.1,71.8l20.4-20.4l272.3,272.3L332.3,344.1z M65,71.8l267.4,267.4l15.5-15.5L80.5,56.3L65,71.8
		z"/>
	<path class="st0" d="M214.3,266.7c5.9,5.4,7,8.5,5.7,16.6c1.7,0,3.4,0,5.1,0c2.7,0.1,4.7,1.5,4.7,4.2c0.1,4.8,0.3,9.6-0.5,14.3
		c-1.7,10.8-11.2,18.8-22.1,18.9c-23.4,0.2-46.7,0.1-70.1,0c-3.2,0-5.3-1.9-5.3-4.6c0-2.8,2-4.7,5.4-4.7c22.5,0,45,0,67.4,0
		c11.2,0,17.2-7.1,15.5-18.7c-7.5,0-15.1,0-22.7,0c-1.2,0-2.6-0.2-3.6-0.7c-1.9-1-2.6-2.8-2.2-4.9c0.5-2.3,2.1-3.5,4.4-3.6
		c3.2-0.1,6.4,0,9.6-0.1c3.4,0,5.5-2,5.4-4.8c-0.1-2.7-2.1-4.5-5.4-4.5c-4.6,0-9.1-0.1-13.7,0.1c-1.1,0-2.6,0.8-3.3,1.7
		c-5.1,6.2-10.1,12.6-15.2,18.9c-3,3.7-5.7,3.6-8.9,0.1c-0.8-0.9-2.3-1.9-3.5-1.9c-23.2-0.1-46.3-0.1-69.5-0.1
		c-0.6,0-1.1,0.1-1.7,0.1c-1.8,11.4,4.3,18.6,15.5,18.6c3.8,0,7.6,0,11.4,0c3.4,0,5.5,1.9,5.5,4.7c0,2.8-2.1,4.6-5.3,4.6
		c-5.9-0.1-11.9,0.3-17.8-0.6c-10.8-1.6-18.6-11.2-18.9-22c-0.1-3,0-6,0-9.1c0-4,1.7-5.6,5.7-5.7c1.4,0,2.7,0,3.6,0
		c0.3-3.3,0-6.5,1-9.3c0.9-2.7,3.1-5,4.5-7.1c-1.7-4.1-3.4-8.4-5.2-12.8c-0.2-0.4-0.3-1-0.2-1.4c0.9-5-0.4-9.4-3.2-13.5
		c-0.9-1.2-1-2.6-3-3c-2.2-0.4-3.2-2.3-3.2-4.6c0.1-10,2.8-19.2,8.3-27.5c1.6-2.5,4.3-3.1,6.6-1.5c2.2,1.5,2.8,4,1.2,6.7
		c-3.3,5.5-5.7,11.3-6.3,17.9h130.1c-0.3-1.9-0.5-3.8-1-5.6c-4.7-18.4-21.4-31.5-40.4-31.6c-15.7-0.1-31.3,0-47,0
		c-7.9,0-15.2,2.1-21.9,6.2c-0.5,0.3-1,0.6-1.5,0.9c-2.5,1.2-5.1,0.6-6.4-1.6c-1.3-2.2-0.7-4.8,1.6-6.4c6.3-4.2,13.3-7,20.8-7.8
		c4.4-0.5,8.9-0.6,13.4-0.6c14.4-0.1,28.8,0,43.6,0c-0.9-2.4-1.7-4.7-2.4-6.9c-1.5-4.3,0.5-7.1,5-7.1c5.6,0,11.1,0.1,16.6,0
		c2.9-0.1,4.8,1.1,5.8,3.9c0.7,2,1.6,3.9,2.5,6.4c0.9-2.6,1.6-4.7,2.4-6.8c1.2-3.1,3.3-4.1,6.5-3.1c4.3,1.4,8.6,2.6,12.6,4.5
		c2.1,1,3.6,3.3,5,4.7c0.8-5.6-3-12.1,0.8-18.9h-3c-23.7,0-47.5,0-71.2,0c-1,0-2,0.1-2.9-0.1c-2.5-0.5-4-2-4-4.6
		c0-2.6,1.5-4.1,4-4.6c0.9-0.2,1.9-0.1,2.9-0.1c23,0,45.9,0,68.9,0h3.5c0-1.8,0.1-3.4,0-5c-0.3-2.5-1.8-4-4.4-4.3
		c-1-0.1-1.9,0-2.9,0c-38.5,0-77.1,0.1-115.6-0.1c-7.6,0-8.5,3-7.5,9.4h3.4c10.8,0,21.6,0,32.4,0c3.7,0,5.9,1.7,5.9,4.6
		c0.1,3-2.1,4.8-6,4.8c-10.7,0-21.4,0-32.1,0h-3.3c0.7,6.1,1.3,11.9,2,17.7c0.4,3.5-0.9,5.8-3.7,6.3c-3,0.5-5.2-1.3-5.5-4.9
		c-1-10.7-2.2-21.5-2.7-32.2c-0.4-8.9,5.8-14.8,14.7-14.9c2.7,0,5.4,0,8.6,0c0-1.5,0-2.8,0-4.1c0.1-8.6,6-14.5,14.5-14.6
		c7.3,0,14.6,0,21.9,0c0.2,0,0.4-0.1,1-0.2v-3c0-8.5,0.1-16.9,0-25.4c0-5.8,2.3-10.1,7.1-13.2c13.3-8.8,26.5-17.7,39.8-26.5
		c4-2.7,6.1-2.3,8.7,1.6c2.9,4.4,5.8,8.7,8.7,13.1c2.5,3.9,2.1,5.9-1.7,8.5C207,72.6,196.2,79.8,185.3,87c-1.5,1-2.1,2-2.1,3.7
		c0.1,6.4,0,12.8,0,19.7h4.6c5.9,0,11.9,0,17.8,0c9.1,0,14.9,5.9,15,15v3.7c2.4,0,4.6,0.2,6.9,0c11.1-0.8,17.4,7.5,16.4,16.2
		c-0.1,0.5,0,1,0,2.4c1.9-2.6,3.4-4.5,4.9-6.4c2.7-3.5,5.4-3.8,8.5-0.7c1.4,1.4,2.6,2.8,4.6,4.9c0.3-2.9,0.6-4.9,0.7-7
		c0.2-2.4,1.4-4,3.7-4.7c0.1,0,0.2,0,0.3-0.1c10.3-3.3,10.3-3.3,19.8,1.7c2.1,1.1,4.3,2.2,6.4,3.5c2.5,1.5,3.2,3.9,2.1,6.2
		c-1.2,2.4-3.8,3.3-6.4,2c-3.6-1.8-7-3.8-10.6-5.6c-3.4-1.8-5.8-0.1-6.5,3.5c-1.1,6.3,0.8,12.3,1.2,18.4c0.5,7.7,1.2,15.3,1.8,23.2
		c0.9,0.2,1.8,0.5,3.1,0.8c0.7-5.6,1.4-10.9,2.1-16.3c0.6-4.6,1.1-9.3,1.8-13.9c0.6-4.1,3.2-5.7,7-4.3c4.7,1.8,9.4,3.7,14.1,5.6
		c1,0.4,2,0.7,3.2,1.2c1.3-5.7,2.5-11.2,3.7-16.7c0.5-2.4,1.6-4.2,4.2-4.6c2.5-0.4,4,1.1,5.1,3.1c4.3,7.2,8.7,14.3,12.8,21.6
		c0.9,1.5,1.2,3.7,0.9,5.5c-1.6,8.7-3.6,17.3-5.4,26c-0.8,3.5-3,5.2-5.9,4.6c-2.8-0.6-4-3.1-3.2-6.8c1.6-7.4,3.3-14.8,4.7-22.3
		c0.3-1.6-0.1-3.6-0.8-5.1c-1.5-3-3.4-5.8-5.5-9.4c-3.4,18.1-6.6,35.3-9.9,52.9h17.3c1.4,0,2.7,0,4.1,0c3.6,0.1,5.5,2.3,5.1,5.9
		c-2.2,16.3-4.4,32.6-6.7,48.8c-0.5,3.7-2.6,5.6-5.3,5.2c-3-0.5-4.3-2.9-3.8-6.7c2-14.5,4-29.1,5.9-43.8h-13.3
		c-5.7,20.1-20.2,29.2-39.6,32c-16,2.3-30.2-1.9-42.5-12.6c-0.5-0.4-1.1-0.7-1.3-0.8c-2,3.1-3.8,5.9-5.7,8.8
		c-0.2,0.4-0.2,0.9-0.1,1.4C220.9,255.8,219.9,259.5,214.3,266.7 M211,249.5c-2.2-0.6-4.2-1.4-6.4-1.7c-1.9-0.2-4-0.3-5.8,0.3
		c-2.8,1-5.5,2.5-8.1,3.9c-5,2.6-10,2.6-15-0.1c-2.7-1.4-5.4-2.7-8.1-4.1c-2.1-1.1-4-1.1-6.1,0c-3,1.6-6.1,3.1-9.1,4.6
		c-4.3,2.1-8.6,2.1-12.9,0c-1.8-0.8-3.6-1.5-5.2-2.6c-4.8-3.4-9.4-3.1-14.3,0c-2.5,1.6-5.5,2.8-8.4,3.1c-4,0.3-8.1-0.4-12.1-0.7
		c0.5,6.9,6.2,12.2,13.9,12.3c11.2,0.1,22.4,0,33.5,0c16.7,0,33.4,0,50.2,0C205.7,264.6,212.1,257.5,211,249.5 M259.7,241
		c0.1-0.9,0.2-1.7,0.3-2.5c0.9-15.3,1.7-30.7,2.7-46c0.1-2.2,1.3-4.3,1.9-6.4c0.2-0.6,0.3-1.3,0.3-2c-0.6-7.5-1.2-14.9-1.8-22.4
		c-0.1-1-0.2-2.3-0.9-3c-2.5-2.9-5.2-5.7-8.1-8.8c-3.4,4.6-6.5,8.6-9.4,12.7c-0.4,0.5-0.4,1.3-0.4,1.9c0.1,2.4,0.4,4.8,0.6,7.3
		c1.7,19.9,3.4,39.7,5,59.6C250.5,240.4,250.3,240.4,259.7,241 M127.2,128.9h84.1c0-1.5,0.1-2.9,0-4.2c-0.1-3.1-1.9-4.9-5-4.9
		c-24.7,0-49.4,0-74.1,0c-3.1,0-4.9,1.8-5,4.9C127.2,126,127.2,127.4,127.2,128.9 M173.9,110.3c0-7.7,0.1-15.1-0.1-22.5
		c-0.1-3.3,1.2-5.4,3.9-7.2c8-5.2,15.9-10.5,23.8-15.8c2.7-1.8,5.5-3.7,8.4-5.6c-1.8-2.7-3.4-5.1-5.2-7.7
		c-12.8,8.6-25.5,16.9-38,25.5c-1.2,0.9-2.1,3.1-2.2,4.7c-0.3,5.3-0.1,10.7-0.1,16v12.6H173.9z M218.7,176.9c-0.8,3.3-2.7,6.7-2,9.4
		c2,7.7,5.2,15.2,7.8,22.8c1.6,4.8,3.4,9.5,4.6,14.3c1.1,4.4,6.8,10.5,11.7,11.7c-0.7-7-0.5-14.1-2.4-20.6
		c-3.2-11.3-7.6-22.2-11.6-33.2c-0.3-0.8-1-1.7-1.7-2C223.3,178.4,221.2,177.8,218.7,176.9 M288.5,233.2c2.6-1.5,4.2-3,4.6-5.9
		c1.5-8.7,3.3-17.4,4.9-26c2-10.6,4-21.1,6.1-31.9c-4.7-1.9-9.2-3.7-14.1-5.6c-1.1,8.9-2.2,17.4-3.3,25.9c3.6,1.2,4.3,3.8,4,7.2
		c-0.4,4.6-0.6,9.3-0.9,14C289.3,218.1,288.9,225.5,288.5,233.2 M215.2,236.8H95.9c0.4,0.7,0.5,1.1,0.8,1.5c4,5.2,11.6,7.1,17.5,4.2
		c1.4-0.7,2.8-1.3,4.2-2.1c5.9-3.5,11.6-3.1,17.7,0c11.7,6,7.8,6,19.6,0c6.1-3.1,11.6-3.2,17.7-0.1c11.9,6,7.8,6,19.8,0
		c5.1-2.5,10-3.5,15.3-1.1C211.4,240.5,213.5,239.6,215.2,236.8 M155.8,283.3c-2.5-3.2-4.6-5.8-6.8-8.4c-0.5-0.5-1.5-0.9-2.3-0.9
		c-14.2-0.1-28.4-0.1-42.6,0c-3,0-4.9,2-5,4.6c0,2.6,1.9,4.7,4.9,4.7C121.1,283.3,138.1,283.3,155.8,283.3 M269.2,240.9
		c2.7-0.6,4.8-1.2,7-1.6c2.1-0.4,2.7-1.5,2.8-3.6c0.2-6,0.7-12,1-18c0.4-6.5,0.7-13,1.1-19.6c-3.2-0.8-6.2-1.5-9.4-2.2
		C270.9,211,270.1,225.7,269.2,240.9 M178,274.2h-17.5c3,3.8,5.8,7.2,8.8,10.9C172.2,281.4,175,278,178,274.2 M189.9,176.2
		c1.1,2.3,1.7,5.1,3.3,6.3c2.6,1.8,6.1,2.5,9.3,3.6c-2.5-10.1-3.1-10.7-11.6-10.2C190.8,175.9,190.7,176,189.9,176.2"/>
	<path class="st0" d="M310,311.3c1.4-9.7,2.6-19.1,4-28.6c0.5-3.7,2.6-5.4,5.5-4.9c2.9,0.5,4.2,2.8,3.7,6.5
		c-1.5,10.4-2.9,20.8-4.3,31.2c-0.5,3.8-2,5.1-5.7,5.1c-24.2,0-48.4,0-72.6,0c-3.7,0-5.8-1.8-5.8-4.7c0-2.9,2.2-4.6,5.8-4.6
		c22,0,43.9,0,65.9,0H310z"/>
	<path class="st0" d="M262.8,302c-10.3,0.1-18.8-8.3-18.8-18.6c0-10.2,8.3-18.6,18.4-18.7c10.4-0.1,18.9,8.2,18.9,18.5
		C281.4,293.5,273.1,301.9,262.8,302 M262.5,292.6c5.1,0.1,9.4-4,9.5-9.1c0.1-5.2-4.1-9.6-9.3-9.6c-5.1,0-9.3,4.1-9.4,9.2
		C253.3,288.3,257.5,292.6,262.5,292.6"/>
	<path class="st0" d="M150.5,203.8c0.1,2.5-2,4.7-4.5,4.8c-2.5,0.1-4.7-2-4.8-4.5c-0.1-2.5,2-4.7,4.5-4.8
		C148.3,199.2,150.5,201.2,150.5,203.8"/>
	<path class="st0" d="M187.9,203.8c0,2.5-2.1,4.7-4.6,4.7c-2.5,0-4.7-2.1-4.7-4.6c0-2.5,2.1-4.7,4.6-4.7
		C185.8,199.2,187.9,201.3,187.9,203.8"/>
	<path class="st0" d="M113.3,203.9c2.5,0,4.6,2.2,4.6,4.7c0,2.5-2.2,4.6-4.7,4.6c-2.5,0-4.6-2.2-4.6-4.7
		C108.6,205.9,110.7,203.9,113.3,203.9"/>
	<path class="st0" d="M169.2,208.6c0,2.5-2.2,4.6-4.7,4.6c-2.5,0-4.6-2.2-4.6-4.7c0-2.5,2.2-4.6,4.7-4.6
		C167.1,203.9,169.3,206.1,169.2,208.6"/>
	<path class="st0" d="M136.5,213.3c0,2.5-2.2,4.6-4.7,4.6c-2.5,0-4.6-2.2-4.6-4.7c0-2.5,2.1-4.6,4.7-4.6
		C134.4,208.6,136.6,210.7,136.5,213.3"/>
	<path class="st0" d="M202,217.9c-2.5,0-4.6-2.1-4.7-4.6c0-2.5,2.1-4.7,4.6-4.7c2.5,0,4.7,2.1,4.7,4.6
		C206.6,215.7,204.5,217.9,202,217.9"/>
</g>
</svg>
