<?xml version="1.0" encoding="utf-8"?>
<!-- Generator: Adobe Illustrator 23.1.1, SVG Export Plug-In . SVG Version: 6.00 Build 0)  -->
<svg version="1.1" id="Layer_1" xmlns="http://www.w3.org/2000/svg" xmlns:xlink="http://www.w3.org/1999/xlink" x="0px" y="0px"
	 viewBox="0 0 400 400" style="enable-background:new 0 0 400 400;" xml:space="preserve">
<style type="text/css">
	.st0{clip-path:url(#SVGID_2_);fill:url(#SVGID_3_);}
</style>
<g>
	<defs>
		<path id="SVGID_1_" d="M96.4,365.8c0-42.2,34.3-76.6,76.6-76.6c42.2,0,76.6,34.3,76.6,76.6v7.6h-19.1h-134V365.8z M130.8,155.3
			c0-5.9,4.8-10.7,10.8-10.7h113.9c-22.7,25.1-36.6,58.5-36.6,95v26.8H109.3l-41.6,41.5c-4,4-10.5,4-14.6,0c-4-4-4-10.5-0.1-14.5
			l48.9-50h75.3l35.1-77.3h-70.8C135.7,166,130.8,161.2,130.8,155.3 M272.5,365.8c0-28.2-11.8-53.6-30.6-71.8v-54.6
			c0-61.6,47.1-112.3,107.2-118.1v252.1h-76.6V365.8z M213.5,82.6c0-21.1,17.2-38.3,38.3-38.3c0.7,0,1.5,0,2.2,0.1
			c-1.9,5.8-3,11.9-3,18.3c0,20.3,10.4,38.1,26.2,48.5c-6.9,6.1-15.9,9.6-25.4,9.6C230.7,120.8,213.5,103.7,213.5,82.6 M274,62.6
			c0-19.4,15.8-35.2,35.2-35.2H349v70.4h-39.8C289.8,97.9,274,82.1,274,62.6 M309.2,4.5c-16.8,0-32,7.2-42.6,18.7
			c-4.8-1.2-9.8-1.8-14.8-1.8c-33.8,0-61.2,27.5-61.2,61.2c0,14.8,5.3,28.4,14.1,39h-63c-18.6,0-33.7,15.1-33.7,33.7
			c0,18.6,15.1,33.7,33.7,33.7h35.2l-14.3,31.4H92.3l-55.7,57c-12.7,13-12.5,33.9,0.3,46.8c6.5,6.5,15,9.7,23.5,9.7
			c7.6,0,15.1-2.6,21.3-7.7c-5.3,12.2-8.3,25.6-8.3,39.7v30.6h156.9h42.1H372V120.8v-23V4.5H309.2z"/>
	</defs>
	<clipPath id="SVGID_2_">
		<use xlink:href="#SVGID_1_"  style="overflow:visible;"/>
	</clipPath>
	
		<linearGradient id="SVGID_3_" gradientUnits="userSpaceOnUse" x1="-1171.2869" y1="2094.1316" x2="-1159.8903" y2="2094.1316" gradientTransform="matrix(30.2536 0 0 -30.2536 35462.9062 63555.5625)">
		<stop  offset="0" style="stop-color:#812CD3"/>
		<stop  offset="0.9996" style="stop-color:#4B2DD0"/>
		<stop  offset="1" style="stop-color:#4B2DD0"/>
	</linearGradient>
	<rect x="24" y="4.5" class="st0" width="348" height="392"/>
</g>
</svg>
