<?xml version="1.0" encoding="utf-8"?>
<!-- Generator: Adobe Illustrator 23.1.1, SVG Export Plug-In . SVG Version: 6.00 Build 0)  -->
<svg version="1.1" id="Layer_1" xmlns="http://www.w3.org/2000/svg" xmlns:xlink="http://www.w3.org/1999/xlink" x="0px" y="0px"
	 viewBox="0 0 400 400" style="enable-background:new 0 0 400 400;" xml:space="preserve">
<g>
	<path d="M207,400c-8.4-1.8-16.5-4.4-23.6-9.7c-17.3-12.9-24.3-34.8-17.4-54.9c7-20.4,26.2-33.6,48-33c20.7,0.5,39.4,15.1,45.2,35.3
		c0.3,1.1,0.7,2.2,1,3.4c18.6,3.7,52.5-13.1,63.5-32.1c-3.4,0-6.4,0-9.5,0c-7-0.1-10.5-3.7-10.5-10.7c0-39.8,0-79.7,0.1-119.5
		c0-2.5,0.5-5.2,1.4-7.6c1.4-3.7,4.2-5.8,8.4-5.6c3.1,0.1,6.2,0,9,0c0.4-0.6,0.6-0.8,0.6-1c1.5-29.6-0.2-58.7-16.5-84.7
		C281,38.4,243.5,17.6,194.7,20.4C136.3,23.8,90,67.4,82.4,125.1c-1.7,13.1-1.1,26.5-1.6,40.4c3.6,0,6.5,0,9.5,0
		c6.1,0,9.6,3.1,10.5,9.2c0.3,1.8,0.2,3.6,0.2,5.5c0,39.2,0,78.4,0,117.5c0,7.9-3.2,11.2-11.1,11.2c-12.1,0-24.2,0.3-36.3-0.2
		c-19.8-0.9-35.9-16.8-36.4-36.5c-0.5-22.8-0.4-45.6,0-68.3c0.4-19.1,16.6-39.4,40.2-38.4c1.2,0.1,2.3,0,4.1,0c0-1.9,0-3.6,0-5.2
		c0.1-15.2-0.7-30.5,2.5-45.5C74.2,66,102,30.7,147.9,11.3c76.9-32.6,163.5,7.9,189.1,87.3c5,15.5,6.8,31.5,6.7,47.7
		c-0.1,6.2,0,12.5,0,19c7.9,0.2,14.8,2.4,20.7,7.3c11.3,9.2,17.9,21.3,18.4,35.7c0.7,22.2,0.6,44.5,0.2,66.8
		c-0.3,16.8-10.7,28.9-27.3,31.7c-5.8,1-9,3.5-12,8.2c-15.1,23.7-36.5,38.4-64,44c-6.2,1.3-12.6,1.6-19.2,2.4
		c-2.9,15.2-11.7,26.4-25.8,33.2c-5.2,2.5-11,3.6-16.6,5.4H207z M81,185.2H58.8c-13.5,0-22,8.2-22.1,21.6c-0.1,21.1-0.1,42.1,0,63.2
		c0,10.5,8.3,18.8,18.8,19c7.7,0.2,15.3,0,23,0c0.9,0,1.7-0.2,2.6-0.3V185.2z M323.9,289.1c6.6,0,12.9,0,19.3,0c1.7,0,3.4,0,5.1-0.2
		c9.6-1.4,14.9-6.3,15-14.5c0.1-21.3,0.2-42.7-0.1-64c-0.1-7.5-2.8-14.4-8.1-19.7c-2.3-2.4-5.7-4.8-8.8-5.1
		c-7.3-0.7-14.7-0.2-22.3-0.2V289.1z M241.5,351.9c-0.1-17.1-12.7-30.1-29.2-30c-16,0-29.3,13.3-29.1,29c0.2,16,14.1,29.6,30,29.4
		C228.8,380,241.6,367.2,241.5,351.9"/>
</g>
</svg>
