<?xml version="1.0" encoding="utf-8"?>
<!-- Generator: Adobe Illustrator 23.1.1, SVG Export Plug-In . SVG Version: 6.00 Build 0)  -->
<svg version="1.1" id="Layer_1" xmlns="http://www.w3.org/2000/svg" xmlns:xlink="http://www.w3.org/1999/xlink" x="0px" y="0px"
	 viewBox="0 0 400 400" style="enable-background:new 0 0 400 400;" xml:space="preserve">
<style type="text/css">
	.st0{fill:#4B2DD0;}
	.st1{clip-path:url(#SVGID_2_);fill:url(#SVGID_3_);}
</style>
<g>
	<path class="st0" d="M200,400C89.7,400,0,310.3,0,200C0,89.7,89.7,0,200,0c110.3,0,200,89.7,200,200C400,310.3,310.3,400,200,400
		 M200,19.7c-99.4,0-180.3,80.9-180.3,180.3c0,99.4,80.9,180.3,180.3,180.3c99.4,0,180.3-80.9,180.3-180.3
		C380.3,100.6,299.4,19.7,200,19.7"/>
	
		<rect x="193.7" y="7" transform="matrix(0.7071 -0.7071 0.7071 0.7071 -79.369 203.8821)" class="st0" width="25.4" height="381.6"/>
	<path class="st0" d="M332.3,344.1L60.1,71.8l20.4-20.4l272.3,272.3L332.3,344.1z M65,71.8l267.4,267.4l15.5-15.5L80.5,56.3L65,71.8
		z"/>
	<path class="st0" d="M200,400C89.7,400,0,310.3,0,200C0,89.7,89.7,0,200,0c110.3,0,200,89.7,200,200C400,310.3,310.3,400,200,400
		 M200,19.7c-99.4,0-180.3,80.9-180.3,180.3c0,99.4,80.9,180.3,180.3,180.3c99.4,0,180.3-80.9,180.3-180.3
		C380.3,100.6,299.4,19.7,200,19.7"/>
	
		<rect x="193.7" y="7" transform="matrix(0.7071 -0.7071 0.7071 0.7071 -79.369 203.8821)" class="st0" width="25.4" height="381.6"/>
	<path class="st0" d="M332.3,344.1L60.1,71.8l20.4-20.4l272.3,272.3L332.3,344.1z M65,71.8l267.4,267.4l15.5-15.5L80.5,56.3L65,71.8
		z"/>
	<path class="st0" d="M200,400C89.7,400,0,310.3,0,200C0,89.7,89.7,0,200,0c110.3,0,200,89.7,200,200C400,310.3,310.3,400,200,400
		 M200,19.7c-99.4,0-180.3,80.9-180.3,180.3c0,99.4,80.9,180.3,180.3,180.3c99.4,0,180.3-80.9,180.3-180.3
		C380.3,100.6,299.4,19.7,200,19.7"/>
	
		<rect x="193.7" y="7" transform="matrix(0.7071 -0.7071 0.7071 0.7071 -79.369 203.8821)" class="st0" width="25.4" height="381.6"/>
	<path class="st0" d="M332.3,344.1L60.1,71.8l20.4-20.4l272.3,272.3L332.3,344.1z M65,71.8l267.4,267.4l15.5-15.5L80.5,56.3L65,71.8
		z"/>
	<path class="st0" d="M200,400C89.7,400,0,310.3,0,200C0,89.7,89.7,0,200,0c110.3,0,200,89.7,200,200C400,310.3,310.3,400,200,400
		 M200,19.7c-99.4,0-180.3,80.9-180.3,180.3c0,99.4,80.9,180.3,180.3,180.3c99.4,0,180.3-80.9,180.3-180.3
		C380.3,100.6,299.4,19.7,200,19.7"/>
	
		<rect x="193.7" y="7" transform="matrix(0.7071 -0.7071 0.7071 0.7071 -79.369 203.8821)" class="st0" width="25.4" height="381.6"/>
	<path class="st0" d="M332.3,344.1L60.1,71.8l20.4-20.4l272.3,272.3L332.3,344.1z M65,71.8l267.4,267.4l15.5-15.5L80.5,56.3L65,71.8
		z"/>
	<g>
		<defs>
			<path id="SVGID_1_" d="M107,287.5c-23.1-23.1-23.2-60.6-0.1-83.7c16.5-16.5,41-21.8,62.8-13.6c-0.1,4.5,1.6,8.8,4.7,11.9
				l17.8,17.8c3,3.1,7.2,4.8,11.5,4.8c0.2,0,0.3,0,0.5,0c8.3,21.7,3,46.3-13.5,62.8c-11.6,11.6-26.7,17.4-41.9,17.4
				C133.7,304.8,118.6,299,107,287.5 M197.5,214.8L179.7,197c-3.5-3.5-3.5-9.1,0-12.6l4.4-4.4l30.4,30.4l-4.4,4.4
				c-1.7,1.7-4,2.6-6.3,2.6C201.5,217.4,199.2,216.5,197.5,214.8 M98.2,296.2c-28-28-28-73.5,0.1-101.5
				c20.1-20.1,50.2-26.4,76.7-16.1l-0.5,0.5c-1.1,1.1-2.1,2.4-2.9,3.9c-34.5-12.6-72.8,5.2-85.4,39.7c-12.6,34.5,5.2,72.7,39.7,85.4
				c34.5,12.6,72.8-5.2,85.4-39.7c5.4-14.7,5.4-30.9,0-45.6c1.4-0.8,2.8-1.7,3.9-2.9l0.5-0.5c10.3,26.5,4,56.7-16.1,76.9
				c-14,14-32.4,21-50.7,21C130.6,317.3,112.2,310.3,98.2,296.2 M206.8,165.6l3.7-3.7l22.1,22.1l-3.7,3.7L206.8,165.6z M245.1,230.6
				l-81.2-81.2c-2.2-2.3-2.2-5.9,0.1-8.2c2.2-2.2,5.8-2.2,8,0l81.2,81.2c1.1,1.1,1.7,2.6,1.7,4.1c0,1.5-0.6,3-1.7,4.1
				c-1.1,1.1-2.6,1.6-4.1,1.6C247.7,232.2,246.2,231.7,245.1,230.6 M220.3,161.3c14.6-16,14.5-38.2,14.4-41.5
				c1.2-20.2,17.8-35.9,38-36.1h0.5c20.7,0.2,37.4,16.9,37.5,37.6c0.1,20.4-15.8,37.3-36.1,38.5c-14.8,1.2-29,6.3-41.2,14.7
				L220.3,161.3z M272.7,76.4c-24.2,0.2-44,19.1-45.4,43.2v0.3c0.1,2.3,0.4,22.1-12.3,36.2l-2-2c-0.7-0.7-1.6-1.1-2.6-1.1
				c-1,0-1.9,0.4-2.6,1.1l-6.3,6.3l-24.4-24.4c-5.1-5.1-13.4-5.1-18.5,0c-5.1,5.1-5.1,13.4,0,18.5l16.3,16.2
				c-41.2-14.3-86.1,7.5-100.5,48.7c-14.3,41.2,7.5,86.2,48.6,100.5c41.2,14.3,86.2-7.5,100.5-48.6c5.8-16.8,5.8-35,0-51.8
				l16.3,16.3c5.1,5.2,13.4,5.2,18.5,0.2c5.2-5.1,5.2-13.4,0.2-18.5c-0.1-0.1-0.1-0.1-0.2-0.2L234,192.9l6.3-6.3
				c1.4-1.4,1.4-3.8,0-5.2l-1.7-1.7c10.8-7.1,23.2-11.5,36.1-12.6c24.4-1.3,43.5-21.5,43.3-45.9c-0.2-24.6-20.1-44.6-44.7-44.8
				H272.7z"/>
		</defs>
		<clipPath id="SVGID_2_">
			<use xlink:href="#SVGID_1_"  style="overflow:visible;"/>
		</clipPath>
		
			<linearGradient id="SVGID_3_" gradientUnits="userSpaceOnUse" x1="-1175.0765" y1="2115.0361" x2="-1165.5177" y2="2115.0361" gradientTransform="matrix(25.9403 0 0 -25.9403 30551.9668 55070.0469)">
			<stop  offset="0" style="stop-color:#812CD3"/>
			<stop  offset="0.9996" style="stop-color:#4B2DD0"/>
			<stop  offset="1" style="stop-color:#4B2DD0"/>
		</linearGradient>
		<rect x="60.2" y="76.4" class="st1" width="258" height="257.9"/>
	</g>
</g>
</svg>
