<?xml version="1.0" encoding="utf-8"?>
<!-- Generator: Adobe Illustrator 23.1.1, SVG Export Plug-In . SVG Version: 6.00 Build 0)  -->
<svg version="1.1" id="Layer_1" xmlns="http://www.w3.org/2000/svg" xmlns:xlink="http://www.w3.org/1999/xlink" x="0px" y="0px"
	 viewBox="0 0 400 400" style="enable-background:new 0 0 400 400;" xml:space="preserve">
<style type="text/css">
	.st0{clip-path:url(#SVGID_2_);fill:url(#SVGID_3_);}
	.st1{clip-path:url(#SVGID_5_);fill:url(#SVGID_6_);}
</style>
<g>
	<defs>
		<path id="SVGID_1_" d="M59.6,340.5c-37.3-37.3-37.4-97.7-0.1-135.1c26.5-26.6,66.2-35.1,101.3-21.9c-0.2,7.2,2.5,14.2,7.6,19.3
			l28.7,28.7c4.9,4.9,11.6,7.7,18.5,7.6c0.3,0,0.5,0,0.8,0c13.4,35.1,4.9,74.7-21.7,101.2c-18.7,18.7-43.1,28-67.6,28
			C102.6,368.4,78.2,359.1,59.6,340.5 M205.5,223.2l-28.7-28.7c-5.6-5.6-5.6-14.7,0-20.3l7.1-7.1l49,49l-7.1,7.1
			c-2.8,2.8-6.5,4.2-10.2,4.2C212,227.4,208.3,226,205.5,223.2 M45.3,354.7C0.2,309.4,0.2,236.2,45.5,191
			c32.5-32.4,81-42.6,123.8-25.9l-0.8,0.8c-1.8,1.9-3.4,4-4.6,6.3c-55.7-20.4-117.4,8.3-137.7,64c-20.3,55.7,8.3,117.4,64,137.7
			c55.7,20.4,117.4-8.3,137.7-64c8.7-23.8,8.7-49.8,0-73.6c2.3-1.2,4.5-2.8,6.3-4.6l0.8-0.8c16.7,42.8,6.5,91.4-26,124
			c-22.6,22.6-52.2,33.8-81.8,33.8C97.6,388.6,68,377.3,45.3,354.7 M220.5,143.9l6-6l35.6,35.6l-6,6L220.5,143.9z M282.2,248.7
			l-131-130.9c-3.6-3.7-3.5-9.6,0.2-13.1c3.6-3.5,9.3-3.5,12.9,0l130.9,131c1.8,1.7,2.7,4.1,2.7,6.5c0,2.5-1,4.8-2.7,6.6
			c-1.8,1.8-4.2,2.6-6.6,2.6C286.4,251.3,284.1,250.5,282.2,248.7 M242.2,137c23.6-25.8,23.4-61.7,23.3-66.9
			c1.9-32.5,28.7-58,61.3-58.2h0.8c33.3,0.3,60.3,27.3,60.5,60.6c0.2,32.9-25.5,60.2-58.3,62v0c-23.8,2-46.7,10.1-66.4,23.7
			L242.2,137z M326.9,0c-39,0.3-71,30.8-73.2,69.7v0.5c0.1,3.8,0.6,35.7-19.9,58.3l-3.2-3.2c-1.1-1.1-2.6-1.7-4.2-1.7
			c-1.6,0-3.1,0.6-4.2,1.7l-10.1,10.2l-39.3-39.3c-8.2-8.2-21.6-8.2-29.9,0c-8.2,8.3-8.2,21.6,0,29.9l26.2,26.2
			c-66.4-23.1-139,12-162.1,78.5c-23.1,66.4,12.1,139,78.5,162.1c66.4,23.1,139-12.1,162-78.5c9.4-27.1,9.4-56.5,0-83.6l26.3,26.2
			c8.2,8.3,21.5,8.4,29.9,0.3c8.3-8.2,8.4-21.6,0.3-29.9c-0.1-0.1-0.2-0.2-0.3-0.3l-39.3-39.3l10.2-10.2c2.3-2.3,2.3-6.1,0-8.4
			l-2.8-2.7c17.4-11.5,37.4-18.5,58.2-20.3c39.3-2.1,70.1-34.6,69.9-74C399.7,32.5,367.6,0.3,327.8,0H326.9z"/>
	</defs>
	<clipPath id="SVGID_2_">
		<use xlink:href="#SVGID_1_"  style="overflow:visible;"/>
	</clipPath>
	
		<linearGradient id="SVGID_3_" gradientUnits="userSpaceOnUse" x1="-1166.1814" y1="2105.9458" x2="-1155.6378" y2="2105.9458" gradientTransform="matrix(37.937 0 0 -37.937 44241.4688 80101.3359)">
		<stop  offset="0" style="stop-color:#812CD3"/>
		<stop  offset="0.9996" style="stop-color:#4B2DD0"/>
		<stop  offset="1" style="stop-color:#4B2DD0"/>
	</linearGradient>
	<rect x="-16" y="0" class="st0" width="416.2" height="416"/>
</g>
<g>
	<defs>
		<path id="SVGID_4_" d="M204.2,190.2c-4.2,4.4-9.3,7.8-14.9,10c-3,1.2-4.6,4.6-3.4,7.7c1.2,3,4.6,4.6,7.6,3.4
			c7.2-2.8,13.8-7.2,19.2-12.8c2.2-2.4,2.2-6.1-0.2-8.4c-1.1-1.1-2.6-1.6-4.1-1.6C207,188.4,205.4,189,204.2,190.2"/>
	</defs>
	<clipPath id="SVGID_5_">
		<use xlink:href="#SVGID_4_"  style="overflow:visible;"/>
	</clipPath>
	
		<linearGradient id="SVGID_6_" gradientUnits="userSpaceOnUse" x1="-1395.4238" y1="1821.932" x2="-1384.8801" y2="1821.932" gradientTransform="matrix(2.7362 0 0 -2.7362 4003.7507 5185.5786)">
		<stop  offset="0" style="stop-color:#812CD3"/>
		<stop  offset="0.9996" style="stop-color:#4B2DD0"/>
		<stop  offset="1" style="stop-color:#4B2DD0"/>
	</linearGradient>
	<rect x="184.8" y="188.4" class="st1" width="30.2" height="24"/>
</g>
</svg>
