<?xml version="1.0" encoding="utf-8"?>
<!-- Generator: Adobe Illustrator 24.2.1, SVG Export Plug-In . SVG Version: 6.00 Build 0)  -->
<svg version="1.1" id="Layer_1" xmlns="http://www.w3.org/2000/svg" xmlns:xlink="http://www.w3.org/1999/xlink" x="0px" y="0px"
	 viewBox="0 0 400 400" style="enable-background:new 0 0 400 400;" xml:space="preserve">
<style type="text/css">
	.st0{fill:#FFFFFF;}
</style>
<g>
	<path class="st0" d="M337.5,175h-18.8v-56.2C318.8,53.3,265.5,0,200,0S81.2,53.3,81.2,118.8V175H62.5C41.8,175,25,191.8,25,212.5
		v150c0,20.7,16.8,37.5,37.5,37.5h275c20.7,0,37.5-16.8,37.5-37.5v-150C375,191.8,358.2,175,337.5,175z M256.2,175H143.8v-56.2
		c0-31,25.2-56.2,56.2-56.2s56.2,25.2,56.2,56.2V175z"/>
</g>
</svg>
