<?xml version="1.0" encoding="utf-8"?>
<!-- Generator: Adobe Illustrator 24.2.1, SVG Export Plug-In . SVG Version: 6.00 Build 0)  -->
<svg version="1.1" id="Layer_1" xmlns="http://www.w3.org/2000/svg" xmlns:xlink="http://www.w3.org/1999/xlink" x="0px" y="0px"
	 viewBox="0 0 400 400" style="enable-background:new 0 0 400 400;" xml:space="preserve">
<style type="text/css">
	.st0{fill:url(#SVGID_1_);}
	.st1{fill:url(#SVGID_2_);}
	.st2{fill:url(#SVGID_3_);}
</style>
<g>
	<linearGradient id="SVGID_1_" gradientUnits="userSpaceOnUse" x1="4.062" y1="200" x2="304.8754" y2="200">
		<stop  offset="0" style="stop-color:#812CD3"/>
		<stop  offset="0.9996" style="stop-color:#4B2DD0"/>
	</linearGradient>
	<path class="st0" d="M397.7,149.4c-3.6-8.3-9.7-14-17.7-16.6c-11.4-3.7-24.3-0.2-33.2,3.4c-5.3-17.8-16.6-51.5-29-63.9
		c-5.3-5.3-17.6-12.1-66.4-17.3c-39.3-4.2-78.1-3.8-115.4,1.1h0c-38.5,5.1-49,11.3-53.9,16.2c-12.4,12.4-23.7,46.1-29,63.9
		c-8.9-3.6-21.8-7.1-33.2-3.4c-8,2.6-14.1,8.3-17.7,16.6c-9.5,22.1,12.5,33.8,27,40.4c-6,8.2-12.9,20.6-12.9,33.7V294
		c0,0,0,0.1,0,0.1v33.3c0,11.2,9.2,20.4,20.4,20.4h44.5c11.3,0,20.4-9.2,20.4-20.4V311c1.3,0.1,2.1,0.1,2.4,0.2c0.1,0,0.2,0,0.3,0
		c31.3,2.1,65.4,3.3,95.7,3.3c30.2,0,64.4-1.2,95.7-3.3c0.1,0,0.2,0,0.3,0c0.3,0,1.1-0.1,2.4-0.2v16.5c0,11.2,9.2,20.4,20.4,20.4
		h44.5c11.3,0,20.4-9.2,20.4-20.4v-33.3c0,0,0-0.1,0-0.1v-70.5c0-13.1-6.9-25.5-12.9-33.7C385.2,183.2,407.2,171.5,397.7,149.4z
		 M95.3,85.5c0.6-0.6,7-6.1,43.2-10.9h0c35.8-4.7,73.1-5.1,111-1.1c47.2,5,54.6,11.3,55.3,11.9c7.7,7.7,17.3,33.2,23.6,53.5
		c-25.2-2.1-81.1-6.3-128.3-6.3c-51.9,0-104.2,4-128.3,6.2C78,118.6,87.5,93.2,95.3,85.5z M36.6,221.2c23.1,1.6,57.7,8.5,57.7,24.6
		c0,4.9-0.9,6.9-1.4,7.4c-2.5,2.1-14.3,0.4-23.9-1l-4.9-0.7c-13.6-1.9-22.6-3.1-28.8-3.6C35.6,240.7,36,230.5,36.6,221.2z
		 M83.2,327.4c0,1-0.8,1.9-1.9,1.9H36.8c-1,0-1.9-0.8-1.9-1.9v-22.6c13.8,1.8,33.4,3.5,48.2,4.7V327.4z M363.2,329.3h-44.5
		c-1,0-1.9-0.8-1.9-1.9v-17.9c14.8-1.2,34.4-2.9,48.2-4.7v22.6C365.1,328.4,364.2,329.3,363.2,329.3z M364.7,247.9
		c-6.2,0.5-15.2,1.7-28.8,3.6l-4.9,0.7c-9.5,1.4-21.4,3.1-23.9,1c-0.5-0.5-1.4-2.5-1.4-7.4c0-16,34.6-23,57.7-24.6
		C364,230.5,364.4,240.7,364.7,247.9z M359.9,174.4c-2.9,1.3-5.7,2.6-8.2,3.8c-2.7,1.3-4.5,3.9-5,6.8c-0.5,2.9,0.5,5.9,2.6,8
		c1.8,1.8,5,5.5,8,10.1c-24.6,2.2-70.1,10.7-70.1,42.7c0,9.9,2.6,16.9,7.8,21.4c4.7,4.1,10.7,5.5,17.8,5.5c6.2,0,13.2-1,20.9-2.2
		l4.8-0.7c13.2-1.9,21.4-2.9,26.5-3.3v19.7c-15.6,2.2-42.3,4.4-57.9,5.5c-0.1,0-0.2,0-0.3,0c-16.1,1.3-58.7,4.2-106.9,4.2
		c-48.1,0-90.8-2.9-106.9-4.2c-0.2,0-0.3,0-0.5,0c-15.7-1.2-42.2-3.4-57.7-5.5v-19.7c5.1,0.5,13.3,1.5,26.5,3.3l4.8,0.7
		c7.8,1.1,14.8,2.2,20.9,2.2c7.1,0,13-1.4,17.8-5.5c5.3-4.6,7.8-11.6,7.8-21.4c0-32-45.5-40.5-70.1-42.7c3-4.5,6.2-8.2,8.1-10.1
		c2.1-2.1,3.1-5.1,2.6-8c-0.5-2.9-2.3-5.5-5-6.8c-2.5-1.2-5.3-2.5-8.2-3.8c-18.5-8.2-23.1-12.2-20.8-17.6c1.9-4.4,4.4-5.6,6.3-6.3
		c9-2.9,24.1,4.2,28.6,6.9c0,0,0,0,0,0c0.1,0.1,0.3,0.2,0.4,0.2c0,0,0.1,0,0.1,0c0.1,0.1,0.3,0.1,0.4,0.2c0,0,0,0,0,0
		c0.2,0.1,0.3,0.1,0.5,0.2c0,0,0,0,0,0c0.2,0.1,0.3,0.1,0.5,0.2c0,0,0.1,0,0.1,0c0.1,0,0.3,0.1,0.4,0.1c0,0,0.1,0,0.1,0
		c0.2,0,0.3,0.1,0.5,0.1c0,0,0,0,0,0c0.2,0,0.3,0.1,0.5,0.1c0,0,0.1,0,0.1,0c0.1,0,0.2,0,0.4,0c0.1,0,0.1,0,0.2,0c0.1,0,0.2,0,0.3,0
		c0.1,0,0.2,0,0.2,0c0,0,0,0,0.1,0c0,0,0.1,0,0.1,0c0.1,0,0.2,0,0.3,0c0.1,0,0.1,0,0.2,0c0.1,0,0.2,0,0.3,0c0,0,0,0,0,0
		c0.7-0.1,70.8-7.4,140-7.4c61.6,0,138.6,7.2,140.1,7.4c0.1,0,0.1,0,0.2,0c0.1,0,0.2,0,0.3,0c0,0,0.1,0,0.1,0c0.1,0,0.3,0,0.4,0
		c0,0,0.1,0,0.1,0c0.2,0,0.3,0,0.5,0c0,0,0,0,0,0c1.5-0.1,2.9-0.6,4.2-1.4c5.8-3.4,20.1-9.5,28.5-6.8c2,0.6,4.5,1.9,6.3,6.3
		C383,162.2,378.3,166.1,359.9,174.4z"/>
	<linearGradient id="SVGID_2_" gradientUnits="userSpaceOnUse" x1="4.062" y1="223.5634" x2="304.8754" y2="223.5634">
		<stop  offset="0" style="stop-color:#812CD3"/>
		<stop  offset="0.9996" style="stop-color:#4B2DD0"/>
	</linearGradient>
	<path class="st1" d="M250.1,214.3h-98.3c-5.1,0-9.3,4.2-9.3,9.3c0,5.1,4.2,9.3,9.3,9.3h98.3c5.1,0,9.3-4.2,9.3-9.3
		C259.4,218.4,255.2,214.3,250.1,214.3z"/>
	<linearGradient id="SVGID_3_" gradientUnits="userSpaceOnUse" x1="4.062" y1="260.6583" x2="304.8754" y2="260.6583">
		<stop  offset="0" style="stop-color:#812CD3"/>
		<stop  offset="0.9996" style="stop-color:#4B2DD0"/>
	</linearGradient>
	<path class="st2" d="M250.1,251.4h-98.3c-5.1,0-9.3,4.2-9.3,9.3c0,5.1,4.2,9.3,9.3,9.3h98.3c5.1,0,9.3-4.2,9.3-9.3
		C259.4,255.5,255.2,251.4,250.1,251.4z"/>
</g>
</svg>
