<?xml version="1.0" encoding="utf-8"?>
<!-- Generator: Adobe Illustrator 23.1.1, SVG Export Plug-In . SVG Version: 6.00 Build 0)  -->
<svg version="1.1" id="Layer_1" xmlns="http://www.w3.org/2000/svg" xmlns:xlink="http://www.w3.org/1999/xlink" x="0px" y="0px"
	 viewBox="0 0 400 400" style="enable-background:new 0 0 400 400;" xml:space="preserve">
<g>
	<path d="M400,277.5c-0.8,3.9-1.5,7.9-2.5,11.7c-6.5,22.8-22.1,35.5-45,39.8c-5.6,1-11.4,1.4-17.1,1.4
		c-90.4,0.1-180.7,0.1-271.1,0.1c-9.4,0-18.7-0.7-27.7-4c-19.8-7.2-30.9-21.9-35-42.1c-1.1-5.5-1.6-11.1-1.6-16.7
		C0,222.6,0,177.4,0,132.3c0-8.9,1.1-17.7,4.2-26.1c8.3-22.3,25-33.5,48-36c4.1-0.5,8.3-0.6,12.5-0.6c90.1,0,180.2-0.1,270.3,0.1
		c7.7,0,15.7,0.8,23.2,2.7c23.4,5.9,38.1,23.2,41,47.2c0.1,1.3,0.5,2.5,0.8,3.7V277.5z M156.1,188.6c-39.6,41.2-79,82.2-118.7,123.5
		c8.2,3.8,16.3,5,24.7,5c77.9,0,155.9,0,233.9-0.1c15.9,0,31.7-0.1,47.6-0.5c6.3-0.1,12.4-1.9,18.4-4.9
		c-39.7-41.3-79.1-82.1-118.5-123.1c-13,8.5-25.7,16.6-38.3,24.9c-3.9,2.6-7.3,2.6-11.1,0c-6.6-4.6-13.5-8.9-20.2-13.3
		C168,196.4,162.1,192.5,156.1,188.6 M31.1,91.6c1.8,1.2,3.1,2,4.4,2.9c53.7,34.9,107.4,69.7,161,104.7c2.8,1.8,4.6,1.7,7.2-0.1
		c49.3-32.1,98.6-64.1,148-96.1c5.6-3.7,11.3-7.3,17.2-11.2c-9.8-6.3-20.1-8.9-31.2-8.9c-93-0.1-186.1-0.1-279.1-0.1
		C48.7,82.7,39.6,85.7,31.1,91.6 M22.2,101.3c-5.8,9.1-8.8,18.8-8.8,29.1c-0.1,46.9-0.2,93.9,0,140.9c0.1,12.5,4.8,23.6,13.5,33.1
		c39.5-41.1,78.8-82,118.3-123.2C103.9,154.4,63.2,128,22.2,101.3 M378.5,100.9c-41,26.6-81.9,53.1-122.9,79.8
		C295.2,222,334.5,262.9,374,304c1.6-2,3-3.5,4.1-5.2c5.7-8.1,8.7-17.1,8.7-27.1c0-47.6,0-95.2,0-142.8
		C386.7,118.9,384.2,109.7,378.5,100.9"/>
</g>
</svg>
