<?xml version="1.0" encoding="utf-8"?>
<!-- Generator: Adobe Illustrator 23.1.1, SVG Export Plug-In . SVG Version: 6.00 Build 0)  -->
<svg version="1.1" id="Layer_1" xmlns="http://www.w3.org/2000/svg" xmlns:xlink="http://www.w3.org/1999/xlink" x="0px" y="0px"
	 viewBox="0 0 400 400" style="enable-background:new 0 0 400 400;" xml:space="preserve">
<style type="text/css">
	.st0{fill:#606060;}
</style>
<g>
	<path class="st0" d="M0,78.1c0.5-1.7,1.1-3.4,1.6-5.1C6,59.7,18.4,50.4,32.5,50c4.9-0.1,9.9,0,14.8,0c105.8,0,211.7,0,317.5,0
		c18.5,0,31.9,11.1,34.8,28.8c0.3,2.2,0.4,4.4,0.4,6.6c0,76.4,0,152.9,0,229.3c0,21.3-14.1,35.4-35.6,35.4c-109.2,0-218.5,0-327.7,0
		c-19.7,0-30.9-8.6-36.3-27.6c-0.1-0.2-0.3-0.4-0.5-0.6V78.1z M370.2,67.2H30.7c0.6,1.6,1.5,2.4,2.3,3.1
		c43.2,39.5,86.5,79,129.7,118.5c8.8,8,17.5,16,26.4,23.7c5.9,5,12.6,5.5,18.8,1.8c2.2-1.3,4.2-3,6.1-4.8
		c49.3-44.9,98.5-89.8,147.7-134.7C364.5,72.5,367,70.1,370.2,67.2 M369.6,333c0.2-0.5,0.4-0.9,0.7-1.4
		c-43.9-40.5-87.8-80.9-131.8-121.5c-5.2,4.7-9.6,8.7-14.1,12.7c-15.5,14-33.2,14-48.7,0c-4.4-4-8.9-8-14.1-12.7
		c-44,40.6-88,81.1-132,121.6c0.2,0.4,0.5,0.8,0.7,1.2H369.6z M17.2,320.7c44.3-40.9,88.1-81.3,132-121.8
		c-43.8-39.9-87.5-79.9-132-120.5V320.7z M382.7,320.6c0.2-2,0.6-3.7,0.6-5.3c0-76.8,0-153.6,0-230.5c0-1.8-0.5-3.6-0.9-6.1
		c-44.4,40.6-88.2,80.6-131.6,120.2C294.9,239.5,338.6,279.8,382.7,320.6"/>
</g>
</svg>
