<?xml version="1.0" encoding="utf-8"?>
<!-- Generator: Adobe Illustrator 24.2.1, SVG Export Plug-In . SVG Version: 6.00 Build 0)  -->
<svg version="1.1" id="Layer_1" xmlns="http://www.w3.org/2000/svg" xmlns:xlink="http://www.w3.org/1999/xlink" x="0px" y="0px"
	 viewBox="0 0 400 400" style="enable-background:new 0 0 400 400;" xml:space="preserve">
<style type="text/css">
	.st0{opacity:0;}
	.st1{fill:#FFFFFF;}
	.st2{fill:#FF5F00;}
	.st3{fill:#EB001B;}
	.st4{fill:#F79E1B;}
</style>
<g>
	<g class="st0">
		<rect x="-24.2" y="51.7" class="st1" width="448.4" height="296.6"/>
	</g>
	<rect x="140.9" y="103.4" class="st2" width="118.3" height="193.2"/>
	<path class="st3" d="M153.1,200c0-37.7,17.3-73.3,46.9-96.6C146.6,61.5,69.4,70.8,27.5,124.1S-5.2,254.7,48.2,296.6
		c44.6,35,107.3,35,151.8,0C170.3,273.3,153,237.7,153.1,200z"/>
	<path class="st4" d="M387,276.1v-4h1.7v-0.8h-4.1v0.8h1.6v4H387z M394.9,276.1v-4.8h-1.2l-1.4,3.4l-1.4-3.4h-1.2v4.8h0.9v-3.6
		l1.3,3.1h0.9l1.3-3.1v3.6L394.9,276.1z"/>
	<path class="st4" d="M398.8,200c0,67.9-55,122.9-122.9,122.9c-27.5,0-54.3-9.3-75.9-26.3c53.3-41.9,62.6-119.2,20.7-172.5
		c-6-7.7-13-14.6-20.7-20.7c53.3-41.9,130.6-32.7,172.5,20.6C389.5,145.7,398.8,172.4,398.8,200L398.8,200z"/>
</g>
</svg>
