<?xml version="1.0" encoding="utf-8"?>
<!-- Generator: Adobe Illustrator 23.1.1, SVG Export Plug-In . SVG Version: 6.00 Build 0)  -->
<svg version="1.1" id="Layer_1" xmlns="http://www.w3.org/2000/svg" xmlns:xlink="http://www.w3.org/1999/xlink" x="0px" y="0px"
	 viewBox="0 0 400 400" style="enable-background:new 0 0 400 400;" xml:space="preserve">
<style type="text/css">
	.st0{fill:#4B2DD0;}
</style>
<g>
	<path class="st0" d="M0,90.4c7.3-14.2,19.8-21.1,34.9-23.3c18-2.6,33.2,3.6,45.4,17.2c0.9,1,2.2,2.1,3.4,2.1
		c12.4,0.2,24.7,0.1,37,0.1c6.5-20.7,30.5-26.8,46.2-11c5.4-5.7,12-8.9,19.9-8.9c7.8,0,14.4,3.1,20,9.1c5.4-5.7,12-9,19.9-9.1
		c7.8,0,14.4,3,20,9c7.2-7.3,15.9-10.7,26.1-8.3c10.2,2.4,16.7,9.1,19.9,19.3c8.1,0,16.1,0.1,24.1-0.1c1.2,0,2.6-1.5,3.5-2.6
		c19.8-22.3,53.5-23.2,74.1-1.7c2.3,2.4,3.8,5.5,5.6,8.3v5.5c-2.8,8-8.6,11.2-16.9,10.8c-5.2-0.3-10.4-0.1-15.6,0
		c-7.7,0.2-14,6.2-13.9,13.4c0.1,7.5,5.9,13.1,14,13.2c6,0.1,12,0,18,0c5.9,0,10.4,2.6,12.7,8c2.3,5.4,1.2,10.4-2.7,14.8
		c-19.4,22-53.9,22.3-74.1,0.5c-2.4-2.6-4.7-3.5-8.1-3.4c-6.4,0.2-12.9,0.1-19.9,0.1c0,2.2,0,4,0,5.8c-0.4,13.8,0,27.6-1.4,41.3
		c-1.6,16.1-8.3,30.5-17.9,43.5c-8,10.9-16.3,21.6-24,32.7c-1.9,2.8-3.2,6.6-3.3,10c-0.4,10.7-0.1,21.3-0.2,32
		c0,9.4-5.4,14.7-14.8,14.8c-30.2,0-60.4,0-90.6,0c-9.7,0-14.8-5.2-14.8-15.1c0-15.9,0.2-31.8-0.1-47.7c-0.1-3.3-1.1-7-2.8-9.9
		c-12.2-20.1-24.7-40.1-37.2-60.1c-5.2-8.4-6-17-2.4-26.1c2.7-6.9,5.5-13.7,8.4-21.3c-5.4,0.2-9.9-1.5-14.4,3.4
		c-19.7,21.4-53.1,21.1-73,0c-4.4-4.6-5.9-9.8-3.4-15.7c2.5-5.8,7.3-8.1,13.5-8c5.7,0.1,11.5,0.1,17.2,0c8.1-0.1,14-5.7,14-13.2
		c0-7.2-6.2-13.3-14-13.4c-5.1-0.1-10.2-0.2-15.2,0C8.9,107.1,2.8,104.1,0,95.9V90.4z M172.6,173.3c2,1.6,3.4,2.7,4.8,3.8
		c9.1,7.4,16.8,16,22.1,26.4c4.7,9.2,7,19,7.1,29.3c0,4.1-2.5,6.9-6.2,7.2c-3.6,0.2-6.4-2.3-7-6.3c-0.1-0.8-0.2-1.6-0.2-2.3
		c-0.3-11.6-4.6-21.8-11.6-30.9c-9.6-12.3-22.1-20.8-36.2-27.1c-4.2-1.9-6.1-4.6-5.4-7.9c0.7-3.6,3.5-5.4,8.3-5.5
		c7.2,0,14.3,0.1,21.5-0.1c16-0.5,26.7-9.3,29.5-23.9c1.2-6.1-1.3-9.4-7.5-9.4c-19.9-0.1-39.8-0.1-59.8,0
		c-9.6,0.1-16.2,4.7-19.7,13.7c-5.2,13.1-10.3,26.1-15.7,39.1c-2.1,5.3-1.7,10,1.4,14.8c12.4,19.7,24.5,39.6,36.9,59.3
		c3.4,5.5,5.1,11.3,5,17.7c-0.1,14.8,0,29.7,0,44.5v4.2h93.6c0-11.3,0.1-22.3,0-33.4c-0.1-6.8,1.9-12.7,6-18.1
		c6.7-8.6,12.6-17.9,19.7-26.2c19.3-22.9,22.9-49.7,20.8-78.1c0-0.2-0.3-0.4-0.5-0.6c-12.3,5.7-23.2,3.6-32.8-5.8
		c-13.7,12.5-26.5,12-41.6-1.6C197.1,166.6,186.4,172.2,172.6,173.3 M14.4,146.6c8.7,11.6,26,15.8,40.4,10.2
		c17-6.5,26.6-22.9,24.9-42.1C78.1,98,65.1,83.9,48,80.5c-12.5-2.5-29.1,3.8-33.8,12.8c6.4,0,12.8-0.2,19.1,0
		c14.6,0.4,26.4,12.4,26.4,26.5c0,14.8-11.7,26.5-26.9,26.7C26.9,146.7,20.9,146.6,14.4,146.6 M386.2,93.4
		c-9.3-12.4-27-16.6-41.7-10.7c-16.9,6.8-26.6,24.3-24.1,43c2.4,17.2,16.1,31.2,32.9,33.4c12.3,1.6,28.4-4.6,31.5-12.5
		c-6.5,0-12.9,0.2-19.2,0c-15.6-0.6-27.2-14.5-25.2-30c1.6-12.4,12.2-22.5,24.7-23.2C371.9,93.1,378.7,93.4,386.2,93.4 M253.3,116.6
		c0,7.4-0.1,14.8,0,22.3c0.1,8.5,5.5,14.3,13.2,14.4c7.8,0.1,13.5-5.7,13.6-14.4c0.1-14.8,0.2-29.7-0.1-44.5c0-3-1-6.2-2.5-8.8
		c-2.9-4.9-9.3-6.8-14.8-5.1c-5.5,1.7-9.2,6.7-9.3,13.1C253.2,101.2,253.3,108.9,253.3,116.6 M240,116.7c0-7.7,0.1-15.4,0-23
		c-0.1-8.1-5.7-13.8-13.4-13.7c-7.6,0.1-13.2,5.8-13.3,13.9c-0.1,15.1-0.1,30.2,0,45.3c0,8.3,5.7,14.2,13.5,14.1
		c7.6-0.1,13.1-5.8,13.2-13.9C240,131.8,240,124.2,240,116.7 M199.9,113.5c0-6.8,0.3-14.3-0.1-21.8c-0.4-6.7-6.2-11.6-12.9-11.7
		c-6.5-0.1-12.8,4.4-13.3,10.8c-0.6,7.3-0.1,14.7-0.1,22.8H199.9z M133.6,113h25.9c0-7.7,0.6-15.3-0.2-22.7
		c-0.6-6.3-6.5-10.3-12.8-10.3c-6.2,0-12.3,4.4-12.8,10.4C133.1,97.7,133.6,105.3,133.6,113 M89.7,139.3c7.3,1.6,8,1.3,10.5-4.8
		c3.4-8.3,9.2-14.4,17.3-18.3c1-0.5,2.3-1.6,2.3-2.6c0.2-4.5,0.1-9,0.1-13.6H89.6C94.4,113.4,94.2,126.4,89.7,139.3 M310.4,100
		h-16.5v39.6h16.6C305.7,126.4,305.6,113.4,310.4,100"/>
</g>
</svg>
