<?xml version="1.0" encoding="utf-8"?>
<!-- Generator: Adobe Illustrator 23.1.1, SVG Export Plug-In . SVG Version: 6.00 Build 0)  -->
<svg version="1.1" id="Layer_1" xmlns="http://www.w3.org/2000/svg" xmlns:xlink="http://www.w3.org/1999/xlink" x="0px" y="0px"
	 viewBox="0 0 400 400" style="enable-background:new 0 0 400 400;" xml:space="preserve">
<style type="text/css">
	.st0{fill:#4B2DD0;}
</style>
<g>
	<path class="st0" d="M95.1,0c7.3,2.7,12.6,7.1,13.5,15.4c1.1,9.9-6.4,18.6-16.4,18.9c-4,0.2-8.1-0.1-12.1,0.1
		c-8.5,0.5-15.4-2.1-19.5-9.9c-9.2,2.5-16.8,11.1-17,20.8c-0.3,17.9-0.8,36,0.8,53.8c2.9,31.2,31.5,57.9,62.7,60
		c0.1,0,0.2-0.1,0.7-0.4c-0.7-1.9-1.4-3.9-2.2-5.9c-6-15.9-9.4-32.2-6.7-49.3c6-38.9,39.9-53,67.2-50c15.8,1.7,29,8.6,40.1,19.9
		c13.6,13.7,27.4,27.2,41.1,40.8c0.9,0.9,1.9,1.8,2.7,2.8c2,2.7,2,5.4-0.4,7.8c-2.3,2.3-5.1,2.5-7.8,0.4c-1-0.8-1.9-1.8-2.8-2.7
		c-14.4-14.2-28.6-28.5-43.1-42.6c-19.4-18.9-49.4-20.2-70.3-3.2c-10.3,8.4-14.5,20.1-15.7,33c-1.6,17.8,3.8,34.2,11.2,50
		c11.7,24.8,27.8,46.8,46,67.1c13.5,15.1,27.9,29.6,42.3,43.9c12.9,12.8,30.8,13.3,45,1.9c3.7-2.9,6.9-3,9.3-0.3
		c2.4,2.8,1.7,6.3-2,9.4c-17.1,14.6-42.8,14.4-59.2-1.6c-16.3-15.9-31.7-32.7-47.4-49.2c-1.9-2.1-3.7-3.2-6.6-3.1
		c-5.7,0.3-11.4,0.1-17.7,0.1c0,4.8-0.1,9.3,0,13.8c0.2,8.2-2.4,14.8-10.2,18.7c-0.7,0.4-1.5,1.5-1.5,2.3c0.2,18.2-1,36.6,1.1,54.6
		c4.2,36.9,35,66.2,71.8,70.3c43.5,4.8,82.2-22.8,91.1-65.5c1.7-8.4,1.4-17.3,1.8-26c0-1-1.1-2.5-2.1-3.1c-6.3-3.7-9.3-9.2-9.3-16.5
		c0-7.7-0.1-15.4,0.1-23c0-2.3-0.7-3.3-2.8-4.3c-33.5-14.4-42-56.1-16.8-82.3c13.7-14.3,35.7-19.1,54.5-11.8
		c18.9,7.3,32.1,25.4,32.4,45.2c0.4,22.4-9.9,38.5-30.1,48.3c-2.1,1-2.9,2.1-2.8,4.4c0.1,7.8,0,15.6,0.1,23.4
		c0.1,7.3-3,12.7-9.2,16.5c-1.2,0.7-2,2.9-2,4.3c0.2,14.8-1.3,29.3-6.9,43.2c-15.5,38.4-54,62.8-95.3,59.1
		c-43.8-3.9-78.2-34.9-85.5-76.4c-1.5-8.6-1.5-17.6-1.7-26.4c-0.3-10.8-0.1-21.6,0-32.4c0-2.3-0.5-3.7-2.7-5
		c-5.6-3.2-8.3-8.4-8.4-14.9c0-5.3,0-10.6,0-16.5c-5.2,0-9.9-0.1-14.7,0c-8.4,0.2-15-2.5-18.9-10.5c-0.4-0.9-1.9-1.6-3-1.9
		c-17.1-4.4-28-18.2-28-35.9c-0.1-43.8-0.1-87.5,0-131.2c0-16.8,9.6-29.9,25.5-35.5c1-0.4,2.4-0.9,2.8-1.7c2.5-6,7.2-9.4,13.1-11.3
		H95.1z M329.3,202.6c0.1-21.5-17.3-39.1-38.9-39.2c-21.4-0.1-39.1,17.4-39.3,38.9c-0.2,21.3,17.5,39.1,39,39.2
		C311.6,241.5,329.2,224.1,329.3,202.6 M62.6,203.8c4-8.3,11.1-10.7,19.9-10.5c13.2,0.3,26.3,0.1,39.5,0.1h4.4
		c-4-7-7.7-13.2-11.2-19.6c-1.1-2-2.3-2.7-4.5-2.8c-24.4-1-44.4-11-60.1-29.6c-2.4-2.8-4.5-5.9-7.1-9.3c0,17.5-0.4,34.2,0.2,51
		C44.1,193.6,52.8,202.3,62.6,203.8 M143,216.2c-2.8-3.8-5-6.9-7.3-9.8c-0.5-0.7-1.7-1.2-2.6-1.2c-18.2-0.1-36.5-0.1-54.7,0.1
		c-3.5,0-5.6,2.8-5.2,6c0.5,3.6,3.1,4.9,6.4,5c6.8,0.1,13.5,0,20.3,0c6.4,0,8.1,1.7,8.2,8.1c0,6.6-0.1,13.3,0.1,19.9
		c0.1,4.2,2.8,6.6,6.4,5.9c3.4-0.7,4.6-3.1,4.6-6.3c0-6.9,0-13.8,0-20.7c0.1-4.9,2-6.8,6.9-6.8C131.4,216.2,136.7,216.2,143,216.2
		 M285.4,253.2c0,8.5-0.2,16.7,0.1,25c0.1,3.1,2.4,4.9,5.6,4.8c3.2-0.1,5.1-2,5.2-5.2c0.2-5.1,0.1-10.1,0.1-15.2v-9.4H285.4z
		 M84,22.7L84,22.7c2.5,0,5,0.1,7.4,0c3.4-0.1,5.3-1.9,5.6-5.3c0.2-3-2-5.5-5.3-5.6c-5.2-0.2-10.4-0.2-15.6,0
		c-3.1,0.1-5,2.1-5.2,5.3c-0.2,3,2.1,5.4,5.3,5.6C78.7,22.8,81.4,22.7,84,22.7"/>
	<path class="st0" d="M156.1,0c5.7,2.4,10.5,5.6,12.7,11.8c0.4,1,2.2,1.5,3.5,2.1c14,6,21.8,16.5,23,31.6c0.4,5.1-1.6,7.7-5.4,7.8
		c-3.8,0.2-5.9-2.3-6.3-7.2c-0.8-10.1-6.1-17.1-15.6-21.4c-4.6,8.6-12.2,10.4-21,9.8c-3.1-0.2-6.3,0-9.4,0
		c-8.9-0.1-16-5.8-17.4-13.8c-1.6-8.7,3-16.5,11.6-19.8c0.6-0.2,1.1-0.6,1.7-0.8H156.1z M144.9,22.7c2.5,0,5,0.1,7.4,0
		c3.3-0.2,5.4-2,5.4-5.4c0-3.4-2-5.4-5.3-5.5c-5.1-0.2-10.2-0.2-15.2,0c-3.3,0.1-5.4,2-5.4,5.4c0,3.4,2,5.3,5.3,5.5
		C139.7,22.8,142.3,22.7,144.9,22.7"/>
	<path class="st0" d="M368.4,113.9c-0.5,21.6-7.1,39.9-16.2,57.5c-1.6,3.2-5.1,4.1-8,2.6c-2.8-1.5-3.7-4.7-2.3-8.1
		c4-10.1,8.5-20.1,11.7-30.5c3.5-11.3,4-23,1.1-34.7c-5.8-23.7-24.2-34.6-45.2-35.7c-15.5-0.9-28.9,4.6-40,15.5
		c-6,5.9-12,11.9-18,17.9c-3.5,3.4-6.9,3.8-9.5,1c-2.4-2.6-2-6,1.2-9.2c6.4-6.4,12.7-12.8,19.2-19c24.6-23.6,63.3-24.2,88.3-1.1
		c9.9,9.2,14.7,21.3,16.8,34.4C368,108,368.1,111.7,368.4,113.9"/>
	<path class="st0" d="M315,202.4c0,13.6-11.3,24.9-24.9,24.8c-13.7-0.1-24.8-11.3-24.7-25c0.1-13.6,11.1-24.5,24.7-24.6
		C303.8,177.5,315,188.7,315,202.4 M303.3,202.5c0-7.2-6-13.3-13.2-13.2c-7.1,0.1-12.9,5.8-12.9,13c0,7.3,5.9,13.3,13.1,13.2
		C297.4,215.4,303.3,209.6,303.3,202.5"/>
</g>
</svg>
