<?xml version="1.0" encoding="utf-8"?>
<!-- Generator: Adobe Illustrator 24.2.1, SVG Export Plug-In . SVG Version: 6.00 Build 0)  -->
<svg version="1.1" id="Layer_1" xmlns="http://www.w3.org/2000/svg" xmlns:xlink="http://www.w3.org/1999/xlink" x="0px" y="0px"
	 viewBox="0 0 400 400" style="enable-background:new 0 0 400 400;" xml:space="preserve">
<style type="text/css">
	.st0{fill:#812CD3;}
</style>
<g>
	<path class="st0" d="M0,248.1c0.6-2.6,1.2-5.3,1.9-7.9c4.2-14.7,13-25.8,26.2-33.5C48.9,194.9,69.6,183,90.3,171
		c2.2-1.3,4.2-3,5.8-5c33.6-42.7,67.2-85.4,100.8-128.2c10.5-13.4,30.2-12.2,39.1,2.7c9.1,15.3,17.9,30.7,26.7,46.2
		c1.4,2.5,3,3.4,5.8,3.2c8.3-0.7,16.6-1,24.9-1.6c4.3-0.3,7.2,1.3,9.3,5c4.7,8.3,9.4,16.5,14.3,24.6c2.2,3.7,2.1,7-0.3,10.5
		c-4.8,7-9.3,14.1-14.1,21.1c-1.4,2.1-1.6,3.6-0.2,5.9c8.2,13.9,16.3,27.8,24.2,41.8c7.8,13.9,0.6,30.9-14.3,34.4
		c-7,1.6-14,2.7-21.1,4c-43,8.4-86,16.8-129,25.2c-1.1,0.2-2.3,0.5-4,1c2,3.4,3.8,6.6,5.6,9.8c1.2,2,2.4,4,3.5,6.1
		c3.4,6,2.3,9.7-3.7,13.2c-6.1,3.5-12.1,7-18.5,10.7c0.8,1.4,1.5,2.6,2.2,3.8c6.9,11.9,13.9,23.8,20.7,35.8
		c9.1,15.9,4.4,34.6-10.7,43.4c-15.3,8.9-34,3.7-43.4-12.3c-12.3-21-24.3-42-36.5-63.1c-0.7-1.2-1.5-2.4-1.9-3.1
		c-7.1,1-13.7,2.7-20.3,2.8c-27.4,0.3-49.6-18.7-54.4-45.8c-0.1-0.6-0.5-1.2-0.7-1.7C0,257,0,252.6,0,248.1z M195.7,64.4
		c-0.5,0.8-0.8,1.3-1.1,1.7c-28.2,35.9-56.4,71.8-84.7,107.6c-1.5,1.9-1,3.1,0,4.8c12.8,22,25.5,44,38.2,66.1
		c1.2,2.2,2.3,2.7,4.9,2.2c33.9-6.7,67.9-13.3,101.8-19.9c10.3-2,20.6-4.1,31.3-6.2C255.9,168.5,225.9,116.7,195.7,64.4z M96,185.7
		c-21.3,12.4-42.7,24-63.2,36.9c-13.3,8.4-19,21.7-16.7,37.3c4.2,28,33.6,42.1,58.5,28.2c15.3-8.6,30.4-17.5,45.6-26.2
		c4.9-2.8,9.8-5.7,14.9-8.6C122,230.6,109.1,208.2,96,185.7z M303.9,218.3c3.4-1.8,6.6-2.7,8.5-4.7c3.1-3.2,1.7-6.9-0.4-10.4
		c-29.6-51.1-59.2-102.3-88.8-153.5c-0.6-1.1-1.3-2.3-2.2-3.2c-2.7-2.9-7.2-3.2-10.3-0.8c-4.1,3.1-4.7,5.6-2.3,9.6
		c17.8,30.7,35.5,61.4,53.3,92.1c12.9,22.4,25.9,44.8,38.9,67.1C301.3,215.7,302.5,216.7,303.9,218.3z M88.8,298
		c13.2,22.9,26.1,45.3,39.2,67.5c1.5,2.6,4.3,4.9,7.1,6.3c5.9,3.1,13.3,1.3,17.8-3.7c4.7-5.1,5.5-12,1.8-18.4
		c-7.8-13.8-15.8-27.4-23.7-41.2c-5-8.6-10-17.3-15.2-26.2C106.8,287.6,98,292.7,88.8,298z M273.4,105.2
		c6.3,10.9,12.3,21.3,18.6,32.1c3.2-4.8,6-9,8.7-13.2c0.5-0.7,0.3-2.2-0.2-3.1c-2.7-5-5.6-9.9-8.5-14.8c-0.5-0.8-1.4-1.9-2.1-1.9
		C284.5,104.4,279.3,104.8,273.4,105.2z M137.2,288c4.6-2.6,9-5.2,13.5-7.8c-2.8-4.8-5.3-9.1-7.9-13.5c-4.7,2.8-9.1,5.3-13.5,7.8
		C132.1,279.3,134.6,283.5,137.2,288z"/>
	<path class="st0" d="M400,54.7c-2.6,2.1-4.9,4.5-7.8,6.1C379.6,68,366.9,75.1,354.1,82c-2.1,1.1-4.9,1.8-7.3,1.6
		c-3.3-0.3-5.2-2.8-5.8-6c-0.6-3.3,0.6-6,3.3-7.7c3.2-2,6.5-3.7,9.8-5.6c10.5-5.9,21.1-11.7,31.6-17.6c6.8-3.8,9.4-3.3,14.2,2.6
		C400,51.1,400,52.9,400,54.7z"/>
	<path class="st0" d="M353,117.7c5.2,1.4,11.6,3.1,17.9,4.8c4.3,1.1,8.6,2.1,12.8,3.4c4.6,1.4,6.8,5.5,5.5,9.7
		c-1.3,4.2-5.2,6.4-9.8,5.2c-9.9-2.6-19.8-5.2-29.7-8c-4.2-1.2-6.4-4.7-5.9-8.5C344.4,120.5,347.7,117.7,353,117.7z"/>
	<path class="st0" d="M299.7,47.6c1.2-4.6,2.7-10.1,4.1-15.6c1.3-4.9,2.5-9.8,4-14.6c1.4-4.8,5.5-7.3,9.7-6.1
		c4.4,1.3,6.5,5.3,5.3,10.1c-2.5,9.8-5.1,19.5-7.9,29.2c-1.2,4.4-4.8,6.6-8.8,5.9C302.2,55.9,299.6,52.7,299.7,47.6z"/>
	<path class="st0" d="M54.9,278.6c-8.5-0.8-15-4.2-19.7-11c-2.9-4.2-2.2-8.8,1.4-11.4c3.7-2.7,8-1.8,11.2,2.2
		c3.6,4.5,6.9,5.1,11.9,2.4c4-2.2,7.8-4.6,11.8-6.8c4.4-2.4,8.9-1.4,11.2,2.5c2.3,3.9,1,8.3-3.3,11c-4.6,2.8-9.1,5.6-13.9,7.9
		C62.2,276.8,58.4,277.5,54.9,278.6z"/>
	<path class="st0" d="M110.9,244.6c0,4.2-3.4,7.7-7.6,7.8c-4.4,0.1-8-3.5-7.9-7.9c0.1-4.3,3.5-7.6,7.8-7.6
		C107.4,237,110.8,240.4,110.9,244.6z"/>
</g>
</svg>
