<?xml version="1.0" encoding="utf-8"?>
<!-- Generator: Adobe Illustrator 24.2.1, SVG Export Plug-In . SVG Version: 6.00 Build 0)  -->
<svg version="1.1" id="Layer_1" xmlns="http://www.w3.org/2000/svg" xmlns:xlink="http://www.w3.org/1999/xlink" x="0px" y="0px"
	 viewBox="0 0 400 400" style="enable-background:new 0 0 400 400;" xml:space="preserve">
<style type="text/css">
	.st0{fill:#812CD3;}
</style>
<g>
	<path class="st0" d="M199.7,400c-63.3,0-126.6,0-189.9,0c-8.2,0-9.8-1.7-9.8-9.9C0,323.5,0,257,0,190.5c0-8.2,1.6-9.8,9.9-9.8
		c126.7,0,253.5,0,380.2,0c8.2,0,9.8,1.7,9.8,9.9c0,66.5,0,133.1,0,199.6c0,8.2-1.7,9.8-9.9,9.8C326.6,400,263.2,400,199.7,400z
		 M387,193.8c-124.8,0-249.3,0-373.8,0c0,64.5,0,128.8,0,193c124.8,0,249.3,0,373.8,0C387,322.4,387,258.3,387,193.8z"/>
	<path class="st0" d="M120.4,95.2c-2.8-3.2-5.4-6.3-8.2-9.5c0.6-0.7,1.2-1.4,1.8-2c14-12,27.9-24.1,42-35.9c1.9-1.6,4.8-2.5,7.2-2.6
		c23.1-0.2,46.2-0.1,69.3-0.2c2,0,4.4-1,5.9-2.4c9.8-9.5,19.4-19.3,29.8-29.6c-3.8,0-6.7,0-9.9,0c0-4.5,0-8.4,0-13
		c6,0,12.2,0,18.3,0c13.6,0,13.8,0.2,13.8,13.7c0,6,0,12.1,0,18.3c-4.3,0-8.4,0-12.8,0c0-3,0-5.9,0-9.7c-1.5,1.4-2.5,2.1-3.4,3
		c-9.7,9.7-19.4,19.3-29,29.1c-2.5,2.6-5.2,3.7-8.9,3.7c-23-0.1-45.9-0.1-68.9,0c-2.2,0-4.7,1-6.4,2.4
		C147.4,71.9,134,83.5,120.4,95.2z"/>
	<path class="st0" d="M296.8,116.3c0,14.4,0,28.8,0,43.1c0,6.1-2.2,8.3-8.2,8.3c-7.5,0-15.1,0-22.6,0c-5.6,0-7.9-2.3-7.9-7.8
		c0-29.2,0-58.3,0-87.5c0-5.6,2.3-7.9,7.8-7.9c7.5,0,15.1,0,22.6,0c6.1,0,8.3,2.2,8.3,8.2C296.8,87.2,296.8,101.8,296.8,116.3z
		 M271.2,77.6c0,25.9,0,51.4,0,76.9c4.4,0,8.4,0,12.4,0c0-25.8,0-51.3,0-76.9C279.5,77.6,275.5,77.6,271.2,77.6z"/>
	<path class="st0" d="M206.5,122.6c0-12.4,0-24.7,0-37.1c0-5.8,2.2-8.1,8-8.1c7.7,0,15.3,0,23,0c5.3,0,7.7,2.4,7.7,7.6
		c0,25,0,50,0,75c0,5.3-2.4,7.6-7.6,7.7c-7.8,0.1-15.6,0.1-23.4,0c-5.3,0-7.7-2.4-7.7-7.6C206.4,147.6,206.5,135.1,206.5,122.6z
		 M232,154.6c0-21.6,0-42.8,0-64c-4.4,0-8.4,0-12.4,0c0,21.5,0,42.7,0,64C223.7,154.6,227.7,154.6,232,154.6z"/>
	<path class="st0" d="M154.8,129c0-10.2,0-20.4,0-30.6c0-5.8,2.3-8,8-8.1c7.7,0,15.3,0,23,0c5.3,0,7.6,2.4,7.7,7.6
		c0,20.7,0,41.4,0,62.1c0,5.3-2.4,7.6-7.6,7.7c-7.8,0.1-15.6,0.1-23.4,0c-5.3,0-7.6-2.4-7.6-7.6C154.8,149.7,154.8,139.4,154.8,129z
		 M168,103.3c0,17.3,0,34.3,0,51.2c4.3,0,8.4,0,12.3,0c0-17.3,0-34.2,0-51.2C176.1,103.3,172.3,103.3,168,103.3z"/>
	<path class="st0" d="M141.9,135.7c0,8.1,0,16.1,0,24.2c0,5.5-2.4,7.8-7.9,7.8c-7.7,0-15.3,0-23,0c-5.5,0-7.8-2.4-7.8-7.9
		c0-16.3,0-32.5,0-48.8c0-5.5,2.3-7.8,7.9-7.8c7.7,0,15.3,0,23,0c5.5,0,7.8,2.3,7.8,7.9C142,119.3,141.9,127.5,141.9,135.7z
		 M116.2,154.5c4.2,0,8.4,0,12.6,0c0-12.8,0-25.5,0-38.1c-4.3,0-8.4,0-12.6,0C116.2,129.2,116.2,141.7,116.2,154.5z"/>
	<path class="st0" d="M116.1,290.5c0.1-46.3,37.6-84.1,83.3-84c47.2,0.1,84.4,37.4,84.4,84.5c0,45.9-38.1,83.4-84.5,83.2
		C153.5,374,116.1,336.2,116.1,290.5z M129,290c0,39.3,31.7,71.3,70.8,71.3c39.5,0,71.2-31.7,71.2-71.3c0-39-32-70.7-71.4-70.6
		C160.9,219.4,129,251.3,129,290z"/>
	<path class="st0" d="M354.8,290.3c0,16.9,0,33.1,0,49.4c0,6.6-2.1,8.7-8.6,8.7c-7.3,0-14.5,0-21.8,0c-6.1,0-8.3-2.2-8.3-8.2
		c0-15,0-30.1,0-45.1c0-1.4,0-2.9,0-4.7c-4.2,0-8.1,0.4-11.9-0.2c-2.4-0.4-5.4-1.7-6.4-3.6c-1-1.7-0.5-5.2,0.7-6.9
		c10.2-14.8,20.7-29.4,31.3-44c3.3-4.6,8-4.6,11.3-0.1c10.5,14.6,21,29.2,31.3,44c1.2,1.8,1.8,5.2,0.8,6.9c-1.1,1.9-4,3.3-6.4,3.7
		C363,290.8,359.1,290.3,354.8,290.3z M341.9,335.3c0-1.8,0-3.2,0-4.7c0-15.2,0-30.3,0-45.5c0-5.3,2.3-7.6,7.6-7.7
		c1.7,0,3.3,0,5.7,0c-6.9-9.6-13.2-18.4-19.8-27.6c-6.7,9.4-13,18.2-19.7,27.6c1.9,0,3.1,0,4.2,0c7.1,0,9,2,9,9.1
		c0,10.1,0,20.1,0,30.2c0,6.1,0,12.3,0,18.6C333.4,335.3,337.4,335.3,341.9,335.3z"/>
	<path class="st0" d="M45.2,290.3c0-16.7,0-32.8,0-48.9c0-7.4,1.9-9.2,9.3-9.2c7.3,0,14.5,0,21.8,0c5.2,0,7.6,2.4,7.6,7.7
		c0,15.2,0,30.3,0,45.5c0,1.5,0,2.9,0,4.9c4.1,0,8-0.4,11.8,0.2c2.4,0.4,5.5,1.7,6.5,3.5c1,1.8,0.4,5.4-0.8,7.3
		c-10.1,14.7-20.6,29.2-31,43.6c-3.4,4.7-8.1,4.7-11.5-0.1c-10.4-14.5-20.9-29-31-43.6c-1.3-1.8-1.7-5.5-0.7-7.3
		c1-1.8,4.2-3.1,6.5-3.4C37.1,289.9,40.9,290.3,45.2,290.3z M58.1,245.3c0,1.3,0,2.2,0,3.1c0,15.7,0,31.4,0,47.1
		c0,5.3-2.4,7.6-7.6,7.7c-1.6,0-3.3,0-5.7,0c6.9,9.6,13.2,18.4,19.8,27.6c6.7-9.4,13-18.2,19.7-27.6c-1.8,0-2.9,0-3.9,0
		c-7.6-0.1-9.4-1.8-9.4-9.6c0-12.1,0-24.1,0-36.2c0-4,0-8,0-12.1C66.6,245.3,62.6,245.3,58.1,245.3z"/>
	<path class="st0" d="M206.5,348.2c-4.4,0-8.4,0-12.9,0c0-3.5-0.1-6.9,0-10.3c0.1-2.4-0.7-3.4-2.9-4.3
		c-10.3-4.2-15.6-12.2-16.5-23.5c4.3,0,8.4,0,12.7,0c0.3,1.1,0.6,2.3,1,3.6c2,6.2,8.3,10,14.5,8.8c6.3-1.2,10.9-6.9,10.6-13.3
		c-0.3-6.4-5.3-11.6-11.8-12.3c-2.8-0.3-5.7-0.4-8.3-1.2c-10.4-3-17.6-12.4-18.3-23.6c-0.6-10.1,5.5-20.4,15.2-24.4
		c3.3-1.4,4.1-3.1,3.8-6.2c-0.2-2.9,0-5.8,0-8.9c4.4,0,8.4,0,12.9,0c0,3.5,0.1,6.9,0,10.3c-0.1,2.4,0.7,3.4,2.9,4.3
		c10.3,4.2,15.6,12.2,16.5,23.6c-4.3,0-8.4,0-12.7,0c-0.3-0.9-0.5-2.1-0.9-3.2c-1.9-6.3-7.9-10.2-14.2-9.3c-6.5,1-11.3,6.8-11,13.3
		c0.3,6.6,5.4,11.7,12.1,12.3c2.8,0.3,5.6,0.5,8.3,1.3c10.4,3.2,17.2,12.3,17.9,23.4c0.6,10.3-5.6,20.5-15.6,24.6
		c-2.7,1.1-3.7,2.4-3.5,5.2C206.6,341.5,206.5,344.6,206.5,348.2z"/>
</g>
</svg>
