<?xml version="1.0" encoding="utf-8"?>
<!-- Generator: Adobe Illustrator 23.1.1, SVG Export Plug-In . SVG Version: 6.00 Build 0)  -->
<svg version="1.1" id="Layer_1" xmlns="http://www.w3.org/2000/svg" xmlns:xlink="http://www.w3.org/1999/xlink" x="0px" y="0px"
	 viewBox="0 0 400 400" style="enable-background:new 0 0 400 400;" xml:space="preserve">
<style type="text/css">
	.st0{clip-path:url(#SVGID_2_);fill:url(#SVGID_3_);}
	.st1{clip-path:url(#SVGID_5_);fill:url(#SVGID_6_);}
	.st2{clip-path:url(#SVGID_8_);fill:url(#SVGID_9_);}
</style>
<g>
	<defs>
		<path id="SVGID_1_" d="M54.4,177.1h68.7L90,234.6H54.4V177.1z M141.2,177.1h43.2l-33.2,57.5H108L141.2,177.1z M202.4,177.1h43.2
			l-33.2,57.5h-43.2L202.4,177.1z M263.6,177.1h43.2l-33.2,57.5h-43.2L263.6,177.1z M324.8,177.1h35.5v57.5h-68.7L324.8,177.1z
			 M40.7,120.9c-2.1-7.1-1.2-14.6,2.4-21.2c3.6-6.5,9.5-11.3,16.6-13.3l4.6-1.3c0.3,0.4,0.6,0.8,1,1.2l55.6,53.4l-69,20L40.7,120.9z
			 M137,133.4L81.5,80.1L123.1,68c0.3,0.4,0.6,0.8,1,1.2l55.6,53.4l-41.6,12.1C137.8,134.2,137.4,133.8,137,133.4 M195.8,116.4
			L140.3,63L181.9,51c0.3,0.4,0.6,0.8,1,1.2l55.6,53.4l-41.7,12.1C196.6,117.2,196.2,116.8,195.8,116.4 M254.7,99.4L199.1,46
			l41.7-12.1c0.3,0.4,0.6,0.8,1,1.2l55.6,53.4l-41.6,12.1C255.4,100.2,255,99.7,254.7,99.4 M313.4,82.3L257.9,29l42.2-12.2
			c2.5-0.7,5.1-1.1,7.7-1.1c12.4,0,23.4,8.3,26.8,20.1l11.2,38.8l-31.3,9.1C314.2,83.1,313.8,82.7,313.4,82.3 M295.7,1.7L55.4,71.3
			C44.3,74.6,35,82,29.4,92.1c-5.6,10.2-6.9,21.9-3.7,33.1l13.1,45.2v186.1c0,24,19.5,43.5,43.5,43.5h93.9c4.3,0,7.8-3.5,7.8-7.8
			c0-4.3-3.5-7.8-7.8-7.8H82.3c-15.4,0-27.9-12.5-27.9-27.9V250.2h40h0h0h61.2h0h0h61.2h0h61.2h0h0h82.2v106.3
			c0,15.4-12.5,27.9-27.9,27.9h-93.9c-4.3,0-7.8,3.5-7.8,7.8c0,4.3,3.5,7.8,7.8,7.8h93.9c24,0,43.5-19.5,43.5-43.5V169.3
			c0-4.3-3.5-7.8-7.8-7.8H101.7l256-74.2c2-0.6,3.7-1.9,4.7-3.7c1-1.8,1.2-4,0.7-6l-13.4-46.2C344.3,12.9,327,0,307.8,0
			C303.7,0,299.7,0.6,295.7,1.7"/>
	</defs>
	<clipPath id="SVGID_2_">
		<use xlink:href="#SVGID_1_"  style="overflow:visible;"/>
	</clipPath>
	
		<linearGradient id="SVGID_3_" gradientUnits="userSpaceOnUse" x1="-1169.5107" y1="2100.7827" x2="-1158.577" y2="2100.7827" gradientTransform="matrix(32.1958 0 0 -32.1958 37677.3555 67836.4375)">
		<stop  offset="0" style="stop-color:#812CD3"/>
		<stop  offset="0.9996" style="stop-color:#4B2DD0"/>
		<stop  offset="1" style="stop-color:#4B2DD0"/>
	</linearGradient>
	<rect x="22.5" y="0" class="st0" width="353.5" height="400"/>
</g>
<g>
	<defs>
		<path id="SVGID_4_" d="M173.5,173.9l45.2,26.1l-45.2,26.1V173.9z M161.8,153.6c-2.4,1.4-3.9,4-3.9,6.8v79.2c0,2.8,1.5,5.4,3.9,6.8
			c1.2,0.7,2.6,1,3.9,1c1.3,0,2.7-0.3,3.9-1l68.6-39.6c2.4-1.4,3.9-4,3.9-6.8c0-2.8-1.5-5.4-3.9-6.8l-68.6-39.6
			c-1.2-0.7-2.6-1-3.9-1C164.3,152.6,163,152.9,161.8,153.6"/>
	</defs>
	<clipPath id="SVGID_5_">
		<use xlink:href="#SVGID_4_"  style="overflow:visible;"/>
	</clipPath>
	
		<linearGradient id="SVGID_6_" gradientUnits="userSpaceOnUse" x1="-1235.0227" y1="2015.6764" x2="-1224.0885" y2="2015.6764" gradientTransform="matrix(7.7066 0 0 -7.7066 9675.6426 15733.9297)">
		<stop  offset="0" style="stop-color:#812CD3"/>
		<stop  offset="0.9996" style="stop-color:#4B2DD0"/>
		<stop  offset="1" style="stop-color:#4B2DD0"/>
	</linearGradient>
	<rect x="157.9" y="152.6" class="st1" width="84.3" height="94.9"/>
</g>
<g>
	<defs>
		<path id="SVGID_7_" d="M192.2,200c0,4.3,3.5,7.8,7.8,7.8c4.3,0,7.8-3.5,7.8-7.8c0-4.3-3.5-7.8-7.8-7.8
			C195.7,192.2,192.2,195.7,192.2,200"/>
	</defs>
	<clipPath id="SVGID_8_">
		<use xlink:href="#SVGID_7_"  style="overflow:visible;"/>
	</clipPath>
	
		<linearGradient id="SVGID_9_" gradientUnits="userSpaceOnUse" x1="-1612.2842" y1="1527.1075" x2="-1601.3512" y2="1527.1075" gradientTransform="matrix(1.4291 0 0 -1.4291 2496.2263 2382.3191)">
		<stop  offset="0" style="stop-color:#812CD3"/>
		<stop  offset="0.9996" style="stop-color:#4B2DD0"/>
		<stop  offset="1" style="stop-color:#4B2DD0"/>
	</linearGradient>
	<rect x="192.2" y="192.2" class="st2" width="15.6" height="15.6"/>
</g>
</svg>
