<?xml version="1.0" encoding="utf-8"?>
<!-- Generator: Adobe Illustrator 23.1.1, SVG Export Plug-In . SVG Version: 6.00 Build 0)  -->
<svg version="1.1" id="Layer_1" xmlns="http://www.w3.org/2000/svg" xmlns:xlink="http://www.w3.org/1999/xlink" x="0px" y="0px"
	 viewBox="0 0 400 400" style="enable-background:new 0 0 400 400;" xml:space="preserve">
<style type="text/css">
	.st0{fill:#4B2DD0;}
</style>
<path class="st0" d="M386,273.9c-3.9,10.7-6.3,22.2-12,31.9c-16.7,28.6-34.7,56.6-52.3,84.7c-6.1,9.8-10,9.7-16,0
	c-16.9-27.2-33.9-54.3-50.6-81.7c-16.1-26.4-15.2-52.2,2.1-75.1c16.4-21.6,48-32.2,74.6-25C363.2,217.4,384.1,243.2,386,273.9
	 M313.8,380c18.3-30,36.2-58,52.5-86.8c4.1-7.2,5.3-17.5,4.2-25.8c-4.3-32.5-38-54.3-69.9-46.5c-34.1,8.3-54.7,44.1-39.5,72.3
	C276.7,322.3,295.3,349.8,313.8,380"/>
<path class="st0" d="M303.3,64.7c-3.4,10.3-5.5,21.3-10.6,30.6c-14.9,27-31,53.4-46.8,80c-4.7,7.9-9.3,8-14,0.1
	c-16-26.8-32.3-53.4-47.6-80.5c-12.7-22.5-10.9-45.2,4.3-66C204.4,7.2,226.6-1,252.7,4.6c25.1,5.4,40.9,21.6,47.3,46.5
	c1.1,4.1,1.1,8.6,1.7,12.8C302.2,64.2,302.8,64.4,303.3,64.7 M238.4,163.3c15.8-26.8,30.6-51.2,44.7-75.9
	c10.7-18.9,6.8-41.9-8.9-57.2C257.4,14,233,10.9,213.5,22.7C194,34.4,182.1,57.8,191,77.3C204.4,106.4,221.8,133.6,238.4,163.3"/>
<path class="st0" d="M313.8,309.5c-19.5,0-35.1-15.9-34.9-35.5c0.2-19.4,15.6-34.5,34.9-34.4c19,0,34.9,15.6,35.2,34.5
	C349.3,293.2,333,309.5,313.8,309.5 M313.6,252.2c-12.3,0.1-21.9,9.6-22.1,22c-0.1,12.8,9.6,22.6,22.3,22.6
	c12.1,0,22.1-9.9,22.2-21.9C336.2,262.3,326.1,252.2,313.6,252.2"/>
<path class="st0" d="M270.4,65.9c0.2,17.9-13.6,32-31.4,32.2c-17.5,0.1-31.9-14.2-31.9-31.7c0-17.4,13.7-31.3,31.1-31.6
	C256.3,34.5,270.2,47.9,270.4,65.9 M257.8,66.7c0.2-10.9-8-19.3-18.9-19.5c-10.4-0.1-18.9,8-19.3,18.3c-0.4,10.8,7.8,19.6,18.5,19.9
	C249,85.7,257.6,77.5,257.8,66.7"/>
<path class="st0" d="M141.6,178.8c-3.4,10.3-5.5,21.3-10.6,30.6c-14.9,27-31,53.4-46.8,80c-4.7,7.9-9.3,8-14,0.1
	c-16-26.8-32.3-53.4-47.6-80.5c-12.7-22.5-10.9-45.2,4.3-66c15.9-21.7,38.1-29.9,64.2-24.3c25.1,5.4,40.9,21.6,47.3,46.5
	c1.1,4.1,1.1,8.6,1.7,12.8C140.5,178.3,141,178.6,141.6,178.8 M76.7,277.4c15.8-26.8,30.6-51.2,44.7-75.9
	c10.7-18.9,6.8-41.9-8.9-57.2c-16.7-16.2-41.1-19.3-60.6-7.5c-19.5,11.7-31.4,35.1-22.5,54.6C42.7,220.5,60.1,247.8,76.7,277.4"/>
<path class="st0" d="M108.7,180c0.2,17.9-13.6,32-31.4,32.2c-17.5,0.1-31.9-14.2-31.9-31.7c0-17.4,13.7-31.3,31.1-31.6
	C94.6,148.6,108.5,162.1,108.7,180 M96.1,180.8c0.2-10.9-8-19.3-18.9-19.5c-10.4-0.1-18.9,8-19.3,18.3c-0.4,10.8,7.8,19.6,18.5,19.9
	C87.3,199.8,95.9,191.6,96.1,180.8"/>
<path class="st0" d="M224.8,326.8h13.8c-0.6,4.2-0.4,8.5-2.1,11.7c-0.7,1.3-7.4,1.5-8.5,0C225.8,335.9,225.9,331.6,224.8,326.8"/>
<path class="st0" d="M137.6,302.8c-12.9,2.1-13.7,1.3-11.4-11.3c1.7-0.2,3.6-0.5,5.5-0.5c1.7,0,3.3,0.2,5.4,0.4
	c0.3,2.1,0.7,4,0.8,5.9C138.1,299,137.8,300.7,137.6,302.8"/>
<path class="st0" d="M187.8,322c-13,1.7-13.8,0.7-11.1-11.5c1.8-0.1,3.7-0.4,5.6-0.4c1.6,0,3.3,0.3,5.3,0.5c0.2,2.3,0.6,4.2,0.6,6.1
	C188.3,318.3,188,319.9,187.8,322"/>
<rect x="183.2" y="187.8" class="st0" width="11.5" height="11.5"/>
<rect x="100.9" y="281.9" class="st0" width="11.1" height="11.9"/>
<rect x="150.9" y="300.8" class="st0" width="11.4" height="12.1"/>
<rect x="208" y="167.6" class="st0" width="11.4" height="12.1"/>
<rect x="201.3" y="319.9" class="st0" width="11.3" height="11.9"/>
<rect x="133" y="216.4" class="st0" width="11.4" height="11.5"/>
<rect x="158" y="206.8" class="st0" width="11.1" height="11.5"/>
</svg>
