<?xml version="1.0" encoding="utf-8"?>
<!-- Generator: Adobe Illustrator 24.2.1, SVG Export Plug-In . SVG Version: 6.00 Build 0)  -->
<svg version="1.1" id="Layer_1" xmlns="http://www.w3.org/2000/svg" xmlns:xlink="http://www.w3.org/1999/xlink" x="0px" y="0px"
	 viewBox="0 0 400 400" style="enable-background:new 0 0 400 400;" xml:space="preserve">
<style type="text/css">
	.st0{fill:#FFFFFF;}
	.st1{fill:#FBB110;}
	.st2{fill:#E70020;}
</style>
<g id="layer1" transform="translate(827.88999,968.22013)">
	<path id="path8304" class="st0" d="M-827.9-844.9c0-13.4,10.7-24.2,24-24.2h352c13.2,0,24,10.8,24,24.2v153.2
		c0,13.4-10.7,24.2-24,24.2h-352c-13.3,0-24-10.8-24-24.2V-844.9"/>
	<path id="path8308" class="st1" d="M-827.6-847.3c0-12.3,9.9-22.3,22.1-22.3h355.6c12.2,0,22.1,10,22.1,22.3v0.7h-399.7V-847.3"/>
	<path id="path8312" class="st1" d="M-427.9-689.7v0.6c0,12.3-9.9,22.3-22.1,22.3h-355.6c-12.2,0-22.1-10-22.1-22.3v-0.6H-427.9"/>
	<path id="path8316" class="st2" d="M-551-768.5c0,31.1,25,56.3,55.8,56.3c30.8,0,55.8-25.2,55.8-56.3c0-31.1-25-56.4-55.8-56.4
		C-526-824.8-551-799.6-551-768.5z M-817.2-768.5c0,31.1,25,56.3,55.9,56.3c30.8,0,55.8-25.2,55.8-56.3c0-31.1-25-56.4-55.8-56.4
		C-792.2-824.8-817.2-799.6-817.2-768.5z M-427.9-700.4h-275.3c5-3.5,9.6-8.3,14.6-14.8l28-36.1l12.2,15.6l13.6-18.3l-11.9-15.3
		L-618-806c9.1-11.7-8.3-25.4-17.3-13.7l-25.2,32.5l-25.6-32.9c-9.1-11.6-26.4,2.1-17.3,13.8l29,37.2l-31.4,40.4
		c-11.1,14.4-22.3,27.5-44.3,28.5h-77.3v-135.6h273.9c-4.7,3.5-9.2,8.1-14,14.3l-28,36.1l-12.3-15.6l-13.6,18.3l11.9,15.3
		l-28.6,36.8c-9.1,11.7,8.3,25.4,17.3,13.7l25.2-32.5l25.6,32.9c9.1,11.6,26.4-2.1,17.3-13.7l-29-37.2l31.4-40.4
		c10.2-13.2,20.5-25.4,39.2-28h83.3V-700.4z M-528.6-768.5c0-18.6,15-33.7,33.4-33.7s33.4,15.1,33.4,33.7c0,18.6-15,33.7-33.4,33.7
		S-528.6-749.8-528.6-768.5z M-794.8-768.5c0-18.6,15-33.7,33.4-33.7c18.5,0,33.4,15.1,33.4,33.7c0,18.6-15,33.7-33.4,33.7
		C-779.8-734.7-794.8-749.8-794.8-768.5"/>
</g>
</svg>
