<?xml version="1.0" encoding="utf-8"?>
<!-- Generator: Adobe Illustrator 24.2.1, SVG Export Plug-In . SVG Version: 6.00 Build 0)  -->
<svg version="1.1" id="Layer_1" xmlns="http://www.w3.org/2000/svg" xmlns:xlink="http://www.w3.org/1999/xlink" x="0px" y="0px"
	 viewBox="0 0 400 400" style="enable-background:new 0 0 400 400;" xml:space="preserve">
<style type="text/css">
	.st0{fill:#606060;}
</style>
<g>
	<g>
		<path class="st0" d="M257,0c3,0.9,6,1.7,8.8,2.9c15.9,6.7,24.5,24,20.3,40.7c-4.3,17-20.1,28.3-37.2,26.7
			c-16.7-1.6-30.5-15.3-31.8-31.4c-1.4-18.4,9.7-33.9,27.2-38c0.9-0.2,1.7-0.6,2.5-0.8C250.3,0,253.6,0,257,0z"/>
		<path class="st0" d="M283.9,161.6c-0.8,11.8-1.7,24.2-2.5,36.6c-0.7,10.2-1.5,20.5-2.1,30.7c-0.1,1.2,0.3,2.5,0.7,3.7
			c3,9.1,6,18.3,9.2,27.3c4.6,12.8,8.1,25.6,9,39.3c1.8,26.6,4.5,53.1,6.7,79.7c0.9,10.7-6.6,19.5-16.9,20.8
			c-10.2,1.2-19.4-5.9-21.2-16.5c-0.6-3.5-0.7-7-1-10.5c-2.4-27.2-4.7-54.4-7.1-81.7c-0.1-1.5-0.6-3.1-1.1-4.5
			c-6-18-12.1-36-18.2-53.9c-2.3-6.9-2.3-6.9-10.5-6.7c0,1.4-0.1,2.7,0,4.1c1,19.9,1.9,39.8,3,59.7c0.4,6.1-0.6,11.8-3.2,17.4
			c-12.5,26.7-24.9,53.5-37.3,80.3c-4.7,10-13.9,14.5-23.5,11.7c-11.4-3.3-16.9-15.7-11.7-27c8.2-18,16.6-35.9,24.9-53.8
			c3-6.4,5.7-12.9,8.9-19.1c2.6-5,3.5-10.1,3.1-15.7c-1.1-18.3-2.4-36.6-2.7-55c-0.2-12.2,0.8-24.4,1.5-36.6c0.5-10,1.5-20,2-30
			c0.3-8.3,2.9-15,9.8-20.1c5.7-4.2,11-9.2,16.2-14.3c-1,0.5-2.1,1-3.1,1.5c-8.1,4.3-16.4,8.6-24.4,13.1c-2,1.2-4,3.3-4.9,5.5
			c-7.3,16.9-14.3,34-21.5,51c-2.9,6.9-9,10.4-16.1,9.9c-6.4-0.5-12.4-4.9-13.8-11.4c-0.7-3.5-0.7-7.7,0.6-11
			c8-20,16.3-39.9,25-59.7c1.5-3.4,4.8-6.6,8.1-8.5c10.3-6,21-11.4,31.5-17.1c1.1-0.6,2.2-1.3,3.2-2.3c-1.8,0.4-3.7,0.9-6.1,1.5
			c0.3-1.5,0.4-2.7,0.7-3.9c3-9.8,12-16.9,22.2-16.5c15.2,0.6,30.4,1.5,45.6,3c12.7,1.3,21.5,11.7,20.7,24.5
			c-0.4,5.5,1.2,9.3,4.9,13.1c3.6,3.6,7.1,7.4,10,11.5c4,5.8,9.4,8.3,16,9.8c12.7,2.8,25.3,6.1,37.8,9.4c8.1,2.1,12.8,8.8,12.2,16.8
			c-0.5,7.7-6.2,13.8-14.2,14.7c-2.3,0.3-4.7-0.1-6.9-0.7c-16.5-4.1-33.1-8-49.5-12.6C292.7,167.7,288.5,164.2,283.9,161.6z"/>
		<path class="st0" d="M112.7,265c7.7-16.6,15.1-32.8,22.5-48.7c4.9,1.8,9.7,3.5,14.8,5.3c-1.5,3.3-3.1,6.8-4.7,10.3
			c-5.6,12.2-11.2,24.3-16.9,36.5c-1.1,2.2-1.2,3.7,0.7,5.7c4.3,4.6,4.3,10,1.7,15.6c-9.1,19.7-18.2,39.4-27.3,59.1
			c-5.4,11.7-10.8,23.4-16.2,35.1c-4.5,9.8-10.9,12.2-20.9,7.7c-1-0.5-2.1-0.8-3.2-1.2c-3.4,8.3-9,11.5-15.2,8.7
			c-6.4-2.8-7.6-9-3.5-17.4c-1.1-0.6-2.3-1.2-3.4-1.7c-9.2-4.3-11.7-11.1-7.4-20.4c13.3-28.8,26.6-57.6,39.8-86.4
			c1.3-2.8,2.6-5.7,3.9-8.5c3.8-7.9,10.8-10.5,18.8-7C101.7,259.9,107,262.4,112.7,265z"/>
	</g>
</g>
</svg>
