<?xml version="1.0" encoding="utf-8"?>
<!-- Generator: Adobe Illustrator 23.1.1, SVG Export Plug-In . SVG Version: 6.00 Build 0)  -->
<svg version="1.1" id="Layer_1" xmlns="http://www.w3.org/2000/svg" xmlns:xlink="http://www.w3.org/1999/xlink" x="0px" y="0px"
	 viewBox="0 0 400 400" style="enable-background:new 0 0 400 400;" xml:space="preserve">
<style type="text/css">
	.st0{fill:#606060;}
</style>
<g>
	<path class="st0" d="M400,213.5c-0.6,2.5-1,5.1-1.7,7.6c-7.4,25.1-23.1,41.6-49.2,46.7c-27.1,5.3-52.3-14.4-54.5-42.1
		c-2.6-32.6,20.4-61.7,52.5-66.5c24.9-3.7,47.5,12.8,52.1,38c0.2,1.3,0.6,2.5,0.9,3.7V213.5z"/>
	<path class="st0" d="M50.4,315.1c-0.1-13.8,3.3-25.1,9.9-35.5c14.3-22.4,28.4-44.9,43-67.1c20.7-31.2,50.1-46.6,87.3-44.9
		c32.8,1.5,58.5,17,76.6,44.5c14.7,22.4,29.2,45,43.4,67.8c24.1,38.7,2,87.3-42.9,94.6c-11.1,1.8-22.1,0.4-32.5-4.1
		c-17.4-7.6-35.6-11.3-54.7-10.5c-15.8,0.6-30.7,4.7-45.3,10.6c-33.3,13.5-70.1-3.3-81.7-37.2c-1.1-3.3-1.9-6.8-2.5-10.2
		C50.6,319.9,50.6,316.7,50.4,315.1"/>
	<path class="st0" d="M151.1,158.9c-13.7-0.3-28.4-8.5-39.5-23.1c-21.4-27.9-18.8-69.9,5.6-94.3c22-22,54.8-22.2,76.9-0.4
		c30.5,30,26.2,85.1-8.5,108.6C176.8,155.7,166.9,158.9,151.1,158.9"/>
	<path class="st0" d="M331.7,111.2c-1.2,24.7-10,43.8-29.1,57c-28.9,20-65.1,8.1-76.9-25.1c-9.8-27.5,0.8-60.4,24.8-76.9
		c31-21.3,70-6.3,79,30.5C330.8,102,331.2,107.5,331.7,111.2"/>
	<path class="st0" d="M102.6,166.8c-0.3,13.3-5.6,27.8-18.9,38.5c-15.4,12.4-36.8,13-54.7,1.8c-23-14.3-34.3-44.3-26.4-70.3
		c10.4-34.3,49.1-45.6,77.1-22.5C94,126.3,102.5,144.3,102.6,166.8"/>
</g>
</svg>
