<?xml version="1.0" encoding="utf-8"?>
<!-- Generator: Adobe Illustrator 23.1.1, SVG Export Plug-In . SVG Version: 6.00 Build 0)  -->
<svg version="1.1" id="Layer_1" xmlns="http://www.w3.org/2000/svg" xmlns:xlink="http://www.w3.org/1999/xlink" x="0px" y="0px"
	 viewBox="0 0 400 400" style="enable-background:new 0 0 400 400;" xml:space="preserve">
<style type="text/css">
	.st0{fill:#4B2DD0;}
</style>
<path class="st0" d="M392.2,217.3c-0.5,2.4-0.9,4.9-1.6,7.3c-7.1,24.3-22.4,40.2-47.6,45.1c-26.1,5.1-50.5-13.9-52.6-40.7
	c-2.5-31.5,19.7-59.7,50.7-64.3c24-3.6,45.8,12.4,50.3,36.8c0.2,1.2,0.6,2.4,0.8,3.6V217.3z"/>
<path class="st0" d="M54.4,315.5c-0.1-13.4,3.2-24.3,9.6-34.3c13.8-21.6,27.4-43.4,41.6-64.8c20-30.1,48.4-45.1,84.4-43.4
	c31.7,1.5,56.6,16.4,74,43c14.3,21.7,28.2,43.5,41.9,65.5c23.3,37.4,2,84.3-41.4,91.4c-10.7,1.8-21.3,0.4-31.4-3.9
	c-16.9-7.3-34.4-10.9-52.8-10.2c-15.3,0.6-29.7,4.5-43.8,10.2c-32.1,13.1-67.7-3.2-78.9-36c-1.1-3.2-1.9-6.5-2.5-9.9
	C54.6,320.1,54.5,317.1,54.4,315.5"/>
<path class="st0" d="M151.7,164.6c-13.3-0.2-27.4-8.2-38.2-22.3c-20.7-27-18.1-67.5,5.4-91.2c21.2-21.3,52.9-21.5,74.3-0.4
	c29.5,29,25.4,82.2-8.2,104.9C176.5,161.5,166.9,164.6,151.7,164.6"/>
<path class="st0" d="M326.2,118.4c-1.1,23.9-9.6,42.3-28.1,55.1c-27.9,19.4-62.9,7.8-74.4-24.2c-9.5-26.6,0.8-58.3,24-74.3
	c29.9-20.6,67.7-6.1,76.4,29.5C325.4,109.5,325.7,114.8,326.2,118.4"/>
<path class="st0" d="M104.8,172.2c-0.3,12.8-5.4,26.8-18.3,37.2c-14.9,12-35.5,12.6-52.9,1.8c-22.2-13.8-33.1-42.8-25.5-67.9
	c10-33.2,47.5-44.1,74.5-21.7C96.5,133.1,104.7,150.5,104.8,172.2"/>
</svg>
