<?xml version="1.0" encoding="utf-8"?>
<!-- Generator: Adobe Illustrator 24.2.1, SVG Export Plug-In . SVG Version: 6.00 Build 0)  -->
<svg version="1.1" id="Layer_1" xmlns="http://www.w3.org/2000/svg" xmlns:xlink="http://www.w3.org/1999/xlink" x="0px" y="0px"
	 viewBox="0 0 400 400" style="enable-background:new 0 0 400 400;" xml:space="preserve">
<style type="text/css">
	.st0{fill:#812CD3;}
</style>
<g>
	<path class="st0" d="M316.4,400c-77.6,0-155.1,0-232.7,0c0.1-7.8,0.2-15.6,0.2-23.4c0-6.9-1.8-8.8-8.8-8.8c-23.4,0-46.8,0-70.3,0
		c-1.5,0-3,0-4.7,0c0-19.3,0-38.1,0-56.8c0-16.5,8.7-28.1,24.6-32.9c11.6-3.5,23.2-6.8,34.7-10.4c1.9-0.6,4.9-2,4.9-3.1
		c0.1-3.4,1.7-7.2-2.3-10.3c-8.9-6.9-14.8-16-15.9-27.2c-1-9.7-0.9-19.5-0.7-29.2c0.8-31.5,35.4-52.5,63.7-38.7
		c4.9,2.4,9.3,5.9,14.2,9c1.8-13.3,7.1-25.4,15.5-36.5c-8.4-2.5-16.3-5-24.3-7.2c-1.1-0.3-2.9,0.6-3.8,1.5
		c-12.6,12.8-28,12.9-40.4-0.1c-1.6-1.7-3-1.9-5.1-1.3c-12,3.7-24.1,7.2-36.2,10.9C17.7,139,13,145.2,13,157c0,14.8,0,29.7,0,44.5
		c0,1.5,0,3.1,0,4.7c-4.5,0-8.6,0-12.9,0c0-16.9,0-33.6,0-50.2c0-16.1,8.7-27.7,24.2-32.4c12.3-3.7,24.6-7.4,37-11.1
		c1.1-0.3,2.4-0.7,3-1.5c1.5-1.8,0-9.5-1.9-11C53.4,92.6,47.3,83.5,46.1,72c-1-9.3-0.8-18.7-0.7-28.1C45.8,21.3,63.1,2.9,86,0.3
		c21.3-2.4,42.8,11.7,47.5,33.1c2.3,10.6,1.8,21.9,1.8,33c0,12.6-5.2,23.4-14.8,31.5c-3.7,3.2-4.6,6.3-4.4,10.7
		c0.1,2.2,0.8,3.2,2.9,3.8c9.1,2.6,18.2,5.5,27.3,8c1.4,0.4,3.6,0,4.8-0.9c28.8-22,65.6-21.5,94.1,1.1c1.1,0.9,3.2,1.4,4.5,1
		c10.5-3,20.9-6.2,31.4-9.3c0.8-0.3,1.9-0.5,2.4-1.1c1.4-1.7,0-9.7-1.8-11.1c-8.7-7.1-14.9-16-16.2-27.1c-1.1-9.8-1.1-19.7-0.7-29.6
		c0.8-22.7,18.2-40.7,40.8-43c21.7-2.1,43.1,12.1,47.3,33.8c2.4,12,1.9,24.9,1.1,37.2c-0.8,11.9-7.3,21.5-16.7,28.9
		c-3.5,2.8-1.5,6.5-1.6,9.8c0,0.8,2.5,2.1,4,2.6c12.6,3.9,25.4,7.6,38,11.6c9.2,2.9,15.7,9,19.6,17.8c1.1,2.6,1.8,5.4,2.7,8.1
		c0,18.7,0,37.5,0,56.2c-4.1,0-8.3,0-12.9,0c0-1.7,0-3.2,0-4.8c0-15.1,0-30.2,0-45.3c0-10.8-4.8-17.3-15.1-20.4
		c-12.1-3.7-24.2-7.1-36.2-10.9c-2.9-0.9-4.6-0.4-6.7,1.8c-10.2,10.7-25.2,12.3-35.6,2.6c-5.2-4.9-9.4-5.1-15.3-2.8
		c-5.7,2.2-11.7,3.7-18.3,5.6c13.4,8.7,18.5,20.7,17.5,36.2c1.6-1.4,2.5-2.1,3.4-2.9c26-21.5,65.5-8.5,72.6,24.5
		c2.1,9.6,1.3,19.9,1.3,29.9c0.1,13.4-5.2,24.6-15.3,33.3c-3.1,2.7-4.2,5.3-4.1,9.3c0.1,3,1,4.2,3.9,5c12.9,3.7,25.7,7.5,38.4,11.6
		c9.6,3,16.3,9.4,20.1,18.8c0.9,2.3,1.5,4.7,2.3,7c0,21.1,0,42.2,0,63.3c-5.6,0-11.1-0.1-16.7-0.1c-19.8,0-39.7,0-59.5,0
		c-4.9,0-7.4,2-7.4,6.5C316.1,382.9,316.3,391.4,316.4,400z M386.6,354.6c0.2-0.6,0.4-0.9,0.4-1.3c0-15,0.2-29.9-0.1-44.9
		c-0.2-8.7-5.6-15-14.2-17.6c-12.5-3.8-25.2-7.4-37.7-11.3c-2.3-0.7-3.6-0.2-5.4,1.3c-3.7,3-7.5,6.4-11.8,8
		c-10.8,3.9-20.1,0.4-28-7.6c-1-1-2.7-2.3-3.7-2.1c-7.2,1.9-14.3,4.2-21.4,6.3c-0.2,0.3-0.4,0.7-0.7,1c32.9,4.1,53.6,19.2,52,55.2
		c-4.6,0-8.6,0-13.1,0c0-4.1,0.4-7.9-0.1-11.6c-1.7-12.3-8.2-21.8-20-25.7c-12.4-4.1-25.3-6.5-38.5-9.7c-2.6,13-5.1,25.4-7.7,38.1
		c-4.7-2.8-8.9-5.3-13.3-7.9c-2.1,6-4.9,11.3-3.3,17.6c0.7,2.7,0.6,5.7,1,8.5c1.3,11.9,2.7,23.7,4,35.8c11,0,21.7,0,33,0
		c0-17.2,0-34.1,0-51.1c4.5,0,8.5,0,13,0c0,17.2,0,34.2,0,51.1c10.9,0,21.4,0,32.1,0c0-3.8,0-7.3,0-10.8c0-13.1,8.1-21.1,21.3-21.1
		c3.5,0,7,0,10.5,0c4.4,0,8.7,0,13.5,0c0-15.3,0-30,0-44.9c4.4,0,8.4,0,12.8,0c0,15,0,29.8,0,44.7
		C370,354.6,378.3,354.6,386.6,354.6z M51.6,354.8c8.3,0,16.1,0,23.9,0c13.4,0,21.4,8,21.5,21.3c0,3.6,0,7.2,0,10.7
		c11,0,21.4,0,32.2,0c0-17.2,0-34.1,0-51c4.6,0,8.6,0,13.1,0c0,17.2,0,34.1,0,50.9c11.1,0,21.9,0,32.7,0c1.6-14.9,2.9-29.5,5-44.1
		c0.9-6.5-1.2-11.9-3.3-17.8c-4.5,2.7-8.7,5.2-13.4,7.9c-2.6-12.9-5.1-25.3-7.7-37.9c-11.9,2.8-23.4,5.2-34.7,8.2
		c-13.2,3.5-21.1,12.4-23.6,25.8c-0.8,4.2-0.5,8.5-0.7,13c-4.2,0-8.3,0-12.3,0c-1.2-7.1-0.1-17.5,2.8-24.4
		c6.6-16,18.9-24.9,35.7-28.3c4.2-0.8,8.4-2,12.7-2.9c-6.9-2.8-13.7-5-20.6-6.8c-1.2-0.3-3.2,0.5-4.2,1.4
		c-12.4,12.8-28,12.9-40.4-0.1c-1.6-1.7-2.9-2-5.1-1.3c-12.2,3.8-24.4,7.4-36.6,11C17.7,293.8,13,300,13,311.3c0,13.1,0,26.3,0,39.4
		c0,1.2,0.2,2.5,0.2,3.8c8.6,0,16.9,0,25.6,0c0-15,0-29.7,0-44.7c4.5,0,8.4,0,12.7,0C51.6,324.8,51.6,339.5,51.6,354.8z
		 M135.8,187.5c7.6-5.5,15.7-7.1,24.3-6.9c8.3,0.2,16.7,0.1,25,0c10.3-0.1,20.1-2.6,29.3-7.2c4.7-2.4,9.2-5.3,14-8.2
		c1.7,3.3,3.6,6.4,4.8,9.7c1.6,4.5,4.2,6.7,9.2,5.9c2-0.3,4.2-0.1,6.2,0.5c5.3,1.5,10.4,3.4,15.4,5.1c0-9.1,0.5-18.7-0.2-28.2
		c-0.5-6.4-4.4-11.6-10.3-14.3c-5.3-2.4-9.1-6.3-13.1-10.1c-16-15-34.9-20.5-56.2-15.9C152.6,124.6,132.7,153.2,135.8,187.5z
		 M161.6,193.6c-0.2,1.2-0.3,1.8-0.3,2.5c0.1,11.3-0.3,22.7,0.4,34c1.3,19.1,18.1,34.2,37.9,34.6c18.8,0.4,36.6-14.1,38.4-32.6
		c1.2-12.4,0.4-24.9,0.5-37.4c0-0.2-0.3-0.4-0.7-0.9c-1.9,0-4-0.2-6,0c-2.8,0.3-4.3-0.8-5.3-3.3c-0.9-2.4-2.3-4.6-3.5-7.1
		C203.8,194.7,182.8,194,161.6,193.6z M58.1,59.6c-1,13.5,3.5,25.3,16.3,32.9c11.4,6.7,25.1,5.7,35.5-2.4c10.4-8.1,13.7-19,12.4-32
		c-9.4,0-18.5,0.4-27.6-0.1c-5.2-0.3-10.3-2.1-15.4-3.3c-1-0.2-2-0.7-2.9-0.5C70.6,55.8,64.8,57.6,58.1,59.6z M277.8,58.1
		c-2.3,14.1,3.9,27.5,15.6,34.3c11.7,6.8,25.9,5.7,36.5-2.8c9.2-7.4,14.3-21.7,11.7-30.1c-6.5-1.9-12.2-3.6-18-5.3
		c-0.7-0.2-1.7-0.3-2.2,0c-7.2,4.5-15.2,3.9-23.1,3.8C291.5,58.1,284.6,58.1,277.8,58.1z M277.4,214.5c-1,13.6,3.4,25.5,16.3,32.9
		c11.5,6.6,23.3,6,34.2-1.5c11.3-7.7,14.9-19.1,13.8-32.6c-1.6-0.1-3-0.2-4.4-0.2c-7.7,0-15.4,0.4-23-0.2
		c-5.3-0.4-10.5-2.2-15.8-3.4c-0.9-0.2-2-0.7-2.9-0.4C289.8,210.7,284,212.5,277.4,214.5z M58.6,213c-2.3,13.6,3.6,26.7,14.8,33.7
		c10.8,6.8,24.9,6.6,35.3-0.8c11.2-8,15.1-19.2,13.9-31.5c-6.6-2-12.4-3.8-18.3-5.5c-0.7-0.2-1.8-0.1-2.5,0.3
		c-5.5,3.1-11.5,3.7-17.7,3.7C75.6,212.9,67.2,213,58.6,213z M341.6,45c0.4-17.9-15.2-32.6-33.3-31.9c-19.2,0.7-31.8,18.2-30.5,32.2
		c7.6,0,15.2-0.3,22.9,0.1c8.3,0.5,15.4-1.3,20.8-8.1c0.3-0.4,0.8-0.5,1.4-0.8C327.8,42.1,333.3,46.5,341.6,45z M122.7,45.2
		c-0.8-13.1-6.4-22.9-17.8-28.6c-12.1-6-24-4.7-34.7,3.7C62.3,26.5,58.2,34.8,58.3,45c8.7,1.7,14.1-3.4,19.2-8.7
		c4.2,4.3,7.9,8.7,13.8,8.9C101.6,45.4,111.9,45.2,122.7,45.2z M297.2,190.3c1.4,1.9,2.1,3.6,3.5,4.5c3,2,6.2,4.7,9.4,4.9
		c10.5,0.6,21,0.2,31.8,0.2c-0.5-12.5-5.9-22-16.5-27.9c-11.7-6.5-23.6-5.8-34.5,2c-8.8,6.2-13.1,14.9-13.3,25.7
		C286,201.3,291.5,196.9,297.2,190.3z M122.5,199.7c0-18.9-16.1-33.2-35.5-31.7c-15.9,1.2-30.4,17.4-28.3,32c5.8,0,11.6-0.1,17.4,0
		c10.1,0.2,20.4,1.3,26.9-9.4C108.5,196.8,114,201.4,122.5,199.7z M133.2,236.7c-4.2,5.4-7.8,11.2-12.6,15.7
		c-3.4,3.2-4.8,6.2-4.5,10.7c0.2,2.3,0.8,3.4,3.1,4c13.7,4.1,27.3,8.3,41,12.4c4.8,1.5,7.7-0.6,7.7-5.5c0-1.8,0.2-3.7-0.1-5.4
		c-0.2-1.4-0.9-2.8-1.7-4c-4.2-5.8-8.6-11.6-12.9-17.4c-0.7-1-1.6-2.4-2.5-2.5C143.7,243.8,137.8,240.7,133.2,236.7z M267.7,236
		c-5.5,4.7-11.5,7.8-18.5,8.8c-0.8,0.1-1.6,1.5-2.2,2.4c-4.3,5.8-8.6,11.6-12.9,17.4c-0.7,1-1.7,2.1-1.7,3.2
		c-0.2,3.6-0.1,7.2-0.1,11.3c2.8,0.2,5.4,1,7.5,0.4c13.3-3.8,26.6-7.9,39.8-12.1c1.5-0.5,3.9-1.7,4-2.6c0-3.2,0.4-7.6-1.5-9.3
		C276.1,249.8,271,243.8,267.7,236z M187.9,386.8c8.2,0,15.9,0,24.2,0c-1.7-15.1-3.3-29.8-4.9-44.6c-5.1,0-9.6,0-14.3,0
		C191.2,357.1,189.6,371.8,187.9,386.8z M218.9,273.9c-12.8,4.8-25.4,4.7-37.9,0c-1.2,4.3-0.4,7.3,3.3,9.6c4.6,2.9,8.9,6.4,13.1,9.8
		c1.8,1.5,3.1,1.6,5,0.1c4.2-3.4,8.5-6.9,13.1-9.8C219.4,281.3,220.1,278.3,218.9,273.9z M148.2,230.6c0-11.8,0-23.4,0-35.1
		c-8,3-12.9,10.2-12.6,18.2C135.9,221.7,140.9,228.5,148.2,230.6z M251.7,195.6c0,11.7,0,23.3,0,34.9c7.3-1.8,12.5-8.9,12.7-17.2
		C264.7,205.3,259.3,197.7,251.7,195.6z M199.7,329c2.2,0,4.4,0.1,6.6,0c0.8,0,2-0.4,2.2-1c1.2-2.9,2.2-5.8,3-8.8
		c0.2-0.6-0.8-1.8-1.5-2.3c-9.4-6.6-9.3-6.5-19.2-0.6c-2.3,1.4-2.6,2.5-1.8,4.9C191.7,328.9,191.6,329,199.7,329z M77.6,108.9
		c-1.5,5.3,1.7,9,6.3,11.8c4.8,3,9.6,2.5,14.2-0.8c5-3.5,5.9-6,4.8-11.1C94.4,108.9,86.1,108.9,77.6,108.9z M297,108.9
		c-1.6,5.4,1.5,8.9,6,11.7c4.7,2.9,9.4,2.7,13.9-0.4c4.3-2.9,7-6.5,5.6-11.4C313.9,108.9,305.6,108.9,297,108.9z M77.6,263.8
		c-1.5,5,1.4,8.6,5.9,11.5c4.7,3,9.5,2.9,14.2-0.2c4.3-2.9,7-6.5,5.4-11.3C94.5,263.8,86.2,263.8,77.6,263.8z M297.1,263.8
		c-0.9,5.5,0.3,8.2,5.7,11.5c4.8,3,9.6,2.8,14.2-0.3c4.3-2.9,7-6.5,5.5-11.2C313.8,263.8,305.5,263.8,297.1,263.8z M172.3,312.3
		c5.7-3.4,10.7-6.4,16.2-9.7c-4.6-3.4-8.9-6.5-13-9.8c-2.3-1.9-4.4-2.1-7.1-0.5C169.6,298.8,170.9,305.2,172.3,312.3z M231.9,291.2
		c-9.5,0.3-13.5,7.8-20.5,11.4c5.8,3.5,10.9,6.5,16.3,9.7C229.1,305.1,230.4,298.7,231.9,291.2z"/>
	<path class="st0" d="M161,96.8c-4.3,0-8.1,0-12.2,0c0-23.6,0-47,0-70.7c4,0,8,0,12.2,0C161,49.6,161,73,161,96.8z"/>
	<path class="st0" d="M251.3,96.7c-4.2,0-8.1,0-12.3,0c0-23.6,0-47,0-70.6c4,0,8,0,12.3,0C251.3,49.6,251.3,73,251.3,96.7z"/>
	<path class="st0" d="M213.3,26c4.2,0,8,0,12.2,0c0,14.9,0,29.7,0,44.8c-3.9,0-7.9,0-12.2,0C213.3,56,213.3,41.2,213.3,26z"/>
	<path class="st0" d="M174.4,70.8c0-14.8,0-29.6,0-44.6c4,0,8.1,0,12.4,0c0,14.8,0,29.6,0,44.6C182.7,70.8,178.7,70.8,174.4,70.8z"
		/>
	<path class="st0" d="M174.4,84.1c4.2,0,8.1,0,12.4,0c0,4.2,0,8.2,0,12.5c-4.1,0-8.1,0-12.4,0C174.4,92.4,174.4,88.4,174.4,84.1z"/>
	<path class="st0" d="M225.6,96.7c-4.2,0-8.2,0-12.4,0c0-4.3,0-8.3,0-12.6c4.2,0,8.2,0,12.4,0C225.6,88.3,225.6,92.3,225.6,96.7z"/>
	<path class="st0" d="M251.3,12.8c-4,0-7.9,0-12.2,0c0-4.1,0-8.2,0-12.5c4,0,8,0,12.2,0C251.3,4.4,251.3,8.4,251.3,12.8z"/>
	<path class="st0" d="M148.7,0.3c4.3,0,8.2,0,12.4,0c0,4.2,0,8.2,0,12.4c-4.1,0-8.1,0-12.4,0C148.7,8.7,148.7,4.6,148.7,0.3z"/>
</g>
</svg>
