<?xml version="1.0" encoding="utf-8"?>
<!-- Generator: Adobe Illustrator 24.2.1, SVG Export Plug-In . SVG Version: 6.00 Build 0)  -->
<svg version="1.1" id="Layer_1" xmlns="http://www.w3.org/2000/svg" xmlns:xlink="http://www.w3.org/1999/xlink" x="0px" y="0px"
	 viewBox="0 0 400 400" style="enable-background:new 0 0 400 400;" xml:space="preserve">
<style type="text/css">
	.st0{fill:#812CD3;}
</style>
<g>
	<path class="st0" d="M0,268.8c0.7-2.7,1.3-5.5,2.2-8.2c4.8-15,14.3-25.8,29.1-31.6c20.1-7.9,40.1-15.7,60.3-23.5
		c2.7-1,3.3-2.4,3.5-5.1c0.4-5.2-1-8.8-5.1-12.4c-8.1-7.1-12.9-16.5-15.1-27.1c-0.4-1.9-0.7-3.3-3.3-4c-19-4.4-25.7-24-13.7-39.4
		c0.3-0.4,0.6-0.8,1-1.5c-4.5-5.1-5.1-11.4-5-17.9c0.2-9.9,0-19.8,0.1-29.7C54,45.6,69,29,91.7,28c18.3-0.8,36.7-0.4,55,0.2
		c11.2,0.3,17.6,6.2,20.4,17.1c0.8,3,2.2,4.1,5.4,4.2c10.7,0.1,19.8,8.3,20.1,19c0.4,14.3-0.2,28.6-0.3,42.9c0,0.9,0.5,1.9,1,2.7
		c2.6,4.2,5.3,8.5,8.1,12.6c0.6,0.9,1.7,1.6,2.7,2c0.9,0.3,2.1,0.1,3.1,0.1c58.8,0,117.7,0,176.5,0c4.7,0,9.4,0.3,12.4,4.3
		c1.9,2.6,3,6,3.6,9.1c0.6,3,0.1,6.2,0.1,9.3c0,9-4,13.7-13.3,15.4c0,1.3,0,2.7,0,4.1c0,16.8,0,33.6,0,50.4c0,1,0.1,2.1,0,3.1
		c-0.3,3.6-2.8,6-6,6c-3.2-0.1-5.7-2.5-5.7-6.2c-0.1-8.5,0-16.9,0-25.4c0-10.5,0-21.1,0-31.9c-60.4,0-120.5,0-181.1,0
		c0,1.5,0,2.9,0,4.3c0,43.1,0,86.2,0,129.2c0,6,0.5,6.5,6.4,6.5c56.1,0,112.2,0,168.3,0c5.9,0,6.5-0.6,6.5-6.4c0-15.6,0-31.2,0-46.9
		c0-5,2-7.6,5.8-7.6c3.8,0,5.9,2.6,5.9,7.6c0,16,0,32,0,48c0,10.9-6.1,17-16.9,17c-25,0-50,0-75,0c-1.4,0-2.8,0-4.6,0
		c0,5.7-0.2,11,0.1,16.3c0.1,1.1,1.8,2.3,3,3c9.4,5.6,12.2,17.5,6.1,26.4c-6.1,8.9-18.5,10.5-26.8,3.6c-9.9-8.2-8.4-23.8,3-30
		c2.4-1.3,3-2.7,2.9-5.1c-0.2-4.5,0-9.1,0-13.9c-8.1,0-16,0-24.3,0c0,1.4,0,2.8,0,4.2c0,11.1,0,22.1,0,33.2c0,10.1-5.6,15.9-15.6,16
		c-32,0.1-64,0.1-96,0c-4.9,0-7.5-2.2-7.4-6.1c0.1-3.7,2.4-5.6,7.3-5.6c17.8,0,35.7,0,53.5,0c1.5,0,3.1,0,4.8,0
		c0-14.2,0-27.9,0-41.8c-0.9-0.1-1.7-0.1-2.4-0.2c-10.4-0.4-16.2-6.4-16.2-16.9c0-23.4,0-46.9,0-70.3c0-1.4,0-2.8,0-4.9
		c-1.1,0.9-1.9,1.4-2.6,2.1c-6.3,6.2-12.5,12.5-18.8,18.8c-19.5,19.3-47.4,19.4-67,0.1c-6.6-6.5-13.1-13-19.6-19.6
		c-1.5-1.6-2.8-2.1-5-1.2c-11.3,4.6-22.8,8.7-34.1,13.5c-14.5,6.2-22.7,17.7-23,33.3c-0.6,27.6-0.2,55.2-0.2,82.8
		c0,2.1,0.3,4.1,2.9,4.2c8.8,0.1,17.6,0,26.8,0c0-1.8,0-3.2,0-4.6c0-23.7,0-47.4,0-71.1c0-1.3-0.1-2.6,0.2-3.9
		c0.6-3.1,2.7-4.9,5.7-4.9c3.2,0,5.3,1.9,5.8,5.3c0.1,1.2,0.1,2.3,0.1,3.5c0,23.7,0,47.4,0,71.1c0,1.4,0,2.8,0,4.6c1.9,0,3.5,0,5,0
		c17.2,0,34.4,0,51.5,0c1.3,0,2.6,0,3.9,0.1c3.4,0.4,5.7,2.7,5.6,5.8c0,3.1-2.4,5.4-5.8,5.7c-1.3,0.1-2.6,0.1-3.9,0.1
		c-30.6,0-61.2-0.2-91.8,0.1C9,372.5,3,369.3,0,360.9C0,330.2,0,299.5,0,268.8z M66.1,83.9c-0.1,0-0.3,0-0.4,0c0,5.7,0,11.4,0,17.2
		c0,7,3,10,10,10c17.2,0,34.3-0.2,51.5,0.1c11.8,0.2,20.9-4.1,27-14.5c1.6-2.7,4.1-4,7.2-3.3c3.1,0.7,4.9,2.7,5.3,5.9
		c0.1,0.8,0.2,1.6,0.3,2.3c0.8,4.8,4.5,8.6,9.2,9.3c3,0.5,4.8-0.7,4.8-3.9c0-12.2,0.1-24.5,0-36.7c-0.1-5.4-3.8-8.9-9.2-9.2
		c-9.4-0.4-13.5-3.7-15.9-12.9c-1.5-5.5-4.1-8.2-9.8-8.3c-18.6-0.3-37.2-0.6-55.8,0c-12.7,0.4-22.5,9.9-24.1,22.6
		C65.3,69.5,66.1,76.7,66.1,83.9z M157.3,111.6c-9.2,9.4-21.3,11.6-34.4,11.1c-11-0.4-22.1-0.1-33.1-0.1c-1.4,0-2.7,0.1-4,0.2
		c0,10.9-0.6,21.5,0.1,32c1.5,20.3,19.2,35.9,40.4,36.5c20.4,0.6,39.1-14.3,41.4-34.3c1.3-11.4,0.7-23.1,0.8-34.6
		c0-0.8-0.7-1.8-1.4-2.4C164.1,117.3,160.9,114.7,157.3,111.6z M284.1,154.9c31.9,0,63.7,0,95.6,0c8.5,0,8.5,0,8.5-8.4
		c0-6,0-6-6.2-6c-64.1,0-128.2,0-192.3,0c-9.2,0-9.2,0-9.2,9.2c0,5.2,0,5.2,5.4,5.2C218.5,154.9,251.3,154.9,284.1,154.9z
		 M212.7,360.7c8.5,0,16.6-0.1,24.8,0c3.5,0.1,4.8-1.3,4.8-4.9c-0.1-11.3,0-22.6-0.1-34c0-1-0.2-2-0.3-3c-9.9,0-19.4,0-29.2,0
		C212.7,332.7,212.7,346.3,212.7,360.7z M181.7,213.1c0-15.8,0-31.1,0-46.2c-2.6-0.9-4-0.4-4.9,2.2c-3.1,8.6-8.4,15.8-15.4,21.6
		c-1.9,1.6-3.3,11.5-1.9,13.4c0.3,0.4,0.8,0.6,1.3,0.8C167.6,207.6,174.5,210.3,181.7,213.1z M107.1,199.3c-1,3.9-0.4,6.8,2.5,9.4
		c4,3.5,7.6,7.5,11.4,11.2c2.9,2.8,9,2.8,11.9,0c3.8-3.7,7.4-7.7,11.4-11.2c2.9-2.6,3.8-5.3,2.7-9.2
		C133.9,204.2,120.6,204.3,107.1,199.3z M151.5,239c6.1-6.1,11.9-12,17.9-18.1c-4.3-1.7-8.8-3.5-13.4-5.2c-0.7-0.3-2-0.2-2.5,0.3
		c-4.2,4.1-8.4,8.3-12.6,12.5C144.7,232.3,148.2,235.7,151.5,239z M84.4,220.9c6.1,6.1,12.1,12,18,17.9c3.2-3.3,6.7-6.9,10.4-10.7
		c-3.8-3.7-7.8-7.8-11.9-11.7c-0.6-0.6-1.9-1.1-2.6-0.8C93.6,217.2,88.9,219.1,84.4,220.9z M142.8,246.1c-4.5-4.2-8.4-8.2-12.8-11.6
		c-1.3-1-4.6-1.1-5.9-0.2c-4.5,3.5-8.4,7.6-12.8,11.7C120.8,251.3,132.5,251.4,142.8,246.1z M73.5,145.1c0-7.5,0-14.8,0-21.9
		c-4.7-1-8.2,1.8-9.6,7.6C62.3,137.2,66.1,143.1,73.5,145.1z M290.7,353.9c0-3.6-2.8-6.4-6.4-6.4c-3.8-0.1-6.7,2.8-6.6,6.6
		c0.1,3.6,2.9,6.4,6.4,6.5C287.8,360.6,290.8,357.6,290.7,353.9z M180.3,128.4c3.3,0,6,0,8.9,0c-1.7-4.7-4.3-7.1-6.9-6.4
		C178.6,123.1,181.1,126.1,180.3,128.4z"/>
	<path class="st0" d="M231.7,229.7c0.1-0.1,0.1-0.2,0.1-0.4c-0.2-12.4,5.6-14.3,15.3-13.7c2.6,0.2,5.2,0,8.3,0c0-2.2-0.1-4.1,0-6
		c0.3-5.1,4-8.7,9.1-8.9c5.1-0.2,10.1-0.1,15.2,0c6.9,0.1,10.6,3.7,10.6,10.6c0.1,10.5,0,21.1,0,31.6c0,7.5,0.1,15.1,0,22.6
		c-0.1,6.7-3.5,10.1-10.1,10.1c-20.4,0-40.9,0-61.3,0c-6.5,0-10-3.3-10.1-9.8c-0.1-8.5-0.1-16.9,0-25.4c0.1-6.8,3.7-10.2,10.5-10.4
		c3.9-0.1,7.8-0.1,11.7-0.2C231.2,230,231.5,229.8,231.7,229.7z M267.3,212.6c0,17.4,0,34.3,0,51.2c3.9,0,7.4,0,10.9,0
		c0-17.2,0-34.2,0-51.2C274.5,212.6,271,212.6,267.3,212.6z M243.9,263.8c4,0,7.6,0,11.1,0c0-12.3,0-24.3,0-36.1
		c-3.9,0-7.4,0-11.1,0C243.9,239.8,243.9,251.7,243.9,263.8z M231.7,263.9c0-7.4,0-14.6,0-21.7c-3.8,0-7.3,0-11,0
		c0,7.3,0,14.4,0,21.7C224.4,263.9,227.9,263.9,231.7,263.9z"/>
	<path class="st0" d="M331.6,244c-5.8,0-11.7,0-17.5,0c-4.3,0-6.9-2.2-7-5.6c-0.1-3.4,2.6-6,6.7-6c11.9-0.1,23.9-0.1,35.8,0
		c4.3,0,6.6,2.5,6.5,6.1c-0.1,3.5-2.4,5.5-6.6,5.5C343.6,244,337.6,244,331.6,244z"/>
	<path class="st0" d="M331.5,268.1c-5.8,0-11.7,0-17.5,0c-4.2,0-6.9-2.4-6.8-5.8c0-3.4,2.7-5.8,6.9-5.9c11.8-0.1,23.6-0.1,35.5,0
		c4.3,0,6.8,2.3,6.7,5.9c0,3.6-2.4,5.7-6.8,5.8C343.4,268.1,337.5,268.1,331.5,268.1z"/>
	<path class="st0" d="M332,208.3c5.8,0,11.7-0.1,17.5,0c4.4,0.1,6.7,2.2,6.7,5.9c0,3.5-2.3,5.7-6.5,5.7c-12.1,0.1-24.2,0.1-36.2,0
		c-3.9,0-6.4-2.6-6.4-5.9c0-3.3,2.6-5.6,6.6-5.7C319.8,208.2,325.9,208.3,332,208.3z"/>
</g>
</svg>
