<?xml version="1.0" encoding="utf-8"?>
<!-- Generator: Adobe Illustrator 23.1.1, SVG Export Plug-In . SVG Version: 6.00 Build 0)  -->
<svg version="1.1" id="Layer_1" xmlns="http://www.w3.org/2000/svg" xmlns:xlink="http://www.w3.org/1999/xlink" x="0px" y="0px"
	 viewBox="0 0 400 400" style="enable-background:new 0 0 400 400;" xml:space="preserve">
<style type="text/css">
	.st0{fill:#4B2DD0;}
</style>
<g>
	<path class="st0" d="M187.5,0h25c6.8,0.9,13.6,1.5,20.4,2.7c38,6.5,71.5,22.5,100.1,48.2c34.3,30.9,55.8,69.1,63.8,114.6
		c1.3,7.3,2.1,14.6,3.1,22v25c-0.9,6.6-1.5,13.2-2.6,19.7c-8.3,48-30.5,88.3-67.7,119.7c-49.8,41.9-107.2,56.6-170.9,43.7
		c-48.3-9.8-87.5-35.1-117.4-74.2C7.8,277.4-5.2,227.6,1.9,173c5.8-43.8,24.7-81.6,55.7-113.1c29.9-30.4,65.9-49.4,108-56.8
		C172.8,1.8,180.2,1,187.5,0 M328.9,305.1c53.4-63.9,52.3-165.7-17.2-228.6c-69.5-62.8-165.3-50.4-216.7-5
		c9.9,9.8,19.7,19.6,29.6,29.4c0.7,0.7,1.5,1.4,2.4,2.2c0.3-0.7,0.5-1.1,0.7-1.5c8-18.6,25.6-23.8,42.1-12.1
		c13.4,9.6,20,23.3,21.6,39.4c1.1,11.1-1.1,21.4-8.7,30.2c8.1,8.1,15.9,15.9,23.8,23.7c1,1,2.6,1.5,4.1,1.9
		c7.7,1.8,14.8,5.1,19.4,11.5c4.5,6.1,7.7,13.1,11.5,19.7c1.2,2,2.2,4.2,3.8,5.7c26.7,26.9,53.5,53.6,80.3,80.4
		C326.6,303,327.6,303.9,328.9,305.1 M70.9,95.2c-52.3,62-53,163.9,16.9,227.7c68.7,62.8,164.8,51.9,216.5,6.3
		c-8.8-8.8-17.7-17.7-25.9-25.9c-4.8,3.3-9.4,7.2-14.7,9.9c-8.2,4.1-17.1,3.9-26,2.7c-8.7-1.1-16.2-5.4-23.9-9.3
		c-9.4-4.8-18.7-4.7-28.1,0.2c-2.3,1.2-4.7,2.3-7,3.5c-9.5,5.1-19.6,6.7-30.2,6c-18-1.3-29.9-12.6-31.7-30.5
		c-1.3-13,3.5-24.1,12.3-33.3c6.4-6.7,13.3-12.8,19.8-19.4c2.3-2.3,4.5-4.9,5.7-7.8c4.5-10.8,7.9-22,16-30.3
		C137.3,161.6,104.2,128.5,70.9,95.2"/>
	<path class="st0" d="M208.6,133.3c0.6-17.8,6.8-33.1,21.6-43.7c18.5-13.3,40.2-4.3,43.9,18.3c3.2,19.5-2.9,36.3-17.3,49.8
		c-7.6,7.1-16.7,10.7-27.2,8.3c-11.6-2.6-19.9-13.8-21-27.6C208.5,136.6,208.6,135,208.6,133.3"/>
	<path class="st0" d="M316.7,181.5c-0.8,17.5-6.6,31.9-19.2,42.9c-8.8,7.7-19,11.8-30.5,7c-11.6-4.8-16.1-14.9-16.7-26.5
		c-1-19.2,6-35.3,21-47.6c5-4.1,10.9-6.7,17.4-7.1c13-0.9,23.9,8.1,26.9,22.2C316.2,175.6,316.4,179,316.7,181.5"/>
	<path class="st0" d="M83.1,181.2c0.6-3.5,1-8,2.3-12.2c5.4-17.3,22.5-24.2,38.3-15.1c14.9,8.5,22.4,22.3,25.5,38.7
		c1.4,7.4,1,14.8-1.4,21.9c-5.7,16.9-21.9,23.6-37.5,15.1c-14.7-8-22.3-21.3-25.8-37.1C83.7,189.1,83.6,185.6,83.1,181.2"/>
</g>
</svg>
