<?xml version="1.0" encoding="utf-8"?>
<!-- Generator: Adobe Illustrator 23.1.1, SVG Export Plug-In . SVG Version: 6.00 Build 0)  -->
<svg version="1.1" id="Layer_1" xmlns="http://www.w3.org/2000/svg" xmlns:xlink="http://www.w3.org/1999/xlink" x="0px" y="0px"
	 viewBox="0 0 400 400" style="enable-background:new 0 0 400 400;" xml:space="preserve">
<style type="text/css">
	.st0{clip-path:url(#SVGID_2_);fill:url(#SVGID_3_);}
	.st1{clip-path:url(#SVGID_5_);fill:url(#SVGID_6_);}
	.st2{clip-path:url(#SVGID_8_);fill:url(#SVGID_9_);}
	.st3{clip-path:url(#SVGID_11_);fill:url(#SVGID_12_);}
</style>
<g>
	<g>
		<defs>
			<path id="SVGID_1_" d="M256.7,368.9C148,327.3,72.6,252.3,31,143.8C11,91.7,43.6,35.6,98.9,26.4c1.2-0.2,2.5-0.2,4-0.3
				c3.5,16.2,6.9,32.2,10.4,48.1c1.6,7.4,3,14.8,4.8,22.1c0.7,2.9,0.2,4.7-2,6.8c-10.3,10.1-20.5,20.3-30.7,30.5
				c-5.9,5.9-6.7,10.3-3,17.9c36.4,74.4,92,129.8,166.6,166.1c7,3.4,11.7,2.6,17.3-2.9c10.5-10.4,21-20.9,31.5-31.4
				c1.6-1.7,3.1-2.1,5.4-1.6c22.3,4.9,44.7,9.6,67.1,14.4c1.2,0.3,2.5,0.6,4.5,1.1c-1.1,5-1.9,9.9-3.3,14.7
				c-11.4,38.3-46.1,62.7-83.6,62.7C277.5,374.7,266.9,372.8,256.7,368.9 M111.7,0.4c-4.6,0.1-9.1,0.2-13.6,0.9
				c-47,7.8-78,34.4-93.2,79.3C2.4,87.9,1.6,95.7,0,103.3v17.9c1.9,8.8,3,18,5.9,26.5c15.6,44.9,38.8,85.5,69.1,122
				c46.7,56.4,104.6,97.2,173.3,122.6c8.8,3.2,18.4,4.5,27.6,6.6c0.8,0.2,1.5,0.5,2.2,0.7h18.8c5.3-1,10.7-1.8,16-3.1
				c45.8-10.6,80.3-48.6,86.3-94.9c0.2-1.9,0.6-3.8,0.9-5.7v-11.7c-2.1-5.7-6.3-8.8-12.3-10c-28.5-5.9-57-11.9-85.4-18.3
				c-7.5-1.7-12.9-0.1-18.2,5.4c-9.9,10.5-20.3,20.5-30.5,30.8c-64.4-33.2-112.9-81.6-146-145.6c10.9-10.9,21.5-21.6,32.3-32.2
				c4.2-4.1,5.6-8.8,4.3-14.5c-1-4.4-2-8.9-2.9-13.3c-5.4-25.2-10.8-50.5-16.3-75.7c-1.5-6.9-6-10.5-12.9-10.5
				C112,0.4,111.9,0.4,111.7,0.4"/>
		</defs>
		<clipPath id="SVGID_2_">
			<use xlink:href="#SVGID_1_"  style="overflow:visible;"/>
		</clipPath>
		
			<linearGradient id="SVGID_3_" gradientUnits="userSpaceOnUse" x1="-776.0212" y1="1461.8278" x2="-767.4028" y2="1461.8278" gradientTransform="matrix(46.4128 0 0 -46.4128 36017.3398 68047.5938)">
			<stop  offset="0" style="stop-color:#812CD3"/>
			<stop  offset="0.9996" style="stop-color:#4B2DD0"/>
			<stop  offset="1" style="stop-color:#4B2DD0"/>
		</linearGradient>
		<rect y="0.4" class="st0" width="400" height="399.2"/>
	</g>
	<g>
		<defs>
			<path id="SVGID_4_" d="M201.1,0.4c-7.9,0-13.6,5.2-13.6,12.4c0,7.2,5.5,12.1,13.5,12.6c9.6,0.6,19.3,0.9,28.7,2.5
				c83,14.2,143.8,85.5,145.2,169.7c0.1,8.2,3.6,13.2,10.1,14.6c6,1.3,11-1.7,14.6-8.9c0.1-0.1,0.2-0.1,0.3-0.2v-15.6
				c-0.2-1.1-0.5-2.3-0.7-3.4c-1.3-9-2.2-18-4-26.9C376.5,67.1,293.9,0.4,201.7,0.4C201.5,0.4,201.3,0.4,201.1,0.4"/>
		</defs>
		<clipPath id="SVGID_5_">
			<use xlink:href="#SVGID_4_"  style="overflow:visible;"/>
		</clipPath>
		
			<linearGradient id="SVGID_6_" gradientUnits="userSpaceOnUse" x1="-784.321" y1="1451.7726" x2="-775.7011" y2="1451.7726" gradientTransform="matrix(24.6546 0 0 -24.6546 19524.5664 35899.7617)">
			<stop  offset="0" style="stop-color:#812CD3"/>
			<stop  offset="0.9996" style="stop-color:#4B2DD0"/>
			<stop  offset="1" style="stop-color:#4B2DD0"/>
		</linearGradient>
		<rect x="187.5" y="0.4" class="st1" width="212.5" height="213.2"/>
	</g>
	<g>
		<defs>
			<path id="SVGID_7_" d="M200.5,50.3c-7.4,0.1-12.9,5.3-13,12.2c-0.1,6.9,5.3,12.4,12.6,12.7c3.8,0.2,7.5,0.2,11.3,0.6
				c47.4,5.4,81.4,29.8,102.3,72.4c7.9,16.1,11.1,33.4,11.4,51.3c0.1,9.4,9.1,15.5,17.3,11.8c6.6-2.9,8.3-8.5,7.7-13.9
				c-0.5-14.6-2.6-27.6-6.3-40.4C326,95.4,266,50.3,201.9,50.3C201.5,50.3,201,50.3,200.5,50.3"/>
		</defs>
		<clipPath id="SVGID_8_">
			<use xlink:href="#SVGID_7_"  style="overflow:visible;"/>
		</clipPath>
		
			<linearGradient id="SVGID_9_" gradientUnits="userSpaceOnUse" x1="-792.089" y1="1442.8264" x2="-783.4707" y2="1442.8264" gradientTransform="matrix(18.8687 0 0 -18.8687 15133.0996 27356.9434)">
			<stop  offset="0" style="stop-color:#812CD3"/>
			<stop  offset="0.9996" style="stop-color:#4B2DD0"/>
			<stop  offset="1" style="stop-color:#4B2DD0"/>
		</linearGradient>
		<rect x="187.4" y="50.3" class="st2" width="163.2" height="164.8"/>
	</g>
	<g>
		<defs>
			<path id="SVGID_10_" d="M188.3,108.2c-3.2,8.4,2.9,16.7,12.5,16.9c19.6,0.4,36.6,7.2,50.8,20.7c15.3,14.6,23,32.7,23.4,53.9
				c0.1,6.9,4.9,12.1,11.4,12.7c6.2,0.6,11.9-3.6,13.3-9.7c0.4-1.9,0.3-3.9,0.4-5.8c-0.4-12.7-3.3-26.8-9.6-39.1
				c-18.5-36.6-48.4-55.9-89.6-57.6c-0.2,0-0.4,0-0.6,0C194.5,100.2,190.2,103.3,188.3,108.2"/>
		</defs>
		<clipPath id="SVGID_11_">
			<use xlink:href="#SVGID_10_"  style="overflow:visible;"/>
		</clipPath>
		
			<linearGradient id="SVGID_12_" gradientUnits="userSpaceOnUse" x1="-806.7779" y1="1426.0428" x2="-798.1596" y2="1426.0428" gradientTransform="matrix(13.0663 0 0 -13.0663 10729.042 18789.6328)">
			<stop  offset="0" style="stop-color:#812CD3"/>
			<stop  offset="0.9996" style="stop-color:#4B2DD0"/>
			<stop  offset="1" style="stop-color:#4B2DD0"/>
		</linearGradient>
		<rect x="185.1" y="100.2" class="st3" width="115" height="112.8"/>
	</g>
</g>
</svg>
