<?xml version="1.0" encoding="utf-8"?>
<!-- Generator: Adobe Illustrator 23.1.1, SVG Export Plug-In . SVG Version: 6.00 Build 0)  -->
<svg version="1.1" id="Layer_1" xmlns="http://www.w3.org/2000/svg" xmlns:xlink="http://www.w3.org/1999/xlink" x="0px" y="0px"
	 viewBox="0 0 400 400" style="enable-background:new 0 0 400 400;" xml:space="preserve">
<style type="text/css">
	.st0{fill:#606060;}
</style>
<g>
	<path class="st0" d="M210.2,0c8.7,1.5,17.5,2.6,26,4.7c57,13.9,101.4,65.3,107.7,123.3c2.9,27-2.3,52.5-11.5,77.6
		c-10.2,27.8-24.2,53.8-39.8,78.9c-24.1,38.8-51.5,75.1-81.5,109.5c-7.1,8.1-15.1,8.1-22.2,0c-38.8-44.9-74-92.4-101.7-145
		c-12.6-24-23.1-48.8-28.8-75.5C45.1,111.5,76,46,132.3,16.8c17.3-9,35.5-14.6,55-16.2c0.9-0.1,1.7-0.4,2.6-0.6H210.2z M272.8,145.1
		c0.2-40.2-32.2-72.9-72.3-73.2c-40.3-0.3-73.1,32.3-73.3,72.6c-0.2,40.3,32.4,73.1,72.7,73.2C239.9,217.8,272.7,185.2,272.8,145.1"
		/>
</g>
</svg>
