<?xml version="1.0" encoding="utf-8"?>
<!-- Generator: Adobe Illustrator 23.1.1, SVG Export Plug-In . SVG Version: 6.00 Build 0)  -->
<svg version="1.1" id="Layer_1" xmlns="http://www.w3.org/2000/svg" xmlns:xlink="http://www.w3.org/1999/xlink" x="0px" y="0px"
	 viewBox="0 0 400 400" style="enable-background:new 0 0 400 400;" xml:space="preserve">
<style type="text/css">
	.st0{fill:#4B2DD0;}
</style>
<g>
	<path class="st0" d="M221,0c7.2,1,14.5,1.6,21.6,2.9C304.3,14.6,343.4,51.1,360.4,111c7.9,28,9.6,56.5,1.8,84.8
		c-11.6,42.2-36.9,74.5-73.9,97.6c-12.4,7.7-18.3,18-18.1,32.6c0.3,21.3,0.1,42.7,0.1,64.1c0,7.2-2.7,9.9-9.9,9.9
		c-32.5,0-65,0-97.5,0c-6.9,0-9.6-2.8-9.7-9.8c0-1.8-0.1-3.7,0.1-5.5c0.4-4.2,3-7,6.7-7.5c3.9-0.5,6.9,1.4,8.5,5.4
		c0.2,0.5,0.3,1,0.5,1.5h85.7v-4.3c0-18.1,0.2-36.2,0-54.3c-0.3-19.9,8.1-34.6,25-45c32.4-20,54.6-48.3,66.3-84.5
		c5.9-18.3,6.2-37.1,4.2-56c-2.7-24.1-10.1-46.7-23.7-67.1c-19.9-29.9-48.3-47.2-83.2-54c-28.8-5.6-57.4-4.9-85,6.1
		c-38.8,15.5-63.4,44-75.7,83.5c-5.6,18-6.7,36.5-5.4,55.2c0.2,2.7-0.4,5.8-1.7,8.1c-8.6,15.6-17.6,31-26.5,46.8
		c4.2,1.1,8.2,1.9,12.1,3.3c3.1,1,6.1,2.4,8.8,4.1c3.9,2.4,6.3,6.1,6.7,10.9c0.5,6.3,1,12.7,1.6,20c5.9-1.7,11.5-3.2,17-4.8
		c1.5-0.4,2.9-1.3,4.3-1.8c4.4-1.5,8.5,0.2,10.2,4c1.7,4,0.2,8.8-4.3,10.3c-7.8,2.7-15.9,4.8-23.9,7.2c-0.6,0.2-1.2,0.2-2.5,0.4
		c0.6,7.1,0.8,14.1,2.1,20.9c1,5.9,7.1,9.7,13.3,9c17.8-1.8,35.5-3.8,53.3-5.7c4.2-0.4,8.3-1,12.5-1.2c5.4-0.3,8.5,2.6,8.8,8.1
		c0.1,3.4,0.1,6.8,0,10.1c-0.2,5.1-2.9,8.3-7.3,8.5c-4.7,0.2-7.7-2.6-8.3-7.9c-0.1-0.6-0.1-1.3-0.2-2.4c-1.6,0.1-3.1,0.2-4.6,0.4
		c-17.8,1.9-35.5,4-53.3,5.7c-16,1.5-29.3-10.5-30.6-27.2c-1.2-16.1-2.3-32.2-3.3-48.3c-0.2-3-1.4-4.6-4.1-5.2
		c-3.8-0.9-7.6-1.9-11.4-2.7C34.4,232,29.4,221,35.2,210.8c7.6-13.3,15.1-26.7,23-39.9c2.5-4.2,3.3-8.4,3.1-13.3
		C59.8,125.3,66.7,95,84,67.4c22.7-36.1,55.5-57.4,97.3-65.1c5.6-1,11.3-1.6,17-2.4H221z"/>
	<path class="st0" d="M237,45.1c51.2,0.3,92.4,41.7,92.1,92.7c-0.2,51.2-41.9,92.3-93.3,91.9c-50.9-0.4-92-41.8-91.7-92.7
		C144.4,86,186,44.8,237,45.1 M159.8,137.4c0,42.4,34.3,76.7,76.8,76.7c42.5,0,76.9-34.3,76.9-76.7c0-42.5-34.3-76.7-76.8-76.7
		C194.2,60.7,159.8,95,159.8,137.4"/>
	<path class="st0" d="M111.4,153.5c0,4.2,0,8.6,0,13c0,6.1-2.9,9.5-7.9,9.4c-4.8-0.1-7.7-3.5-7.7-9.2c0-4.4,0-8.8,0-13.3
		c-1.3-0.3-2.4-0.5-3.5-0.8c-3.6-1-6-4.2-5.8-7.8c0.2-3.8,3-7.1,6.9-7.2c10.9-0.2,21.9-0.2,32.8,0c3.9,0.1,6.7,3.4,6.9,7.2
		c0.2,3.7-2.3,7.1-6.1,7.9c-1.8,0.3-3.6,0.3-5.4,0.3c-3,0.1-6,0.1-9,0.1C112.3,153,112.1,153.2,111.4,153.5"/>
	<path class="st0" d="M168.8,349.8c0,4.2-3.4,7.8-7.6,7.8c-4.2,0.1-7.8-3.4-7.8-7.6c-0.1-4.4,3.4-7.9,7.9-7.9
		C165.5,342.1,168.8,345.4,168.8,349.8"/>
	<path class="st0" d="M260.1,114c6.6,0,12.6,0,18.6,0c5.7,0.1,8.7,3.1,8.7,8.7c0.1,9.8,0.1,19.5,0,29.3c0,5.9-3,8.8-9,8.9
		c-6,0.1-11.9,0-18.4,0c0,6,0,11.6,0,17.3c0,7.3-2.7,10-9.8,10c-9.3,0-18.5,0-27.8,0c-6.4,0-9.3-2.9-9.4-9.3c0-5.8,0-11.7,0-18
		c-5.9,0-11.6,0-17.3,0c-7.5,0-10.1-2.6-10.1-10.1c0-9.2,0-18.5,0-27.7c0-6.1,3-9,9.2-9.1c5.9,0,11.7,0,18.2,0c0-2.6,0-5,0-7.4
		c-0.3-20.5-0.4-20.3,20.2-20c5.9,0.1,11.7,0,17.6,0c6.2,0,9.1,2.9,9.2,9C260.2,101.7,260.1,107.7,260.1,114 M228.8,172.3h15.7
		c0-6,0-11.8,0-17.5c0-6.7,2.8-9.5,9.5-9.5c5.8,0,11.7,0,17.6,0V130c-0.5-0.2-0.7-0.3-1-0.3c-5.3,0-10.7,0-16-0.1
		c-7.5,0-10.1-2.6-10.1-10.1c0-5.7,0-11.3,0-16.9H229c-0.1,0.6-0.2,0.8-0.2,1.1c0,5.5,0,10.9,0,16.4c0,6.7-2.9,9.5-9.5,9.5
		c-5.8,0-11.7,0-17.6,0v15.6c6.1,0,11.9,0,17.8,0c6.4,0,9.3,2.9,9.3,9.3C228.9,160.4,228.8,166.3,228.8,172.3"/>
</g>
</svg>
