<?xml version="1.0" encoding="utf-8"?>
<!-- Generator: Adobe Illustrator 23.1.1, SVG Export Plug-In . SVG Version: 6.00 Build 0)  -->
<svg version="1.1" id="Layer_1" xmlns="http://www.w3.org/2000/svg" xmlns:xlink="http://www.w3.org/1999/xlink" x="0px" y="0px"
	 viewBox="0 0 400 400" style="enable-background:new 0 0 400 400;" xml:space="preserve">
<style type="text/css">
	.st0{clip-path:url(#SVGID_2_);fill:url(#SVGID_3_);}
	.st1{clip-path:url(#SVGID_5_);fill:url(#SVGID_6_);}
	.st2{clip-path:url(#SVGID_8_);fill:url(#SVGID_9_);}
	.st3{clip-path:url(#SVGID_11_);fill:url(#SVGID_12_);}
	.st4{clip-path:url(#SVGID_14_);fill:url(#SVGID_15_);}
</style>
<g>
	<defs>
		<path id="SVGID_1_" d="M82.1,342.3c0-8.7,3.4-16.9,9.6-23c6.1-6.1,14.2-9.4,22.8-9.4h0.3l126,0.6c8.9,0,17.6,3.2,24.5,8.8l51.2,42
			H82.1V342.3z M276.3,311.6v-73.8c0-16.3,1.9-32.6,5.7-48.5L306.1,88c0.7-2.9,3.3-5,6.3-5h9.2c3.6,0,6.5,2.9,6.5,6.5v264.6
			L276.3,311.6z M308.6,18.3h19.4v25.9h-19.4V18.3z M308.6,5.4c-7.1,0-12.9,5.8-12.9,12.9v25.9c0,7.1,5.8,12.9,12.9,12.9h6.5v12.9
			h-2.7c-9,0-16.8,6.1-18.9,14.9l-24.1,101.3c-4,16.9-6,34.2-6,51.5v65c-7-3.4-14.7-5.3-22.5-5.3l-125.9-0.6
			c-12.1-0.1-23.6,4.6-32.3,13.1c-8.6,8.6-13.4,20-13.4,32.2v25.5c0,3.6,2.9,6.5,6.5,6.5h258.9c2.7,0,5.2-1.7,6.1-4.3
			c0.3-0.7,0.4-1.5,0.4-2.2h0V89.5c0-8.4-5.4-15.5-12.9-18.2V57.1c7.1,0,12.9-5.8,12.9-12.9V18.3c0-7.1-5.8-12.9-12.9-12.9H308.6z"
			/>
	</defs>
	<clipPath id="SVGID_2_">
		<use xlink:href="#SVGID_1_"  style="overflow:visible;"/>
	</clipPath>
	
		<linearGradient id="SVGID_3_" gradientUnits="userSpaceOnUse" x1="-1171.4226" y1="2090.3391" x2="-1161.8773" y2="2090.3391" gradientTransform="matrix(28.4773 0 0 -28.4773 33428.1719 59717.1133)">
		<stop  offset="0" style="stop-color:#812CD3"/>
		<stop  offset="0.9996" style="stop-color:#4B2DD0"/>
		<stop  offset="1" style="stop-color:#4B2DD0"/>
	</linearGradient>
	<rect x="69.2" y="5.4" class="st0" width="271.8" height="368.9"/>
</g>
<g>
	<defs>
		<rect id="SVGID_4_" x="69.2" y="380.7" width="271.8" height="12.9"/>
	</defs>
	<clipPath id="SVGID_5_">
		<use xlink:href="#SVGID_4_"  style="overflow:visible;"/>
	</clipPath>
	
		<linearGradient id="SVGID_6_" gradientUnits="userSpaceOnUse" x1="-1171.4226" y1="2084.1338" x2="-1161.8773" y2="2084.1338" gradientTransform="matrix(28.4773 0 0 -28.4773 33428.1719 59737.793)">
		<stop  offset="0" style="stop-color:#812CD3"/>
		<stop  offset="0.9996" style="stop-color:#4B2DD0"/>
		<stop  offset="1" style="stop-color:#4B2DD0"/>
	</linearGradient>
	<rect x="69.2" y="380.7" class="st1" width="271.8" height="12.9"/>
</g>
<g>
	<defs>
		<path id="SVGID_7_" d="M180.5,61l12.1,16.2c-57.9,5.9-104,52-109.9,109.9l-16.2-12.1l-7.8,10.3l25.9,19.4c1.2,0.9,2.5,1.3,3.9,1.3
			c1.4,0,2.7-0.4,3.9-1.3l25.9-19.4l-7.8-10.3L96,185.9c6.2-49.7,45.7-89.2,95.4-95.4L180.5,105l10.3,7.8l19.4-25.9
			c1.7-2.3,1.7-5.5,0-7.8l-19.4-25.9L180.5,61z"/>
	</defs>
	<clipPath id="SVGID_8_">
		<use xlink:href="#SVGID_7_"  style="overflow:visible;"/>
	</clipPath>
	
		<linearGradient id="SVGID_9_" gradientUnits="userSpaceOnUse" x1="-1193.3823" y1="2064.342" x2="-1183.8372" y2="2064.342" gradientTransform="matrix(16.0012 0 0 -16.0012 19154.375 33161.5625)">
		<stop  offset="0" style="stop-color:#812CD3"/>
		<stop  offset="0.9996" style="stop-color:#4B2DD0"/>
		<stop  offset="1" style="stop-color:#4B2DD0"/>
	</linearGradient>
	<rect x="58.8" y="53.3" class="st2" width="153.2" height="152.7"/>
</g>
<g>
	<defs>
		<path id="SVGID_10_" d="M139.4,204l12.3,4c13.1-39.9,50.2-66.7,92.2-66.7v-13C196.3,128.3,154.2,158.7,139.4,204"/>
	</defs>
	<clipPath id="SVGID_11_">
		<use xlink:href="#SVGID_10_"  style="overflow:visible;"/>
	</clipPath>
	
		<linearGradient id="SVGID_12_" gradientUnits="userSpaceOnUse" x1="-1209.563" y1="2031.8467" x2="-1200.0172" y2="2031.8467" gradientTransform="matrix(10.9524 0 0 -10.9524 13387.0186 22421.8164)">
		<stop  offset="0" style="stop-color:#812CD3"/>
		<stop  offset="0.9996" style="stop-color:#4B2DD0"/>
		<stop  offset="1" style="stop-color:#4B2DD0"/>
	</linearGradient>
	<rect x="139.4" y="128.3" class="st3" width="104.5" height="79.7"/>
</g>
<g>
	<defs>
		<path id="SVGID_13_" d="M133.9,238.4c0,14.3,2.7,28.1,8,41.3l12-4.8c-4.7-11.6-7.1-23.8-7.1-36.4H133.9z"/>
	</defs>
	<clipPath id="SVGID_14_">
		<use xlink:href="#SVGID_13_"  style="overflow:visible;"/>
	</clipPath>
	
		<linearGradient id="SVGID_15_" gradientUnits="userSpaceOnUse" x1="-1489.0908" y1="1586.528" x2="-1479.5459" y2="1586.528" gradientTransform="matrix(2.095 0 0 -2.095 3253.5955 3582.8127)">
		<stop  offset="0" style="stop-color:#812CD3"/>
		<stop  offset="0.9996" style="stop-color:#4B2DD0"/>
		<stop  offset="1" style="stop-color:#4B2DD0"/>
	</linearGradient>
	<rect x="133.9" y="238.4" class="st4" width="20" height="41.3"/>
</g>
</svg>
