<?xml version="1.0" encoding="utf-8"?>
<!-- Generator: Adobe Illustrator 23.1.1, SVG Export Plug-In . SVG Version: 6.00 Build 0)  -->
<svg version="1.1" id="Layer_1" xmlns="http://www.w3.org/2000/svg" xmlns:xlink="http://www.w3.org/1999/xlink" x="0px" y="0px"
	 viewBox="0 0 400 400" style="enable-background:new 0 0 400 400;" xml:space="preserve">
<style type="text/css">
	.st0{fill:#4B2DD0;}
</style>
<path class="st0" d="M389.9,265c-3.9,10.6-6.3,22.1-11.9,31.7c-16.6,28.4-34.4,56.1-51.9,84c-6.1,9.7-9.9,9.6-15.9,0
	c-16.7-27-33.6-53.9-50.2-81c-16-26.2-15.1-51.8,2-74.5c16.2-21.4,47.6-31.9,74-24.8C367.2,208.9,388,234.6,389.9,265 M318.2,370.2
	c18.2-29.8,35.9-57.5,52.1-86.1c4-7.1,5.3-17.3,4.2-25.6c-4.2-32.3-37.7-53.9-69.4-46.2c-33.8,8.3-54.2,43.7-39.2,71.7
	C281.4,313,299.9,340.3,318.2,370.2"/>
<path class="st0" d="M128.5,76.3c-3.4,10.2-5.4,21.1-10.5,30.4c-14.8,26.8-30.8,53-46.5,79.3c-4.7,7.9-9.2,7.9-13.9,0.1
	c-15.9-26.6-32.1-52.9-47.3-79.9C-2.3,83.9-0.5,61.4,14.6,40.8c15.8-21.5,37.8-29.6,63.7-24.1c24.9,5.3,40.5,21.4,47,46.1
	c1.1,4.1,1.1,8.5,1.6,12.7C127.4,75.8,128,76,128.5,76.3 M64.1,174.1c15.7-26.6,30.4-50.8,44.3-75.4c10.7-18.8,6.7-41.6-8.9-56.7
	C83,26,58.8,22.9,39.4,34.6C20.1,46.3,8.2,69.5,17.1,88.8C30.4,117.7,47.6,144.7,64.1,174.1"/>
<path class="st0" d="M72.4,323v-12.3H84v11.8C80.4,322.7,76.9,322.9,72.4,323"/>
<path class="st0" d="M220.5,310.6h13.7c-0.6,4.2-0.4,8.5-2.1,11.6c-0.7,1.3-7.3,1.5-8.5,0C221.5,319.6,221.6,315.3,220.5,310.6"/>
<path class="st0" d="M134,321.9c-12.8,2.1-13.6,1.3-11.3-11.2c1.7-0.2,3.6-0.5,5.5-0.5c1.7,0,3.3,0.2,5.4,0.4c0.3,2.1,0.7,4,0.8,5.9
	C134.4,318.2,134.2,319.9,134,321.9"/>
<path class="st0" d="M183.8,322.1c-12.9,1.7-13.7,0.7-11-11.5c1.8-0.1,3.7-0.4,5.6-0.4c1.6,0,3.3,0.3,5.3,0.5c0.2,2.3,0.6,4.2,0.6,6
	C184.3,318.5,184,320.1,183.8,322.1"/>
<rect x="141.1" y="167.5" class="st0" width="11.6" height="11.2"/>
<rect x="141.5" y="236.2" class="st0" width="11.4" height="11.4"/>
<rect x="91.3" y="167.2" class="st0" width="11.5" height="11.5"/>
<rect x="97.6" y="310.7" class="st0" width="11" height="11.9"/>
<rect x="147.1" y="310.5" class="st0" width="11.4" height="12"/>
<rect x="197.2" y="310.6" class="st0" width="11.2" height="11.8"/>
<rect x="47.6" y="310.8" class="st0" width="11.1" height="11.7"/>
<path class="st0" d="M23.9,257.8c-3-2.8-5.6-5.2-8.9-8.3c4-3.1,7.2-5.7,11.3-8.8c2.2,3.9,3.9,7,6.1,10.9
	C29.4,253.7,26.8,255.7,23.9,257.8"/>
<path class="st0" d="M192.2,168.4c4.7,2.5,8.2,4.3,12.7,6.7c-2.6,3.5-4.7,6.4-7.2,9.8c-3-1.5-5.8-2.8-9.2-4.5
	C189.6,176.6,190.7,173.2,192.2,168.4"/>
<path class="st0" d="M197.6,230c2.6,3.5,4.7,6.1,7.3,9.7c-4.2,2.4-7.8,4.4-12.4,7.1c-1.5-4.3-2.6-7.7-4-11.6
	C191.6,233.4,194.3,231.9,197.6,230"/>
<path class="st0" d="M42.2,247.6c-0.5-3.4-1-6.2-1.3-9c-0.1-0.5,0.4-1,0.8-2.1h11.7v11.1H42.2z"/>
<path class="st0" d="M9.8,302.7c-1.7-4.1-3.2-7.6-5.2-12.2c4.2-1.2,7.5-2.2,10.8-3.1C21.7,296.9,21.7,296.9,9.8,302.7"/>
<path class="st0" d="M27.5,304.1c3.5,1.9,6.2,3.4,9.2,5.1c-1.3,3.7-2.5,7.1-4,11.4c-4.3-2.2-8-4-12.6-6.3
	C22.8,310.6,24.9,307.7,27.5,304.1"/>
<path class="st0" d="M219.8,215.8c-1.7,4.2-3.1,7.8-4.9,12.5c-3.7-2.2-6.8-4-9.8-5.7C207.4,211.5,207.6,211.4,219.8,215.8"/>
<path class="st0" d="M204,193c3.6-2.3,6.5-4,10.4-6.4c2,4.5,3.7,8.3,5.9,13.2c-4.6,1-8,1.7-12,2.6C206.8,199.2,205.6,196.5,204,193"
	/>
<path class="st0" d="M3.1,275.5c1.4-5.1,2.5-9,3.8-13.7c4.2,1.8,7.4,3.3,11,4.9c-0.8,3.4-1.5,6.4-2.4,10.1
	C11.8,276.4,8.3,276,3.1,275.5"/>
<rect x="165.6" y="167.6" class="st0" width="11.5" height="10.8"/>
<rect x="91.7" y="236.2" class="st0" width="11.3" height="11.4"/>
<rect x="116.5" y="236.1" class="st0" width="11.1" height="11.4"/>
<rect x="166.2" y="236.5" class="st0" width="11.4" height="11.2"/>
<rect x="116.3" y="167.7" class="st0" width="11.5" height="10.8"/>
<rect x="66.7" y="236.4" class="st0" width="11.4" height="11.4"/>
<path class="st0" d="M318.2,300.4c-19.3,0-34.9-15.8-34.6-35.2c0.2-19.2,15.4-34.2,34.6-34.2c18.9,0,34.6,15.5,34.9,34.2
	C353.4,284.1,337.3,300.4,318.2,300.4 M318.1,243.5c-12.2,0.1-21.8,9.6-21.9,21.8c-0.1,12.7,9.5,22.4,22.2,22.4
	c12,0,21.9-9.8,22-21.8C340.5,253.5,330.5,243.4,318.1,243.5"/>
<path class="st0" d="M95.9,77.5c0.2,17.8-13.5,31.8-31.1,31.9C47.4,109.5,33,95.3,33,77.9c0-17.3,13.6-31.1,30.9-31.3
	C81.9,46.3,95.7,59.7,95.9,77.5 M83.4,78.3c0.2-10.8-7.9-19.2-18.7-19.3c-10.3-0.1-18.7,7.9-19.1,18.1c-0.4,10.7,7.8,19.4,18.4,19.7
	C74.7,97.1,83.2,89,83.4,78.3"/>
</svg>
