<?xml version="1.0" encoding="utf-8"?>
<!-- Generator: Adobe Illustrator 23.1.1, SVG Export Plug-In . SVG Version: 6.00 Build 0)  -->
<svg version="1.1" id="Layer_1" xmlns="http://www.w3.org/2000/svg" xmlns:xlink="http://www.w3.org/1999/xlink" x="0px" y="0px"
	 viewBox="0 0 400 400" style="enable-background:new 0 0 400 400;" xml:space="preserve">
<style type="text/css">
	.st0{fill:#4B2DD0;}
</style>
<g>
	<path class="st0" d="M192.9,400.4c-9.6-3.9-19.3-7.5-28.7-11.7c-40.9-18.4-75.1-44.8-98.9-83.5c-15.8-25.7-25-53.8-30.2-83.3
		c-5.6-31.8-6.2-63.9-5.6-96.1c0.2-10.9,0.3-21.9,0.9-32.8C31.6,72.6,49.4,55.5,70,54.4c36.7-2,70.5-12.4,99.4-36
		c3.8-3.1,7.7-6.3,11.1-9.8c10.3-10.9,28.1-10.7,38.8-0.1C241,29.9,267,43.8,296.9,49.9c10.7,2.2,21.5,3.6,32.4,4.4
		c21.1,1.4,39.1,18,40.1,39.1c1.7,35.8,2.2,71.6-1.7,107.2c-3.9,35.2-12.5,68.9-30.4,99.9c-21.6,37.5-53,64.4-91.5,83.4
		c-12.1,5.9-24.8,10.5-37.3,15.8c-0.6,0.2-1.1,0.6-1.6,0.9H192.9z M345.4,135.2c0-13.4,0.3-26.8-0.1-40.2
		c-0.2-7.6-5.6-13.8-13.1-15.6c-3.9-1-8-1.2-12-1.5c-19.1-1.5-37.7-5.5-55.7-12.3c-23.2-8.8-43.6-22-61.4-39.1
		c-2.2-2.2-3.9-2.5-6.1-0.1c-2.3,2.5-4.9,4.6-7.5,6.8C160,58.7,125.7,72.9,87.2,77.1c-5.8,0.6-11.7,0.8-17.5,1.7
		c-7.1,1.1-15.4,6.8-15.5,19.1c-0.2,15.5-0.6,31-0.6,46.5c-0.1,30.4,1.7,60.6,8.9,90.2c7.9,32.5,22,61.8,45.3,86.3
		c25,26.3,55.8,43,89.5,54.9c1.8,0.6,4.2,0.4,6-0.3c8-3,16-6,23.8-9.6c27.4-12.5,51.8-29.2,71.4-52.4
		c26.6-31.5,38.9-68.8,44.3-108.9C345.9,181.6,346.4,158.4,345.4,135.2"/>
	<path class="st0" d="M99.9,200.2c0.1-55.3,45-99.9,100.5-99.8c55.1,0.1,99.6,45.1,99.5,100.4c-0.1,55.1-45.1,99.7-100.3,99.6
		C144.5,300.4,99.8,255.5,99.9,200.2 M124.1,200.4c0,41.8,33.9,75.8,75.5,75.9c42,0.1,76-33.9,76-75.7c0-41.7-33.9-75.8-75.5-75.8
		C158.2,124.7,124.1,158.5,124.1,200.4"/>
	<path class="st0" d="M182.5,215.1c14.8-14.9,29.6-29.7,44.5-44.4c1.9-1.9,4.3-3.6,6.7-4.4c5.1-1.7,10.4,0.6,13.3,5
		c2.9,4.5,2.6,9.8-0.8,14.2c-0.8,1-1.7,1.9-2.7,2.9c-16.9,16.9-33.9,33.9-50.8,50.8c-7.4,7.4-13.6,7.4-21.2-0.1
		c-6-6-12-11.9-17.9-17.9c-5.6-5.7-5.9-12.9-0.8-18c4.9-4.9,12.5-4.5,18.1,0.9c3.6,3.6,7.2,7.1,10.8,10.7
		C181.8,214.7,182,214.7,182.5,215.1"/>
</g>
</svg>
