<?xml version="1.0" encoding="utf-8"?>
<!-- Generator: Adobe Illustrator 24.2.1, SVG Export Plug-In . SVG Version: 6.00 Build 0)  -->
<svg version="1.1" id="Layer_1" xmlns="http://www.w3.org/2000/svg" xmlns:xlink="http://www.w3.org/1999/xlink" x="0px" y="0px"
	 viewBox="0 0 400 400" style="enable-background:new 0 0 400 400;" xml:space="preserve">
<style type="text/css">
	.st0{fill:#812CD3;}
</style>
<g>
	<path class="st0" d="M208.9,4.2c46.1,0,92.2,0,138.3,0c18.7,0,25.7,7.1,25.7,26c0,16.1,0.1,32.1-0.2,48.2c-0.1,5,1,7.7,6.2,9.9
		c14.1,5.8,20.9,17.2,20.9,32.3c0.1,66.9,0.1,133.8,0,200.8c0,21.2-14.5,35.1-36.5,35.2c-60.7,0.1-121.3,0.2-182,0
		c-6.1,0-10.5,1.5-14.9,6c-12.8,13.2-28.4,22.3-45.3,29.4c-13.1,5.5-25.5,5.2-38.8,0.3C34,374,0.2,326.3,0.1,274.5
		C0,253.4,0.3,232.3,0,211.2c-0.2-12.6,3.9-21.8,16.2-26.9c2.1-0.9,3.8-5.5,3.8-8.4c0.3-39.6,0.2-79.1,0.2-118.7c0-34,19-53,53.1-53
		C118.5,4.1,163.7,4.2,208.9,4.2z M385.9,254.9c-4,0-7.5,0-11,0c-9.2-0.1-18.5,0.6-27.6-0.7c-24.9-3.4-37-32.5-22.5-52.7
		c7.4-10.2,17.7-14.6,30-14.8c10.3-0.1,20.5,0,31.4,0c0-21,0-40.6,0-60.1c0-21.5-6.2-27.8-27.4-27.8c-90.1,0-180.2,0-270.3,0.1
		c-18.6,0-37.6,1.8-54-13.3c0,32.7,0,63.4,0,95.2c4-1.1,7.8-1.4,10.7-3.1c13.5-7.9,27.3-15.4,40-24.4c11.3-8.1,22.3-9.3,32.3-0.4
		c18.7,16.7,40.1,27.2,65.1,30.7c13.6,1.9,20.9,10.9,20.9,24.5c0.1,22.3,0.2,44.6,0,66.9c-0.1,20.9-5.9,40.4-15.6,58.9
		c-1.3,2.5-2.6,5.1-4.3,8.5c3.6,0.2,6.2,0.5,8.7,0.5c17.5,0,35.1,0.1,52.6,0.1c39.3,0,78.5,0,117.8,0c13.4,0,22.6-6.3,22.9-17.5
		C386.4,302.4,385.9,279.3,385.9,254.9z M358.6,58.2c-3.5,0-6.1,0-8.7,0c-96,0-192.1,0.1-288.1,0c-5.5,0-13.8,2.2-13.7-6.8
		c0.1-8.9,8.4-6.6,13.9-6.6c94-0.1,187.9-0.1,281.9-0.1c4.9,0,9.8,0,15.2,0c0-5,0-8.2,0-11.5c0.1-15.3-0.1-15.5-15.3-15.5
		c-75.5,0-151.1,0-226.6,0c-16.9,0-33.9-0.3-50.8,0.2c-14.8,0.4-26.1,9.4-30.7,23.1C31.3,54.4,35,69.9,47.1,77.6
		c7,4.5,16.5,7.2,24.9,7.2c92.5,0.5,185,0.3,277.4,0.3c2.9,0,5.8-0.3,9.1-0.5C358.6,75.9,358.6,67.7,358.6,58.2z M13.9,246.1
		c0,8.6,0,17.2,0,25.8c0,52.8,30.2,93.8,80.6,109c4.5,1.4,10.2,1.6,14.6,0.2c42.3-13.5,70.6-41.9,77.8-85.6
		c4.8-29.3,2.4-59.8,2.3-89.7c0-3-5.5-8-9-8.6c-27.2-4.3-51-15.5-71.3-34c-4.8-4.3-9.4-4.4-14.2,0c-20.1,18.4-43.6,29.7-70.5,33.5
		c-7.3,1-10.3,4.8-10.3,11.9C14,221.2,13.9,233.7,13.9,246.1z M385.5,241.3c0-14.2,0-27.1,0-40.7c-2.9,0-5.3,0-7.6,0
		c-8.9,0-17.8-0.3-26.6,0.2c-10.8,0.6-18.8,9.4-19,19.8c-0.2,10.4,7.6,19.8,18.3,20.5C362,241.9,373.5,241.3,385.5,241.3z"/>
	<path class="st0" d="M315.2,126c-15.8,0-31.5,0-47.3,0c-5.1,0-10.2-0.6-10-7.1c0.3-5.9,5.2-6.3,10-6.3c31.5,0,63.1,0,94.6-0.1
		c5.1,0,10.2,0.6,10,7.2c-0.3,5.9-5.2,6.3-9.9,6.3C346.7,125.9,330.9,126,315.2,126C315.2,126,315.2,126,315.2,126z"/>
	<path class="st0" d="M231.1,112.7c2.1,0,4.7-0.8,6.1,0.2c2.6,1.7,5.6,4.2,6.1,6.9c0.3,1.6-3.5,5.2-6,5.8c-3.9,1-8.4,1.2-12.3,0.1
		c-3-0.9-5.3-4.1-7.9-6.3c2.5-2.2,4.9-4.9,7.7-6.6c1.5-0.9,4-0.2,6.1-0.2C231.1,112.6,231.1,112.7,231.1,112.7z"/>
	<path class="st0" d="M178,250.5c-1.7,16.5-1.5,33.4-5.3,49.3c-8.5,35-32.5,56.4-65.8,67.8c-3.3,1.1-7.7,0.7-11.2-0.4
		c-42.7-13.9-68.5-49.7-68.5-94.8c0-17.2,0.2-34.5-0.1-51.7c-0.2-7.5,2.3-11.4,10-12.9c20.8-4,39.5-12.9,56.2-25.8
		c5.9-4.5,10.3-5.2,16.4-0.4c17.1,13.3,36.4,22.4,57.8,26.4c6.9,1.3,9.3,5.2,9.1,11.9c-0.3,10.1-0.1,20.2-0.1,30.3
		C177.1,250.4,177.6,250.5,178,250.5z M164.2,255.1c-0.5-0.1-1.1-0.1-1.6-0.2c0-8.9-0.2-17.9,0.1-26.8c0.2-4.9-1.5-6.7-6.3-8.7
		c-16.7-6.9-33-14.5-49.1-22.6c-4.3-2.1-6.7-2.3-11-0.1c-16.1,8.1-32.5,15.8-49.1,22.8c-4.7,2-6.4,3.8-6.3,8.7
		c0.3,15.2,0.1,30.3,0.1,45.5c0.1,36.8,20,65.9,54.5,79c3.3,1.3,7.9,1.9,11,0.6c25.5-9.8,44.8-26.5,52-53.5
		C162.3,285.4,162.4,270,164.2,255.1z"/>
	<path class="st0" d="M352.1,231.1c-3-5.2-5.9-7.9-5.7-10.4c0.1-2.1,4.1-5.9,5.8-5.6c2.6,0.5,6.1,3.7,6.4,6
		C358.8,223.3,355.5,226.1,352.1,231.1z"/>
	<path class="st0" d="M129.8,227.8c-2.1,2.8-3.4,5.1-5.2,6.9c-18.8,19-37.7,37.9-56.6,56.8c-3.4,3.4-7.4,6.1-11.5,1.8
		c-4-4.2-1.5-8.1,2-11.5c18.9-18.9,37.7-37.9,56.9-56.5c2.1-2.1,6.1-3.1,9.2-3.1C126.2,222,127.8,225.4,129.8,227.8z"/>
	<path class="st0" d="M61.5,254.7c-5.9-0.3-9.1-6.3-5.5-10.4c6.8-7.8,14.3-15,22.1-21.9c1.3-1.2,5.9-0.4,7.7,1.1
		c1.5,1.2,2.3,5.8,1.3,7c-7.3,8.1-15.1,15.8-22.9,23.5C63.5,254.6,62,254.5,61.5,254.7z"/>
</g>
</svg>
