<?xml version="1.0" encoding="utf-8"?>
<!-- Generator: Adobe Illustrator 23.1.1, SVG Export Plug-In . SVG Version: 6.00 Build 0)  -->
<svg version="1.1" id="Layer_1" xmlns="http://www.w3.org/2000/svg" xmlns:xlink="http://www.w3.org/1999/xlink" x="0px" y="0px"
	 viewBox="0 0 400 400" style="enable-background:new 0 0 400 400;" xml:space="preserve">
<style type="text/css">
	.st0{clip-path:url(#SVGID_2_);fill:url(#SVGID_3_);}
</style>
<g>
	<defs>
		<path id="SVGID_1_" d="M299.2,322c3-6,5.9-12,9-17.9c2.8-5.3,7.9-7.9,13.1-6.8c5.6,1.2,9.6,5.8,9.6,12c0,18.9-1.9,37.6-7.4,55.8
			c-3.2,10.8-6.5,13-17.8,13h-104c-35,0-70.1,0-105.1,0c-9.1,0-11.7-2-15.4-10.5c-6.3-14.5-7.5-30.1-8.8-45.5
			c-0.4-4-0.5-8.1-0.6-12.1c-0.1-6.4,3.6-11.2,9.4-12.6c5.3-1.2,10.6,1.3,13.4,6.8c3.4,6.5,6.5,13.1,9.9,19.6
			c2.7,5.3,6.2,6.6,11.9,4.6c32.7-11.4,66.3-17,101-14.6c23,1.6,45.5,6.4,67.3,14c2.6,0.9,4.7,1.4,6.4,1.4
			C294.6,329.3,296.6,327.1,299.2,322 M140.5,302.6c-6.4-13-14.6-25.3-17.7-39.6c-1.5-7-2-14.2-3.1-22.2c1.7-7.6,3.1-16,5.6-24
			c5.3-17.2,11.4-34.3,17-51.4c1.4-4.3,3.9-6.6,8.3-7.7c34-8.3,68-8.3,102.1,0.1c4.1,1,6.6,3.3,7.8,7.2
			c5.8,17.8,11.8,35.4,17.6,53.2c6.9,21,5.4,41.6-4,61.6c-3.5,7.4-7.5,14.6-11.1,22c-1.1,2.2-2.4,2.4-4.5,2
			c-38.1-8.8-76.2-8.8-114.3-0.1c-0.3,0.1-0.5,0.1-0.8,0.1C142.2,303.6,140.8,303.2,140.5,302.6 M112.9,304.3
			c-3.2-6.4-5.6-13.7-12.2-17.4c-4.7-2.7-6.5-6.5-7.9-11.2c-6.7-22.8-6.2-45.4,1.1-67.9c5.7-17.4,11.7-34.7,17.3-52.1
			c5.2-16.2,15.9-25.8,32.6-29.8c39.7-9.4,79.1-9.2,118.6,1c12.9,3.3,22.5,11.1,26.9,23.5c8,22.5,15.7,45.1,22.2,68
			c5.9,21,3.9,42.1-3.4,62.6c-0.5,1.4-1.7,2.9-2.9,3.6c-5.4,3.2-9.4,7.5-12.1,13.2c-2.1,4.4-4.4,8.8-6.7,13.4
			c-2.9-0.9-5.6-1.8-8.7-2.7c3.1-6.2,6-12,9-17.9c13.3-25.8,15.4-52.4,6-80c-5.8-16.8-11.3-33.7-16.9-50.7
			c-3.2-9.7-9.5-15.5-19.6-18c-37.1-9.1-74.1-8.9-111.1,0.3c-7.8,2-14.1,6.4-16.7,14.1c-7.5,21.8-15.4,43.6-21.5,65.8
			c-6.2,22.9-2.4,45.4,8.2,66.6c3.2,6.4,6.5,12.8,9.9,19.4c-3.4,1.4-5.4,2.3-6.9,2.3C116,310.5,115.1,308.8,112.9,304.3 M177.2,86.9
			h48.2v16.5h-48.2V86.9z M153,36.2c0.3-7.9,7.2-14.2,15.6-14.3c21.8-0.2,43.7-0.3,65.5,0c9.3,0.1,15.7,7.2,15.8,16.5
			c0.1,10.5,0,20.9,0,31.7h-97C152.9,58.6,152.5,47.3,153,36.2 M164.2,5.7c-0.3,0.2-0.6,0.5-0.9,0.5c-17.2,4.2-26.5,15.9-26.6,33.4
			c0,10-0.1,20,0,30c0.1,10.2,6.7,16.8,16.8,17c2.4,0.1,4.7,0,7.4,0c0,6.3,0.1,12.1-0.1,17.9c0,0.7-1.5,1.8-2.4,2
			c-4.9,1.1-9.9,2.1-14.8,3c-24.4,4.4-40.5,18.2-48,42c-5.3,16.9-11.1,33.5-16.7,50.3c-6.4,19.1-8.7,38.7-5.8,58.7
			c1,7,2.7,14,4,21.1c-11.7,3.6-19.4,11.1-21,23.4c-0.9,6.8-0.2,13.9,0.4,20.8c1.4,16.9,3.4,33.7,10.3,49.4
			c5.5,12.6,14.5,19,28.2,19c71.3,0,142.7,0,214,0c1.9,0,3.8,0,5.7-0.3c13.2-2.2,20.3-10.8,24-23c6.3-20.7,8.8-42,8.2-63.6
			c-0.3-10-5.6-17.7-14.3-22.7c-2.3-1.3-4.8-2.1-7.3-3.2c0.2-1,0.4-2,0.7-3c6.1-21.5,7.1-43.3,1-64.8c-6.7-23.5-14.5-46.8-23-69.7
			c-6.1-16.5-18.9-27.3-36-32c-7.8-2.2-15.8-3.4-23.7-5.2c-0.9-0.2-2.4-1.1-2.4-1.6c-0.2-6-0.1-12-0.1-18.3c3.1,0,5.6,0.1,8.2,0
			c9.4-0.5,15.9-7,16.1-16.3c0.1-11.2,0.2-22.5-0.1-33.8c-0.2-10.1-4.5-18.5-12.8-24.2c-4.3-3-9.7-4.5-14.6-6.7H164.2z"/>
	</defs>
	<clipPath id="SVGID_2_">
		<use xlink:href="#SVGID_1_"  style="overflow:visible;"/>
	</clipPath>
	
		<linearGradient id="SVGID_3_" gradientUnits="userSpaceOnUse" x1="-1169.5695" y1="2084.7729" x2="-1157.6057" y2="2084.7729" gradientTransform="matrix(29.9336 0.5543 0.5543 -29.9336 33912.8008 63250.3867)">
		<stop  offset="0" style="stop-color:#812CD3"/>
		<stop  offset="0.9996" style="stop-color:#4B2DD0"/>
		<stop  offset="1" style="stop-color:#4B2DD0"/>
	</linearGradient>
	<polygon class="st0" points="55.4,0.2 354.7,5.8 347.4,399.6 48.1,394 	"/>
</g>
</svg>
