<?xml version="1.0" encoding="utf-8"?>
<!-- Generator: Adobe Illustrator 24.2.1, SVG Export Plug-In . SVG Version: 6.00 Build 0)  -->
<svg version="1.1" id="Layer_1" xmlns="http://www.w3.org/2000/svg" xmlns:xlink="http://www.w3.org/1999/xlink" x="0px" y="0px"
	 viewBox="0 0 400 400" style="enable-background:new 0 0 400 400;" xml:space="preserve">
<style type="text/css">
	.st0{fill:#812CD3;}
</style>
<g>
	<path class="st0" d="M270.8,148.7c-5.4,26.2-14.8,37.3-42.5,49.8c2,1.3,3.3,2.8,4.9,3.2c14.5,4.3,29.3,7.8,43.5,12.8
		c42.1,14.9,71.2,56.2,71.6,101c0.2,27.2,0.1,54.3,0.1,81.5c0,0.9,0,1.8,0,2.9c-98.8,0-197.2,0-296.2,0c0-1.3,0-2.7,0-4.1
		c0-25.3,0-50.5,0-75.8c0-53.3,32.4-95.6,83.9-109.4c10.5-2.8,20.9-5.8,31.3-8.8c1.6-0.5,2.9-1.8,5.3-3.3
		c-24.6-8.6-38.7-24.7-42.9-49.6c-1.8-0.3-3.8-0.6-5.7-1c-17.4-3.8-25.7-23.3-16.5-38.6c0.8-1.4,1.4-3.6,0.9-5
		c-12.5-30.8,0-70.8,31.1-91.1C152.5,4.6,167,0.1,182.7,0.1c12.2,0,24.4-1,36.4,2.2c17,4.5,30.6,13.8,41.2,27.9
		c1.1,1.4,2.5,2.9,4.1,3.5c24.6,9.1,36.5,30.5,31.3,56.3c-0.2,0.8-0.3,1.6-0.5,2.4c-0.8,3.6-0.3,20,0.7,23.5
		c4.3,15.4-6.2,30.6-22.5,32.6C272.5,148.5,271.7,148.6,270.8,148.7z M97.3,387.1c0-32.4,0-64.4,0-96.4c4.4,0,8.4,0,12.8,0
		c0,32.2,0,64.3,0,96.3c25.5,0,50.6,0,76.2,0c-1.1-1.4-1.9-2.5-2.7-3.5c-15.2-18.6-30.3-37.3-45.6-55.8c-2.1-2.5-2.8-4.6-1.6-7.8
		c2.9-7.6,4.5-15.8,8-23.2c3.9-8.3,2.5-14.4-3.7-20.9c-7-7.3-12.8-15.7-19.1-23.7c6.5-9.8,12.8-19.3,19.4-29.3
		c-1.4,0.3-2.1,0.5-2.9,0.6c-41.9,10.4-72.6,49-72.9,92.2c-0.2,23,0,46,0,68.9c0,0.8,0.1,1.5,0.1,2.5
		C75.8,387.1,86.2,387.1,97.3,387.1z M279,252.1c-7.9,9.9-15.6,19.8-23.5,29.4c-2.2,2.6-2.8,4.8-1.6,8.2
		c3.7,10.1,6.7,20.4,10.3,30.5c1.1,3,0.6,4.8-1.4,7.1c-15.4,18.6-30.6,37.4-45.9,56.1c-0.9,1.1-1.7,2.2-2.8,3.5
		c25.8,0,50.9,0,76.3,0c0-32.2,0-64.2,0-96.3c4.4,0,8.4,0,12.9,0c0,32.3,0,64.3,0,96.2c10.9,0,21.4,0,32.1,0c0-23.3,0.1-46.3,0-69.3
		c-0.1-25.7-9-48.1-26.5-66.8c-13.3-14.3-29.7-23.4-49.4-28.1C266.2,232.9,272.6,242.5,279,252.1z M257.7,117.9c0.2,0,0.3,0,0.5,0
		c0-8.9,0-17.7,0-26.6c0-5.3-2.2-9.4-6.8-12c-4.8-2.7-9.5-2.3-14.1,0.6c-1.5,0.9-2.9,1.9-4.4,2.9c-7.6,5.4-16,7.8-25.3,7.7
		c-13.9-0.2-27.9-0.2-41.8,0c-12.8,0.2-23.1,10.3-23.4,22.9c-0.2,10.3-0.3,20.7,0.1,31c0.7,20.7,16.9,39.5,37.4,41.8
		c12.6,1.4,25.5,1.7,38.1,0.5c21.3-2,36.8-17.3,39.6-38.7C258.7,138.2,257.7,128,257.7,117.9z M280.5,98.4
		c1.1-5.3,2.5-10.4,3.1-15.5c2.3-18.3-8.6-33.7-26.3-37.8c-1.8-0.4-3.8-1.9-4.9-3.5C243,27,230,17.3,212.9,14.4
		c-9.2-1.6-18.7-1.3-28-1.3c-36-0.1-63.5,24.2-68,60c-1.1,8.7-0.1,17.3,3,25c4.2-0.4,7.8-0.7,11.3-1.3c1.3-0.2,3-1,3.7-2.1
		c7.9-11.6,18.7-17.3,32.7-17.2c13.7,0.1,27.4,0,41,0c6,0,11.4-1.6,16.3-4.9c2.1-1.4,4.2-2.9,6.4-4.2c15.5-9.3,35.3-0.7,39,17
		c0.8,3.6,0.7,7.4,1.1,11.2C274.1,97.1,276.8,97.7,280.5,98.4z M189.1,369.9c0.2-0.1,0.5-0.2,0.7-0.3
		c-10.6-49.4-21.1-98.8-31.9-149.1c-7.2,10.9-13.9,20.8-20.6,30.9c7.4,9.3,14.6,18.6,22.2,27.6c2.3,2.8,2.5,5,1.4,8.2
		c-3.5,10-6.6,20.1-10.1,30.1c-1,2.8-0.9,4.8,1.2,7.2c7.9,9.3,15.5,18.9,23.2,28.3C179.8,358.6,184.5,364.2,189.1,369.9z
		 M242.5,220.5c-10.8,50.5-21.3,99.8-31.9,149.1c13.6-15.4,26.5-31,39.1-46.8c0.7-0.9,0.6-3,0.1-4.3c-3.5-10.7-7-21.4-10.7-32.1
		c-0.9-2.6-0.6-4.3,1.1-6.5c7.7-9.3,15.1-18.8,22.8-28.4C256.3,241.3,249.7,231.3,242.5,220.5z M199.7,354c0.3,0,0.6,0,0.9,0
		c0.2-0.6,0.3-1.2,0.5-1.8c4.8-22.4,9.6-44.8,14.4-67.2c0.6-2.7,1.8-5.7,1.2-8.2c-2.6-12.6-5.8-25-8.7-37.6c-5.3,0-10.3,0-15.6,0
		c-3,12.6-6,25.1-8.8,37.6c-0.2,1,0.1,2.1,0.3,3.1c2.8,13.5,5.7,27,8.6,40.5C194.8,331.5,197.3,342.8,199.7,354z M200.6,200.1
		c-4.4,0-8.9-0.1-13.3,0.1c-1.2,0.1-2.5,1-3.4,1.9c-3.7,3.9-0.9,7.4,0.9,10.9c2.2,4.3,3.5,10.2,7,12.3c3.7,2.2,9.6,0.8,14.6,0.5
		c1.3-0.1,3.2-1.3,3.8-2.4c2.7-4.8,5.1-9.8,7.5-14.7c1.8-3.7-1.3-8.5-5.5-8.5C208.4,200.1,204.5,200.1,200.6,200.1z M129.3,110.1
		c-7.3,0-12.8,5.5-12.8,12.6c0,7.1,5.6,12.7,12.8,12.5C129.3,126.9,129.3,118.5,129.3,110.1z M271.2,109.9c0,8.6,0,17.1,0,25.5
		c7.4-0.4,12.6-5.7,12.7-12.6C283.9,115.9,278.9,110.6,271.2,109.9z M176.7,246.3c0.3,0,0.6,0,0.9,0c0.9-4.4,3.3-9.3,2.3-13.2
		c-1.7-6.5-5.7-12.4-8.7-18.6c-0.4,0.2-0.8,0.3-1.2,0.5C172.2,225.4,174.4,235.9,176.7,246.3z M222.7,246.1c0.4,0,0.7,0.1,1.1,0.1
		c2.2-10.4,4.4-20.9,6.6-31.3c-0.4-0.1-0.8-0.3-1.2-0.4c-3,6.1-6.9,11.9-8.6,18.3C219.5,236.8,221.9,241.7,222.7,246.1z"/>
	<path class="st0" d="M320.3,90.5c5.3,0,10,0,14.9,0c0,38.7,0,77.2,0,115.9c-4,0-8,0-12.4,0c0-34.1,0-68.3,0-102.9
		c-7.9,0-15.3,0-23.2,0c0.6-1.5,0.9-2.4,1.3-3.4c10.6-21.3,21.2-42.5,31.8-63.7c4.5-9,13.3-12.9,21.6-9.1c3.4,1.6,7,4.5,8.7,7.8
		c11.5,22.2,22.5,44.6,33.6,66.9c0.1,0.2,0.1,0.5,0.2,1.2c-7.4,0-14.8,0-22.7,0c0,90.6,0,180.7,0,271c-4.4,0-8.4,0-12.6,0
		c0-94.4,0-188.8,0-283.6c4.8,0,9.5,0,14.8,0c-0.6-1.5-1-2.6-1.5-3.7c-7.2-14.5-14.4-29.1-21.8-43.5c-0.9-1.8-3.1-4.1-4.6-4.1
		c-1.6,0-3.7,2.3-4.6,4.1c-7.4,14.5-14.6,29-21.8,43.6C321.4,87.9,321,88.8,320.3,90.5z"/>
	<path class="st0" d="M77.8,161.4c0,15.3,0,30,0,44.9c-4.2,0-8.3,0-12.6,0c0-19.1,0-38.2,0-57.7c4.9,0,9.6,0,14.8,0
		c-0.4-1.2-0.7-1.9-1-2.6c-7.5-15.1-15-30.3-22.7-45.3c-0.8-1.5-2.5-3.1-4-3.3c-1.2-0.2-3.4,1.2-4,2.5c-8,15.8-15.9,31.7-23.7,47.5
		c-0.1,0.2,0,0.5,0,1.1c4.7,0,9.5,0,14.4,0c0,75.3,0,150.3,0,225.6c-4,0-8,0-12.5,0c0-70.7,0-141.4,0-212.6c-7.9,0-15.3,0-23.2,0
		c0.8-1.7,1.3-2.9,1.9-4.1c10.3-20.7,20.7-41.3,30.9-62C39.3,88.5,44.2,84.1,52,84c7.9,0,12.8,4.4,16.2,11.2
		c10.3,20.8,20.7,41.6,31.1,62.4c0.5,1.1,1,2.2,1.7,3.7C93.1,161.4,85.7,161.4,77.8,161.4z"/>
	<path class="st0" d="M65.2,232.2c0-4.1,0-8.1,0-12.4c4,0,8.1,0,12.4,0c0,4,0,8.1,0,12.4C73.5,232.2,69.4,232.2,65.2,232.2z"/>
	<path class="st0" d="M335.2,232.2c-4.2,0-8.2,0-12.4,0c0-4.1,0-8.2,0-12.5c4.1,0,8.1,0,12.4,0C335.2,223.8,335.2,227.8,335.2,232.2
		z"/>
	<path class="st0" d="M39,387.6c0,4.3,0,8.3,0,12.4c-4.1,0-8.1,0-12.4,0c0-4,0-8.1,0-12.4C30.6,387.6,34.7,387.6,39,387.6z"/>
	<path class="st0" d="M373.9,387.5c0,4.2,0,8.2,0,12.4c-4.1,0-8.1,0-12.5,0c0-4.1,0-8.1,0-12.4C365.5,387.5,369.5,387.5,373.9,387.5
		z"/>
	<path class="st0" d="M168.7,150.5c4-1.3,7.7-2.6,11.6-3.9c3.8,9.4,10.2,15,20.2,14.8c9.6-0.2,15.9-5.5,19.4-14.8
		c4,1.4,7.9,2.7,11.7,3.9c-2.6,13.1-16.5,23.7-31,23.9C185.8,174.5,171.8,164.2,168.7,150.5z"/>
	<path class="st0" d="M168,116.2c-3.5,0-6.4-2.9-6.4-6.4c0-3.5,2.9-6.4,6.4-6.4c3.5,0,6.4,2.9,6.4,6.4
		C174.4,113.3,171.5,116.2,168,116.2z"/>
	<path class="st0" d="M232.3,103.4c3.5-0.1,6.5,2.8,6.5,6.3c0.1,3.5-2.8,6.5-6.3,6.6c-3.5,0.1-6.5-2.8-6.5-6.3
		C225.9,106.4,228.8,103.4,232.3,103.4z"/>
</g>
</svg>
