<?xml version="1.0" encoding="utf-8"?>
<!-- Generator: Adobe Illustrator 23.1.1, SVG Export Plug-In . SVG Version: 6.00 Build 0)  -->
<svg version="1.1" id="Layer_1" xmlns="http://www.w3.org/2000/svg" xmlns:xlink="http://www.w3.org/1999/xlink" x="0px" y="0px"
	 viewBox="0 0 400 400" style="enable-background:new 0 0 400 400;" xml:space="preserve">
<style type="text/css">
	.st0{fill:#4B2DD0;}
</style>
<path class="st0" d="M395,185.3c-5.2,14.1-8.4,29.3-15.8,42.1c-22.1,37.8-45.8,74.7-69,111.8c-8.1,12.9-13.2,12.8-21.2,0
	c-22.3-35.9-44.8-71.7-66.8-107.8c-21.3-34.9-20.1-68.9,2.7-99.1c21.6-28.5,63.4-42.5,98.5-33C364.8,110.6,392.5,144.8,395,185.3
	 M299.7,325.3c24.2-39.6,47.7-76.5,69.3-114.6c5.4-9.5,7-23.1,5.6-34.1c-5.6-42.9-50.1-71.7-92.3-61.4c-44.9,11-72.2,58.2-52.2,95.4
	C250.7,249.1,275.3,285.5,299.7,325.3"/>
<path class="st0" d="M48.7,102.1c3.9-4.9,6.9-8.6,10.2-12.8c4.2,3.4,7.8,6.3,12.1,9.7c-3.2,3.9-6.1,7.6-9.8,12.2
	C57.3,108.4,53.5,105.6,48.7,102.1"/>
<path class="st0" d="M113.6,152.2c-15-8.4-15.2-9.9-2.4-21c1.9,1.3,4.1,2.5,6.1,4.1c1.7,1.3,3.2,3,5.3,4.9c-1.4,2.4-2.6,4.7-4.1,6.7
	C117.1,148.7,115.5,150.2,113.6,152.2"/>
<path class="st0" d="M165,193.8c-14.7-9-14.8-10.6-1.9-21.1c2,1.3,4.2,2.6,6.2,4.2c1.7,1.3,3.1,3,5.1,4.9c-1.6,2.5-2.9,4.8-4.4,6.8
	C168.6,190.4,166.9,191.9,165,193.8"/>
<path class="st0" d="M86.6,131.6c-3.8-3-7.2-5.8-11.4-9.1c3.3-4.1,6.4-7.9,9.9-12.3c3.8,3,7.2,5.8,11.4,9.1
	C93.3,123.3,90.2,127.2,86.6,131.6"/>
<path class="st0" d="M136.7,151.3c4.3,3.5,7.7,6.2,11.8,9.4c-3.4,4.2-6.5,8.1-10,12.4c-4-3.2-7.7-6.2-11.8-9.4
	C130.1,159.5,133.1,155.8,136.7,151.3"/>
<path class="st0" d="M188.6,193.1c4.1,3.3,7.6,6.1,11.6,9.3c-3.3,4.1-6.3,7.8-9.8,12.2c-3.7-2.9-7.3-5.9-11.6-9.3
	C181.9,201.4,184.9,197.7,188.6,193.1"/>
<path class="st0" d="M33.1,68.7c3.9,3.1,7.3,5.9,11.5,9.2c-3,3.8-6.2,7.7-9.7,12.1c-3.7-3-7.4-5.9-11.5-9.2
	C26.8,76.6,29.8,72.9,33.1,68.7"/>
<path class="st0" d="M17.8,45.1c2.1,4.9,3.6,8.7,5.4,12.9c-4.4,2.7-8.5,5.3-13.6,8.5c-2.6-5.8-4.9-10.8-7.7-17
	C7.6,47.9,12.1,46.6,17.8,45.1"/>
<path class="st0" d="M299.7,232.3c-25.7,0-46.4-21-46-46.8c0.3-25.6,20.5-45.5,46.1-45.4c25.1,0,46,20.6,46.4,45.5
	C346.5,210.7,325,232.3,299.7,232.3 M299.5,156.7c-16.3,0.1-29,12.7-29.1,29c-0.2,16.8,12.6,29.8,29.5,29.8c16,0,29.2-13,29.3-28.9
	C329.3,169.9,316,156.6,299.5,156.7"/>
</svg>
