<?xml version="1.0" encoding="utf-8"?>
<!-- Generator: Adobe Illustrator 23.1.1, SVG Export Plug-In . SVG Version: 6.00 Build 0)  -->
<svg version="1.1" id="Layer_1" xmlns="http://www.w3.org/2000/svg" xmlns:xlink="http://www.w3.org/1999/xlink" x="0px" y="0px"
	 viewBox="0 0 400 400" style="enable-background:new 0 0 400 400;" xml:space="preserve">
<style type="text/css">
	.st0{fill:#4B2DD0;}
</style>
<g>
	<path class="st0" d="M75,237.5c0,6.9,5.6,12.5,12.5,12.5h91.8l-75-75H87.5c-6.9,0-12.5,5.6-12.5,12.5V237.5z M200,0
		C89.5,0,0,89.5,0,200c0,110.5,89.5,200,200,200c110.5,0,200-89.5,200-200C400,89.5,310.5,0,200,0 M200,350
		c-82.7,0-150-67.3-150-150c0-32.3,10.4-62.3,27.9-86.8l208.9,208.9C262.3,339.6,232.3,350,200,350 M235.3,200H300v25h-39.7
		L235.3,200z M322.1,286.8L285.3,250h27.2c6.9,0,12.5-5.6,12.5-12.5v-50c0-6.9-5.6-12.5-12.5-12.5H210.3l-97.1-97.1
		C137.7,60.4,167.7,50,200,50c82.7,0,150,67.3,150,150C350,232.3,339.6,262.3,322.1,286.8 M250.5,100c-12.2,0-22.3-8.7-24.5-20.2
		c-0.5-2.8-3.1-4.8-6-4.8h-12.7c-3.9,0-6.8,3.5-6.2,7.3c3.6,24.1,24.4,42.7,49.5,42.7c12.2,0,22.3,8.7,24.5,20.2
		c0.5,2.8,3.1,4.8,6,4.8h12.7c3.9,0,6.8-3.5,6.2-7.3C296.3,118.5,275.6,100,250.5,100"/>
</g>
</svg>
