<?xml version="1.0" encoding="utf-8"?>
<!-- Generator: Adobe Illustrator 23.1.1, SVG Export Plug-In . SVG Version: 6.00 Build 0)  -->
<svg version="1.1" id="Layer_1" xmlns="http://www.w3.org/2000/svg" xmlns:xlink="http://www.w3.org/1999/xlink" x="0px" y="0px"
	 viewBox="0 0 400 400" style="enable-background:new 0 0 400 400;" xml:space="preserve">
<style type="text/css">
	.st0{clip-path:url(#SVGID_2_);fill:url(#SVGID_3_);}
	.st1{clip-path:url(#SVGID_5_);fill:url(#SVGID_6_);}
	.st2{clip-path:url(#SVGID_8_);fill:url(#SVGID_9_);}
	.st3{clip-path:url(#SVGID_11_);fill:url(#SVGID_12_);}
	.st4{clip-path:url(#SVGID_14_);fill:url(#SVGID_15_);}
	.st5{clip-path:url(#SVGID_17_);fill:url(#SVGID_18_);}
	.st6{clip-path:url(#SVGID_20_);fill:url(#SVGID_21_);}
	.st7{clip-path:url(#SVGID_23_);fill:url(#SVGID_24_);}
	.st8{clip-path:url(#SVGID_26_);fill:url(#SVGID_27_);}
	.st9{clip-path:url(#SVGID_29_);fill:url(#SVGID_30_);}
	.st10{clip-path:url(#SVGID_32_);fill:url(#SVGID_33_);}
	.st11{clip-path:url(#SVGID_35_);fill:url(#SVGID_36_);}
	.st12{clip-path:url(#SVGID_38_);fill:url(#SVGID_39_);}
	.st13{clip-path:url(#SVGID_41_);fill:url(#SVGID_42_);}
	.st14{clip-path:url(#SVGID_44_);fill:url(#SVGID_45_);}
	.st15{clip-path:url(#SVGID_47_);fill:url(#SVGID_48_);}
	.st16{clip-path:url(#SVGID_50_);fill:url(#SVGID_51_);}
	.st17{clip-path:url(#SVGID_53_);fill:url(#SVGID_54_);}
	.st18{clip-path:url(#SVGID_56_);fill:url(#SVGID_57_);}
	.st19{clip-path:url(#SVGID_59_);fill:url(#SVGID_60_);}
	.st20{clip-path:url(#SVGID_62_);fill:url(#SVGID_63_);}
</style>
<g>
	<g>
		<defs>
			<path id="SVGID_1_" d="M78.7,347c0-9,3.5-17.4,9.9-23.7c6.3-6.2,14.6-9.7,23.5-9.7h0.3l129.7,0.6c9.2,0,18.1,3.3,25.2,9.1
				l52.8,43.3H78.7V347z M278.7,315.5v-76c0-16.8,2-33.6,5.9-50l24.8-104.3c0.7-3,3.4-5.1,6.5-5.1h9.5c3.7,0,6.7,3,6.7,6.7v272.6
				L278.7,315.5z M312,13.3h20V40h-20V13.3z M312,0c-7.4,0-13.3,6-13.3,13.3V40c0,7.4,6,13.3,13.3,13.3h6.7v13.3h-2.8
				c-9.3,0-17.3,6.3-19.5,15.4l-24.8,104.4c-4.1,17.4-6.2,35.2-6.2,53.1v67c-7.2-3.5-15.1-5.4-23.2-5.5l-129.7-0.6
				c-12.5-0.1-24.3,4.7-33.3,13.5c-8.9,8.8-13.8,20.6-13.8,33.1v26.3c0,3.7,3,6.7,6.7,6.7h266.7c2.8,0,5.3-1.8,6.3-4.4
				c0.3-0.7,0.4-1.5,0.4-2.2h0V86.7c0-8.7-5.6-16-13.3-18.8V53.3c7.3,0,13.3-6,13.3-13.3V13.3C345.3,6,339.3,0,332,0H312z"/>
		</defs>
		<clipPath id="SVGID_2_">
			<use xlink:href="#SVGID_1_"  style="overflow:visible;"/>
		</clipPath>
		
			<linearGradient id="SVGID_3_" gradientUnits="userSpaceOnUse" x1="-1173.3478" y1="2093.9116" x2="-1162.9473" y2="2093.9116" gradientTransform="matrix(26.922 0 0 -26.922 31654.1758 56562.25)">
			<stop  offset="0" style="stop-color:#812CD3"/>
			<stop  offset="0.9996" style="stop-color:#4B2DD0"/>
			<stop  offset="1" style="stop-color:#4B2DD0"/>
		</linearGradient>
		<rect x="65.3" y="0" class="st0" width="280" height="380"/>
	</g>
	<g>
		<defs>
			<rect id="SVGID_4_" x="65.3" y="386.7" width="280" height="13.3"/>
		</defs>
		<clipPath id="SVGID_5_">
			<use xlink:href="#SVGID_4_"  style="overflow:visible;"/>
		</clipPath>
		
			<linearGradient id="SVGID_6_" gradientUnits="userSpaceOnUse" x1="-1173.3478" y1="2087.0852" x2="-1162.9473" y2="2087.0852" gradientTransform="matrix(26.922 0 0 -26.922 31654.1738 56581.7969)">
			<stop  offset="0" style="stop-color:#812CD3"/>
			<stop  offset="0.9996" style="stop-color:#4B2DD0"/>
			<stop  offset="1" style="stop-color:#4B2DD0"/>
		</linearGradient>
		<rect x="65.3" y="386.7" class="st1" width="280" height="13.3"/>
	</g>
	<g>
		<defs>
			<path id="SVGID_7_" d="M180,57.3L192.5,74c-59.6,6-107.1,53.6-113.2,113.2l-16.7-12.5l-8,10.7l26.7,20c1.2,0.9,2.6,1.3,4,1.3
				c1.4,0,2.8-0.4,4-1.3l26.7-20l-8-10.7l-15,11.3c6.4-51.3,47.1-91.9,98.3-98.3l-11.3,15l10.7,8l20-26.7c1.8-2.4,1.8-5.6,0-8
				l-20-26.7L180,57.3z"/>
		</defs>
		<clipPath id="SVGID_8_">
			<use xlink:href="#SVGID_7_"  style="overflow:visible;"/>
		</clipPath>
		
			<linearGradient id="SVGID_9_" gradientUnits="userSpaceOnUse" x1="-1196.8672" y1="2071.0378" x2="-1186.4668" y2="2071.0378" gradientTransform="matrix(15.1272 0 0 -15.1272 18159.9746 31457.0977)">
			<stop  offset="0" style="stop-color:#812CD3"/>
			<stop  offset="0.9996" style="stop-color:#4B2DD0"/>
			<stop  offset="1" style="stop-color:#4B2DD0"/>
		</linearGradient>
		<rect x="54.7" y="49.3" class="st2" width="157.8" height="157.3"/>
	</g>
	<g>
		<defs>
			<path id="SVGID_10_" d="M137.7,204.6l12.7,4.2c13.5-41.1,51.7-68.7,95-68.7v-13.3C196.2,126.7,153,158,137.7,204.6"/>
		</defs>
		<clipPath id="SVGID_11_">
			<use xlink:href="#SVGID_10_"  style="overflow:visible;"/>
		</clipPath>
		
			<linearGradient id="SVGID_12_" gradientUnits="userSpaceOnUse" x1="-1213.9933" y1="2041.3138" x2="-1203.5933" y2="2041.3138" gradientTransform="matrix(10.3542 0 0 -10.3542 12707.6182 21303.9277)">
			<stop  offset="0" style="stop-color:#812CD3"/>
			<stop  offset="0.9996" style="stop-color:#4B2DD0"/>
			<stop  offset="1" style="stop-color:#4B2DD0"/>
		</linearGradient>
		<rect x="137.7" y="126.7" class="st3" width="107.7" height="82.1"/>
	</g>
	<g>
		<defs>
			<path id="SVGID_13_" d="M132,240c0,14.7,2.8,29,8.2,42.5l12.4-5c-4.8-11.9-7.3-24.5-7.3-37.5H132z"/>
		</defs>
		<clipPath id="SVGID_14_">
			<use xlink:href="#SVGID_13_"  style="overflow:visible;"/>
		</clipPath>
		
			<linearGradient id="SVGID_15_" gradientUnits="userSpaceOnUse" x1="-1512.4952" y1="1632.1321" x2="-1502.0923" y2="1632.1321" gradientTransform="matrix(1.9806 0 0 -1.9806 3127.657 3493.864)">
			<stop  offset="0" style="stop-color:#812CD3"/>
			<stop  offset="0.9996" style="stop-color:#4B2DD0"/>
			<stop  offset="1" style="stop-color:#4B2DD0"/>
		</linearGradient>
		<rect x="132" y="240" class="st4" width="20.6" height="42.5"/>
	</g>
	<g>
		<defs>
			<path id="SVGID_16_" d="M106.7,373.3H120v13.3h-13.3V373.3z M280,373.3h13.3v13.3H280V373.3z M80,340V33.3c0-11,9-20,20-20h200
				c11,0,20,9,20,20V340c0,11-9,20-20,20H100C89,360,80,351,80,340 M100,0C81.6,0,66.7,14.9,66.7,33.3V340
				c0,15.8,11.1,29.5,26.7,32.7V400h40v-26.7h133.3V400h40v-27.3c15.5-3.2,26.7-16.8,26.7-32.7V33.3C333.3,14.9,318.4,0,300,0H100z"
				/>
		</defs>
		<clipPath id="SVGID_17_">
			<use xlink:href="#SVGID_16_"  style="overflow:visible;"/>
		</clipPath>
		
			<linearGradient id="SVGID_18_" gradientUnits="userSpaceOnUse" x1="-1174.7678" y1="2091.8547" x2="-1164.3674" y2="2091.8547" gradientTransform="matrix(25.64 0 0 -25.64 30187.6934 53835.1133)">
			<stop  offset="0" style="stop-color:#812CD3"/>
			<stop  offset="0.9996" style="stop-color:#4B2DD0"/>
			<stop  offset="1" style="stop-color:#4B2DD0"/>
		</linearGradient>
		<rect x="66.7" y="0" class="st5" width="266.7" height="400"/>
	</g>
	<g>
		<defs>
			<path id="SVGID_19_" d="M106.7,240c0-51.5,41.8-93.3,93.3-93.3c51.5,0,93.3,41.8,93.3,93.3c0,51.5-41.8,93.3-93.3,93.3
				C148.5,333.3,106.7,291.5,106.7,240 M93.3,240c0.1,58.9,47.8,106.6,106.7,106.7c58.9,0,106.7-47.8,106.7-106.7
				c0-58.9-47.8-106.7-106.7-106.7C141.1,133.3,93.3,181.1,93.3,240"/>
		</defs>
		<clipPath id="SVGID_20_">
			<use xlink:href="#SVGID_19_"  style="overflow:visible;"/>
		</clipPath>
		
			<linearGradient id="SVGID_21_" gradientUnits="userSpaceOnUse" x1="-1181.2847" y1="2081.0559" x2="-1170.8848" y2="2081.0559" gradientTransform="matrix(20.512 0 0 -20.512 24323.832 42926.5859)">
			<stop  offset="0" style="stop-color:#812CD3"/>
			<stop  offset="0.9996" style="stop-color:#4B2DD0"/>
			<stop  offset="1" style="stop-color:#4B2DD0"/>
		</linearGradient>
		<rect x="93.3" y="133.3" class="st6" width="213.3" height="213.3"/>
	</g>
	<g>
		<defs>
			<path id="SVGID_22_" d="M133.3,240c0-36.8,29.9-66.6,66.7-66.7c36.8,0,66.7,29.8,66.7,66.7c0,36.8-29.8,66.7-66.7,66.7
				C163.2,306.7,133.3,276.8,133.3,240 M120,240c0,44.2,35.8,80,80,80c44.2,0,80-35.8,80-80s-35.8-80-80-80
				C155.8,160,120,195.8,120,240"/>
		</defs>
		<clipPath id="SVGID_23_">
			<use xlink:href="#SVGID_22_"  style="overflow:visible;"/>
		</clipPath>
		
			<linearGradient id="SVGID_24_" gradientUnits="userSpaceOnUse" x1="-1192.1462" y1="2065.4077" x2="-1181.7457" y2="2065.4077" gradientTransform="matrix(15.384 0 0 -15.384 18459.9688 32014.2109)">
			<stop  offset="0" style="stop-color:#812CD3"/>
			<stop  offset="0.9996" style="stop-color:#4B2DD0"/>
			<stop  offset="1" style="stop-color:#4B2DD0"/>
		</linearGradient>
		<rect x="120" y="160" class="st7" width="160" height="160"/>
	</g>
	<g>
		<defs>
			<path id="SVGID_25_" d="M166.7,73.3c0-18.4,14.9-33.3,33.3-33.3c18.4,0,33.3,14.9,33.3,33.3s-14.9,33.3-33.3,33.3
				C181.6,106.7,166.7,91.7,166.7,73.3 M153.3,73.3c0,25.7,20.9,46.6,46.7,46.7c25.8,0,46.7-20.9,46.7-46.7
				c0-25.8-20.9-46.7-46.7-46.7C174.2,26.7,153.3,47.6,153.3,73.3"/>
		</defs>
		<clipPath id="SVGID_26_">
			<use xlink:href="#SVGID_25_"  style="overflow:visible;"/>
		</clipPath>
		
			<linearGradient id="SVGID_27_" gradientUnits="userSpaceOnUse" x1="-1223.1793" y1="2037.4858" x2="-1212.78" y2="2037.4858" gradientTransform="matrix(8.974 0 0 -8.974 11130.1387 18357.7148)">
			<stop  offset="0" style="stop-color:#812CD3"/>
			<stop  offset="0.9996" style="stop-color:#4B2DD0"/>
			<stop  offset="1" style="stop-color:#4B2DD0"/>
		</linearGradient>
		<rect x="153.3" y="26.7" class="st8" width="93.3" height="93.3"/>
	</g>
	<g>
		<defs>
			<path id="SVGID_28_" d="M193.3,73.3c0-3.7,3-6.7,6.7-6.7s6.7,3,6.7,6.7s-3,6.7-6.7,6.7S193.3,77,193.3,73.3 M180,73.3
				c0,11,8.9,20,20,20c11,0,20-9,20-20c0-11.1-9-20-20-20C189,53.3,180,62.3,180,73.3"/>
		</defs>
		<clipPath id="SVGID_29_">
			<use xlink:href="#SVGID_28_"  style="overflow:visible;"/>
		</clipPath>
		
			<linearGradient id="SVGID_30_" gradientUnits="userSpaceOnUse" x1="-1322.4843" y1="1916.8011" x2="-1312.0865" y2="1916.8011" gradientTransform="matrix(3.846 0 0 -3.846 5266.2759 7445.3413)">
			<stop  offset="0" style="stop-color:#812CD3"/>
			<stop  offset="0.9996" style="stop-color:#4B2DD0"/>
			<stop  offset="1" style="stop-color:#4B2DD0"/>
		</linearGradient>
		<rect x="180" y="53.3" class="st9" width="40" height="40"/>
	</g>
	<g>
		<defs>
			<rect id="SVGID_31_" x="93.3" y="26.7" width="13.3" height="13.3"/>
		</defs>
		<clipPath id="SVGID_32_">
			<use xlink:href="#SVGID_31_"  style="overflow:visible;"/>
		</clipPath>
		
			<linearGradient id="SVGID_33_" gradientUnits="userSpaceOnUse" x1="-1740.5555" y1="1522.5973" x2="-1730.1552" y2="1522.5973" gradientTransform="matrix(1.282 0 0 -1.282 2324.7295 1985.3075)">
			<stop  offset="0" style="stop-color:#812CD3"/>
			<stop  offset="0.9996" style="stop-color:#4B2DD0"/>
			<stop  offset="1" style="stop-color:#4B2DD0"/>
		</linearGradient>
		<rect x="93.3" y="26.7" class="st10" width="13.3" height="13.3"/>
	</g>
	<g>
		<defs>
			<rect id="SVGID_34_" x="293.3" y="26.7" width="13.3" height="13.3"/>
		</defs>
		<clipPath id="SVGID_35_">
			<use xlink:href="#SVGID_34_"  style="overflow:visible;"/>
		</clipPath>
		
			<linearGradient id="SVGID_36_" gradientUnits="userSpaceOnUse" x1="-1599.5492" y1="1522.5973" x2="-1589.1567" y2="1522.5973" gradientTransform="matrix(1.282 0 0 -1.282 2343.9595 1985.3075)">
			<stop  offset="0" style="stop-color:#812CD3"/>
			<stop  offset="0.9996" style="stop-color:#4B2DD0"/>
			<stop  offset="1" style="stop-color:#4B2DD0"/>
		</linearGradient>
		<rect x="293.3" y="26.7" class="st11" width="13.3" height="13.3"/>
	</g>
	<g>
		<defs>
			<rect id="SVGID_37_" x="93.3" y="333.3" width="13.3" height="13.3"/>
		</defs>
		<clipPath id="SVGID_38_">
			<use xlink:href="#SVGID_37_"  style="overflow:visible;"/>
		</clipPath>
		
			<linearGradient id="SVGID_39_" gradientUnits="userSpaceOnUse" x1="-1740.5555" y1="1306.3906" x2="-1730.1552" y2="1306.3906" gradientTransform="matrix(1.282 0 0 -1.282 2324.7295 2014.7936)">
			<stop  offset="0" style="stop-color:#812CD3"/>
			<stop  offset="0.9996" style="stop-color:#4B2DD0"/>
			<stop  offset="1" style="stop-color:#4B2DD0"/>
		</linearGradient>
		<rect x="93.3" y="333.3" class="st12" width="13.3" height="13.3"/>
	</g>
	<g>
		<defs>
			<rect id="SVGID_40_" x="293.3" y="333.3" width="13.3" height="13.3"/>
		</defs>
		<clipPath id="SVGID_41_">
			<use xlink:href="#SVGID_40_"  style="overflow:visible;"/>
		</clipPath>
		
			<linearGradient id="SVGID_42_" gradientUnits="userSpaceOnUse" x1="-1599.5492" y1="1306.3906" x2="-1589.1567" y2="1306.3906" gradientTransform="matrix(1.282 0 0 -1.282 2343.9595 2014.7936)">
			<stop  offset="0" style="stop-color:#812CD3"/>
			<stop  offset="0.9996" style="stop-color:#4B2DD0"/>
			<stop  offset="1" style="stop-color:#4B2DD0"/>
		</linearGradient>
		<rect x="293.3" y="333.3" class="st13" width="13.3" height="13.3"/>
	</g>
	<g>
		<defs>
			<path id="SVGID_43_" d="M180,240c0-11,8.9-20,20-20c11,0,20,9,20,20c0,11-9,20-20,20C189,260,180,251,180,240 M166.7,240
				c0,18.4,14.9,33.3,33.3,33.3c18.4,0,33.3-14.9,33.3-33.3s-14.9-33.3-33.3-33.3C181.6,206.7,166.7,221.6,166.7,240"/>
		</defs>
		<clipPath id="SVGID_44_">
			<use xlink:href="#SVGID_43_"  style="overflow:visible;"/>
		</clipPath>
		
			<linearGradient id="SVGID_45_" gradientUnits="userSpaceOnUse" x1="-1252.9725" y1="1977.7788" x2="-1242.5706" y2="1977.7788" gradientTransform="matrix(6.41 0 0 -6.41 8198.208 12917.5537)">
			<stop  offset="0" style="stop-color:#812CD3"/>
			<stop  offset="0.9996" style="stop-color:#4B2DD0"/>
			<stop  offset="1" style="stop-color:#4B2DD0"/>
		</linearGradient>
		<rect x="166.7" y="206.7" class="st14" width="66.7" height="66.7"/>
	</g>
	<g>
		<defs>
			<path id="SVGID_46_" d="M13.3,233.3c-3.7,0-6.7,3-6.7,6.7s3,6.7,6.7,6.7H40c3.7,0,6.7-3,6.7-6.7s-3-6.7-6.7-6.7H13.3z"/>
		</defs>
		<clipPath id="SVGID_47_">
			<use xlink:href="#SVGID_46_"  style="overflow:visible;"/>
		</clipPath>
		
			<linearGradient id="SVGID_48_" gradientUnits="userSpaceOnUse" x1="-1363.2228" y1="1877.6312" x2="-1352.8192" y2="1877.6312" gradientTransform="matrix(3.846 0 0 -3.846 5249.6099 7461.3662)">
			<stop  offset="0" style="stop-color:#812CD3"/>
			<stop  offset="0.9996" style="stop-color:#4B2DD0"/>
			<stop  offset="1" style="stop-color:#4B2DD0"/>
		</linearGradient>
		<rect x="6.7" y="233.3" class="st15" width="40" height="13.3"/>
	</g>
	<g>
		<defs>
			<path id="SVGID_49_" d="M15.3,168.8c-2.5,2.6-2.5,6.7,0,9.3l20,20c2.7,2.6,6.9,2.5,9.4-0.2c2.5-2.6,2.5-6.7,0-9.3l-20-20
				c-1.3-1.2-3-1.9-4.6-1.9C18.3,166.7,16.6,167.4,15.3,168.8"/>
		</defs>
		<clipPath id="SVGID_50_">
			<use xlink:href="#SVGID_49_"  style="overflow:visible;"/>
		</clipPath>
		
			<linearGradient id="SVGID_51_" gradientUnits="userSpaceOnUse" x1="-1406.4537" y1="1842.0228" x2="-1396.0533" y2="1842.0228" gradientTransform="matrix(3.1892 0 0 -3.1892 4498.8984 6058.2817)">
			<stop  offset="0" style="stop-color:#812CD3"/>
			<stop  offset="0.9996" style="stop-color:#4B2DD0"/>
			<stop  offset="1" style="stop-color:#4B2DD0"/>
		</linearGradient>
		<rect x="12.8" y="166.8" class="st16" width="34.4" height="33.9"/>
	</g>
	<g>
		<defs>
			<path id="SVGID_52_" d="M35.3,282l-20,20c-2.6,2.6-2.7,6.8-0.2,9.4c2.6,2.7,6.8,2.7,9.4,0.2c0.1-0.1,0.1-0.1,0.2-0.2l20-20
				c2.6-2.6,2.5-6.9-0.2-9.4c-1.3-1.2-3-1.9-4.6-1.9C38.2,280.1,36.6,280.7,35.3,282"/>
		</defs>
		<clipPath id="SVGID_53_">
			<use xlink:href="#SVGID_52_"  style="overflow:visible;"/>
		</clipPath>
		
			<linearGradient id="SVGID_54_" gradientUnits="userSpaceOnUse" x1="-1405.2046" y1="1811.4491" x2="-1394.8042" y2="1811.4491" gradientTransform="matrix(3.205 0 0 -3.205 4516.9785 6102.8472)">
			<stop  offset="0" style="stop-color:#812CD3"/>
			<stop  offset="0.9996" style="stop-color:#4B2DD0"/>
			<stop  offset="1" style="stop-color:#4B2DD0"/>
		</linearGradient>
		<rect x="12.6" y="280.1" class="st17" width="34.7" height="34"/>
	</g>
	<g>
		<defs>
			<path id="SVGID_55_" d="M360,233.3c-3.7,0-6.7,3-6.7,6.7s3,6.7,6.7,6.7h26.7c3.7,0,6.7-3,6.7-6.7s-3-6.7-6.7-6.7H360z"/>
		</defs>
		<clipPath id="SVGID_56_">
			<use xlink:href="#SVGID_55_"  style="overflow:visible;"/>
		</clipPath>
		
			<linearGradient id="SVGID_57_" gradientUnits="userSpaceOnUse" x1="-1281.7493" y1="1877.6312" x2="-1271.3486" y2="1877.6312" gradientTransform="matrix(3.846 0 0 -3.846 5282.9419 7461.3662)">
			<stop  offset="0" style="stop-color:#812CD3"/>
			<stop  offset="0.9996" style="stop-color:#4B2DD0"/>
			<stop  offset="1" style="stop-color:#4B2DD0"/>
		</linearGradient>
		<rect x="353.3" y="233.3" class="st18" width="40" height="13.3"/>
	</g>
	<g>
		<defs>
			<path id="SVGID_58_" d="M375.3,168.6l-20,20c-2.6,2.6-2.6,6.8,0,9.4c1.2,1.2,2.9,2,4.7,2c1.8,0,3.5-0.7,4.7-2l20-20
				c2.6-2.6,2.5-6.9-0.2-9.4c-1.3-1.2-3-1.9-4.6-1.9C378.2,166.7,376.6,167.4,375.3,168.6"/>
		</defs>
		<clipPath id="SVGID_59_">
			<use xlink:href="#SVGID_58_"  style="overflow:visible;"/>
		</clipPath>
		
			<linearGradient id="SVGID_60_" gradientUnits="userSpaceOnUse" x1="-1309.7114" y1="1842.818" x2="-1299.311" y2="1842.818" gradientTransform="matrix(3.197 0 0 -3.197 4540.5264 6074.9243)">
			<stop  offset="0" style="stop-color:#812CD3"/>
			<stop  offset="0.9996" style="stop-color:#4B2DD0"/>
			<stop  offset="1" style="stop-color:#4B2DD0"/>
		</linearGradient>
		<rect x="352.7" y="166.7" class="st19" width="34.6" height="33.3"/>
	</g>
	<g>
		<defs>
			<path id="SVGID_61_" d="M355.3,282.1c-2.5,2.6-2.5,6.7,0,9.3l20,20c2.6,2.6,6.9,2.5,9.4-0.2c2.5-2.6,2.5-6.7,0-9.3l-20-20
				c-1.3-1.2-3-1.9-4.6-1.9C358.3,280.1,356.6,280.8,355.3,282.1"/>
		</defs>
		<clipPath id="SVGID_62_">
			<use xlink:href="#SVGID_61_"  style="overflow:visible;"/>
		</clipPath>
		
			<linearGradient id="SVGID_63_" gradientUnits="userSpaceOnUse" x1="-1310.0887" y1="1809.9156" x2="-1299.6884" y2="1809.9156" gradientTransform="matrix(3.1893 0 0 -3.1893 4531.7266 6069.4341)">
			<stop  offset="0" style="stop-color:#812CD3"/>
			<stop  offset="0.9996" style="stop-color:#4B2DD0"/>
			<stop  offset="1" style="stop-color:#4B2DD0"/>
		</linearGradient>
		<rect x="352.8" y="280.1" class="st20" width="34.4" height="33.9"/>
	</g>
</g>
</svg>
