<?xml version="1.0" encoding="utf-8"?>
<!-- Generator: Adobe Illustrator 23.1.1, SVG Export Plug-In . SVG Version: 6.00 Build 0)  -->
<svg version="1.1" id="Layer_1" xmlns="http://www.w3.org/2000/svg" xmlns:xlink="http://www.w3.org/1999/xlink" x="0px" y="0px"
	 viewBox="0 0 24.4 23.4" style="enable-background:new 0 0 24.4 23.4;" xml:space="preserve">
<style type="text/css">
	.st0{clip-path:url(#SVGID_2_);}
	.st1{clip-path:url(#SVGID_4_);fill:#4B2DD0;}
	.st2{clip-path:url(#SVGID_6_);}
	.st3{clip-path:url(#SVGID_10_);fill:url(#SVGID_11_);}
	.st4{clip-path:url(#SVGID_13_);fill:none;stroke:#FFFFFF;stroke-width:1.2;stroke-miterlimit:10;}
	.st5{clip-path:url(#SVGID_15_);fill:#FFFFFF;}
	.st6{clip-path:url(#SVGID_15_);fill:none;stroke:#FFFFFF;stroke-miterlimit:10;}
	.st7{clip-path:url(#SVGID_15_);fill:none;stroke:#000000;stroke-miterlimit:10;}
	.st8{clip-path:url(#SVGID_15_);fill:#ED3580;}
	.st9{clip-path:url(#SVGID_17_);}
	.st10{clip-path:url(#SVGID_21_);fill:url(#SVGID_22_);}
	.st11{clip-path:url(#SVGID_24_);fill:none;stroke:#606060;stroke-miterlimit:10;}
	.st12{clip-path:url(#SVGID_26_);fill:#ED3580;}
	.st13{opacity:0.4;clip-path:url(#SVGID_28_);}
	.st14{clip-path:url(#SVGID_30_);}
	.st15{clip-path:url(#SVGID_28_);fill:#FFFFFF;}
	.st16{clip-path:url(#SVGID_28_);fill:#812CD3;}
	.st17{clip-path:url(#SVGID_34_);fill:#4B2DD0;}
	.st18{clip-path:url(#SVGID_34_);fill:#606060;}
	.st19{clip-path:url(#SVGID_36_);fill:#ED3580;}
	.st20{fill:#606060;}
	.st21{font-family:'Poppins-Medium';}
	.st22{font-size:34.5008px;}
	.st23{clip-path:url(#SVGID_38_);fill:#ED3580;}
	.st24{clip-path:url(#SVGID_38_);fill:none;stroke:#606060;stroke-miterlimit:10;}
</style>
<g>
	<defs>
		<rect id="SVGID_1_" x="-354.6" y="-808.8" width="1926" height="1894"/>
	</defs>
	<clipPath id="SVGID_2_">
		<use xlink:href="#SVGID_1_"  style="overflow:visible;"/>
	</clipPath>
	<g class="st0">
		<defs>
			<rect id="SVGID_3_" x="-354.6" y="-808.8" width="1926" height="1894"/>
		</defs>
		<clipPath id="SVGID_4_">
			<use xlink:href="#SVGID_3_"  style="overflow:visible;"/>
		</clipPath>
		<path class="st1" d="M1463.4,568.7h-219c-6.6,0-12-5.4-12-12v-48.5c0-6.6,5.4-12,12-12h219c6.6,0,12,5.4,12,12v48.5
			C1475.4,563.3,1470,568.7,1463.4,568.7"/>
	</g>
	<g class="st0">
		<defs>
			<path id="SVGID_5_" d="M731.5-309.6c-0.7,90.3,71.9,164.1,162.2,164.8c90.3,0.7,164.1-71.9,164.8-162.2
				c0.7-90.3-71.9-164.1-162.2-164.8c-0.4,0-0.9,0-1.3,0C805.2-471.8,732.2-399.5,731.5-309.6"/>
		</defs>
		<clipPath id="SVGID_6_">
			<use xlink:href="#SVGID_5_"  style="overflow:visible;"/>
		</clipPath>
		<g class="st2">
			<defs>
				<rect id="SVGID_7_" x="627.7" y="-486.2" width="451.7" height="378.6"/>
			</defs>
			<clipPath id="SVGID_8_">
				<use xlink:href="#SVGID_7_"  style="overflow:visible;"/>
			</clipPath>
			<g style="clip-path:url(#SVGID_8_);">
				
					<image style="overflow:visible;" width="940" height="788" xlink:href="DC82AC862C4B3A26.jpg"  transform="matrix(0.4805 0 0 0.4805 627.6788 -486.1671)">
				</image>
			</g>
		</g>
	</g>
	<g class="st0">
		<text transform="matrix(1 0 0 1 1310.3531 541.3807)" class="st21" style="fill:#FFFFFF; font-size:28.5315px;">Envíar</text>
	</g>
	<g class="st0">
		<defs>
			<rect id="SVGID_9_" x="-350.1" y="671.2" width="1921" height="414"/>
		</defs>
		<clipPath id="SVGID_10_">
			<use xlink:href="#SVGID_9_"  style="overflow:visible;"/>
		</clipPath>
		
			<linearGradient id="SVGID_11_" gradientUnits="userSpaceOnUse" x1="-354.6468" y1="1085.1805" x2="-353.6468" y2="1085.1805" gradientTransform="matrix(1921 0 0 -1921 680926.375 2085510)">
			<stop  offset="0" style="stop-color:#812CD3"/>
			<stop  offset="0.9996" style="stop-color:#4B2DD0"/>
			<stop  offset="1" style="stop-color:#4B2DD0"/>
		</linearGradient>
		<rect x="-350.1" y="671.2" class="st3" width="1921" height="414"/>
	</g>
	<g class="st0">
		<text transform="matrix(1 0 0 1 139.9372 781.6376)" class="st21" style="fill:#FFFFFF; font-size:24px;">contacto@yogomexico.com</text>
	</g>
	<g class="st0">
		<text transform="matrix(1 0 0 1 -265.0628 781.6376)" class="st21" style="fill:#FFFFFF; font-size:24px;">Ingresar</text>
	</g>
	<g class="st0">
		<text transform="matrix(1 0 0 1 -265.0628 835.6376)" class="st21" style="fill:#FFFFFF; font-size:24px;">Ventajas</text>
	</g>
	<g class="st0">
		<text transform="matrix(1 0 0 1 -265.0628 886.6376)" class="st21" style="fill:#FFFFFF; font-size:24px;">Como ser socio Yogo</text>
	</g>
	<g class="st0">
		<text transform="matrix(1 0 0 1 914.945 1049.6454)" class="st21" style="fill:#FFFFFF; font-size:24px;">Sitio desarrollado por </text>
	</g>
	<g class="st0">
		<text transform="matrix(1 0 0 1 1180.3131 1049.6454)" class="st21" style="fill:#FFFFFF; font-size:24px;">Toracom</text>
	</g>
	<g class="st0">
		<text transform="matrix(1 0 0 1 1289.2965 1049.6454)" class="st21" style="fill:#FFFFFF; font-size:24px;"> y </text>
	</g>
	<g class="st0">
		<text transform="matrix(1 0 0 1 1315.7448 1049.6454)" class="st21" style="fill:#FFFFFF; font-size:24px;">Sitio Random</text>
	</g>
	<g class="st0">
		<defs>
			<rect id="SVGID_12_" x="-354.6" y="-808.8" width="1926" height="1894"/>
		</defs>
		<clipPath id="SVGID_13_">
			<use xlink:href="#SVGID_12_"  style="overflow:visible;"/>
		</clipPath>
		<polygon class="st4" points="1180.3,1052 1180.3,1052 1289.3,1052 		"/>
		<polygon class="st4" points="1315.7,1052 1315.7,1052 1476.9,1052 		"/>
	</g>
	<g class="st0">
		<text transform="matrix(1 0 0 1 679.9372 731.6376)" style="fill:#FFFFFF; font-family:'Poppins-ExtraBold'; font-size:24px;">Yogo</text>
	</g>
	<g class="st0">
		<text transform="matrix(1 0 0 1 139.9372 731.6376)" style="fill:#FFFFFF; font-family:'Poppins-ExtraBold'; font-size:24px;">Contacto</text>
	</g>
	<g class="st0">
		<text transform="matrix(1 0 0 1 -265.0628 731.6376)" style="fill:#FFFFFF; font-family:'Poppins-ExtraBold'; font-size:24px;">Socio Yogo</text>
	</g>
	<g class="st0">
		<text transform="matrix(1 0 0 1 1155.9293 732.1415)" style="fill:#FFFFFF; font-family:'Poppins-ExtraBold'; font-size:24px;">Newsletter</text>
	</g>
	<g class="st0">
		<text transform="matrix(1 0 0 1 679.9372 781.6532)" class="st21" style="fill:#FFFFFF; font-size:24px;">Nosotros</text>
	</g>
	<g class="st0">
		<text transform="matrix(1 0 0 1 679.9372 835.6532)" class="st21" style="fill:#FFFFFF; font-size:24px;">Centro de ayuda</text>
	</g>
	<g class="st0">
		<text transform="matrix(1 0 0 1 679.9372 887.662)" class="st21" style="fill:#FFFFFF; font-size:24px;">Ayuda sobre el socio</text>
	</g>
	<g class="st0">
		<text transform="matrix(1 0 0 1 140.4411 836.1571)" class="st21" style="fill:#FFFFFF; font-size:24px;">Tel. 333 457 8934</text>
	</g>
	<g class="st0">
		<text transform="matrix(1 0 0 1 169.4333 887.1571)" class="st21" style="fill:#FFFFFF; font-size:24px;">YogoPorti</text>
	</g>
	<g class="st0">
		<text transform="matrix(1 0 0 1 169.4333 941.1571)" class="st21" style="fill:#FFFFFF; font-size:24px;">@Yogo</text>
	</g>
	<g class="st0">
		<text transform="matrix(1 0 0 1 -264.5589 1050.1659)" class="st21" style="fill:#FFFFFF; font-size:24px;">Términos y condiciones</text>
	</g>
	<g class="st0">
		<text transform="matrix(1 0 0 1 563.4411 1050.1659)" class="st21" style="fill:#FFFFFF; font-size:24px;">Información de Yogo</text>
	</g>
	<g class="st0">
		<text transform="matrix(1 0 0 1 182.4411 1050.1659)" class="st21" style="fill:#FFFFFF; font-size:24px;">Aviso de Privacidad</text>
	</g>
	<g class="st0">
		<defs>
			<rect id="SVGID_14_" x="-354.6" y="-808.8" width="1926" height="1894"/>
		</defs>
		<clipPath id="SVGID_15_">
			<use xlink:href="#SVGID_14_"  style="overflow:visible;"/>
		</clipPath>
		<path class="st5" d="M149.7,875.3h-3.2v11.5h-4.8v-11.3c-0.8,0-1.6-0.1-2.4-0.1v-4h2.3c0-1.1,0-2.1,0-3.1c0-0.5,0.1-1.1,0.2-1.6
			c0.4-1.6,1.6-2.5,3.2-2.7c1.6-0.2,3.1-0.2,4.8-0.3v4.4c-0.2,0-0.4,0-0.5,0c-0.7,0-1.4,0-2.1,0c-0.4,0-0.7,0.2-0.7,0.6
			c0,0.9,0,1.7,0,2.6h3.5C150,872.6,149.8,873.9,149.7,875.3"/>
		<path class="st5" d="M147.4,942.8c-1.1,0-2.2,0-3.3,0c-1.1,0-2.2,0-3.2-0.3c-2.5-0.6-4.2-2.4-4.7-4.9c-0.2-1.1-0.2-2.2-0.2-3.4
			c0-2.2,0-4.4,0-6.6c0-1,0.1-2.1,0.4-3.1c0.7-2.3,2.3-3.7,4.6-4.3c0.9-0.2,1.7-0.2,2.6-0.2c2.5,0,5,0,7.6,0c1,0,2,0.1,3,0.3
			c2.4,0.7,3.8,2.3,4.4,4.7c0.2,1,0.2,2.1,0.2,3.1c0,2.2,0,4.4,0,6.5c0,1.1,0,2.1-0.3,3.2c-0.6,2.6-2.2,4.1-4.8,4.7
			c-1,0.2-2,0.2-3,0.2C149.7,942.8,148.6,942.8,147.4,942.8 M138.1,931.4C138.1,931.4,138.1,931.4,138.1,931.4c0,0.8,0,1.7,0,2.5
			c0,1.1,0,2.3,0.2,3.4c0.3,1.6,1.3,2.7,2.9,3.2c0.7,0.2,1.4,0.3,2.2,0.3c2.7,0,5.4,0,8.2,0c0.6,0,1.2-0.1,1.8-0.2
			c1.7-0.3,2.8-1.3,3.2-2.9c0.2-0.7,0.2-1.5,0.2-2.2c0-2.7,0-5.3,0-8c0-0.7,0-1.4-0.2-2.1c-0.3-1.3-1-2.2-2.2-2.8
			c-0.7-0.3-1.4-0.4-2.2-0.5c-1.3,0-2.5-0.1-3.8-0.1c-1.7,0-3.4,0-5,0c-0.7,0-1.3,0.1-2,0.2c-1.4,0.3-2.4,1.1-2.9,2.5
			c-0.2,0.6-0.3,1.2-0.3,1.8C138.1,928.2,138.1,929.8,138.1,931.4"/>
		<path class="st5" d="M141.6,931.4c0-3.2,2.6-5.9,5.8-5.8c3.3,0,5.9,2.6,5.9,5.9c0,3.2-2.6,5.9-5.9,5.8
			C144.2,937.3,141.6,934.6,141.6,931.4 M147.5,927.6c-2.1,0-3.8,1.7-3.8,3.8c0,2.1,1.7,3.8,3.8,3.8c2.1,0,3.8-1.7,3.8-3.8
			C151.3,929.3,149.6,927.6,147.5,927.6"/>
		<path class="st5" d="M153.6,926.7c-0.7,0-1.4-0.6-1.4-1.3c0-0.7,0.6-1.4,1.3-1.4c0.8,0,1.4,0.6,1.4,1.3
			C154.9,926,154.3,926.7,153.6,926.7"/>
		<line class="st6" x1="-350.1" y1="974.1" x2="1569.9" y2="974.1"/>
		<path class="st5" d="M1454.3,795.4h-283.2c-6.6,0-12-5.4-12-12v-20.1c0-6.6,5.4-12,12-12h283.2c6.6,0,12,5.4,12,12v20.1
			C1466.3,790,1460.9,795.4,1454.3,795.4"/>
		<path class="st7" d="M1454.3,795.4h-283.2c-6.6,0-12-5.4-12-12v-20.1c0-6.6,5.4-12,12-12h283.2c6.6,0,12,5.4,12,12v20.1
			C1466.3,790,1460.9,795.4,1454.3,795.4z"/>
		<path class="st8" d="M1454.3,857.4h-146c-6.6,0-12-5.4-12-12v-20.1c0-6.6,5.4-12,12-12h146c6.6,0,12,5.4,12,12v20.1
			C1466.3,852,1460.9,857.4,1454.3,857.4"/>
	</g>
	<g class="st0">
		<text transform="matrix(1 0 0 1 1175.9371 781.6376)" class="st20 st21" style="font-size:21px;">@ Ingresa tu mail</text>
	</g>
	<g class="st0">
		<text transform="matrix(1 0 0 1 1338.9391 842.6425)" class="st21" style="fill:#FFFFFF; font-size:21px;">Aceptar</text>
	</g>
	<g class="st0">
		<defs>
			<path id="SVGID_16_" d="M1383.9-746.6c-0.1,13.5,10.8,24.5,24.3,24.6c13.5,0.1,24.5-10.8,24.6-24.3c0.1-13.5-10.8-24.5-24.3-24.6
				c-0.1,0-0.1,0-0.2,0C1395-770.8,1384-760,1383.9-746.6"/>
		</defs>
		<clipPath id="SVGID_17_">
			<use xlink:href="#SVGID_16_"  style="overflow:visible;"/>
		</clipPath>
		<g class="st9">
			<defs>
				<rect id="SVGID_18_" x="1379.6" y="-771.3" width="60.3" height="60.3"/>
			</defs>
			<clipPath id="SVGID_19_">
				<use xlink:href="#SVGID_18_"  style="overflow:visible;"/>
			</clipPath>
			<g style="clip-path:url(#SVGID_19_);">
				
					<image style="overflow:visible;" width="787" height="787" xlink:href="DC82AC862C4B3A2A.jpg"  transform="matrix(7.662266e-02 0 0 7.662266e-02 1379.6079 -771.3113)">
				</image>
			</g>
		</g>
	</g>
	<g class="st0">
		<text transform="matrix(1 0 0 1 -164.6468 -731.755)" style="fill:#8B77E8; font-family:'Poppins-Bold'; font-size:36.0534px;">Logotipo</text>
	</g>
	<g class="st0">
		<defs>
			<path id="SVGID_20_" d="M-228.6-741.3c0,15.2,12.3,27.5,27.5,27.5s27.5-12.3,27.5-27.5s-12.3-27.5-27.5-27.5
				S-228.6-756.5-228.6-741.3"/>
		</defs>
		<clipPath id="SVGID_21_">
			<use xlink:href="#SVGID_20_"  style="overflow:visible;"/>
		</clipPath>
		
			<linearGradient id="SVGID_22_" gradientUnits="userSpaceOnUse" x1="-354.6468" y1="1085.1805" x2="-353.6468" y2="1085.1805" gradientTransform="matrix(55 0 0 -55 19276.9277 58943.6094)">
			<stop  offset="0" style="stop-color:#812CD3"/>
			<stop  offset="1" style="stop-color:#4B2DD0"/>
		</linearGradient>
		<rect x="-228.6" y="-768.8" class="st10" width="55" height="55"/>
	</g>
	<g class="st0">
		<defs>
			<rect id="SVGID_23_" x="-354.6" y="-808.8" width="1926" height="1894"/>
		</defs>
		<clipPath id="SVGID_24_">
			<use xlink:href="#SVGID_23_"  style="overflow:visible;"/>
		</clipPath>
		<path class="st11" d="M1414.7-716.3H1317c-13.4,0-24.3-10.9-24.3-24.3V-752c0-13.4,10.9-24.3,24.3-24.3h97.6
			c13.4,0,24.3,10.9,24.3,24.3v11.4C1439-727.2,1428-716.3,1414.7-716.3z"/>
	</g>
	<g class="st0">
		<text transform="matrix(1 0 0 1 1305.983 -741.2277)" class="st21" style="font-size:19px;">Enrique</text>
	</g>
	<g class="st0">
		<text transform="matrix(1 0 0 1 1074.9811 -741.2277)" class="st21" style="font-size:19px;">Nosotros</text>
	</g>
	<g class="st0">
		<text transform="matrix(1 0 0 1 1193.9781 -741.2277)" class="st21" style="font-size:19px;">Ayuda</text>
	</g>
	<g class="st0">
		<defs>
			<rect id="SVGID_25_" x="-354.6" y="-808.8" width="1926" height="1894"/>
		</defs>
		<clipPath id="SVGID_26_">
			<use xlink:href="#SVGID_25_"  style="overflow:visible;"/>
		</clipPath>
		<path class="st12" d="M1441-767.8c0,6.9-5.6,12.5-12.5,12.5c-6.9,0-12.5-5.6-12.5-12.5c0-6.9,5.6-12.5,12.5-12.5
			C1435.4-780.3,1441-774.7,1441-767.8"/>
	</g>
	<g class="st0">
		<text transform="matrix(1 0 0 1 1425.983 -762.2277)" class="st21" style="fill:#FFFFFF; font-size:15px;">1</text>
	</g>
	<g class="st0">
		<text transform="matrix(1 0 0 1 -184.473 -506.9484)" style="font-family:'Poppins-SemiBold'; font-size:48.7968px;">Califica tu viaje</text>
	</g>
	<g class="st0">
		
			<text transform="matrix(1 0 0 1 -184.473 -390.9581)" style="fill:#812CD3; font-family:'Poppins-SemiBold'; font-size:48.7968px;">Tu opinión es muy importante</text>
	</g>
	<g class="st0">
		
			<text transform="matrix(1 0 0 1 -184.473 -332.4025)" style="fill:#812CD3; font-family:'Poppins-SemiBold'; font-size:48.7968px;">para nosotros, nuestra misión</text>
	</g>
	<g class="st0">
		
			<text transform="matrix(1 0 0 1 -184.473 -273.8458)" style="fill:#812CD3; font-family:'Poppins-SemiBold'; font-size:48.7968px;">es mejorar el servicio para ti.</text>
	</g>
	<g class="st0">
		<defs>
			<rect id="SVGID_27_" x="-354.6" y="-808.8" width="1926" height="1894"/>
		</defs>
		<clipPath id="SVGID_28_">
			<use xlink:href="#SVGID_27_"  style="overflow:visible;"/>
		</clipPath>
		<g class="st13">
			<g>
				<defs>
					<rect id="SVGID_29_" x="1465.8" y="-787.9" width="85" height="85"/>
				</defs>
				<clipPath id="SVGID_30_">
					<use xlink:href="#SVGID_29_"  style="overflow:visible;"/>
				</clipPath>
				<g class="st14">
					<defs>
						<rect id="SVGID_31_" x="1465.8" y="-787.9" width="85" height="85"/>
					</defs>
					<clipPath id="SVGID_32_">
						<use xlink:href="#SVGID_31_"  style="overflow:visible;"/>
					</clipPath>
					<g style="clip-path:url(#SVGID_32_);">
						
							<image style="overflow:visible;" width="85" height="85" xlink:href="DC82AC862C4B3A2A.png"  transform="matrix(1 0 0 1 1465.8451 -787.9153)">
						</image>
					</g>
				</g>
			</g>
		</g>
		<path class="st15" d="M1516.6-713.9h-16.8c-13.4,0-24.3-10.9-24.3-24.3v-16.7c0-13.4,10.9-24.3,24.3-24.3h16.8
			c13.4,0,24.3,10.9,24.3,24.3v16.7C1540.9-724.8,1530-713.9,1516.6-713.9"/>
		<path class="st16" d="M1553.5-767.4c0,6.9-5.6,12.5-12.5,12.5c-6.9,0-12.5-5.6-12.5-12.5c0-6.9,5.6-12.5,12.5-12.5
			C1547.9-779.9,1553.5-774.3,1553.5-767.4"/>
	</g>
	<g class="st0">
		<text transform="matrix(1 0 0 1 1536.5289 -761.7863)" class="st21" style="fill:#FFFFFF; font-size:15px;">3</text>
	</g>
	<g class="st0">
		<defs>
			<rect id="SVGID_33_" x="-354.6" y="-808.8" width="1926" height="1894"/>
		</defs>
		<clipPath id="SVGID_34_">
			<use xlink:href="#SVGID_33_"  style="overflow:visible;"/>
		</clipPath>
		<path class="st17" d="M1491-762.7c-1.1,0-2.1,0-3.2,0c-1.1,0-1.8-1-1.4-2c0.2-0.6,0.7-0.9,1.3-0.9c1.5,0,3,0,4.6,0
			c0.7,0,1.2,0.4,1.4,1.2c0.7,2.8,1.4,5.6,2.1,8.5c0.6,2.6,1.3,5.1,1.9,7.7c0,0.1,0,0.2,0.1,0.3h25.2c0.4-2.4,0.9-4.8,1.3-7.3h-0.6
			c-8,0-16,0-24,0c-1.2,0-2-1-1.6-2c0.2-0.6,0.8-0.9,1.5-0.9c3.8,0,7.7,0,11.5,0c4.9,0,9.8,0,14.6,0c1.3,0,1.9,0.7,1.6,2
			c-0.9,5.2-1.9,10.3-2.8,15.5c-0.2,1.3-0.7,1.7-2,1.7c-7.7,0-15.4,0-23,0c-0.4,0-0.5,0.1-0.6,0.5c-0.2,0.7-0.4,1.3-0.6,2
			c1,0.7,1.8,1.6,2.2,2.8c0.2,0.5,0.4,0.7,1,0.7c4.6,0,9.3,0,13.9,0c0.3,0,0.5-0.1,0.6-0.4c0.9-2.7,3.6-4.4,6.3-4
			c2.9,0.4,5,2.8,5.1,5.6c0.1,3-1.8,5.4-4.7,6c-2.9,0.6-5.8-1-6.7-3.9c-0.1-0.3-0.3-0.4-0.6-0.4c-4.7,0-9.4,0-14.2,0
			c-0.4,0-0.5,0.1-0.6,0.4c-0.9,2.6-3.5,4.3-6.1,4c-2.8-0.3-4.9-2.4-5.3-5.2c-0.4-3.4,2.3-6.5,5.7-6.6c0.5,0,0.7-0.1,0.8-0.6
			c0.2-0.8,0.7-1.6,0.8-2.4c0-0.8-0.4-1.7-0.6-2.5c-1.6-6.4-3.2-12.7-4.8-19.1C1491.1-762.4,1491.1-762.5,1491-762.7 M1499.2-742.1
			h22.7c0.2-1,0.3-1.9,0.5-2.9h-23.9C1498.7-744,1499-743,1499.2-742.1 M1524.6-731.8c0-1.6-1.3-2.9-2.9-2.9c-1.6,0-3,1.3-3,2.9
			c0,1.6,1.3,3,2.9,3C1523.2-728.8,1524.5-730.1,1524.6-731.8 M1495.1-734.7c-1.6,0-3,1.3-3,2.9c0,1.6,1.3,2.9,2.9,3
			c1.6,0,3-1.3,3-2.9C1498.1-733.4,1496.8-734.7,1495.1-734.7"/>
		<path class="st18" d="M1265.9-52.3v35.7c0,0.1-0.1,0.2-0.1,0.3c-0.6,2.7-2.9,4.7-5.6,4.7c-12.8,0-25.5,0-38.3,0
			c-1.9,0-3.4-0.8-4.6-2.3c-0.6-0.8-0.9-1.8-1.2-2.7v-35.7c0,0,0.1-0.1,0.1-0.1c0.4-2.7,2.9-5.1,6.1-4.9c0.6,0,1.3,0,2,0v-3.9h3.9
			v3.8h25.6v-3.8h3.9v3.9c0.9,0,1.6,0,2.4,0c1.9,0.1,3.4,0.8,4.5,2.3C1265.3-54.2,1265.6-53.3,1265.9-52.3 M1220-42.9v0.5
			c0,8.3,0,16.5,0,24.8c0,1.4,0.8,2.2,2.2,2.2c12.5,0,25,0,37.5,0c1.4,0,2.2-0.8,2.2-2.2c0-8.3,0-16.5,0-24.8v-0.5H1220z
			 M1220.1-46.9h42c0-1.6,0-3.2,0-4.7c0-0.9-0.7-1.7-1.6-1.8c-0.9-0.1-1.7,0-2.7,0v3.8h-3.9v-3.8h-25.7v3.8h-3.9v-3.8
			c-0.8,0-1.6,0-2.4,0c-1,0-1.8,0.8-1.8,1.8C1220-50,1220.1-48.5,1220.1-46.9"/>
		<rect x="1223.6" y="-38.9" class="st18" width="3.8" height="3.8"/>
		<rect x="1231.3" y="-38.9" class="st18" width="3.8" height="3.8"/>
		<rect x="1239.1" y="-38.9" class="st18" width="3.8" height="3.8"/>
		<rect x="1246.9" y="-38.9" class="st18" width="3.8" height="3.8"/>
		<rect x="1254.7" y="-38.9" class="st18" width="3.8" height="3.8"/>
		<rect x="1223.6" y="-31.1" class="st18" width="3.8" height="3.8"/>
		<rect x="1231.3" y="-31.1" class="st18" width="3.8" height="3.8"/>
		<rect x="1239.1" y="-31.1" class="st18" width="3.8" height="3.8"/>
		<rect x="1246.9" y="-31.1" class="st18" width="3.8" height="3.8"/>
		<rect x="1254.7" y="-31.1" class="st18" width="3.8" height="3.8"/>
		<rect x="1223.6" y="-23.3" class="st18" width="3.8" height="3.8"/>
		<rect x="1231.3" y="-23.4" class="st18" width="3.8" height="3.8"/>
		<rect x="1239.1" y="-23.4" class="st18" width="3.8" height="3.8"/>
		<rect x="1246.9" y="-23.3" class="st18" width="3.8" height="3.8"/>
		<path class="st18" d="M801.9-52.3v35.7c0,0.1-0.1,0.2-0.1,0.3c-0.6,2.7-2.9,4.7-5.6,4.7c-12.8,0-25.5,0-38.3,0
			c-1.9,0-3.4-0.8-4.6-2.3c-0.6-0.8-0.9-1.8-1.2-2.7v-35.7c0,0,0.1-0.1,0.1-0.1c0.4-2.7,2.9-5.1,6.1-4.9c0.6,0,1.3,0,2,0v-3.9h3.9
			v3.8h25.6v-3.8h3.9v3.9c0.9,0,1.6,0,2.4,0c1.9,0.1,3.4,0.8,4.5,2.3C801.3-54.2,801.6-53.3,801.9-52.3 M756-42.9v0.5
			c0,8.3,0,16.5,0,24.8c0,1.4,0.8,2.2,2.2,2.2c12.5,0,25,0,37.5,0c1.4,0,2.2-0.8,2.2-2.2c0-8.3,0-16.5,0-24.8v-0.5H756z M756.1-46.9
			h42c0-1.6,0-3.2,0-4.7c0-0.9-0.7-1.7-1.6-1.8c-0.9-0.1-1.7,0-2.7,0v3.8h-3.9v-3.8h-25.7v3.8h-3.9v-3.8c-0.8,0-1.6,0-2.4,0
			c-1,0-1.8,0.8-1.8,1.8C756-50,756.1-48.5,756.1-46.9"/>
		<rect x="759.6" y="-38.9" class="st18" width="3.8" height="3.8"/>
		<rect x="767.3" y="-38.9" class="st18" width="3.8" height="3.8"/>
		<rect x="775.1" y="-38.9" class="st18" width="3.8" height="3.8"/>
		<rect x="782.9" y="-38.9" class="st18" width="3.8" height="3.8"/>
		<rect x="790.7" y="-38.9" class="st18" width="3.8" height="3.8"/>
		<rect x="759.6" y="-31.1" class="st18" width="3.8" height="3.8"/>
		<rect x="767.3" y="-31.1" class="st18" width="3.8" height="3.8"/>
		<rect x="775.1" y="-31.1" class="st18" width="3.8" height="3.8"/>
		<rect x="782.9" y="-31.1" class="st18" width="3.8" height="3.8"/>
		<rect x="790.7" y="-31.1" class="st18" width="3.8" height="3.8"/>
		<rect x="759.6" y="-23.3" class="st18" width="3.8" height="3.8"/>
		<rect x="767.3" y="-23.4" class="st18" width="3.8" height="3.8"/>
		<rect x="775.1" y="-23.4" class="st18" width="3.8" height="3.8"/>
		<rect x="782.9" y="-23.3" class="st18" width="3.8" height="3.8"/>
	</g>
	<g class="st0">
		<text transform="matrix(1 0 0 1 747.9792 213.245)" class="st20 st21" style="font-size:27.2663px;">Viaje redondo</text>
	</g>
	<g class="st0">
		<text transform="matrix(1 0 0 1 815.153 -35.8717)" style="font-family:'Poppins-SemiBold'; font-size:21.4166px;">Salida:</text>
	</g>
	<g class="st0">
		<text transform="matrix(1 0 0 1 1282.1637 -35.8717)" style="font-family:'Poppins-SemiBold'; font-size:21.4166px;">Regreso:</text>
	</g>
	<g class="st0">
		<text transform="matrix(1 0 0 1 1216.3004 18.5868)" class="st20 st21" style="font-size:21px;">24/05/20 - 09:00am</text>
	</g>
	<g class="st0">
		<text transform="matrix(1 0 0 1 1216.3004 70.1005)" class="st20 st21" style="font-size:21.9287px;">Calle José Guadalupe, </text>
	</g>
	<g class="st0">
		<text transform="matrix(1 0 0 1 1216.3004 96.4149)" class="st20 st21" style="font-size:21.9287px;">Guadalajara. Jal.</text>
	</g>
	<g class="st0">
		<text transform="matrix(1 0 0 1 752.3005 18.5868)" class="st20 st21" style="font-size:21px;">23/05/17 - 09:00am</text>
	</g>
	<g class="st0">
		<text transform="matrix(1 0 0 1 752.3005 70.1005)" class="st20 st21" style="font-size:21.9287px;">Calle José Guadalupe, </text>
	</g>
	<g class="st0">
		<text transform="matrix(1 0 0 1 752.3005 96.4149)" class="st20 st21" style="font-size:21.9287px;">Guadalajara. Jal.</text>
	</g>
	<g class="st0">
		<text transform="matrix(1 0 0 1 752.3005 147.9257)" class="st20 st21" style="font-size:21.9287px;">Centro de Tequila, Jal. </text>
	</g>
	<g class="st0">
		<defs>
			<rect id="SVGID_35_" x="-354.6" y="-808.8" width="1926" height="1894"/>
		</defs>
		<clipPath id="SVGID_36_">
			<use xlink:href="#SVGID_35_"  style="overflow:visible;"/>
		</clipPath>
		<path class="st19" d="M-155.8-136.2c-0.3-0.9-1.1-1.5-2-1.5h-6.1l-1.9-5.8c-0.3-0.9-1.1-1.5-2-1.5h0c-0.9,0-1.7,0.6-2,1.5
			l-1.9,5.8h-6.1c-0.9,0-1.7,0.6-2,1.5c-0.3,0.9,0,1.8,0.8,2.4l5,3.6l-1.9,5.8c-0.3,0.9,0,1.8,0.8,2.4c0.4,0.3,0.8,0.4,1.3,0.4
			c0.4,0,0.9-0.1,1.3-0.4l5-3.6l4.9,3.6c0.8,0.6,1.7,0.6,2.5,0c0.8-0.6,1.1-1.5,0.8-2.4l-1.9-5.8l4.9-3.6
			C-155.8-134.4-155.5-135.3-155.8-136.2"/>
		<path class="st19" d="M-95.8-136.2c-0.3-0.9-1.1-1.5-2-1.5h-6.1l-1.9-5.8c-0.3-0.9-1.1-1.5-2-1.5h0c-0.9,0-1.7,0.6-2,1.5l-1.9,5.8
			h-6.1c-0.9,0-1.7,0.6-2,1.5c-0.3,0.9,0,1.8,0.8,2.4l5,3.6l-1.9,5.8c-0.3,0.9,0,1.8,0.8,2.4c0.4,0.3,0.8,0.4,1.3,0.4
			c0.4,0,0.9-0.1,1.3-0.4l5-3.6l4.9,3.6c0.8,0.6,1.7,0.6,2.5,0c0.8-0.6,1.1-1.5,0.8-2.4l-1.9-5.8l4.9-3.6
			C-95.8-134.4-95.5-135.3-95.8-136.2"/>
		<path class="st19" d="M-35.8-136.2c-0.3-0.9-1.1-1.5-2-1.5h-6.1l-1.9-5.8c-0.3-0.9-1.1-1.5-2-1.5h0c-0.9,0-1.7,0.6-2,1.5l-1.9,5.8
			h-6.1c-0.9,0-1.7,0.6-2,1.5c-0.3,0.9,0,1.8,0.8,2.4l5,3.6l-1.9,5.8c-0.3,0.9,0,1.8,0.8,2.4c0.4,0.3,0.8,0.4,1.3,0.4
			c0.4,0,0.9-0.1,1.3-0.4l5-3.6l4.9,3.6c0.8,0.6,1.7,0.6,2.5,0c0.8-0.6,1.1-1.5,0.8-2.4l-1.9-5.8l4.9-3.6
			C-35.8-134.4-35.5-135.3-35.8-136.2"/>
		<path class="st19" d="M24.2-136.2c-0.3-0.9-1.1-1.5-2-1.5h-6.1l-1.9-5.8c-0.3-0.9-1.1-1.5-2-1.5h0c-0.9,0-1.7,0.6-2,1.5l-1.9,5.8
			H2.1c-0.9,0-1.7,0.6-2,1.5c-0.3,0.9,0,1.8,0.8,2.4l5,3.6l-1.9,5.8c-0.3,0.9,0,1.8,0.8,2.4c0.4,0.3,0.8,0.4,1.3,0.4
			c0.4,0,0.9-0.1,1.3-0.4l5-3.6l4.9,3.6c0.8,0.6,1.7,0.6,2.5,0c0.8-0.6,1.1-1.5,0.8-2.4l-1.9-5.8l4.9-3.6
			C24.2-134.4,24.5-135.3,24.2-136.2"/>
		<path class="st19" d="M84.2-136.2c-0.3-0.9-1.1-1.5-2-1.5h-6.1l-1.9-5.8c-0.3-0.9-1.1-1.5-2-1.5h0c-0.9,0-1.7,0.6-2,1.5l-1.9,5.8
			h-6.1c-0.9,0-1.7,0.6-2,1.5c-0.3,0.9,0,1.8,0.8,2.4l5,3.6l-1.9,5.8c-0.3,0.9,0,1.8,0.8,2.4c0.4,0.3,0.8,0.4,1.3,0.4
			c0.4,0,0.9-0.1,1.3-0.4l5-3.6l4.9,3.6c0.8,0.6,1.8,0.6,2.5,0c0.8-0.6,1.1-1.5,0.8-2.4l-1.9-5.8l4.9-3.6
			C84.2-134.4,84.5-135.3,84.2-136.2"/>
		<path class="st19" d="M-155.8,8.8c-0.3-0.9-1.1-1.5-2-1.5h-6.1l-1.9-5.8c-0.3-0.9-1.1-1.5-2-1.5h0c-0.9,0-1.7,0.6-2,1.5l-1.9,5.8
			h-6.1c-0.9,0-1.7,0.6-2,1.5c-0.3,0.9,0,1.8,0.8,2.4l5,3.6l-1.9,5.8c-0.3,0.9,0,1.8,0.8,2.4c0.4,0.3,0.8,0.4,1.3,0.4
			c0.4,0,0.9-0.1,1.3-0.4l5-3.6l4.9,3.6c0.8,0.6,1.7,0.6,2.5,0c0.8-0.6,1.1-1.5,0.8-2.4l-1.9-5.8l4.9-3.6
			C-155.8,10.6-155.5,9.7-155.8,8.8"/>
		<path class="st19" d="M-95.8,8.8c-0.3-0.9-1.1-1.5-2-1.5h-6.1l-1.9-5.8c-0.3-0.9-1.1-1.5-2-1.5h0c-0.9,0-1.7,0.6-2,1.5l-1.9,5.8
			h-6.1c-0.9,0-1.7,0.6-2,1.5c-0.3,0.9,0,1.8,0.8,2.4l5,3.6l-1.9,5.8c-0.3,0.9,0,1.8,0.8,2.4c0.4,0.3,0.8,0.4,1.3,0.4
			c0.4,0,0.9-0.1,1.3-0.4l5-3.6l4.9,3.6c0.8,0.6,1.7,0.6,2.5,0c0.8-0.6,1.1-1.5,0.8-2.4l-1.9-5.8l4.9-3.6
			C-95.8,10.6-95.5,9.7-95.8,8.8"/>
		<path class="st19" d="M-35.8,8.8c-0.3-0.9-1.1-1.5-2-1.5h-6.1l-1.9-5.8c-0.3-0.9-1.1-1.5-2-1.5h0c-0.9,0-1.7,0.6-2,1.5l-1.9,5.8
			h-6.1c-0.9,0-1.7,0.6-2,1.5c-0.3,0.9,0,1.8,0.8,2.4l5,3.6l-1.9,5.8c-0.3,0.9,0,1.8,0.8,2.4c0.4,0.3,0.8,0.4,1.3,0.4
			c0.4,0,0.9-0.1,1.3-0.4l5-3.6l4.9,3.6c0.8,0.6,1.7,0.6,2.5,0c0.8-0.6,1.1-1.5,0.8-2.4l-1.9-5.8l4.9-3.6
			C-35.8,10.6-35.5,9.7-35.8,8.8"/>
		<path class="st19" d="M24.2,8.8c-0.3-0.9-1.1-1.5-2-1.5h-6.1l-1.9-5.8c-0.3-0.9-1.1-1.5-2-1.5h0c-0.9,0-1.7,0.6-2,1.5L8.3,7.3H2.1
			c-0.9,0-1.7,0.6-2,1.5c-0.3,0.9,0,1.8,0.8,2.4l5,3.6l-1.9,5.8c-0.3,0.9,0,1.8,0.8,2.4c0.4,0.3,0.8,0.4,1.3,0.4
			c0.4,0,0.9-0.1,1.3-0.4l5-3.6l4.9,3.6c0.8,0.6,1.7,0.6,2.5,0c0.8-0.6,1.1-1.5,0.8-2.4l-1.9-5.8l4.9-3.6
			C24.2,10.6,24.5,9.7,24.2,8.8"/>
		<path class="st19" d="M84.2,8.8c-0.3-0.9-1.1-1.5-2-1.5h-6.1l-1.9-5.8c-0.3-0.9-1.1-1.5-2-1.5h0c-0.9,0-1.7,0.6-2,1.5l-1.9,5.8
			h-6.1c-0.9,0-1.7,0.6-2,1.5c-0.3,0.9,0,1.8,0.8,2.4l5,3.6l-1.9,5.8c-0.3,0.9,0,1.8,0.8,2.4c0.4,0.3,0.8,0.4,1.3,0.4
			c0.4,0,0.9-0.1,1.3-0.4l5-3.6l4.9,3.6c0.8,0.6,1.8,0.6,2.5,0c0.8-0.6,1.1-1.5,0.8-2.4l-1.9-5.8l4.9-3.6
			C84.2,10.6,84.5,9.7,84.2,8.8"/>
		<path class="st19" d="M-155.8,154.8c-0.3-0.9-1.1-1.5-2-1.5h-6.1l-1.9-5.8c-0.3-0.9-1.1-1.5-2-1.5h0c-0.9,0-1.7,0.6-2,1.5
			l-1.9,5.8h-6.1c-0.9,0-1.7,0.6-2,1.5c-0.3,0.9,0,1.8,0.8,2.4l5,3.6l-1.9,5.8c-0.3,0.9,0,1.8,0.8,2.4c0.4,0.3,0.8,0.4,1.3,0.4
			c0.4,0,0.9-0.1,1.3-0.4l5-3.6l4.9,3.6c0.8,0.6,1.7,0.6,2.5,0c0.8-0.6,1.1-1.5,0.8-2.4l-1.9-5.8l4.9-3.6
			C-155.8,156.6-155.5,155.7-155.8,154.8"/>
		<path class="st19" d="M-95.8,154.8c-0.3-0.9-1.1-1.5-2-1.5h-6.1l-1.9-5.8c-0.3-0.9-1.1-1.5-2-1.5h0c-0.9,0-1.7,0.6-2,1.5l-1.9,5.8
			h-6.1c-0.9,0-1.7,0.6-2,1.5c-0.3,0.9,0,1.8,0.8,2.4l5,3.6l-1.9,5.8c-0.3,0.9,0,1.8,0.8,2.4c0.4,0.3,0.8,0.4,1.3,0.4
			c0.4,0,0.9-0.1,1.3-0.4l5-3.6l4.9,3.6c0.8,0.6,1.7,0.6,2.5,0c0.8-0.6,1.1-1.5,0.8-2.4l-1.9-5.8l4.9-3.6
			C-95.8,156.6-95.5,155.7-95.8,154.8"/>
		<path class="st19" d="M-35.8,154.8c-0.3-0.9-1.1-1.5-2-1.5h-6.1l-1.9-5.8c-0.3-0.9-1.1-1.5-2-1.5h0c-0.9,0-1.7,0.6-2,1.5l-1.9,5.8
			h-6.1c-0.9,0-1.7,0.6-2,1.5c-0.3,0.9,0,1.8,0.8,2.4l5,3.6l-1.9,5.8c-0.3,0.9,0,1.8,0.8,2.4c0.4,0.3,0.8,0.4,1.3,0.4
			c0.4,0,0.9-0.1,1.3-0.4l5-3.6l4.9,3.6c0.8,0.6,1.7,0.6,2.5,0c0.8-0.6,1.1-1.5,0.8-2.4l-1.9-5.8l4.9-3.6
			C-35.8,156.6-35.5,155.7-35.8,154.8"/>
		<path class="st19" d="M24.2,154.8c-0.3-0.9-1.1-1.5-2-1.5h-6.1l-1.9-5.8c-0.3-0.9-1.1-1.5-2-1.5h0c-0.9,0-1.7,0.6-2,1.5l-1.9,5.8
			H2.1c-0.9,0-1.7,0.6-2,1.5c-0.3,0.9,0,1.8,0.8,2.4l5,3.6l-1.9,5.8c-0.3,0.9,0,1.8,0.8,2.4c0.4,0.3,0.8,0.4,1.3,0.4
			c0.4,0,0.9-0.1,1.3-0.4l5-3.6l4.9,3.6c0.8,0.6,1.7,0.6,2.5,0c0.8-0.6,1.1-1.5,0.8-2.4l-1.9-5.8l4.9-3.6
			C24.2,156.6,24.5,155.7,24.2,154.8"/>
		<path class="st19" d="M84.2,154.8c-0.3-0.9-1.1-1.5-2-1.5h-6.1l-1.9-5.8c-0.3-0.9-1.1-1.5-2-1.5h0c-0.9,0-1.7,0.6-2,1.5l-1.9,5.8
			h-6.1c-0.9,0-1.7,0.6-2,1.5c-0.3,0.9,0,1.8,0.8,2.4l5,3.6l-1.9,5.8c-0.3,0.9,0,1.8,0.8,2.4c0.4,0.3,0.8,0.4,1.3,0.4
			c0.4,0,0.9-0.1,1.3-0.4l5-3.6l4.9,3.6c0.8,0.6,1.8,0.6,2.5,0c0.8-0.6,1.1-1.5,0.8-2.4l-1.9-5.8l4.9-3.6
			C84.2,156.6,84.5,155.7,84.2,154.8"/>
		<path class="st19" d="M-155.8,303.8c-0.3-0.9-1.1-1.5-2-1.5h-6.1l-1.9-5.8c-0.3-0.9-1.1-1.5-2-1.5h0c-0.9,0-1.7,0.6-2,1.5
			l-1.9,5.8h-6.1c-0.9,0-1.7,0.6-2,1.5c-0.3,0.9,0,1.8,0.8,2.4l5,3.6l-1.9,5.8c-0.3,0.9,0,1.8,0.8,2.4c0.4,0.3,0.8,0.4,1.3,0.4
			c0.4,0,0.9-0.1,1.3-0.4l5-3.6l4.9,3.6c0.8,0.6,1.7,0.6,2.5,0c0.8-0.6,1.1-1.5,0.8-2.4l-1.9-5.8l4.9-3.6
			C-155.8,305.6-155.5,304.7-155.8,303.8"/>
		<path class="st19" d="M-95.8,303.8c-0.3-0.9-1.1-1.5-2-1.5h-6.1l-1.9-5.8c-0.3-0.9-1.1-1.5-2-1.5h0c-0.9,0-1.7,0.6-2,1.5l-1.9,5.8
			h-6.1c-0.9,0-1.7,0.6-2,1.5c-0.3,0.9,0,1.8,0.8,2.4l5,3.6l-1.9,5.8c-0.3,0.9,0,1.8,0.8,2.4c0.4,0.3,0.8,0.4,1.3,0.4
			c0.4,0,0.9-0.1,1.3-0.4l5-3.6l4.9,3.6c0.8,0.6,1.7,0.6,2.5,0c0.8-0.6,1.1-1.5,0.8-2.4l-1.9-5.8l4.9-3.6
			C-95.8,305.6-95.5,304.7-95.8,303.8"/>
		<path class="st19" d="M-35.8,303.8c-0.3-0.9-1.1-1.5-2-1.5h-6.1l-1.9-5.8c-0.3-0.9-1.1-1.5-2-1.5h0c-0.9,0-1.7,0.6-2,1.5l-1.9,5.8
			h-6.1c-0.9,0-1.7,0.6-2,1.5c-0.3,0.9,0,1.8,0.8,2.4l5,3.6l-1.9,5.8c-0.3,0.9,0,1.8,0.8,2.4c0.4,0.3,0.8,0.4,1.3,0.4
			c0.4,0,0.9-0.1,1.3-0.4l5-3.6l4.9,3.6c0.8,0.6,1.7,0.6,2.5,0c0.8-0.6,1.1-1.5,0.8-2.4l-1.9-5.8l4.9-3.6
			C-35.8,305.6-35.5,304.7-35.8,303.8"/>
		<path class="st19" d="M24.2,303.8c-0.3-0.9-1.1-1.5-2-1.5h-6.1l-1.9-5.8c-0.3-0.9-1.1-1.5-2-1.5h0c-0.9,0-1.7,0.6-2,1.5l-1.9,5.8
			H2.1c-0.9,0-1.7,0.6-2,1.5c-0.3,0.9,0,1.8,0.8,2.4l5,3.6l-1.9,5.8c-0.3,0.9,0,1.8,0.8,2.4c0.4,0.3,0.8,0.4,1.3,0.4
			c0.4,0,0.9-0.1,1.3-0.4l5-3.6l4.9,3.6c0.8,0.6,1.7,0.6,2.5,0c0.8-0.6,1.1-1.5,0.8-2.4l-1.9-5.8l4.9-3.6
			C24.2,305.6,24.5,304.7,24.2,303.8"/>
		<path class="st19" d="M84.2,303.8c-0.3-0.9-1.1-1.5-2-1.5h-6.1l-1.9-5.8c-0.3-0.9-1.1-1.5-2-1.5h0c-0.9,0-1.7,0.6-2,1.5l-1.9,5.8
			h-6.1c-0.9,0-1.7,0.6-2,1.5c-0.3,0.9,0,1.8,0.8,2.4l5,3.6l-1.9,5.8c-0.3,0.9,0,1.8,0.8,2.4c0.4,0.3,0.8,0.4,1.3,0.4
			c0.4,0,0.9-0.1,1.3-0.4l5-3.6l4.9,3.6c0.8,0.6,1.8,0.6,2.5,0c0.8-0.6,1.1-1.5,0.8-2.4l-1.9-5.8l4.9-3.6
			C84.2,305.6,84.5,304.7,84.2,303.8"/>
	</g>
	<g class="st0">
		<text transform="matrix(1 0 0 1 -179.743 -160.8995)" class="st20 st21 st22">Servicio en general</text>
	</g>
	<g class="st0">
		<text transform="matrix(1 0 0 1 -179.743 -15.8927)" class="st20 st21 st22">Limpieza de la unidad</text>
	</g>
	<g class="st0">
		<text transform="matrix(1 0 0 1 -179.743 129.1141)" class="st20 st21 st22">Puntualidad</text>
	</g>
	<g class="st0">
		<text transform="matrix(1 0 0 1 -179.743 274.121)" class="st20 st21 st22">Calidad de manejo</text>
	</g>
	<g class="st0">
		<text transform="matrix(1 0 0 1 -167.743 407.1005)" class="st20 st21" style="font-size:21.9287px;">Dejanos tus comentarios (máx. 20 carácteres)</text>
	</g>
	<g class="st0">
		<text transform="matrix(1 0 0 1 1157.2164 -271.8038)" style="font-family:'Poppins-SemiBold'; font-size:32.6842px;">4.9</text>
	</g>
	<g class="st0">
		<text transform="matrix(1 0 0 1 1106.2291 -332.7921)" style="font-family:'Poppins-SemiBold'; font-size:32.6842px;">Calificación</text>
	</g>
	<g class="st0">
		<text transform="matrix(1 0 0 1 1106.2291 -367.797)" style="font-family:'Poppins-SemiBold'; font-size:32.6842px;">Sergio Corona</text>
	</g>
	<g class="st0">
		
			<text transform="matrix(1 0 0 1 1214.2174 -271.8038)" class="st20" style="font-family:'Poppins-Regular'; font-size:32.6842px;">(157 calificaiones)</text>
	</g>
	<g class="st0">
		<defs>
			<rect id="SVGID_37_" x="-354.6" y="-808.8" width="1926" height="1894"/>
		</defs>
		<clipPath id="SVGID_38_">
			<use xlink:href="#SVGID_37_"  style="overflow:visible;"/>
		</clipPath>
		<path class="st23" d="M1144-293.3c-0.6-1.7-2.1-2.8-3.8-2.8h-11.5l-3.6-11c-0.6-1.7-2.1-2.8-3.8-2.8h0c-1.8,0-3.3,1.1-3.8,2.8
			l-3.5,10.9h-11.5c-1.8,0-3.3,1.1-3.8,2.8c-0.5,1.7,0,3.5,1.5,4.5l9.3,6.8l-3.6,10.9c-0.6,1.7,0,3.5,1.4,4.5
			c0.7,0.5,1.5,0.8,2.4,0.8c0.8,0,1.6-0.3,2.4-0.8l9.4-6.8l9.2,6.8c1.4,1,3.3,1.1,4.7,0c1.4-1,2-2.8,1.5-4.5l-3.5-11l9.3-6.8
			C1144-289.9,1144.6-291.7,1144-293.3"/>
		<rect x="-184.6" y="372.2" class="st24" width="1206" height="232"/>
	</g>
</g>
</svg>
