<?xml version="1.0" encoding="utf-8"?>
<!-- Generator: Adobe Illustrator 23.1.1, SVG Export Plug-In . SVG Version: 6.00 Build 0)  -->
<svg version="1.1" id="Layer_1" xmlns="http://www.w3.org/2000/svg" xmlns:xlink="http://www.w3.org/1999/xlink" x="0px" y="0px"
	 viewBox="0 0 27.1 26" style="enable-background:new 0 0 27.1 26;" xml:space="preserve">
<style type="text/css">
	.st0{clip-path:url(#SVGID_2_);}
	.st1{clip-path:url(#SVGID_4_);fill:#4B2DD0;}
	.st2{clip-path:url(#SVGID_6_);}
	.st3{clip-path:url(#SVGID_10_);fill:url(#SVGID_11_);}
	.st4{clip-path:url(#SVGID_13_);fill:none;stroke:#FFFFFF;stroke-width:1.2;stroke-miterlimit:10;}
	.st5{clip-path:url(#SVGID_15_);fill:#FFFFFF;}
	.st6{clip-path:url(#SVGID_15_);fill:none;stroke:#FFFFFF;stroke-miterlimit:10;}
	.st7{clip-path:url(#SVGID_15_);fill:none;stroke:#000000;stroke-miterlimit:10;}
	.st8{clip-path:url(#SVGID_15_);fill:#ED3580;}
	.st9{clip-path:url(#SVGID_17_);}
	.st10{clip-path:url(#SVGID_21_);fill:url(#SVGID_22_);}
	.st11{clip-path:url(#SVGID_24_);fill:none;stroke:#606060;stroke-miterlimit:10;}
	.st12{clip-path:url(#SVGID_26_);fill:#ED3580;}
	.st13{opacity:0.4;clip-path:url(#SVGID_28_);}
	.st14{clip-path:url(#SVGID_30_);}
	.st15{clip-path:url(#SVGID_28_);fill:#FFFFFF;}
	.st16{clip-path:url(#SVGID_28_);fill:#812CD3;}
	.st17{clip-path:url(#SVGID_34_);fill:#4B2DD0;}
	.st18{clip-path:url(#SVGID_34_);fill:#606060;}
	.st19{clip-path:url(#SVGID_36_);fill:#ED3580;}
	.st20{clip-path:url(#SVGID_36_);fill:none;stroke:#ED3580;stroke-width:2;stroke-miterlimit:10;}
	.st21{fill:#606060;}
	.st22{font-family:'Poppins-Medium';}
	.st23{font-size:34.5008px;}
	.st24{clip-path:url(#SVGID_38_);fill:#ED3580;}
	.st25{clip-path:url(#SVGID_38_);fill:none;stroke:#606060;stroke-miterlimit:10;}
</style>
<g>
	<defs>
		<rect id="SVGID_1_" x="-353.3" y="-807.5" width="1926" height="1894"/>
	</defs>
	<clipPath id="SVGID_2_">
		<use xlink:href="#SVGID_1_"  style="overflow:visible;"/>
	</clipPath>
	<g class="st0">
		<defs>
			<rect id="SVGID_3_" x="-353.3" y="-807.5" width="1926" height="1894"/>
		</defs>
		<clipPath id="SVGID_4_">
			<use xlink:href="#SVGID_3_"  style="overflow:visible;"/>
		</clipPath>
		<path class="st1" d="M1464.7,570h-219c-6.6,0-12-5.4-12-12v-48.5c0-6.6,5.4-12,12-12h219c6.6,0,12,5.4,12,12V558
			C1476.7,564.6,1471.3,570,1464.7,570"/>
	</g>
	<g class="st0">
		<defs>
			<path id="SVGID_5_" d="M732.8-308.3C732.1-218,804.7-144.2,895-143.5c90.3,0.7,164.1-71.9,164.8-162.2
				c0.7-90.3-71.9-164.1-162.2-164.8c-0.4,0-0.9,0-1.3,0C806.6-470.5,733.5-398.2,732.8-308.3"/>
		</defs>
		<clipPath id="SVGID_6_">
			<use xlink:href="#SVGID_5_"  style="overflow:visible;"/>
		</clipPath>
		<g class="st2">
			<defs>
				<rect id="SVGID_7_" x="629" y="-484.9" width="451.7" height="378.6"/>
			</defs>
			<clipPath id="SVGID_8_">
				<use xlink:href="#SVGID_7_"  style="overflow:visible;"/>
			</clipPath>
			<g style="clip-path:url(#SVGID_8_);">
				
					<image style="overflow:visible;" width="940" height="788" xlink:href="F7A628F156D15D6B.jpg"  transform="matrix(0.4805 0 0 0.4805 629.0433 -484.8578)">
				</image>
			</g>
		</g>
	</g>
	<g class="st0">
		<text transform="matrix(1 0 0 1 1311.7177 542.6901)" class="st22" style="fill:#FFFFFF; font-size:28.5315px;">Envíar</text>
	</g>
	<g class="st0">
		<defs>
			<rect id="SVGID_9_" x="-348.8" y="672.5" width="1921" height="414"/>
		</defs>
		<clipPath id="SVGID_10_">
			<use xlink:href="#SVGID_9_"  style="overflow:visible;"/>
		</clipPath>
		
			<linearGradient id="SVGID_11_" gradientUnits="userSpaceOnUse" x1="-353.2823" y1="1086.4899" x2="-352.2823" y2="1086.4899" gradientTransform="matrix(1921 0 0 -1921 678306.625 2088026.625)">
			<stop  offset="0" style="stop-color:#812CD3"/>
			<stop  offset="0.9996" style="stop-color:#4B2DD0"/>
			<stop  offset="1" style="stop-color:#4B2DD0"/>
		</linearGradient>
		<rect x="-348.8" y="672.5" class="st3" width="1921" height="414"/>
	</g>
	<g class="st0">
		<text transform="matrix(1 0 0 1 141.3016 782.947)" class="st22" style="fill:#FFFFFF; font-size:24px;">contacto@yogomexico.com</text>
	</g>
	<g class="st0">
		<text transform="matrix(1 0 0 1 -263.6984 782.947)" class="st22" style="fill:#FFFFFF; font-size:24px;">Ingresar</text>
	</g>
	<g class="st0">
		<text transform="matrix(1 0 0 1 -263.6984 836.947)" class="st22" style="fill:#FFFFFF; font-size:24px;">Ventajas</text>
	</g>
	<g class="st0">
		<text transform="matrix(1 0 0 1 -263.6984 887.947)" class="st22" style="fill:#FFFFFF; font-size:24px;">Como ser socio Yogo</text>
	</g>
	<g class="st0">
		<text transform="matrix(1 0 0 1 916.3094 1050.9547)" class="st22" style="fill:#FFFFFF; font-size:24px;">Sitio desarrollado por </text>
	</g>
	<g class="st0">
		<text transform="matrix(1 0 0 1 1181.6776 1050.9547)" class="st22" style="fill:#FFFFFF; font-size:24px;">Toracom</text>
	</g>
	<g class="st0">
		<text transform="matrix(1 0 0 1 1290.661 1050.9547)" class="st22" style="fill:#FFFFFF; font-size:24px;"> y </text>
	</g>
	<g class="st0">
		<text transform="matrix(1 0 0 1 1317.1093 1050.9547)" class="st22" style="fill:#FFFFFF; font-size:24px;">Sitio Random</text>
	</g>
	<g class="st0">
		<defs>
			<rect id="SVGID_12_" x="-353.3" y="-807.5" width="1926" height="1894"/>
		</defs>
		<clipPath id="SVGID_13_">
			<use xlink:href="#SVGID_12_"  style="overflow:visible;"/>
		</clipPath>
		<polygon class="st4" points="1181.7,1053.3 1181.7,1053.3 1290.6,1053.3 		"/>
		<polygon class="st4" points="1317.1,1053.3 1317.1,1053.3 1478.3,1053.3 		"/>
	</g>
	<g class="st0">
		<text transform="matrix(1 0 0 1 681.3016 732.947)" style="fill:#FFFFFF; font-family:'Poppins-ExtraBold'; font-size:24px;">Yogo</text>
	</g>
	<g class="st0">
		<text transform="matrix(1 0 0 1 141.3016 732.947)" style="fill:#FFFFFF; font-family:'Poppins-ExtraBold'; font-size:24px;">Contacto</text>
	</g>
	<g class="st0">
		<text transform="matrix(1 0 0 1 -263.6984 732.947)" style="fill:#FFFFFF; font-family:'Poppins-ExtraBold'; font-size:24px;">Socio Yogo</text>
	</g>
	<g class="st0">
		<text transform="matrix(1 0 0 1 1157.2938 733.4509)" style="fill:#FFFFFF; font-family:'Poppins-ExtraBold'; font-size:24px;">Newsletter</text>
	</g>
	<g class="st0">
		<text transform="matrix(1 0 0 1 681.3016 782.9626)" class="st22" style="fill:#FFFFFF; font-size:24px;">Nosotros</text>
	</g>
	<g class="st0">
		<text transform="matrix(1 0 0 1 681.3016 836.9626)" class="st22" style="fill:#FFFFFF; font-size:24px;">Centro de ayuda</text>
	</g>
	<g class="st0">
		<text transform="matrix(1 0 0 1 681.3016 888.9714)" class="st22" style="fill:#FFFFFF; font-size:24px;">Ayuda sobre el socio</text>
	</g>
	<g class="st0">
		<text transform="matrix(1 0 0 1 141.8055 837.4665)" class="st22" style="fill:#FFFFFF; font-size:24px;">Tel. 333 457 8934</text>
	</g>
	<g class="st0">
		<text transform="matrix(1 0 0 1 170.7977 888.4665)" class="st22" style="fill:#FFFFFF; font-size:24px;">YogoPorti</text>
	</g>
	<g class="st0">
		<text transform="matrix(1 0 0 1 170.7977 942.4665)" class="st22" style="fill:#FFFFFF; font-size:24px;">@Yogo</text>
	</g>
	<g class="st0">
		<text transform="matrix(1 0 0 1 -263.1945 1051.4752)" class="st22" style="fill:#FFFFFF; font-size:24px;">Términos y condiciones</text>
	</g>
	<g class="st0">
		<text transform="matrix(1 0 0 1 564.8055 1051.4752)" class="st22" style="fill:#FFFFFF; font-size:24px;">Información de Yogo</text>
	</g>
	<g class="st0">
		<text transform="matrix(1 0 0 1 183.8055 1051.4752)" class="st22" style="fill:#FFFFFF; font-size:24px;">Aviso de Privacidad</text>
	</g>
	<g class="st0">
		<defs>
			<rect id="SVGID_14_" x="-353.3" y="-807.5" width="1926" height="1894"/>
		</defs>
		<clipPath id="SVGID_15_">
			<use xlink:href="#SVGID_14_"  style="overflow:visible;"/>
		</clipPath>
		<path class="st5" d="M151.1,876.6h-3.2v11.5h-4.8v-11.3c-0.8,0-1.6-0.1-2.4-0.1v-4h2.3c0-1.1,0-2.1,0-3.1c0-0.5,0.1-1.1,0.2-1.6
			c0.4-1.6,1.6-2.5,3.2-2.7c1.6-0.2,3.1-0.2,4.8-0.3v4.4c-0.2,0-0.4,0-0.5,0c-0.7,0-1.4,0-2.1,0c-0.4,0-0.7,0.2-0.7,0.6
			c0,0.8,0,1.7,0,2.6h3.5C151.3,873.9,151.2,875.2,151.1,876.6"/>
		<path class="st5" d="M148.8,944.1c-1.1,0-2.2,0-3.3,0c-1.1,0-2.2,0-3.2-0.3c-2.5-0.6-4.2-2.4-4.7-4.9c-0.2-1.1-0.2-2.2-0.2-3.4
			c0-2.2,0-4.4,0-6.6c0-1,0.1-2.1,0.4-3.1c0.7-2.3,2.3-3.7,4.6-4.3c0.9-0.2,1.7-0.2,2.6-0.2c2.5,0,5,0,7.6,0c1,0,2,0.1,3,0.3
			c2.4,0.7,3.8,2.3,4.4,4.7c0.2,1,0.2,2.1,0.2,3.1c0,2.2,0,4.4,0,6.5c0,1.1,0,2.1-0.3,3.2c-0.6,2.6-2.2,4.1-4.8,4.7
			c-1,0.2-2,0.2-3,0.2C151,944.1,149.9,944.1,148.8,944.1 M139.4,932.7C139.4,932.7,139.4,932.7,139.4,932.7c0,0.8,0,1.7,0,2.5
			c0,1.1,0,2.3,0.2,3.4c0.3,1.6,1.3,2.7,2.9,3.2c0.7,0.2,1.4,0.3,2.2,0.3c2.7,0,5.4,0,8.2,0c0.6,0,1.2-0.1,1.8-0.2
			c1.7-0.3,2.8-1.3,3.2-2.9c0.2-0.7,0.2-1.5,0.2-2.2c0-2.7,0-5.3,0-8c0-0.7,0-1.4-0.2-2.1c-0.3-1.3-1-2.2-2.2-2.8
			c-0.7-0.3-1.4-0.4-2.2-0.5c-1.3,0-2.5-0.1-3.8-0.1c-1.7,0-3.4,0-5,0c-0.7,0-1.3,0.1-2,0.2c-1.4,0.3-2.4,1.1-2.9,2.5
			c-0.2,0.6-0.3,1.2-0.3,1.8C139.5,929.5,139.4,931.1,139.4,932.7"/>
		<path class="st5" d="M143,932.7c0-3.2,2.6-5.9,5.8-5.8c3.3,0,5.9,2.6,5.9,5.9c0,3.2-2.6,5.9-5.9,5.8
			C145.6,938.6,143,935.9,143,932.7 M148.8,928.9c-2.1,0-3.8,1.7-3.8,3.8c0,2.1,1.7,3.8,3.8,3.8c2.1,0,3.8-1.7,3.8-3.8
			C152.6,930.6,150.9,928.9,148.8,928.9"/>
		<path class="st5" d="M154.9,928c-0.7,0-1.4-0.6-1.4-1.3c0-0.7,0.6-1.4,1.3-1.4c0.8,0,1.4,0.6,1.4,1.3
			C156.3,927.4,155.7,928,154.9,928"/>
		<line class="st6" x1="-348.8" y1="975.4" x2="1571.2" y2="975.4"/>
		<path class="st5" d="M1455.7,796.7h-283.2c-6.6,0-12-5.4-12-12v-20.1c0-6.6,5.4-12,12-12h283.2c6.6,0,12,5.4,12,12v20.1
			C1467.7,791.3,1462.3,796.7,1455.7,796.7"/>
		<path class="st7" d="M1455.7,796.7h-283.2c-6.6,0-12-5.4-12-12v-20.1c0-6.6,5.4-12,12-12h283.2c6.6,0,12,5.4,12,12v20.1
			C1467.7,791.3,1462.3,796.7,1455.7,796.7z"/>
		<path class="st8" d="M1455.7,858.7h-146c-6.6,0-12-5.4-12-12v-20.1c0-6.6,5.4-12,12-12h146c6.6,0,12,5.4,12,12v20.1
			C1467.7,853.3,1462.3,858.7,1455.7,858.7"/>
	</g>
	<g class="st0">
		<text transform="matrix(1 0 0 1 1177.3016 782.947)" class="st21 st22" style="font-size:21px;">@ Ingresa tu mail</text>
	</g>
	<g class="st0">
		<text transform="matrix(1 0 0 1 1340.3036 843.9518)" class="st22" style="fill:#FFFFFF; font-size:21px;">Aceptar</text>
	</g>
	<g class="st0">
		<defs>
			<path id="SVGID_16_" d="M1385.3-745.3c-0.1,13.5,10.8,24.5,24.3,24.6c13.5,0.1,24.5-10.8,24.6-24.3c0.1-13.5-10.8-24.5-24.3-24.6
				c-0.1,0-0.1,0-0.2,0C1396.3-769.5,1385.4-758.7,1385.3-745.3"/>
		</defs>
		<clipPath id="SVGID_17_">
			<use xlink:href="#SVGID_16_"  style="overflow:visible;"/>
		</clipPath>
		<g class="st9">
			<defs>
				<rect id="SVGID_18_" x="1381" y="-770" width="60.3" height="60.3"/>
			</defs>
			<clipPath id="SVGID_19_">
				<use xlink:href="#SVGID_18_"  style="overflow:visible;"/>
			</clipPath>
			<g style="clip-path:url(#SVGID_19_);">
				
					<image style="overflow:visible;" width="787" height="787" xlink:href="F7A628F156D15D6E.jpg"  transform="matrix(7.662266e-02 0 0 7.662266e-02 1380.9724 -770.0019)">
				</image>
			</g>
		</g>
	</g>
	<g class="st0">
		<text transform="matrix(1 0 0 1 -163.2823 -730.4456)" style="fill:#8B77E8; font-family:'Poppins-Bold'; font-size:36.0534px;">Logotipo</text>
	</g>
	<g class="st0">
		<defs>
			<path id="SVGID_20_" d="M-227.3-740c0,15.2,12.3,27.5,27.5,27.5s27.5-12.3,27.5-27.5s-12.3-27.5-27.5-27.5
				S-227.3-755.2-227.3-740"/>
		</defs>
		<clipPath id="SVGID_21_">
			<use xlink:href="#SVGID_20_"  style="overflow:visible;"/>
		</clipPath>
		
			<linearGradient id="SVGID_22_" gradientUnits="userSpaceOnUse" x1="-353.2823" y1="1086.4899" x2="-352.2823" y2="1086.4899" gradientTransform="matrix(55 0 0 -55 19203.2461 59016.9336)">
			<stop  offset="0" style="stop-color:#812CD3"/>
			<stop  offset="1" style="stop-color:#4B2DD0"/>
		</linearGradient>
		<rect x="-227.3" y="-767.5" class="st10" width="55" height="55"/>
	</g>
	<g class="st0">
		<defs>
			<rect id="SVGID_23_" x="-353.3" y="-807.5" width="1926" height="1894"/>
		</defs>
		<clipPath id="SVGID_24_">
			<use xlink:href="#SVGID_23_"  style="overflow:visible;"/>
		</clipPath>
		<path class="st11" d="M1416-715h-97.6c-13.4,0-24.3-10.9-24.3-24.3v-11.4c0-13.4,10.9-24.3,24.3-24.3h97.6
			c13.4,0,24.3,10.9,24.3,24.3v11.4C1440.3-725.9,1429.4-715,1416-715z"/>
	</g>
	<g class="st0">
		<text transform="matrix(1 0 0 1 1307.3475 -739.9183)" class="st22" style="font-size:19px;">Enrique</text>
	</g>
	<g class="st0">
		<text transform="matrix(1 0 0 1 1076.3456 -739.9183)" class="st22" style="font-size:19px;">Nosotros</text>
	</g>
	<g class="st0">
		<text transform="matrix(1 0 0 1 1195.3427 -739.9183)" class="st22" style="font-size:19px;">Ayuda</text>
	</g>
	<g class="st0">
		<defs>
			<rect id="SVGID_25_" x="-353.3" y="-807.5" width="1926" height="1894"/>
		</defs>
		<clipPath id="SVGID_26_">
			<use xlink:href="#SVGID_25_"  style="overflow:visible;"/>
		</clipPath>
		<path class="st12" d="M1442.3-766.5c0,6.9-5.6,12.5-12.5,12.5c-6.9,0-12.5-5.6-12.5-12.5c0-6.9,5.6-12.5,12.5-12.5
			C1436.8-779,1442.3-773.4,1442.3-766.5"/>
	</g>
	<g class="st0">
		<text transform="matrix(1 0 0 1 1427.3475 -760.9183)" class="st22" style="fill:#FFFFFF; font-size:15px;">1</text>
	</g>
	<g class="st0">
		<text transform="matrix(1 0 0 1 -183.1085 -505.639)" style="font-family:'Poppins-SemiBold'; font-size:48.7968px;">Califica tu viaje</text>
	</g>
	<g class="st0">
		
			<text transform="matrix(1 0 0 1 -183.1085 -389.6488)" style="fill:#812CD3; font-family:'Poppins-SemiBold'; font-size:48.7968px;">Tu opinión es muy importante</text>
	</g>
	<g class="st0">
		
			<text transform="matrix(1 0 0 1 -183.1085 -331.0931)" style="fill:#812CD3; font-family:'Poppins-SemiBold'; font-size:48.7968px;">para nosotros, nuestra misión</text>
	</g>
	<g class="st0">
		
			<text transform="matrix(1 0 0 1 -183.1085 -272.5365)" style="fill:#812CD3; font-family:'Poppins-SemiBold'; font-size:48.7968px;">es mejorar el servicio para ti.</text>
	</g>
	<g class="st0">
		<defs>
			<rect id="SVGID_27_" x="-353.3" y="-807.5" width="1926" height="1894"/>
		</defs>
		<clipPath id="SVGID_28_">
			<use xlink:href="#SVGID_27_"  style="overflow:visible;"/>
		</clipPath>
		<g class="st13">
			<g>
				<defs>
					<rect id="SVGID_29_" x="1467.2" y="-786.6" width="85" height="85"/>
				</defs>
				<clipPath id="SVGID_30_">
					<use xlink:href="#SVGID_29_"  style="overflow:visible;"/>
				</clipPath>
				<g class="st14">
					<defs>
						<rect id="SVGID_31_" x="1467.2" y="-786.6" width="85" height="85"/>
					</defs>
					<clipPath id="SVGID_32_">
						<use xlink:href="#SVGID_31_"  style="overflow:visible;"/>
					</clipPath>
					<g style="clip-path:url(#SVGID_32_);">
						
							<image style="overflow:visible;" width="85" height="85" xlink:href="F7A628F156D15D6F.png"  transform="matrix(1 0 0 1 1467.2096 -786.6059)">
						</image>
					</g>
				</g>
			</g>
		</g>
		<path class="st15" d="M1518-712.5h-16.8c-13.4,0-24.3-10.9-24.3-24.3v-16.7c0-13.4,10.9-24.3,24.3-24.3h16.8
			c13.4,0,24.3,10.9,24.3,24.3v16.7C1542.3-723.5,1531.4-712.5,1518-712.5"/>
		<path class="st16" d="M1554.9-766c0,6.9-5.6,12.5-12.5,12.5c-6.9,0-12.5-5.6-12.5-12.5c0-6.9,5.6-12.5,12.5-12.5
			C1549.3-778.5,1554.9-772.9,1554.9-766"/>
	</g>
	<g class="st0">
		<text transform="matrix(1 0 0 1 1537.8934 -760.4769)" class="st22" style="fill:#FFFFFF; font-size:15px;">3</text>
	</g>
	<g class="st0">
		<defs>
			<rect id="SVGID_33_" x="-353.3" y="-807.5" width="1926" height="1894"/>
		</defs>
		<clipPath id="SVGID_34_">
			<use xlink:href="#SVGID_33_"  style="overflow:visible;"/>
		</clipPath>
		<path class="st17" d="M1492.4-761.4c-1.1,0-2.1,0-3.2,0c-1.1,0-1.8-1-1.4-2c0.2-0.6,0.7-0.9,1.3-0.9c1.5,0,3,0,4.6,0
			c0.7,0,1.2,0.4,1.4,1.2c0.7,2.8,1.4,5.6,2.1,8.5c0.6,2.6,1.3,5.1,1.9,7.7c0,0.1,0,0.2,0.1,0.3h25.2c0.4-2.4,0.9-4.8,1.3-7.3h-0.6
			c-8,0-16,0-24,0c-1.2,0-2-1-1.6-2c0.2-0.6,0.8-0.9,1.5-0.9c3.8,0,7.7,0,11.5,0c4.9,0,9.8,0,14.6,0c1.3,0,1.9,0.7,1.6,2
			c-0.9,5.2-1.9,10.3-2.8,15.5c-0.2,1.3-0.7,1.7-2,1.7c-7.7,0-15.4,0-23,0c-0.4,0-0.5,0.1-0.6,0.5c-0.2,0.7-0.4,1.3-0.6,2
			c1,0.7,1.8,1.6,2.2,2.8c0.2,0.5,0.4,0.7,1,0.7c4.6,0,9.3,0,13.9,0c0.3,0,0.5-0.1,0.6-0.4c0.9-2.7,3.6-4.4,6.3-4
			c2.9,0.4,5,2.8,5.1,5.6c0.1,3-1.8,5.4-4.7,6c-2.9,0.6-5.8-1-6.7-3.9c-0.1-0.3-0.3-0.4-0.6-0.4c-4.7,0-9.4,0-14.2,0
			c-0.4,0-0.5,0.1-0.6,0.4c-0.9,2.6-3.5,4.3-6.1,4c-2.8-0.3-4.9-2.4-5.3-5.2c-0.4-3.4,2.3-6.5,5.7-6.6c0.5,0,0.7-0.1,0.8-0.6
			c0.2-0.8,0.7-1.6,0.8-2.4c0-0.8-0.4-1.7-0.6-2.5c-1.6-6.4-3.2-12.7-4.8-19.1C1492.5-761,1492.4-761.2,1492.4-761.4 M1500.6-740.8
			h22.7c0.2-1,0.3-1.9,0.5-2.9h-23.9C1500.1-742.7,1500.3-741.7,1500.6-740.8 M1525.9-730.4c0-1.6-1.3-2.9-2.9-2.9
			c-1.6,0-3,1.3-3,2.9c0,1.6,1.3,3,2.9,3C1524.6-727.5,1525.9-728.8,1525.9-730.4 M1496.5-733.4c-1.6,0-3,1.3-3,2.9
			c0,1.6,1.3,2.9,2.9,3c1.6,0,3-1.3,3-2.9C1499.4-732,1498.1-733.4,1496.5-733.4"/>
		<path class="st18" d="M1267.3-51v35.7c0,0.1-0.1,0.2-0.1,0.3c-0.6,2.7-2.9,4.7-5.6,4.7c-12.8,0-25.5,0-38.3,0
			c-1.9,0-3.4-0.8-4.6-2.3c-0.6-0.8-0.9-1.8-1.2-2.7V-51c0,0,0.1-0.1,0.1-0.1c0.4-2.7,2.9-5.1,6.1-4.9c0.6,0,1.3,0,2,0v-3.9h3.9v3.8
			h25.6v-3.8h3.9v3.9c0.9,0,1.6,0,2.4,0c1.9,0.1,3.4,0.8,4.5,2.3C1266.7-52.9,1267-51.9,1267.3-51 M1221.4-41.6v0.5
			c0,8.3,0,16.5,0,24.8c0,1.4,0.8,2.2,2.2,2.2c12.5,0,25,0,37.5,0c1.4,0,2.2-0.8,2.2-2.2c0-8.3,0-16.5,0-24.8v-0.5H1221.4z
			 M1221.4-45.6h42c0-1.6,0-3.2,0-4.7c0-0.9-0.7-1.7-1.6-1.8c-0.9-0.1-1.7,0-2.7,0v3.8h-3.9v-3.8h-25.7v3.8h-3.9v-3.8
			c-0.8,0-1.6,0-2.4,0c-1,0-1.8,0.8-1.8,1.8C1221.4-48.7,1221.4-47.2,1221.4-45.6"/>
		<rect x="1224.9" y="-37.6" class="st18" width="3.8" height="3.8"/>
		<rect x="1232.7" y="-37.5" class="st18" width="3.8" height="3.8"/>
		<rect x="1240.5" y="-37.5" class="st18" width="3.8" height="3.8"/>
		<rect x="1248.3" y="-37.5" class="st18" width="3.8" height="3.8"/>
		<rect x="1256" y="-37.6" class="st18" width="3.8" height="3.8"/>
		<rect x="1224.9" y="-29.8" class="st18" width="3.8" height="3.8"/>
		<rect x="1232.7" y="-29.8" class="st18" width="3.8" height="3.8"/>
		<rect x="1240.5" y="-29.8" class="st18" width="3.8" height="3.8"/>
		<rect x="1248.3" y="-29.8" class="st18" width="3.8" height="3.8"/>
		<rect x="1256" y="-29.8" class="st18" width="3.8" height="3.8"/>
		<rect x="1224.9" y="-22" class="st18" width="3.8" height="3.8"/>
		<rect x="1232.7" y="-22" class="st18" width="3.8" height="3.8"/>
		<rect x="1240.5" y="-22" class="st18" width="3.8" height="3.8"/>
		<rect x="1248.3" y="-22" class="st18" width="3.8" height="3.8"/>
		<path class="st18" d="M803.3-51v35.7c0,0.1-0.1,0.2-0.1,0.3c-0.6,2.7-2.9,4.7-5.6,4.7c-12.8,0-25.5,0-38.3,0
			c-1.9,0-3.4-0.8-4.6-2.3c-0.6-0.8-0.9-1.8-1.2-2.7V-51c0,0,0.1-0.1,0.1-0.1c0.4-2.7,2.9-5.1,6.1-4.9c0.6,0,1.3,0,2,0v-3.9h3.9v3.8
			h25.6v-3.8h3.9v3.9c0.9,0,1.6,0,2.4,0c1.9,0.1,3.4,0.8,4.5,2.3C802.7-52.9,803-51.9,803.3-51 M757.4-41.6v0.5c0,8.3,0,16.5,0,24.8
			c0,1.4,0.8,2.2,2.2,2.2c12.5,0,25,0,37.5,0c1.4,0,2.2-0.8,2.2-2.2c0-8.3,0-16.5,0-24.8v-0.5H757.4z M757.4-45.6h42
			c0-1.6,0-3.2,0-4.7c0-0.9-0.7-1.7-1.6-1.8c-0.9-0.1-1.7,0-2.7,0v3.8h-3.9v-3.8h-25.7v3.8h-3.9v-3.8c-0.8,0-1.6,0-2.4,0
			c-1,0-1.8,0.8-1.8,1.8C757.4-48.7,757.4-47.2,757.4-45.6"/>
		<rect x="760.9" y="-37.6" class="st18" width="3.8" height="3.8"/>
		<rect x="768.7" y="-37.5" class="st18" width="3.8" height="3.8"/>
		<rect x="776.5" y="-37.5" class="st18" width="3.8" height="3.8"/>
		<rect x="784.3" y="-37.5" class="st18" width="3.8" height="3.8"/>
		<rect x="792" y="-37.6" class="st18" width="3.8" height="3.8"/>
		<rect x="760.9" y="-29.8" class="st18" width="3.8" height="3.8"/>
		<rect x="768.7" y="-29.8" class="st18" width="3.8" height="3.8"/>
		<rect x="776.5" y="-29.8" class="st18" width="3.8" height="3.8"/>
		<rect x="784.3" y="-29.8" class="st18" width="3.8" height="3.8"/>
		<rect x="792" y="-29.8" class="st18" width="3.8" height="3.8"/>
		<rect x="760.9" y="-22" class="st18" width="3.8" height="3.8"/>
		<rect x="768.7" y="-22" class="st18" width="3.8" height="3.8"/>
		<rect x="776.5" y="-22" class="st18" width="3.8" height="3.8"/>
		<rect x="784.3" y="-22" class="st18" width="3.8" height="3.8"/>
	</g>
	<g class="st0">
		<text transform="matrix(1 0 0 1 749.3436 214.5544)" class="st21 st22" style="font-size:27.2663px;">Viaje redondo</text>
	</g>
	<g class="st0">
		<text transform="matrix(1 0 0 1 816.5175 -34.5623)" style="font-family:'Poppins-SemiBold'; font-size:21.4166px;">Salida:</text>
	</g>
	<g class="st0">
		<text transform="matrix(1 0 0 1 1283.5282 -34.5623)" style="font-family:'Poppins-SemiBold'; font-size:21.4166px;">Regreso:</text>
	</g>
	<g class="st0">
		<text transform="matrix(1 0 0 1 1217.6649 19.8962)" class="st21 st22" style="font-size:21px;">24/05/20 - 09:00am</text>
	</g>
	<g class="st0">
		<text transform="matrix(1 0 0 1 1217.6649 71.4098)" class="st21 st22" style="font-size:21.9287px;">Calle José Guadalupe, </text>
	</g>
	<g class="st0">
		<text transform="matrix(1 0 0 1 1217.6649 97.7243)" class="st21 st22" style="font-size:21.9287px;">Guadalajara. Jal.</text>
	</g>
	<g class="st0">
		<text transform="matrix(1 0 0 1 753.6649 19.8962)" class="st21 st22" style="font-size:21px;">23/05/17 - 09:00am</text>
	</g>
	<g class="st0">
		<text transform="matrix(1 0 0 1 753.6649 71.4098)" class="st21 st22" style="font-size:21.9287px;">Calle José Guadalupe, </text>
	</g>
	<g class="st0">
		<text transform="matrix(1 0 0 1 753.6649 97.7243)" class="st21 st22" style="font-size:21.9287px;">Guadalajara. Jal.</text>
	</g>
	<g class="st0">
		<text transform="matrix(1 0 0 1 753.6649 149.235)" class="st21 st22" style="font-size:21.9287px;">Centro de Tequila, Jal. </text>
	</g>
	<g class="st0">
		<defs>
			<rect id="SVGID_35_" x="-353.3" y="-807.5" width="1926" height="1894"/>
		</defs>
		<clipPath id="SVGID_36_">
			<use xlink:href="#SVGID_35_"  style="overflow:visible;"/>
		</clipPath>
		<path class="st19" d="M-154.4-134.9c-0.3-0.9-1.1-1.5-2-1.5h-6.1l-1.9-5.8c-0.3-0.9-1.1-1.5-2-1.5h0c-0.9,0-1.7,0.6-2,1.5
			l-1.9,5.8h-6.1c-0.9,0-1.7,0.6-2,1.5c-0.3,0.9,0,1.8,0.8,2.4l5,3.6l-1.9,5.8c-0.3,0.9,0,1.8,0.8,2.4c0.4,0.3,0.8,0.4,1.3,0.4
			c0.4,0,0.9-0.1,1.3-0.4l5-3.6l4.9,3.6c0.8,0.6,1.7,0.6,2.5,0c0.8-0.6,1.1-1.5,0.8-2.4l-1.9-5.8l4.9-3.6
			C-154.4-133.1-154.1-134-154.4-134.9"/>
		<path class="st19" d="M-94.4-134.9c-0.3-0.9-1.1-1.5-2-1.5h-6.1l-1.9-5.8c-0.3-0.9-1.1-1.5-2-1.5h0c-0.9,0-1.7,0.6-2,1.5l-1.9,5.8
			h-6.1c-0.9,0-1.7,0.6-2,1.5c-0.3,0.9,0,1.8,0.8,2.4l5,3.6l-1.9,5.8c-0.3,0.9,0,1.8,0.8,2.4c0.4,0.3,0.8,0.4,1.3,0.4
			c0.4,0,0.9-0.1,1.3-0.4l5-3.6l4.9,3.6c0.8,0.6,1.7,0.6,2.5,0c0.8-0.6,1.1-1.5,0.8-2.4l-1.9-5.8l4.9-3.6
			C-94.4-133.1-94.1-134-94.4-134.9"/>
		<path class="st19" d="M-34.4-134.9c-0.3-0.9-1.1-1.5-2-1.5h-6.1l-1.9-5.8c-0.3-0.9-1.1-1.5-2-1.5h0c-0.9,0-1.7,0.6-2,1.5l-1.9,5.8
			h-6.1c-0.9,0-1.7,0.6-2,1.5c-0.3,0.9,0,1.8,0.8,2.4l5,3.6l-1.9,5.8c-0.3,0.9,0,1.8,0.8,2.4c0.4,0.3,0.8,0.4,1.3,0.4
			c0.4,0,0.9-0.1,1.3-0.4l5-3.6l4.9,3.6c0.8,0.6,1.7,0.6,2.5,0c0.8-0.6,1.1-1.5,0.8-2.4l-1.9-5.8l4.9-3.6
			C-34.4-133.1-34.1-134-34.4-134.9"/>
		<path class="st19" d="M25.6-134.9c-0.3-0.9-1.1-1.5-2-1.5h-6.1l-1.9-5.8c-0.3-0.9-1.1-1.5-2-1.5h0c-0.9,0-1.7,0.6-2,1.5l-1.9,5.8
			H3.5c-0.9,0-1.7,0.6-2,1.5c-0.3,0.9,0,1.8,0.8,2.4l5,3.6l-1.9,5.8c-0.3,0.9,0,1.8,0.8,2.4c0.4,0.3,0.8,0.4,1.3,0.4
			c0.4,0,0.9-0.1,1.3-0.4l5-3.6l4.9,3.6c0.8,0.6,1.7,0.6,2.5,0c0.8-0.6,1.1-1.5,0.8-2.4l-1.9-5.8l4.9-3.6
			C25.6-133.1,25.9-134,25.6-134.9"/>
		<path class="st19" d="M85.6-134.9c-0.3-0.9-1.1-1.5-2-1.5h-6.1l-1.9-5.8c-0.3-0.9-1.1-1.5-2-1.5h0c-0.9,0-1.7,0.6-2,1.5l-1.9,5.8
			h-6.1c-0.9,0-1.7,0.6-2,1.5c-0.3,0.9,0,1.8,0.8,2.4l5,3.6l-1.9,5.8c-0.3,0.9,0,1.8,0.8,2.4c0.4,0.3,0.8,0.4,1.3,0.4
			c0.4,0,0.9-0.1,1.3-0.4l5-3.6l4.9,3.6c0.8,0.6,1.8,0.6,2.5,0c0.8-0.6,1.1-1.5,0.8-2.4l-1.9-5.8l4.9-3.6
			C85.6-133.1,85.9-134,85.6-134.9"/>
		<path class="st19" d="M-154.4,10.1c-0.3-0.9-1.1-1.5-2-1.5h-6.1l-1.9-5.8c-0.3-0.9-1.1-1.5-2-1.5h0c-0.9,0-1.7,0.6-2,1.5l-1.9,5.8
			h-6.1c-0.9,0-1.7,0.6-2,1.5c-0.3,0.9,0,1.8,0.8,2.4l5,3.6l-1.9,5.8c-0.3,0.9,0,1.8,0.8,2.4c0.4,0.3,0.8,0.4,1.3,0.4
			c0.4,0,0.9-0.1,1.3-0.4l5-3.6l4.9,3.6c0.8,0.6,1.7,0.6,2.5,0c0.8-0.6,1.1-1.5,0.8-2.4l-1.9-5.8l4.9-3.6
			C-154.4,11.9-154.1,11-154.4,10.1"/>
		<path class="st19" d="M-94.4,10.1c-0.3-0.9-1.1-1.5-2-1.5h-6.1l-1.9-5.8c-0.3-0.9-1.1-1.5-2-1.5h0c-0.9,0-1.7,0.6-2,1.5l-1.9,5.8
			h-6.1c-0.9,0-1.7,0.6-2,1.5c-0.3,0.9,0,1.8,0.8,2.4l5,3.6l-1.9,5.8c-0.3,0.9,0,1.8,0.8,2.4c0.4,0.3,0.8,0.4,1.3,0.4
			c0.4,0,0.9-0.1,1.3-0.4l5-3.6l4.9,3.6c0.8,0.6,1.7,0.6,2.5,0c0.8-0.6,1.1-1.5,0.8-2.4l-1.9-5.8l4.9-3.6
			C-94.4,11.9-94.1,11-94.4,10.1"/>
		<path class="st19" d="M-34.4,10.1c-0.3-0.9-1.1-1.5-2-1.5h-6.1l-1.9-5.8c-0.3-0.9-1.1-1.5-2-1.5h0c-0.9,0-1.7,0.6-2,1.5l-1.9,5.8
			h-6.1c-0.9,0-1.7,0.6-2,1.5c-0.3,0.9,0,1.8,0.8,2.4l5,3.6l-1.9,5.8c-0.3,0.9,0,1.8,0.8,2.4c0.4,0.3,0.8,0.4,1.3,0.4
			c0.4,0,0.9-0.1,1.3-0.4l5-3.6l4.9,3.6c0.8,0.6,1.7,0.6,2.5,0c0.8-0.6,1.1-1.5,0.8-2.4l-1.9-5.8l4.9-3.6
			C-34.4,11.9-34.1,11-34.4,10.1"/>
		<path class="st20" d="M25.6,10.1c-0.3-0.9-1.1-1.5-2-1.5h-6.1l-1.9-5.8c-0.3-0.9-1.1-1.5-2-1.5h0c-0.9,0-1.7,0.6-2,1.5L9.6,8.6
			H3.5c-0.9,0-1.7,0.6-2,1.5c-0.3,0.9,0,1.8,0.8,2.4l5,3.6l-1.9,5.8c-0.3,0.9,0,1.8,0.8,2.4c0.4,0.3,0.8,0.4,1.3,0.4
			c0.4,0,0.9-0.1,1.3-0.4l5-3.6l4.9,3.6c0.8,0.6,1.7,0.6,2.5,0c0.8-0.6,1.1-1.5,0.8-2.4l-1.9-5.8l4.9-3.6
			C25.6,11.9,25.9,11,25.6,10.1"/>
		<path class="st19" d="M85.6,10.1c-0.3-0.9-1.1-1.5-2-1.5h-6.1l-1.9-5.8c-0.3-0.9-1.1-1.5-2-1.5h0c-0.9,0-1.7,0.6-2,1.5l-1.9,5.8
			h-6.1c-0.9,0-1.7,0.6-2,1.5c-0.3,0.9,0,1.8,0.8,2.4l5,3.6l-1.9,5.8c-0.3,0.9,0,1.8,0.8,2.4c0.4,0.3,0.8,0.4,1.3,0.4
			c0.4,0,0.9-0.1,1.3-0.4l5-3.6l4.9,3.6c0.8,0.6,1.8,0.6,2.5,0c0.8-0.6,1.1-1.5,0.8-2.4l-1.9-5.8l4.9-3.6
			C85.6,11.9,85.9,11,85.6,10.1"/>
		<path class="st19" d="M-154.4,156.1c-0.3-0.9-1.1-1.5-2-1.5h-6.1l-1.9-5.8c-0.3-0.9-1.1-1.5-2-1.5h0c-0.9,0-1.7,0.6-2,1.5
			l-1.9,5.8h-6.1c-0.9,0-1.7,0.6-2,1.5c-0.3,0.9,0,1.8,0.8,2.4l5,3.6l-1.9,5.8c-0.3,0.9,0,1.8,0.8,2.4c0.4,0.3,0.8,0.4,1.3,0.4
			c0.4,0,0.9-0.1,1.3-0.4l5-3.6l4.9,3.6c0.8,0.6,1.7,0.6,2.5,0c0.8-0.6,1.1-1.5,0.8-2.4l-1.9-5.8l4.9-3.6
			C-154.4,157.9-154.1,157-154.4,156.1"/>
		<path class="st19" d="M-94.4,156.1c-0.3-0.9-1.1-1.5-2-1.5h-6.1l-1.9-5.8c-0.3-0.9-1.1-1.5-2-1.5h0c-0.9,0-1.7,0.6-2,1.5l-1.9,5.8
			h-6.1c-0.9,0-1.7,0.6-2,1.5c-0.3,0.9,0,1.8,0.8,2.4l5,3.6l-1.9,5.8c-0.3,0.9,0,1.8,0.8,2.4c0.4,0.3,0.8,0.4,1.3,0.4
			c0.4,0,0.9-0.1,1.3-0.4l5-3.6l4.9,3.6c0.8,0.6,1.7,0.6,2.5,0c0.8-0.6,1.1-1.5,0.8-2.4l-1.9-5.8l4.9-3.6
			C-94.4,157.9-94.1,157-94.4,156.1"/>
		<path class="st19" d="M-34.4,156.1c-0.3-0.9-1.1-1.5-2-1.5h-6.1l-1.9-5.8c-0.3-0.9-1.1-1.5-2-1.5h0c-0.9,0-1.7,0.6-2,1.5l-1.9,5.8
			h-6.1c-0.9,0-1.7,0.6-2,1.5c-0.3,0.9,0,1.8,0.8,2.4l5,3.6l-1.9,5.8c-0.3,0.9,0,1.8,0.8,2.4c0.4,0.3,0.8,0.4,1.3,0.4
			c0.4,0,0.9-0.1,1.3-0.4l5-3.6l4.9,3.6c0.8,0.6,1.7,0.6,2.5,0c0.8-0.6,1.1-1.5,0.8-2.4l-1.9-5.8l4.9-3.6
			C-34.4,157.9-34.1,157-34.4,156.1"/>
		<path class="st19" d="M25.6,156.1c-0.3-0.9-1.1-1.5-2-1.5h-6.1l-1.9-5.8c-0.3-0.9-1.1-1.5-2-1.5h0c-0.9,0-1.7,0.6-2,1.5l-1.9,5.8
			H3.5c-0.9,0-1.7,0.6-2,1.5c-0.3,0.9,0,1.8,0.8,2.4l5,3.6l-1.9,5.8c-0.3,0.9,0,1.8,0.8,2.4c0.4,0.3,0.8,0.4,1.3,0.4
			c0.4,0,0.9-0.1,1.3-0.4l5-3.6l4.9,3.6c0.8,0.6,1.7,0.6,2.5,0c0.8-0.6,1.1-1.5,0.8-2.4l-1.9-5.8l4.9-3.6
			C25.6,157.9,25.9,157,25.6,156.1"/>
		<path class="st19" d="M85.6,156.1c-0.3-0.9-1.1-1.5-2-1.5h-6.1l-1.9-5.8c-0.3-0.9-1.1-1.5-2-1.5h0c-0.9,0-1.7,0.6-2,1.5l-1.9,5.8
			h-6.1c-0.9,0-1.7,0.6-2,1.5c-0.3,0.9,0,1.8,0.8,2.4l5,3.6l-1.9,5.8c-0.3,0.9,0,1.8,0.8,2.4c0.4,0.3,0.8,0.4,1.3,0.4
			c0.4,0,0.9-0.1,1.3-0.4l5-3.6l4.9,3.6c0.8,0.6,1.8,0.6,2.5,0c0.8-0.6,1.1-1.5,0.8-2.4l-1.9-5.8l4.9-3.6
			C85.6,157.9,85.9,157,85.6,156.1"/>
		<path class="st19" d="M-154.4,305.1c-0.3-0.9-1.1-1.5-2-1.5h-6.1l-1.9-5.8c-0.3-0.9-1.1-1.5-2-1.5h0c-0.9,0-1.7,0.6-2,1.5
			l-1.9,5.8h-6.1c-0.9,0-1.7,0.6-2,1.5c-0.3,0.9,0,1.8,0.8,2.4l5,3.6l-1.9,5.8c-0.3,0.9,0,1.8,0.8,2.4c0.4,0.3,0.8,0.4,1.3,0.4
			c0.4,0,0.9-0.1,1.3-0.4l5-3.6l4.9,3.6c0.8,0.6,1.7,0.6,2.5,0c0.8-0.6,1.1-1.5,0.8-2.4l-1.9-5.8l4.9-3.6
			C-154.4,306.9-154.1,306-154.4,305.1"/>
		<path class="st19" d="M-94.4,305.1c-0.3-0.9-1.1-1.5-2-1.5h-6.1l-1.9-5.8c-0.3-0.9-1.1-1.5-2-1.5h0c-0.9,0-1.7,0.6-2,1.5l-1.9,5.8
			h-6.1c-0.9,0-1.7,0.6-2,1.5c-0.3,0.9,0,1.8,0.8,2.4l5,3.6l-1.9,5.8c-0.3,0.9,0,1.8,0.8,2.4c0.4,0.3,0.8,0.4,1.3,0.4
			c0.4,0,0.9-0.1,1.3-0.4l5-3.6l4.9,3.6c0.8,0.6,1.7,0.6,2.5,0c0.8-0.6,1.1-1.5,0.8-2.4l-1.9-5.8l4.9-3.6
			C-94.4,306.9-94.1,306-94.4,305.1"/>
		<path class="st19" d="M-34.4,305.1c-0.3-0.9-1.1-1.5-2-1.5h-6.1l-1.9-5.8c-0.3-0.9-1.1-1.5-2-1.5h0c-0.9,0-1.7,0.6-2,1.5l-1.9,5.8
			h-6.1c-0.9,0-1.7,0.6-2,1.5c-0.3,0.9,0,1.8,0.8,2.4l5,3.6l-1.9,5.8c-0.3,0.9,0,1.8,0.8,2.4c0.4,0.3,0.8,0.4,1.3,0.4
			c0.4,0,0.9-0.1,1.3-0.4l5-3.6l4.9,3.6c0.8,0.6,1.7,0.6,2.5,0c0.8-0.6,1.1-1.5,0.8-2.4l-1.9-5.8l4.9-3.6
			C-34.4,306.9-34.1,306-34.4,305.1"/>
		<path class="st19" d="M25.6,305.1c-0.3-0.9-1.1-1.5-2-1.5h-6.1l-1.9-5.8c-0.3-0.9-1.1-1.5-2-1.5h0c-0.9,0-1.7,0.6-2,1.5l-1.9,5.8
			H3.5c-0.9,0-1.7,0.6-2,1.5c-0.3,0.9,0,1.8,0.8,2.4l5,3.6l-1.9,5.8c-0.3,0.9,0,1.8,0.8,2.4c0.4,0.3,0.8,0.4,1.3,0.4
			c0.4,0,0.9-0.1,1.3-0.4l5-3.6l4.9,3.6c0.8,0.6,1.7,0.6,2.5,0c0.8-0.6,1.1-1.5,0.8-2.4l-1.9-5.8l4.9-3.6
			C25.6,306.9,25.9,306,25.6,305.1"/>
		<path class="st19" d="M85.6,305.1c-0.3-0.9-1.1-1.5-2-1.5h-6.1l-1.9-5.8c-0.3-0.9-1.1-1.5-2-1.5h0c-0.9,0-1.7,0.6-2,1.5l-1.9,5.8
			h-6.1c-0.9,0-1.7,0.6-2,1.5c-0.3,0.9,0,1.8,0.8,2.4l5,3.6l-1.9,5.8c-0.3,0.9,0,1.8,0.8,2.4c0.4,0.3,0.8,0.4,1.3,0.4
			c0.4,0,0.9-0.1,1.3-0.4l5-3.6l4.9,3.6c0.8,0.6,1.8,0.6,2.5,0c0.8-0.6,1.1-1.5,0.8-2.4l-1.9-5.8l4.9-3.6
			C85.6,306.9,85.9,306,85.6,305.1"/>
	</g>
	<g class="st0">
		<text transform="matrix(1 0 0 1 -178.3785 -159.5902)" class="st21 st22 st23">Servicio en general</text>
	</g>
	<g class="st0">
		<text transform="matrix(1 0 0 1 -178.3785 -14.5833)" class="st21 st22 st23">Limpieza de la unidad</text>
	</g>
	<g class="st0">
		<text transform="matrix(1 0 0 1 -178.3785 130.4235)" class="st21 st22 st23">Puntualidad</text>
	</g>
	<g class="st0">
		<text transform="matrix(1 0 0 1 -178.3785 275.4303)" class="st21 st22 st23">Calidad de manejo</text>
	</g>
	<g class="st0">
		<text transform="matrix(1 0 0 1 -166.3785 408.4098)" class="st21 st22" style="font-size:21.9287px;">Dejanos tus comentarios (máx. 20 carácteres)</text>
	</g>
	<g class="st0">
		<text transform="matrix(1 0 0 1 1158.5809 -270.4945)" style="font-family:'Poppins-SemiBold'; font-size:32.6842px;">4.9</text>
	</g>
	<g class="st0">
		<text transform="matrix(1 0 0 1 1107.5936 -331.4828)" style="font-family:'Poppins-SemiBold'; font-size:32.6842px;">Calificación</text>
	</g>
	<g class="st0">
		<text transform="matrix(1 0 0 1 1107.5936 -366.4876)" style="font-family:'Poppins-SemiBold'; font-size:32.6842px;">Sergio Corona</text>
	</g>
	<g class="st0">
		
			<text transform="matrix(1 0 0 1 1215.5819 -270.4945)" class="st21" style="font-family:'Poppins-Regular'; font-size:32.6842px;">(157 calificaiones)</text>
	</g>
	<g class="st0">
		<defs>
			<rect id="SVGID_37_" x="-353.3" y="-807.5" width="1926" height="1894"/>
		</defs>
		<clipPath id="SVGID_38_">
			<use xlink:href="#SVGID_37_"  style="overflow:visible;"/>
		</clipPath>
		<path class="st24" d="M1145.4-292c-0.6-1.7-2.1-2.8-3.8-2.8h-11.5l-3.6-11c-0.6-1.7-2.1-2.8-3.8-2.8h0c-1.8,0-3.3,1.1-3.8,2.8
			l-3.5,10.9h-11.5c-1.8,0-3.3,1.1-3.8,2.8c-0.5,1.7,0,3.5,1.5,4.5l9.3,6.8l-3.6,10.9c-0.6,1.7,0,3.5,1.4,4.5
			c0.7,0.5,1.5,0.8,2.4,0.8c0.8,0,1.6-0.3,2.4-0.8l9.4-6.8l9.2,6.8c1.4,1,3.3,1.1,4.7,0c1.4-1,2-2.8,1.5-4.5l-3.5-11l9.3-6.8
			C1145.4-288.6,1145.9-290.3,1145.4-292"/>
		<rect x="-183.3" y="373.5" class="st25" width="1206" height="232"/>
	</g>
</g>
</svg>
