<?xml version="1.0" encoding="utf-8"?>
<!-- Generator: Adobe Illustrator 24.2.1, SVG Export Plug-In . SVG Version: 6.00 Build 0)  -->
<svg version="1.1" id="Layer_1" xmlns="http://www.w3.org/2000/svg" xmlns:xlink="http://www.w3.org/1999/xlink" x="0px" y="0px"
	 viewBox="0 0 400 400" style="enable-background:new 0 0 400 400;" xml:space="preserve">
<style type="text/css">
	.st0{fill:url(#SVGID_1_);}
	.st1{fill:url(#SVGID_2_);}
	.st2{fill:url(#SVGID_3_);}
	.st3{fill:url(#SVGID_4_);}
	.st4{fill:url(#SVGID_5_);}
	.st5{fill:url(#SVGID_6_);}
	.st6{fill:url(#SVGID_7_);}
	.st7{fill:url(#SVGID_8_);}
	.st8{fill:url(#SVGID_9_);}
	.st9{fill:url(#SVGID_10_);}
	.st10{fill:url(#SVGID_11_);}
	.st11{fill:url(#SVGID_12_);}
	.st12{fill:url(#SVGID_13_);}
	.st13{fill:url(#SVGID_14_);}
	.st14{fill:url(#SVGID_15_);}
	.st15{fill:url(#SVGID_16_);}
	.st16{fill:url(#SVGID_17_);}
	.st17{fill:url(#SVGID_18_);}
	.st18{fill:url(#SVGID_19_);}
	.st19{fill:url(#SVGID_20_);}
	.st20{fill:url(#SVGID_21_);}
	.st21{fill:url(#SVGID_22_);}
</style>
<g id="_x39__2_">
	<g>
		<g>
			<g>
				<g>
					<linearGradient id="SVGID_1_" gradientUnits="userSpaceOnUse" x1="15.427" y1="271.5618" x2="278.3263" y2="252.231">
						<stop  offset="0" style="stop-color:#812CD3"/>
						<stop  offset="0.9996" style="stop-color:#4B2DD0"/>
					</linearGradient>
					<path class="st0" d="M312.9,290.3c-22.4,0-40.7-18.2-40.7-40.7c0-22.4,18.2-40.7,40.7-40.7c22.4,0,40.7,18.2,40.7,40.7
						C353.6,272.1,335.3,290.3,312.9,290.3z M312.9,218.1c-17.4,0-31.6,14.2-31.6,31.6s14.2,31.6,31.6,31.6
						c17.4,0,31.6-14.2,31.6-31.6S330.4,218.1,312.9,218.1z"/>
					<linearGradient id="SVGID_2_" gradientUnits="userSpaceOnUse" x1="15.427" y1="271.5615" x2="278.3262" y2="252.2307">
						<stop  offset="0" style="stop-color:#812CD3"/>
						<stop  offset="0.9996" style="stop-color:#4B2DD0"/>
					</linearGradient>
					<path class="st1" d="M312.9,210.3c21.7,0,39.4,17.7,39.4,39.4c0,21.7-17.7,39.4-39.4,39.4c-21.7,0-39.4-17.7-39.4-39.4
						C273.5,228,291.2,210.3,312.9,210.3 M312.9,282.6c18.1,0,32.9-14.7,32.9-32.9s-14.7-32.9-32.9-32.9
						c-18.1,0-32.9,14.7-32.9,32.9S294.8,282.6,312.9,282.6 M312.9,207.8c-23.1,0-41.9,18.8-41.9,41.9s18.8,41.9,41.9,41.9
						s41.9-18.8,41.9-41.9S336,207.8,312.9,207.8L312.9,207.8z M312.9,280.1c-16.7,0-30.4-13.6-30.4-30.4s13.6-30.4,30.4-30.4
						c16.7,0,30.4,13.6,30.4,30.4S329.7,280.1,312.9,280.1L312.9,280.1z"/>
				</g>
			</g>
			<g>
				<g>
					<linearGradient id="SVGID_3_" gradientUnits="userSpaceOnUse" x1="15.427" y1="271.5612" x2="278.3262" y2="252.2304">
						<stop  offset="0" style="stop-color:#812CD3"/>
						<stop  offset="0.9996" style="stop-color:#4B2DD0"/>
					</linearGradient>
					<path class="st2" d="M312.9,256.5c-3.7,0-6.8-3-6.8-6.8c0-3.7,3-6.8,6.8-6.8s6.8,3,6.8,6.8
						C319.7,253.4,316.7,256.5,312.9,256.5z M312.9,244.9c-2.6,0-4.8,2.1-4.8,4.8c0,2.6,2.1,4.8,4.8,4.8c2.6,0,4.8-2.1,4.8-4.8
						C317.7,247.1,315.6,244.9,312.9,244.9z"/>
					<linearGradient id="SVGID_4_" gradientUnits="userSpaceOnUse" x1="15.427" y1="271.5615" x2="278.3262" y2="252.2307">
						<stop  offset="0" style="stop-color:#812CD3"/>
						<stop  offset="0.9996" style="stop-color:#4B2DD0"/>
					</linearGradient>
					<path class="st3" d="M312.9,241.7c-4.4,0-8,3.6-8,8c0,4.4,3.6,8,8,8c4.4,0,8-3.6,8-8C321,245.3,317.4,241.7,312.9,241.7
						L312.9,241.7z M312.9,253.2c-1.9,0-3.5-1.6-3.5-3.5c0-1.9,1.6-3.5,3.5-3.5c1.9,0,3.5,1.6,3.5,3.5
						C316.4,251.6,314.9,253.2,312.9,253.2L312.9,253.2z"/>
				</g>
			</g>
		</g>
		<g>
			<g>
				<g>
					<linearGradient id="SVGID_5_" gradientUnits="userSpaceOnUse" x1="14.2125" y1="255.0445" x2="277.1118" y2="235.7137">
						<stop  offset="0" style="stop-color:#812CD3"/>
						<stop  offset="0.9996" style="stop-color:#4B2DD0"/>
					</linearGradient>
					<path class="st4" d="M87.1,290.3c-22.4,0-40.7-18.2-40.7-40.7c0-22.4,18.2-40.7,40.7-40.7c22.4,0,40.7,18.2,40.7,40.7
						C127.7,272.1,109.5,290.3,87.1,290.3z M87.1,218.1c-17.4,0-31.6,14.2-31.6,31.6s14.2,31.6,31.6,31.6
						c17.4,0,31.6-14.2,31.6-31.6S104.5,218.1,87.1,218.1z"/>
					<linearGradient id="SVGID_6_" gradientUnits="userSpaceOnUse" x1="14.2125" y1="255.0443" x2="277.1118" y2="235.7134">
						<stop  offset="0" style="stop-color:#812CD3"/>
						<stop  offset="0.9996" style="stop-color:#4B2DD0"/>
					</linearGradient>
					<path class="st5" d="M87.1,210.3c21.7,0,39.4,17.7,39.4,39.4c0,21.7-17.7,39.4-39.4,39.4c-21.7,0-39.4-17.7-39.4-39.4
						C47.7,228,65.3,210.3,87.1,210.3 M87.1,282.6c18.1,0,32.9-14.7,32.9-32.9s-14.7-32.9-32.9-32.9c-18.1,0-32.9,14.7-32.9,32.9
						S69,282.6,87.1,282.6 M87.1,207.8c-23.1,0-41.9,18.8-41.9,41.9s18.8,41.9,41.9,41.9c23.1,0,41.9-18.8,41.9-41.9
						S110.2,207.8,87.1,207.8L87.1,207.8z M87.1,280.1c-16.7,0-30.4-13.6-30.4-30.4s13.6-30.4,30.4-30.4c16.7,0,30.4,13.6,30.4,30.4
						S103.8,280.1,87.1,280.1L87.1,280.1z"/>
				</g>
			</g>
			<g>
				<g>
					<linearGradient id="SVGID_7_" gradientUnits="userSpaceOnUse" x1="14.2125" y1="255.0439" x2="277.1117" y2="235.7131">
						<stop  offset="0" style="stop-color:#812CD3"/>
						<stop  offset="0.9996" style="stop-color:#4B2DD0"/>
					</linearGradient>
					<path class="st6" d="M87.1,256.5c-3.7,0-6.8-3-6.8-6.8c0-3.7,3-6.8,6.8-6.8c3.7,0,6.8,3,6.8,6.8
						C93.9,253.4,90.8,256.5,87.1,256.5z M87.1,244.9c-2.6,0-4.8,2.1-4.8,4.8c0,2.6,2.1,4.8,4.8,4.8c2.6,0,4.8-2.1,4.8-4.8
						C91.8,247.1,89.7,244.9,87.1,244.9z"/>
					<linearGradient id="SVGID_8_" gradientUnits="userSpaceOnUse" x1="14.2125" y1="255.0443" x2="277.1118" y2="235.7134">
						<stop  offset="0" style="stop-color:#812CD3"/>
						<stop  offset="0.9996" style="stop-color:#4B2DD0"/>
					</linearGradient>
					<path class="st7" d="M87.1,241.7c-4.4,0-8,3.6-8,8c0,4.4,3.6,8,8,8c4.4,0,8-3.6,8-8C95.1,245.3,91.5,241.7,87.1,241.7
						L87.1,241.7z M87.1,253.2c-1.9,0-3.5-1.6-3.5-3.5c0-1.9,1.6-3.5,3.5-3.5c1.9,0,3.5,1.6,3.5,3.5C90.6,251.6,89,253.2,87.1,253.2
						L87.1,253.2z"/>
				</g>
			</g>
		</g>
	</g>
	<g>
		<g>
			<linearGradient id="SVGID_9_" gradientUnits="userSpaceOnUse" x1="10.3504" y1="202.52" x2="273.2497" y2="183.1892">
				<stop  offset="0" style="stop-color:#812CD3"/>
				<stop  offset="0.9996" style="stop-color:#4B2DD0"/>
			</linearGradient>
			<path class="st8" d="M376.2,254.2c-1.7,0-3.3-1-4-2.5c-1.1-2.2-0.2-4.9,2-6.1l15.6-7.8V209h-4.5c-2.5,0-4.5-2-4.5-4.5v-43.6
				l-33.8-42.2H205l-0.1,0c-4.6,1-45.7,11.1-78.5,43.8c-0.8,0.8-2,1.3-3.2,1.3c-0.3,0-27,0.1-53.4,5.6
				c-41.7,8.7-50.5,23.9-50.5,35.1c0,1.2-0.5,2.3-1.3,3.2l-7.7,7.7v23.4l6.4,6.4h34.3c2.5,0,4.5,2,4.5,4.5c0,2.5-2,4.5-4.5,4.5H14.8
				c-1.2,0-2.3-0.5-3.2-1.3l-9-9c-0.9-0.9-1.3-2-1.3-3.2v-27.1c0-1.2,0.5-2.3,1.3-3.2l7.8-7.8l0-0.5c0.8-10.9,7.2-20.2,19-27.6
				c9.4-5.9,22.5-10.6,38.7-14c23.1-4.8,46.2-5.6,52.8-5.7l0.5,0l0.4-0.3c36.3-35.3,80.1-44.4,81.9-44.8c0.3-0.1,0.6-0.1,0.9-0.1
				h144.5c1.4,0,2.7,0.6,3.5,1.7l36.1,45.2c0.6,0.8,1,1.8,1,2.8V200h4.5c2.5,0,4.5,2,4.5,4.5v36.1c0,1.7-1,3.3-2.5,4l-18.1,9
				C377.5,254,376.9,254.2,376.2,254.2z"/>
			<linearGradient id="SVGID_10_" gradientUnits="userSpaceOnUse" x1="10.3504" y1="202.5202" x2="273.2497" y2="183.1894">
				<stop  offset="0" style="stop-color:#812CD3"/>
				<stop  offset="0.9996" style="stop-color:#4B2DD0"/>
			</linearGradient>
			<path class="st9" d="M349.1,110.9c1,0,1.9,0.4,2.5,1.2l36.1,45.2c0.5,0.6,0.7,1.3,0.7,2v39.4v2.5h2.5h3.3c1.8,0,3.3,1.5,3.3,3.3
				v36.1c0,1.2-0.7,2.4-1.8,2.9l-18.1,9c-0.5,0.2-0.9,0.3-1.5,0.3c-1.2,0-2.4-0.7-2.9-1.8c-0.4-0.8-0.5-1.7-0.2-2.5
				c0.3-0.8,0.9-1.5,1.6-1.9l14.9-7.4l1.4-0.7v-1.5v-26.8v-2.5h-2.5h-3.3c-1.8,0-3.3-1.5-3.3-3.3v-43.1v-0.9l-0.5-0.7l-33.1-41.4
				l-0.8-0.9h-1.2H205.1h-0.3l-0.3,0.1c-4.6,1-46.1,11.2-79.1,44.2c-0.6,0.6-1.4,1-2.3,1c-0.3,0-27.2,0.1-53.7,5.6
				c-23.5,4.9-51.5,15.2-51.5,36.3c0,0.9-0.3,1.7-1,2.3l-7.3,7.3L9,214.9v1v22.3v1l0.7,0.7l5.7,5.7l0.7,0.7h1h33.7
				c1.8,0,3.3,1.5,3.3,3.3c0,1.8-1.5,3.3-3.3,3.3H14.8c-0.9,0-1.7-0.3-2.3-1l-9-9c-0.6-0.6-1-1.4-1-2.3v-27.1c0-0.9,0.3-1.7,1-2.3
				l7.4-7.4l0.7-0.7l0.1-0.9c0.8-10.5,7-19.4,18.4-26.6c9.3-5.8,22.2-10.5,38.3-13.8c23-4.8,46-5.6,52.5-5.7l1,0l0.7-0.7
				c36.1-35.1,79.5-44.1,81.3-44.4c0.2,0,0.4-0.1,0.6-0.1H349.1 M349.1,108.4H204.5c-0.4,0-0.8,0-1.1,0.1
				c-1.9,0.4-45.9,9.5-82.6,45.1c-7.3,0.1-30,0.9-53,5.7c-16.4,3.4-29.6,8.2-39.1,14.2C16.5,181.1,10,190.7,9.1,202l-7.4,7.4
				C0.6,210.6,0,212,0,213.6v27.1c0,1.5,0.6,3,1.7,4.1l9,9c1.1,1.1,2.5,1.7,4.1,1.7h36.1c3.2,0,5.8-2.6,5.8-5.8
				c0-3.2-2.6-5.8-5.8-5.8H17.2l-5.7-5.7v-22.3l7.3-7.3c1.1-1.1,1.7-2.5,1.7-4.1c0-10.7,8.6-25.3,49.5-33.8
				c26.2-5.5,52.9-5.6,53.2-5.6c1.5,0,3-0.6,4.1-1.7c32.4-32.4,72.8-42.3,77.8-43.5h141.2l33.1,41.4v43.1c0,3.2,2.6,5.8,5.8,5.8h3.3
				v26.8l-14.9,7.4c-2.9,1.4-4,4.9-2.6,7.7c1,2,3,3.2,5.2,3.2c0.9,0,1.7-0.2,2.6-0.6l18.1-9c2-1,3.2-3,3.2-5.2v-36.1
				c0-3.2-2.6-5.8-5.8-5.8H391v-39.4c0-1.3-0.4-2.6-1.3-3.6l-36.1-45.2C352.5,109.2,350.8,108.4,349.1,108.4L349.1,108.4z"/>
		</g>
	</g>
	<g>
		<g>
			<linearGradient id="SVGID_11_" gradientUnits="userSpaceOnUse" x1="14.8926" y1="264.2936" x2="277.7918" y2="244.9628">
				<stop  offset="0" style="stop-color:#812CD3"/>
				<stop  offset="0.9996" style="stop-color:#4B2DD0"/>
			</linearGradient>
			<path class="st10" d="M150.3,254.2c-2.5,0-4.5-2-4.5-4.5c0-2.5,2-4.5,4.5-4.5h126.5c2.5,0,4.5,2,4.5,4.5c0,2.5-2,4.5-4.5,4.5
				H150.3z"/>
			<linearGradient id="SVGID_12_" gradientUnits="userSpaceOnUse" x1="14.8926" y1="264.2939" x2="277.7919" y2="244.9631">
				<stop  offset="0" style="stop-color:#812CD3"/>
				<stop  offset="0.9996" style="stop-color:#4B2DD0"/>
			</linearGradient>
			<path class="st11" d="M276.8,246.4c1.8,0,3.3,1.5,3.3,3.3c0,1.8-1.5,3.3-3.3,3.3H150.3c-1.8,0-3.3-1.5-3.3-3.3
				c0-1.8,1.5-3.3,3.3-3.3H276.8 M276.8,243.9H150.3c-3.2,0-5.8,2.6-5.8,5.8c0,3.2,2.6,5.8,5.8,5.8h126.5c3.2,0,5.8-2.6,5.8-5.8
				C282.6,246.5,280,243.9,276.8,243.9L276.8,243.9z"/>
		</g>
	</g>
	<g>
		<g>
			<linearGradient id="SVGID_13_" gradientUnits="userSpaceOnUse" x1="9.165" y1="186.3982" x2="272.0642" y2="167.0674">
				<stop  offset="0" style="stop-color:#812CD3"/>
				<stop  offset="0.9996" style="stop-color:#4B2DD0"/>
			</linearGradient>
			<path class="st12" d="M150.3,172.9c-2.5,0-4.5-2-4.5-4.5c0-2.5,2-4.5,4.5-4.5h207.8c2.5,0,4.5,2,4.5,4.5c0,2.5-2,4.5-4.5,4.5
				H150.3z"/>
			<linearGradient id="SVGID_14_" gradientUnits="userSpaceOnUse" x1="9.165" y1="186.3982" x2="272.0642" y2="167.0673">
				<stop  offset="0" style="stop-color:#812CD3"/>
				<stop  offset="0.9996" style="stop-color:#4B2DD0"/>
			</linearGradient>
			<path class="st13" d="M358.1,165.1c1.8,0,3.3,1.5,3.3,3.3s-1.5,3.3-3.3,3.3H150.3c-1.8,0-3.3-1.5-3.3-3.3s1.5-3.3,3.3-3.3H358.1
				 M358.1,162.6H150.3c-3.2,0-5.8,2.6-5.8,5.8c0,3.2,2.6,5.8,5.8,5.8h207.8c3.2,0,5.8-2.6,5.8-5.8
				C363.9,165.2,361.3,162.6,358.1,162.6L358.1,162.6z"/>
		</g>
	</g>
	<g>
		<g>
			<linearGradient id="SVGID_15_" gradientUnits="userSpaceOnUse" x1="7.2072" y1="159.7719" x2="270.1064" y2="140.4411">
				<stop  offset="0" style="stop-color:#812CD3"/>
				<stop  offset="0.9996" style="stop-color:#4B2DD0"/>
			</linearGradient>
			<path class="st14" d="M258.7,163.9c-2.5,0-4.5-2-4.5-4.5v-36.1c0-2.5,2-4.5,4.5-4.5s4.5,2,4.5,4.5v36.1
				C263.2,161.8,261.2,163.9,258.7,163.9z"/>
			<linearGradient id="SVGID_16_" gradientUnits="userSpaceOnUse" x1="7.2072" y1="159.7722" x2="270.1064" y2="140.4414">
				<stop  offset="0" style="stop-color:#812CD3"/>
				<stop  offset="0.9996" style="stop-color:#4B2DD0"/>
			</linearGradient>
			<path class="st15" d="M258.7,119.9c1.8,0,3.3,1.5,3.3,3.3v36.1c0,1.8-1.5,3.3-3.3,3.3c-1.8,0-3.3-1.5-3.3-3.3v-36.1
				C255.5,121.4,256.9,119.9,258.7,119.9 M258.7,117.4c-3.2,0-5.8,2.6-5.8,5.8v36.1c0,3.2,2.6,5.8,5.8,5.8c3.2,0,5.8-2.6,5.8-5.8
				v-36.1C264.5,120,261.9,117.4,258.7,117.4L258.7,117.4z"/>
		</g>
	</g>
	<g>
		<g>
			<linearGradient id="SVGID_17_" gradientUnits="userSpaceOnUse" x1="11.0499" y1="212.0328" x2="273.9491" y2="192.7019">
				<stop  offset="0" style="stop-color:#812CD3"/>
				<stop  offset="0.9996" style="stop-color:#4B2DD0"/>
			</linearGradient>
			<path class="st16" d="M231.6,200c-2.5,0-4.5-2-4.5-4.5c0-2.5,2-4.5,4.5-4.5h9c2.5,0,4.5,2,4.5,4.5c0,2.5-2,4.5-4.5,4.5H231.6z"/>
			<linearGradient id="SVGID_18_" gradientUnits="userSpaceOnUse" x1="11.0499" y1="212.0328" x2="273.9491" y2="192.7019">
				<stop  offset="0" style="stop-color:#812CD3"/>
				<stop  offset="0.9996" style="stop-color:#4B2DD0"/>
			</linearGradient>
			<path class="st17" d="M240.7,192.2c1.8,0,3.3,1.5,3.3,3.3s-1.5,3.3-3.3,3.3h-9c-1.8,0-3.3-1.5-3.3-3.3s1.5-3.3,3.3-3.3H240.7
				 M240.7,189.7h-9c-3.2,0-5.8,2.6-5.8,5.8s2.6,5.8,5.8,5.8h9c3.2,0,5.8-2.6,5.8-5.8S243.8,189.7,240.7,189.7L240.7,189.7z"/>
		</g>
	</g>
	<g>
		<g>
			<linearGradient id="SVGID_19_" gradientUnits="userSpaceOnUse" x1="12.4151" y1="230.5989" x2="275.3143" y2="211.2681">
				<stop  offset="0" style="stop-color:#812CD3"/>
				<stop  offset="0.9996" style="stop-color:#4B2DD0"/>
			</linearGradient>
			<path class="st18" d="M349.1,209c-2.5,0-4.5-2-4.5-4.5s2-4.5,4.5-4.5h36.1c2.5,0,4.5,2,4.5,4.5s-2,4.5-4.5,4.5H349.1z"/>
			<linearGradient id="SVGID_20_" gradientUnits="userSpaceOnUse" x1="12.415" y1="230.5983" x2="275.3142" y2="211.2675">
				<stop  offset="0" style="stop-color:#812CD3"/>
				<stop  offset="0.9996" style="stop-color:#4B2DD0"/>
			</linearGradient>
			<path class="st19" d="M385.2,201.3c1.8,0,3.3,1.5,3.3,3.3s-1.5,3.3-3.3,3.3h-36.1c-1.8,0-3.3-1.5-3.3-3.3s1.5-3.3,3.3-3.3H385.2
				 M385.2,198.7h-36.1c-3.2,0-5.8,2.6-5.8,5.8s2.6,5.8,5.8,5.8h36.1c3.2,0,5.8-2.6,5.8-5.8S388.4,198.7,385.2,198.7L385.2,198.7z"
				/>
		</g>
	</g>
	<g>
		<g>
			<linearGradient id="SVGID_21_" gradientUnits="userSpaceOnUse" x1="10.6176" y1="206.1534" x2="273.5168" y2="186.8225">
				<stop  offset="0" style="stop-color:#812CD3"/>
				<stop  offset="0.9996" style="stop-color:#4B2DD0"/>
			</linearGradient>
			<path class="st20" d="M14.8,209c-2.5,0-4.5-2-4.5-4.5s2-4.5,4.5-4.5h36.1c2.5,0,4.5,2,4.5,4.5s-2,4.5-4.5,4.5H14.8z"/>
			<linearGradient id="SVGID_22_" gradientUnits="userSpaceOnUse" x1="10.6175" y1="206.1528" x2="273.5168" y2="186.8219">
				<stop  offset="0" style="stop-color:#812CD3"/>
				<stop  offset="0.9996" style="stop-color:#4B2DD0"/>
			</linearGradient>
			<path class="st21" d="M50.9,201.3c1.8,0,3.3,1.5,3.3,3.3s-1.5,3.3-3.3,3.3H14.8c-1.8,0-3.3-1.5-3.3-3.3s1.5-3.3,3.3-3.3H50.9
				 M50.9,198.7H14.8c-3.2,0-5.8,2.6-5.8,5.8s2.6,5.8,5.8,5.8h36.1c3.2,0,5.8-2.6,5.8-5.8S54.1,198.7,50.9,198.7L50.9,198.7z"/>
		</g>
	</g>
</g>
</svg>
