<?xml version="1.0" encoding="utf-8"?>
<!-- Generator: Adobe Illustrator 23.1.1, SVG Export Plug-In . SVG Version: 6.00 Build 0)  -->
<svg version="1.1" id="Layer_1" xmlns="http://www.w3.org/2000/svg" xmlns:xlink="http://www.w3.org/1999/xlink" x="0px" y="0px"
	 viewBox="0 0 400 400" style="enable-background:new 0 0 400 400;" xml:space="preserve">
<style type="text/css">
	.st0{fill:#4B2DD0;}
</style>
<path class="st0" d="M234.4,147.1c-6.4,17.4-10.4,36.3-19.6,52.1c-27.3,46.7-56.6,92.3-85.3,138.2c-10,16-16.4,15.8-26.2,0.1
	C75.8,293,48,248.8,20.8,204.2c-26.3-43.1-24.9-85.2,3.4-122.5c26.7-35.2,78.3-52.5,121.7-40.8C197.1,54.8,231.4,97,234.4,147.1
	 M116.5,320.2c29.9-49,59-94.6,85.6-141.7c6.6-11.7,8.7-28.5,6.9-42.2c-7-53-62-88.7-114.1-75.9C39.4,74,5.7,132.3,30.4,178.4
	C56,226,86.4,271,116.5,320.2"/>
<path class="st0" d="M116.5,205.2c-31.8,0-57.4-26-56.9-57.9c0.4-31.6,25.4-56.2,57-56.2c31,0,56.9,25.5,57.4,56.3
	C174.5,178.5,147.9,205.2,116.5,205.2 M116.3,111.7c-20.1,0.1-35.8,15.7-36,35.9c-0.2,20.8,15.6,36.8,36.5,36.8
	c19.8,0,36-16.1,36.2-35.8C153.2,128.1,136.7,111.6,116.3,111.7"/>
<path class="st0" d="M247.5,361.5c-31.7,0-62.1-9.7-87.8-28.1l13.5-19c21.8,15.5,47.5,23.7,74.3,23.7c70.6,0,128.1-57.5,128.1-128.1
	c0-70.6-57.5-128.1-128.1-128.1V58.8c83.5,0,151.4,67.9,151.4,151.4C398.8,293.6,330.9,361.5,247.5,361.5"/>
<polygon class="st0" points="332.4,280.5 266.9,215 266.9,132.5 290.1,132.5 290.1,205.3 348.8,264 "/>
</svg>
