<?xml version="1.0" encoding="utf-8"?>
<!-- Generator: Adobe Illustrator 24.2.1, SVG Export Plug-In . SVG Version: 6.00 Build 0)  -->
<svg version="1.1" id="Layer_1" xmlns="http://www.w3.org/2000/svg" xmlns:xlink="http://www.w3.org/1999/xlink" x="0px" y="0px"
	 viewBox="0 0 400 400" style="enable-background:new 0 0 400 400;" xml:space="preserve">
<style type="text/css">
	.st0{fill:url(#SVGID_1_);}
	.st1{fill:url(#SVGID_2_);}
	.st2{fill:url(#SVGID_3_);}
	.st3{fill:url(#SVGID_4_);}
	.st4{fill:url(#SVGID_5_);}
	.st5{fill:url(#SVGID_6_);}
	.st6{fill:url(#SVGID_7_);}
	.st7{fill:url(#SVGID_8_);}
	.st8{fill:url(#SVGID_9_);}
	.st9{fill:url(#SVGID_10_);}
	.st10{fill:url(#SVGID_11_);}
	.st11{fill:url(#SVGID_12_);}
	.st12{fill:url(#SVGID_13_);}
	.st13{fill:url(#SVGID_14_);}
	.st14{fill:url(#SVGID_15_);}
	.st15{fill:url(#SVGID_16_);}
	.st16{fill:url(#SVGID_17_);}
	.st17{fill:url(#SVGID_18_);}
	.st18{fill:url(#SVGID_19_);}
	.st19{fill:url(#SVGID_20_);}
	.st20{fill:url(#SVGID_21_);}
	.st21{fill:url(#SVGID_22_);}
	.st22{fill:url(#SVGID_23_);}
	.st23{fill:url(#SVGID_24_);}
	.st24{fill:url(#SVGID_25_);}
	.st25{fill:url(#SVGID_26_);}
	.st26{fill:url(#SVGID_27_);}
	.st27{fill:url(#SVGID_28_);}
	.st28{fill:url(#SVGID_29_);}
	.st29{fill:url(#SVGID_30_);}
	.st30{fill:url(#SVGID_31_);}
	.st31{fill:url(#SVGID_32_);}
	.st32{fill:url(#SVGID_33_);}
</style>
<g id="_x31_6_2_">
	<g>
		<g>
			<g>
				<g>
					<g>
						<linearGradient id="SVGID_1_" gradientUnits="userSpaceOnUse" x1="4.3846" y1="265.6277" x2="266.507" y2="265.6277">
							<stop  offset="0" style="stop-color:#812CD3"/>
							<stop  offset="0.9996" style="stop-color:#4B2DD0"/>
						</linearGradient>
						<path class="st0" d="M307.8,309.8c-24.3,0-44.1-19.8-44.1-44.1c0-24.3,19.8-44.1,44.1-44.1c24.3,0,44.1,19.8,44.1,44.1
							C351.9,290,332.1,309.8,307.8,309.8z M307.8,234.8c-17,0-30.9,13.9-30.9,30.9c0,17,13.9,30.9,30.9,30.9
							c17,0,30.9-13.9,30.9-30.9C338.7,248.6,324.8,234.8,307.8,234.8z"/>
						<linearGradient id="SVGID_2_" gradientUnits="userSpaceOnUse" x1="4.3846" y1="265.6277" x2="266.507" y2="265.6277">
							<stop  offset="0" style="stop-color:#812CD3"/>
							<stop  offset="0.9996" style="stop-color:#4B2DD0"/>
						</linearGradient>
						<path class="st1" d="M307.8,221.9c24.1,0,43.7,19.6,43.7,43.7c0,24.1-19.6,43.7-43.7,43.7c-24.1,0-43.7-19.6-43.7-43.7
							C264.1,241.5,283.7,221.9,307.8,221.9 M307.8,296.9c17.2,0,31.3-14,31.3-31.3c0-17.2-14-31.3-31.3-31.3s-31.3,14-31.3,31.3
							C276.5,282.9,290.6,296.9,307.8,296.9 M307.8,221.1c-24.5,0-44.5,20-44.5,44.5c0,24.5,20,44.5,44.5,44.5
							c24.5,0,44.5-20,44.5-44.5C352.3,241.1,332.4,221.1,307.8,221.1L307.8,221.1z M307.8,296.1c-16.8,0-30.5-13.7-30.5-30.5
							c0-16.8,13.7-30.5,30.5-30.5s30.5,13.7,30.5,30.5C338.3,282.4,324.6,296.1,307.8,296.1L307.8,296.1z"/>
					</g>
					<linearGradient id="SVGID_3_" gradientUnits="userSpaceOnUse" x1="4.3846" y1="265.6277" x2="266.507" y2="265.6277">
						<stop  offset="0" style="stop-color:#812CD3"/>
						<stop  offset="0.9996" style="stop-color:#4B2DD0"/>
					</linearGradient>
					<path class="st2" d="M307.8,221.9c24.1,0,43.7,19.6,43.7,43.7s-19.6,43.7-43.7,43.7c-24.1,0-43.7-19.6-43.7-43.7
						S283.7,221.9,307.8,221.9 M307.8,296.9c17.2,0,31.3-14,31.3-31.3s-14-31.3-31.3-31.3c-17.2,0-31.3,14-31.3,31.3
						S290.6,296.9,307.8,296.9 M307.8,220.3c-25,0-45.3,20.3-45.3,45.3c0,25,20.3,45.3,45.3,45.3c25,0,45.3-20.3,45.3-45.3
						C353.1,240.6,332.8,220.3,307.8,220.3L307.8,220.3z M307.8,295.3c-16.4,0-29.7-13.3-29.7-29.7s13.3-29.7,29.7-29.7
						c16.4,0,29.7,13.3,29.7,29.7S324.2,295.3,307.8,295.3L307.8,295.3z"/>
				</g>
			</g>
			<g>
				<g>
					<g>
						<linearGradient id="SVGID_4_" gradientUnits="userSpaceOnUse" x1="4.3846" y1="265.6277" x2="266.507" y2="265.6277">
							<stop  offset="0" style="stop-color:#812CD3"/>
							<stop  offset="0.9996" style="stop-color:#4B2DD0"/>
						</linearGradient>
						<path class="st3" d="M307.8,274.6c-4.9,0-9-4-9-9c0-4.9,4-9,9-9c4.9,0,9,4,9,9C316.8,270.6,312.8,274.6,307.8,274.6z
							 M307.8,262.1c-1.9,0-3.5,1.6-3.5,3.5c0,1.9,1.6,3.5,3.5,3.5c1.9,0,3.5-1.6,3.5-3.5C311.3,263.7,309.7,262.1,307.8,262.1z"/>
						<linearGradient id="SVGID_5_" gradientUnits="userSpaceOnUse" x1="4.3846" y1="265.6277" x2="266.507" y2="265.6277">
							<stop  offset="0" style="stop-color:#812CD3"/>
							<stop  offset="0.9996" style="stop-color:#4B2DD0"/>
						</linearGradient>
						<path class="st4" d="M307.8,257.1c4.7,0,8.6,3.8,8.6,8.6c0,4.7-3.8,8.6-8.6,8.6c-4.7,0-8.6-3.8-8.6-8.6
							C299.2,260.9,303.1,257.1,307.8,257.1 M307.8,269.5c2.1,0,3.9-1.7,3.9-3.9c0-2.1-1.7-3.9-3.9-3.9c-2.1,0-3.9,1.7-3.9,3.9
							C303.9,267.8,305.7,269.5,307.8,269.5 M307.8,256.3c-5.2,0-9.4,4.2-9.4,9.4c0,5.2,4.2,9.4,9.4,9.4s9.4-4.2,9.4-9.4
							C317.2,260.5,313,256.3,307.8,256.3L307.8,256.3z M307.8,268.7c-1.7,0-3.1-1.4-3.1-3.1c0-1.7,1.4-3.1,3.1-3.1
							c1.7,0,3.1,1.4,3.1,3.1C310.9,267.3,309.5,268.7,307.8,268.7L307.8,268.7z"/>
					</g>
					<linearGradient id="SVGID_6_" gradientUnits="userSpaceOnUse" x1="4.3846" y1="265.6277" x2="266.507" y2="265.6277">
						<stop  offset="0" style="stop-color:#812CD3"/>
						<stop  offset="0.9996" style="stop-color:#4B2DD0"/>
					</linearGradient>
					<path class="st5" d="M307.8,257.1c4.7,0,8.6,3.8,8.6,8.6s-3.8,8.6-8.6,8.6c-4.7,0-8.6-3.8-8.6-8.6S303.1,257.1,307.8,257.1
						 M307.8,269.5c2.1,0,3.9-1.7,3.9-3.9c0-2.1-1.7-3.9-3.9-3.9c-2.1,0-3.9,1.7-3.9,3.9C303.9,267.8,305.7,269.5,307.8,269.5
						 M307.8,255.5c-5.6,0-10.1,4.6-10.1,10.1c0,5.6,4.6,10.1,10.1,10.1c5.6,0,10.1-4.6,10.1-10.1C318,260,313.4,255.5,307.8,255.5
						L307.8,255.5z M307.8,267.9c-1.3,0-2.3-1-2.3-2.3c0-1.3,1-2.3,2.3-2.3c1.3,0,2.3,1,2.3,2.3
						C310.1,266.9,309.1,267.9,307.8,267.9L307.8,267.9z"/>
				</g>
			</g>
		</g>
		<g>
			<g>
				<g>
					<g>
						<linearGradient id="SVGID_7_" gradientUnits="userSpaceOnUse" x1="4.3846" y1="265.6277" x2="266.507" y2="265.6277">
							<stop  offset="0" style="stop-color:#812CD3"/>
							<stop  offset="0.9996" style="stop-color:#4B2DD0"/>
						</linearGradient>
						<path class="st6" d="M92.2,309.8c-24.3,0-44.1-19.8-44.1-44.1c0-24.3,19.8-44.1,44.1-44.1s44.1,19.8,44.1,44.1
							C136.3,290,116.5,309.8,92.2,309.8z M92.2,234.8c-17,0-30.9,13.9-30.9,30.9c0,17,13.9,30.9,30.9,30.9s30.9-13.9,30.9-30.9
							C123.1,248.6,109.2,234.8,92.2,234.8z"/>
						<linearGradient id="SVGID_8_" gradientUnits="userSpaceOnUse" x1="4.3846" y1="265.6277" x2="266.507" y2="265.6277">
							<stop  offset="0" style="stop-color:#812CD3"/>
							<stop  offset="0.9996" style="stop-color:#4B2DD0"/>
						</linearGradient>
						<path class="st7" d="M92.2,221.9c24.1,0,43.7,19.6,43.7,43.7c0,24.1-19.6,43.7-43.7,43.7s-43.7-19.6-43.7-43.7
							C48.4,241.5,68.1,221.9,92.2,221.9 M92.2,296.9c17.2,0,31.3-14,31.3-31.3c0-17.2-14-31.3-31.3-31.3s-31.3,14-31.3,31.3
							C60.9,282.9,74.9,296.9,92.2,296.9 M92.2,221.1c-24.5,0-44.5,20-44.5,44.5c0,24.5,20,44.5,44.5,44.5s44.5-20,44.5-44.5
							C136.7,241.1,116.7,221.1,92.2,221.1L92.2,221.1z M92.2,296.1c-16.8,0-30.5-13.7-30.5-30.5c0-16.8,13.7-30.5,30.5-30.5
							s30.5,13.7,30.5,30.5C122.7,282.4,109,296.1,92.2,296.1L92.2,296.1z"/>
					</g>
					<linearGradient id="SVGID_9_" gradientUnits="userSpaceOnUse" x1="4.3846" y1="265.6277" x2="266.507" y2="265.6277">
						<stop  offset="0" style="stop-color:#812CD3"/>
						<stop  offset="0.9996" style="stop-color:#4B2DD0"/>
					</linearGradient>
					<path class="st8" d="M92.2,221.9c24.1,0,43.7,19.6,43.7,43.7s-19.6,43.7-43.7,43.7c-24.1,0-43.7-19.6-43.7-43.7
						S68.1,221.9,92.2,221.9 M92.2,296.9c17.2,0,31.3-14,31.3-31.3s-14-31.3-31.3-31.3c-17.2,0-31.3,14-31.3,31.3
						S74.9,296.9,92.2,296.9 M92.2,220.3c-25,0-45.3,20.3-45.3,45.3c0,25,20.3,45.3,45.3,45.3s45.3-20.3,45.3-45.3
						C137.5,240.6,117.2,220.3,92.2,220.3L92.2,220.3z M92.2,295.3c-16.4,0-29.7-13.3-29.7-29.7s13.3-29.7,29.7-29.7
						s29.7,13.3,29.7,29.7S108.6,295.3,92.2,295.3L92.2,295.3z"/>
				</g>
			</g>
			<g>
				<g>
					<g>
						<linearGradient id="SVGID_10_" gradientUnits="userSpaceOnUse" x1="4.3846" y1="265.6277" x2="266.507" y2="265.6277">
							<stop  offset="0" style="stop-color:#812CD3"/>
							<stop  offset="0.9996" style="stop-color:#4B2DD0"/>
						</linearGradient>
						<path class="st9" d="M92.2,274.6c-4.9,0-9-4-9-9c0-4.9,4-9,9-9c4.9,0,9,4,9,9C101.2,270.6,97.1,274.6,92.2,274.6z M92.2,262.1
							c-1.9,0-3.5,1.6-3.5,3.5c0,1.9,1.6,3.5,3.5,3.5c1.9,0,3.5-1.6,3.5-3.5C95.7,263.7,94.1,262.1,92.2,262.1z"/>
						<linearGradient id="SVGID_11_" gradientUnits="userSpaceOnUse" x1="4.3846" y1="265.6277" x2="266.507" y2="265.6277">
							<stop  offset="0" style="stop-color:#812CD3"/>
							<stop  offset="0.9996" style="stop-color:#4B2DD0"/>
						</linearGradient>
						<path class="st10" d="M92.2,257.1c4.7,0,8.6,3.8,8.6,8.6c0,4.7-3.8,8.6-8.6,8.6s-8.6-3.8-8.6-8.6
							C83.6,260.9,87.5,257.1,92.2,257.1 M92.2,269.5c2.1,0,3.9-1.7,3.9-3.9c0-2.1-1.7-3.9-3.9-3.9s-3.9,1.7-3.9,3.9
							C88.3,267.8,90,269.5,92.2,269.5 M92.2,256.3c-5.2,0-9.4,4.2-9.4,9.4c0,5.2,4.2,9.4,9.4,9.4s9.4-4.2,9.4-9.4
							C101.5,260.5,97.3,256.3,92.2,256.3L92.2,256.3z M92.2,268.7c-1.7,0-3.1-1.4-3.1-3.1c0-1.7,1.4-3.1,3.1-3.1s3.1,1.4,3.1,3.1
							C95.3,267.3,93.9,268.7,92.2,268.7L92.2,268.7z"/>
					</g>
					<linearGradient id="SVGID_12_" gradientUnits="userSpaceOnUse" x1="4.3846" y1="265.6277" x2="266.507" y2="265.6277">
						<stop  offset="0" style="stop-color:#812CD3"/>
						<stop  offset="0.9996" style="stop-color:#4B2DD0"/>
					</linearGradient>
					<path class="st11" d="M92.2,257.1c4.7,0,8.6,3.8,8.6,8.6s-3.8,8.6-8.6,8.6c-4.7,0-8.6-3.8-8.6-8.6S87.5,257.1,92.2,257.1
						 M92.2,269.5c2.1,0,3.9-1.7,3.9-3.9c0-2.1-1.7-3.9-3.9-3.9c-2.1,0-3.9,1.7-3.9,3.9C88.3,267.8,90,269.5,92.2,269.5 M92.2,255.5
						c-5.6,0-10.1,4.6-10.1,10.1c0,5.6,4.6,10.1,10.1,10.1c5.6,0,10.1-4.6,10.1-10.1C102.3,260,97.8,255.5,92.2,255.5L92.2,255.5z
						 M92.2,267.9c-1.3,0-2.3-1-2.3-2.3c0-1.3,1-2.3,2.3-2.3s2.3,1,2.3,2.3C94.5,266.9,93.5,267.9,92.2,267.9L92.2,267.9z"/>
				</g>
			</g>
		</g>
	</g>
	<g>
		<g>
			<g>
				<linearGradient id="SVGID_13_" gradientUnits="userSpaceOnUse" x1="4.3846" y1="181.2495" x2="266.507" y2="181.2495">
					<stop  offset="0" style="stop-color:#812CD3"/>
					<stop  offset="0.9996" style="stop-color:#4B2DD0"/>
				</linearGradient>
				<path class="st12" d="M373.4,272.3c-3.7,0-6.6-3-6.6-6.6c0-3.7,3-6.6,6.6-6.6h6.6l5.5-5.5V109l-5.5-5.5H84.5l-0.1,0
					c-3.3,1.8-15.1,8.6-28,19.7c-9.1,7.8-17.1,16.3-23.8,25.3c-8,10.7-14.1,22.1-18.2,33.8l0,71.2l5.5,5.5h34.8c3.7,0,6.6,3,6.6,6.6
					c0,3.7-3,6.6-6.6,6.6H17.2c-1.8,0-3.4-0.7-4.7-1.9l-9.4-9.4c-1.3-1.3-1.9-2.9-1.9-4.7v-75c0-0.7,0.1-1.4,0.3-2.1
					C6,165.6,13,152.6,22.1,140.4c7.3-9.7,16-18.9,25.9-27.4c16.9-14.5,31.2-21.7,31.8-22c0.9-0.5,1.9-0.7,3-0.7h300
					c1.8,0,3.4,0.7,4.7,1.9l9.4,9.4c1.3,1.3,1.9,2.9,1.9,4.7v150c0,1.8-0.7,3.4-1.9,4.7l-9.4,9.4c-1.3,1.3-2.9,1.9-4.7,1.9H373.4z"
					/>
				<linearGradient id="SVGID_14_" gradientUnits="userSpaceOnUse" x1="4.3846" y1="181.2495" x2="266.507" y2="181.2495">
					<stop  offset="0" style="stop-color:#812CD3"/>
					<stop  offset="0.9996" style="stop-color:#4B2DD0"/>
				</linearGradient>
				<path class="st13" d="M382.8,90.6c1.7,0,3.2,0.6,4.4,1.8l9.4,9.4c1.2,1.2,1.8,2.7,1.8,4.4v150c0,1.7-0.6,3.2-1.8,4.4l-9.4,9.4
					c-1.2,1.2-2.7,1.8-4.4,1.8h-9.4c-3.4,0-6.2-2.8-6.2-6.2c0-3.4,2.8-6.2,6.2-6.2h6.5h0.3l0.2-0.2l5.3-5.3l0.2-0.2v-0.3V109.2v-0.3
					l-0.2-0.2l-5.3-5.3l-0.2-0.2h-0.3H84.6h-0.2l-0.2,0.1c-3.3,1.8-15.1,8.6-28,19.7c-9.1,7.9-17.2,16.4-23.8,25.3
					c-8,10.7-14.2,22.2-18.2,33.9l0,0.1v0.1v70.9v0.3l0.2,0.2l5.3,5.3l0.2,0.2h0.3h34.6c3.4,0,6.2,2.8,6.2,6.2
					c0,3.4-2.8,6.2-6.2,6.2H17.2c-1.7,0-3.2-0.6-4.4-1.8l-9.4-9.4c-1.2-1.2-1.8-2.7-1.8-4.4v-75c0-0.7,0.1-1.3,0.3-2
					c4.5-13.5,11.4-26.5,20.6-38.7c7.3-9.7,16-18.9,25.8-27.4C65.1,98.8,79.4,91.6,80,91.3c0.9-0.4,1.8-0.7,2.8-0.7H382.8
					 M382.8,89.9h-300c-1.1,0-2.2,0.3-3.1,0.7c-0.6,0.3-15,7.6-31.9,22c-9.9,8.5-18.6,17.7-26,27.5C12.6,152.4,5.7,165.5,1.1,179
					c-0.2,0.7-0.4,1.5-0.4,2.2v75c0,1.9,0.7,3.6,2.1,5l9.4,9.4c1.3,1.3,3.1,2.1,5,2.1h37.5c3.9,0,7-3.1,7-7s-3.1-7-7-7H20.1
					l-5.3-5.3v-70.9c4-11.7,10.1-23,18.1-33.7c6.6-8.9,14.6-17.4,23.7-25.2c12.8-11,24.4-17.7,27.9-19.6h295.4l5.3,5.3v144.2
					l-5.3,5.3h-6.5c-3.9,0-7,3.1-7,7s3.1,7,7,7h9.4c1.9,0,3.6-0.7,5-2.1l9.4-9.4c1.3-1.3,2.1-3.1,2.1-5v-150c0-1.9-0.7-3.6-2.1-5
					l-9.4-9.4C386.5,90.6,384.7,89.9,382.8,89.9L382.8,89.9z"/>
			</g>
			<linearGradient id="SVGID_15_" gradientUnits="userSpaceOnUse" x1="4.3846" y1="181.2495" x2="266.507" y2="181.2495">
				<stop  offset="0" style="stop-color:#812CD3"/>
				<stop  offset="0.9996" style="stop-color:#4B2DD0"/>
			</linearGradient>
			<path class="st14" d="M382.8,90.6c1.7,0,3.2,0.7,4.4,1.8l9.4,9.4c1.2,1.2,1.8,2.8,1.8,4.4v150c0,1.7-0.7,3.2-1.8,4.4l-9.4,9.4
				c-1.2,1.2-2.8,1.8-4.4,1.8h-9.4c-3.4,0-6.2-2.8-6.2-6.2c0-3.4,2.8-6.2,6.2-6.2h6.8l5.7-5.7V108.8l-5.7-5.7H84.4
				c-3.7,2-15.3,8.7-28.2,19.8c-9.1,7.9-17.1,16.4-23.8,25.3c-8.1,10.8-14.2,22.2-18.3,34v71.4l5.7,5.7h34.9c3.4,0,6.2,2.8,6.2,6.2
				c0,3.4-2.8,6.2-6.2,6.2H17.2c-1.7,0-3.2-0.7-4.4-1.8l-9.4-9.4c-1.2-1.2-1.8-2.8-1.8-4.4v-75c0-0.7,0.1-1.3,0.3-2
				c4.5-13.5,11.4-26.5,20.6-38.7c7.3-9.7,16-18.9,25.8-27.4C65.1,98.8,79.4,91.6,80,91.3c0.9-0.4,1.8-0.7,2.8-0.7H382.8
				 M382.8,89.1h-300c-1.2,0-2.4,0.3-3.5,0.8c-0.6,0.3-15.1,7.6-32.1,22.1c-10,8.5-18.7,17.8-26.1,27.6
				C11.9,152,4.9,165.2,0.4,178.8c-0.3,0.8-0.4,1.6-0.4,2.5v75c0,2.1,0.8,4,2.3,5.5l9.4,9.4c1.5,1.5,3.4,2.3,5.5,2.3h37.5
				c4.3,0,7.8-3.5,7.8-7.8c0-4.3-3.5-7.8-7.8-7.8H20.4l-4.8-4.8v-70.5c4-11.6,10-22.8,17.9-33.4c6.6-8.9,14.6-17.3,23.6-25.1
				c12.5-10.8,23.9-17.4,27.6-19.4h294.8l4.8,4.8V253l-4.8,4.8h-6.1c-4.3,0-7.8,3.5-7.8,7.8c0,4.3,3.5,7.8,7.8,7.8h9.4
				c2.1,0,4-0.8,5.5-2.3l9.4-9.4c1.5-1.5,2.3-3.4,2.3-5.5v-150c0-2.1-0.8-4-2.3-5.5l-9.4-9.4C386.9,89.9,384.9,89.1,382.8,89.1
				L382.8,89.1z"/>
		</g>
	</g>
	<g>
		<g>
			<g>
				<linearGradient id="SVGID_16_" gradientUnits="userSpaceOnUse" x1="4.3846" y1="265.6277" x2="266.507" y2="265.6277">
					<stop  offset="0" style="stop-color:#812CD3"/>
					<stop  offset="0.9996" style="stop-color:#4B2DD0"/>
				</linearGradient>
				<path class="st15" d="M157.8,272.3c-3.7,0-6.6-3-6.6-6.6c0-3.7,3-6.6,6.6-6.6h112.5c3.7,0,6.6,3,6.6,6.6c0,3.7-3,6.6-6.6,6.6
					H157.8z"/>
				<linearGradient id="SVGID_17_" gradientUnits="userSpaceOnUse" x1="4.3846" y1="265.6277" x2="266.507" y2="265.6277">
					<stop  offset="0" style="stop-color:#812CD3"/>
					<stop  offset="0.9996" style="stop-color:#4B2DD0"/>
				</linearGradient>
				<path class="st16" d="M270.3,259.4c3.4,0,6.2,2.8,6.2,6.2c0,3.4-2.8,6.2-6.2,6.2H157.8c-3.4,0-6.2-2.8-6.2-6.2
					c0-3.4,2.8-6.2,6.2-6.2H270.3 M270.3,258.6H157.8c-3.9,0-7,3.1-7,7s3.1,7,7,7h112.5c3.9,0,7-3.1,7-7S274.2,258.6,270.3,258.6
					L270.3,258.6z"/>
			</g>
			<linearGradient id="SVGID_18_" gradientUnits="userSpaceOnUse" x1="4.3846" y1="265.6277" x2="266.507" y2="265.6277">
				<stop  offset="0" style="stop-color:#812CD3"/>
				<stop  offset="0.9996" style="stop-color:#4B2DD0"/>
			</linearGradient>
			<path class="st17" d="M270.3,259.4c3.4,0,6.2,2.8,6.2,6.2c0,3.4-2.8,6.2-6.2,6.2H157.8c-3.4,0-6.2-2.8-6.2-6.2
				c0-3.4,2.8-6.2,6.2-6.2H270.3 M270.3,257.8H157.8c-4.3,0-7.8,3.5-7.8,7.8c0,4.3,3.5,7.8,7.8,7.8h112.5c4.3,0,7.8-3.5,7.8-7.8
				C278.1,261.3,274.6,257.8,270.3,257.8L270.3,257.8z"/>
		</g>
	</g>
	<g>
		<g>
			<g>
				<linearGradient id="SVGID_19_" gradientUnits="userSpaceOnUse" x1="4.3846" y1="139.06" x2="266.507" y2="139.06">
					<stop  offset="0" style="stop-color:#812CD3"/>
					<stop  offset="0.9996" style="stop-color:#4B2DD0"/>
				</linearGradient>
				<path class="st18" d="M35.9,187.9c-3.7,0-6.6-3-6.6-6.6s3-6.6,6.6-6.6h105.9V96.9c0-3.7,3-6.6,6.6-6.6c3.7,0,6.6,3,6.6,6.6v84.4
					c0,3.7-3,6.6-6.6,6.6H35.9z"/>
				<linearGradient id="SVGID_20_" gradientUnits="userSpaceOnUse" x1="4.3846" y1="139.06" x2="266.507" y2="139.06">
					<stop  offset="0" style="stop-color:#812CD3"/>
					<stop  offset="0.9996" style="stop-color:#4B2DD0"/>
				</linearGradient>
				<path class="st19" d="M148.4,90.6c3.4,0,6.2,2.8,6.2,6.2v84.4c0,3.4-2.8,6.2-6.2,6.2H35.9c-3.4,0-6.2-2.8-6.2-6.2
					c0-3.4,2.8-6.2,6.2-6.2h105.5h0.8v-0.8V96.9C142.2,93.4,145,90.6,148.4,90.6 M148.4,89.9c-3.9,0-7,3.1-7,7v77.4H35.9
					c-3.9,0-7,3.1-7,7s3.1,7,7,7h112.5c3.9,0,7-3.1,7-7V96.9C155.5,93,152.3,89.9,148.4,89.9L148.4,89.9z"/>
			</g>
			<linearGradient id="SVGID_21_" gradientUnits="userSpaceOnUse" x1="4.3846" y1="139.06" x2="266.507" y2="139.06">
				<stop  offset="0" style="stop-color:#812CD3"/>
				<stop  offset="0.9996" style="stop-color:#4B2DD0"/>
			</linearGradient>
			<path class="st20" d="M148.4,90.6c3.4,0,6.2,2.8,6.2,6.2v84.4c0,3.4-2.8,6.2-6.2,6.2H35.9c-3.4,0-6.2-2.8-6.2-6.2
				c0-3.4,2.8-6.2,6.2-6.2h106.3V96.9C142.2,93.4,145,90.6,148.4,90.6 M148.4,89.1c-4.3,0-7.8,3.5-7.8,7.8v76.6H35.9
				c-4.3,0-7.8,3.5-7.8,7.8c0,4.3,3.5,7.8,7.8,7.8h112.5c4.3,0,7.8-3.5,7.8-7.8V96.9C156.2,92.6,152.7,89.1,148.4,89.1L148.4,89.1z"
				/>
		</g>
	</g>
	<g>
		<g>
			<g>
				<linearGradient id="SVGID_22_" gradientUnits="userSpaceOnUse" x1="4.3846" y1="209.3751" x2="266.507" y2="209.3751">
					<stop  offset="0" style="stop-color:#812CD3"/>
					<stop  offset="0.9996" style="stop-color:#4B2DD0"/>
				</linearGradient>
				<path class="st21" d="M120.3,216c-3.7,0-6.6-3-6.6-6.6s3-6.6,6.6-6.6h9.4c3.7,0,6.6,3,6.6,6.6s-3,6.6-6.6,6.6H120.3z"/>
				<linearGradient id="SVGID_23_" gradientUnits="userSpaceOnUse" x1="4.3846" y1="209.3751" x2="266.507" y2="209.3751">
					<stop  offset="0" style="stop-color:#812CD3"/>
					<stop  offset="0.9996" style="stop-color:#4B2DD0"/>
				</linearGradient>
				<path class="st22" d="M129.7,203.1c3.4,0,6.2,2.8,6.2,6.2c0,3.4-2.8,6.2-6.2,6.2h-9.4c-3.4,0-6.2-2.8-6.2-6.2
					c0-3.4,2.8-6.2,6.2-6.2H129.7 M129.7,202.4h-9.4c-3.9,0-7,3.1-7,7s3.1,7,7,7h9.4c3.9,0,7-3.1,7-7S133.6,202.4,129.7,202.4
					L129.7,202.4z"/>
			</g>
			<linearGradient id="SVGID_24_" gradientUnits="userSpaceOnUse" x1="4.3846" y1="209.3754" x2="266.507" y2="209.3754">
				<stop  offset="0" style="stop-color:#812CD3"/>
				<stop  offset="0.9996" style="stop-color:#4B2DD0"/>
			</linearGradient>
			<path class="st23" d="M129.7,203.1c3.4,0,6.2,2.8,6.2,6.2c0,3.4-2.8,6.2-6.2,6.2h-9.4c-3.4,0-6.2-2.8-6.2-6.2
				c0-3.4,2.8-6.2,6.2-6.2H129.7 M129.7,201.6h-9.4c-4.3,0-7.8,3.5-7.8,7.8c0,4.3,3.5,7.8,7.8,7.8h9.4c4.3,0,7.8-3.5,7.8-7.8
				C137.5,205.1,134,201.6,129.7,201.6L129.7,201.6z"/>
		</g>
	</g>
	<g>
		<g>
			<g>
				<linearGradient id="SVGID_25_" gradientUnits="userSpaceOnUse" x1="4.3846" y1="181.2487" x2="266.507" y2="181.2487">
					<stop  offset="0" style="stop-color:#812CD3"/>
					<stop  offset="0.9996" style="stop-color:#4B2DD0"/>
				</linearGradient>
				<path class="st24" d="M176.6,187.9c-3.7,0-6.6-3-6.6-6.6s3-6.6,6.6-6.6h187.5c3.7,0,6.6,3,6.6,6.6s-3,6.6-6.6,6.6H176.6z"/>
				<linearGradient id="SVGID_26_" gradientUnits="userSpaceOnUse" x1="4.3846" y1="181.2487" x2="266.507" y2="181.2487">
					<stop  offset="0" style="stop-color:#812CD3"/>
					<stop  offset="0.9996" style="stop-color:#4B2DD0"/>
				</linearGradient>
				<path class="st25" d="M364.1,175c3.4,0,6.2,2.8,6.2,6.2c0,3.4-2.8,6.2-6.2,6.2H176.6c-3.4,0-6.2-2.8-6.2-6.2
					c0-3.4,2.8-6.2,6.2-6.2H364.1 M364.1,174.2H176.6c-3.9,0-7,3.1-7,7s3.1,7,7,7h187.5c3.9,0,7-3.1,7-7S367.9,174.2,364.1,174.2
					L364.1,174.2z"/>
			</g>
			<linearGradient id="SVGID_27_" gradientUnits="userSpaceOnUse" x1="4.3846" y1="181.2491" x2="266.507" y2="181.2491">
				<stop  offset="0" style="stop-color:#812CD3"/>
				<stop  offset="0.9996" style="stop-color:#4B2DD0"/>
			</linearGradient>
			<path class="st26" d="M364.1,175c3.4,0,6.2,2.8,6.2,6.2c0,3.4-2.8,6.2-6.2,6.2H176.6c-3.4,0-6.2-2.8-6.2-6.2
				c0-3.4,2.8-6.2,6.2-6.2H364.1 M364.1,173.4H176.6c-4.3,0-7.8,3.5-7.8,7.8c0,4.3,3.5,7.8,7.8,7.8h187.5c4.3,0,7.8-3.5,7.8-7.8
				C371.9,176.9,368.4,173.4,364.1,173.4L364.1,173.4z"/>
		</g>
	</g>
	<g>
		<g>
			<g>
				<linearGradient id="SVGID_28_" gradientUnits="userSpaceOnUse" x1="4.3846" y1="139.06" x2="266.507" y2="139.06">
					<stop  offset="0" style="stop-color:#812CD3"/>
					<stop  offset="0.9996" style="stop-color:#4B2DD0"/>
				</linearGradient>
				<path class="st27" d="M307.8,159.7c-3.7,0-6.6-3-6.6-6.6V125c0-3.7,3-6.6,6.6-6.6c3.7,0,6.6,3,6.6,6.6v28.1
					C314.4,156.8,311.5,159.7,307.8,159.7z"/>
				<linearGradient id="SVGID_29_" gradientUnits="userSpaceOnUse" x1="4.3846" y1="139.06" x2="266.507" y2="139.06">
					<stop  offset="0" style="stop-color:#812CD3"/>
					<stop  offset="0.9996" style="stop-color:#4B2DD0"/>
				</linearGradient>
				<path class="st28" d="M307.8,118.8c3.4,0,6.2,2.8,6.2,6.2v28.1c0,3.4-2.8,6.2-6.2,6.2c-3.4,0-6.2-2.8-6.2-6.2V125
					C301.6,121.6,304.4,118.8,307.8,118.8 M307.8,118c-3.9,0-7,3.1-7,7v28.1c0,3.9,3.1,7,7,7s7-3.1,7-7V125
					C314.8,121.1,311.7,118,307.8,118L307.8,118z"/>
			</g>
			<linearGradient id="SVGID_30_" gradientUnits="userSpaceOnUse" x1="4.3846" y1="139.0604" x2="266.507" y2="139.0604">
				<stop  offset="0" style="stop-color:#812CD3"/>
				<stop  offset="0.9996" style="stop-color:#4B2DD0"/>
			</linearGradient>
			<path class="st29" d="M307.8,118.8c3.4,0,6.2,2.8,6.2,6.2v28.1c0,3.4-2.8,6.2-6.2,6.2c-3.4,0-6.2-2.8-6.2-6.2V125
				C301.6,121.6,304.4,118.8,307.8,118.8 M307.8,117.2c-4.3,0-7.8,3.5-7.8,7.8v28.1c0,4.3,3.5,7.8,7.8,7.8c4.3,0,7.8-3.5,7.8-7.8
				V125C315.6,120.7,312.1,117.2,307.8,117.2L307.8,117.2z"/>
		</g>
	</g>
	<g>
		<g>
			<g>
				<linearGradient id="SVGID_31_" gradientUnits="userSpaceOnUse" x1="4.3846" y1="139.06" x2="266.507" y2="139.06">
					<stop  offset="0" style="stop-color:#812CD3"/>
					<stop  offset="0.9996" style="stop-color:#4B2DD0"/>
				</linearGradient>
				<path class="st30" d="M214.1,159.7c-3.7,0-6.6-3-6.6-6.6V125c0-3.7,3-6.6,6.6-6.6s6.6,3,6.6,6.6v28.1
					C220.7,156.8,217.7,159.7,214.1,159.7z"/>
				<linearGradient id="SVGID_32_" gradientUnits="userSpaceOnUse" x1="4.3846" y1="139.06" x2="266.507" y2="139.06">
					<stop  offset="0" style="stop-color:#812CD3"/>
					<stop  offset="0.9996" style="stop-color:#4B2DD0"/>
				</linearGradient>
				<path class="st31" d="M214.1,118.8c3.4,0,6.2,2.8,6.2,6.2v28.1c0,3.4-2.8,6.2-6.2,6.2c-3.4,0-6.2-2.8-6.2-6.2V125
					C207.8,121.6,210.6,118.8,214.1,118.8 M214.1,118c-3.9,0-7,3.1-7,7v28.1c0,3.9,3.1,7,7,7s7-3.1,7-7V125
					C221.1,121.1,217.9,118,214.1,118L214.1,118z"/>
			</g>
			<linearGradient id="SVGID_33_" gradientUnits="userSpaceOnUse" x1="4.3846" y1="139.0604" x2="266.507" y2="139.0604">
				<stop  offset="0" style="stop-color:#812CD3"/>
				<stop  offset="0.9996" style="stop-color:#4B2DD0"/>
			</linearGradient>
			<path class="st32" d="M214.1,118.8c3.4,0,6.2,2.8,6.2,6.2v28.1c0,3.4-2.8,6.2-6.2,6.2c-3.4,0-6.2-2.8-6.2-6.2V125
				C207.8,121.6,210.6,118.8,214.1,118.8 M214.1,117.2c-4.3,0-7.8,3.5-7.8,7.8v28.1c0,4.3,3.5,7.8,7.8,7.8c4.3,0,7.8-3.5,7.8-7.8
				V125C221.9,120.7,218.4,117.2,214.1,117.2L214.1,117.2z"/>
		</g>
	</g>
</g>
</svg>
