<?xml version="1.0" encoding="utf-8"?>
<!-- Generator: Adobe Illustrator 24.2.1, SVG Export Plug-In . SVG Version: 6.00 Build 0)  -->
<svg version="1.1" id="Layer_1" xmlns="http://www.w3.org/2000/svg" xmlns:xlink="http://www.w3.org/1999/xlink" x="0px" y="0px"
	 viewBox="0 0 400 400" style="enable-background:new 0 0 400 400;" xml:space="preserve">
<style type="text/css">
	.st0{fill:#3C58BF;}
	.st1{fill:#293688;}
	.st2{fill:#FFBC00;}
	.st3{fill:#F7981D;}
	.st4{fill:#ED7C00;}
	.st5{fill:#051244;}
</style>
<g>
	<polygon class="st0" points="146.7,257.5 167,143.2 198.7,143.2 179,257.5 	"/>
	<polygon class="st1" points="146.7,257.5 172.7,143.2 198.7,143.2 179,257.5 	"/>
	<path class="st0" d="M294,144.4c-6.3-2.5-16.5-5.1-29.2-5.1c-31.7,0-54.6,15.9-54.6,38.7c0,17.1,15.9,26,28.6,31.7
		c12.7,5.7,16.5,9.5,16.5,14.6c0,7.6-10.2,11.4-19,11.4c-12.7,0-19.7-1.9-30.5-6.3l-4.4-1.9l-4.4,26c7.6,3.2,21.6,6.3,36.2,6.3
		c33.7,0,55.9-15.9,55.9-40c0-13.3-8.3-23.5-27.3-31.7c-11.4-5.7-18.4-8.9-18.4-14.6c0-5.1,5.7-10.2,18.4-10.2
		c10.8,0,18.4,1.9,24.1,4.4l3.2,1.3L294,144.4L294,144.4z"/>
	<path class="st1" d="M294,144.4c-6.3-2.5-16.5-5.1-29.2-5.1c-31.7,0-48.9,15.9-48.9,38.7c0,17.1,10.2,26,22.9,31.7
		c12.7,5.7,16.5,9.5,16.5,14.6c0,7.6-10.2,11.4-19,11.4c-12.7,0-19.7-1.9-30.5-6.3l-4.4-1.9l-4.4,26c7.6,3.2,21.6,6.3,36.2,6.3
		c33.7,0,55.9-15.9,55.9-40c0-13.3-8.3-23.5-27.3-31.7c-11.4-5.7-18.4-8.9-18.4-14.6c0-5.1,5.7-10.2,18.4-10.2
		c10.8,0,18.4,1.9,24.1,4.4l3.2,1.3L294,144.4L294,144.4z"/>
	<path class="st0" d="M348.6,143.2c-7.6,0-13.3,0.6-16.5,8.3l-47.6,106h34.3l6.3-19h40.6l3.8,19H400l-26.7-114.3H348.6z M334,219.4
		c1.9-5.7,12.7-33.7,12.7-33.7s2.5-7,4.4-11.4l1.9,10.8c0,0,6.3,28.6,7.6,34.9H334V219.4z"/>
	<path class="st1" d="M356.2,143.2c-7.6,0-13.3,0.6-16.5,8.3l-55.2,106h34.3l6.3-19h40.6l3.8,19H400l-26.7-114.3H356.2z M334,219.4
		c2.5-6.3,12.7-33.7,12.7-33.7s2.5-7,4.4-11.4l1.9,10.8c0,0,6.3,28.6,7.6,34.9H334V219.4z"/>
	<path class="st0" d="M88.3,223.2l-3.2-16.5c-5.7-19-24.1-40-44.4-50.2l28.6,101.6h34.3l51.4-114.3h-34.3L88.3,223.2z"/>
	<path class="st1" d="M88.3,223.2l-3.2-16.5c-5.7-19-24.1-40-44.4-50.2l28.6,101.6h34.3l51.4-114.3H127L88.3,223.2z"/>
	<path class="st2" d="M0,143.2l5.7,1.3c40.6,9.5,68.6,33.7,79.4,62.2l-11.4-54c-1.9-7.6-7.6-9.5-14.6-9.5H0z"/>
	<path class="st3" d="M0,143.2L0,143.2c40.6,9.5,74.3,34.3,85.1,62.9L74.3,161c-1.9-7.6-8.3-12.1-15.2-12.1L0,143.2z"/>
	<path class="st4" d="M0,143.2L0,143.2c40.6,9.5,74.3,34.3,85.1,62.9l-7.6-24.8c-1.9-7.6-4.4-15.2-13.3-18.4L0,143.2z"/>
	<g>
		<path class="st5" d="M120,219.4l-21.6-21.6l-10.2,24.1L85.7,206c-5.7-19-24.1-40-44.4-50.2l28.6,101.6h34.3L120,219.4z"/>
		<polygon class="st5" points="179,257.5 151.7,229.5 146.7,257.5 		"/>
		<path class="st5" d="M252.1,218.1L252.1,218.1c2.5,2.5,3.8,4.4,3.2,7c0,7.6-10.2,11.4-19,11.4c-12.7,0-19.7-1.9-30.5-6.3l-4.4-1.9
			l-4.4,26c7.6,3.2,21.6,6.3,36.2,6.3c20.3,0,36.8-5.7,46.3-15.9L252.1,218.1z"/>
		<path class="st5" d="M288.9,257.5h29.8l6.3-19h40.6l3.8,19H400l-10.8-46.3l-38.1-36.8l1.9,10.2c0,0,6.3,28.6,7.6,34.9H334
			c2.5-6.3,12.7-33.7,12.7-33.7s2.5-7,4.4-11.4"/>
	</g>
</g>
</svg>
