<?xml version="1.0" encoding="utf-8"?>
<!-- Generator: Adobe Illustrator 23.1.1, SVG Export Plug-In . SVG Version: 6.00 Build 0)  -->
<svg version="1.1" id="Layer_1" xmlns="http://www.w3.org/2000/svg" xmlns:xlink="http://www.w3.org/1999/xlink" x="0px" y="0px"
	 viewBox="0 0 400 400" style="enable-background:new 0 0 400 400;" xml:space="preserve">
<style type="text/css">
	.st0{fill:#4B2DD0;}
</style>
<g>
	<path class="st0" d="M176.6,0c7.4,0.7,14.8,1.1,22.1,2.3c58.5,9.6,102.7,40.3,129.2,93.2c29.3,58.6,25.2,116.8-9.1,172.7
		c-0.4,0.7-0.9,1.3-1.3,2c-0.1,0.2-0.1,0.5-0.3,1.1c3.2,3.4,6.6,7,10,10.6c19.7,20.6,39.3,41.3,59.1,61.7
		c6.3,6.4,11.8,13.1,13.8,22.1v8.6c-2.1,8.4-5.7,16-13.4,20.6c-3.8,2.3-8.3,3.5-12.4,5.2h-8.6c-9.5-2-16.2-8-22.7-14.9
		c-21.7-23-43.7-45.7-65.6-68.6c-0.8-0.8-1.4-1.8-1.8-2.3c-9.8,5.5-18.7,11.1-28.1,15.6c-69.8,33.7-154.9,15.6-205.2-43.4
		C17,257,3.1,222.7,0.7,183.9c-0.1-1.7-0.4-3.3-0.7-5V168c1-8.1,1.6-16.3,3-24.3C15.8,70.1,74.4,13,148.3,2.3
		c7.6-1.1,15.2-1.5,22.8-2.3H176.6z M173.6,13.2C85.2,12.9,13.5,84.3,13.1,173c-0.4,88.3,71.2,160.3,159.7,160.6
		c88.4,0.3,160.3-71.2,160.7-159.7C334,85.3,262.4,13.4,173.6,13.2 M311.1,332.5c15.6,16.3,31.3,32.7,47,49
		c3.6,3.8,8.3,5.4,13.5,4.9c6.6-0.7,11.5-4,13.9-10.3c2.6-6.8,1-12.8-3.9-18c-15.3-16-30.6-32-45.9-47.9c-0.5-0.5-1.1-0.9-1.3-1
		C326.6,317,318.9,324.6,311.1,332.5 M285.1,306.3c5.7,5.2,11.3,10.2,16.6,15c7.2-7.2,14.9-14.9,23.1-23.1c-5.5-4.9-11.3-10-15.7-14
		C301.8,290.9,293.8,298.3,285.1,306.3"/>
	<path class="st0" d="M171.2,273.4c-37.4-0.7-74.2-10.2-106.4-33.8C43.7,224,28,204.4,20.9,178.7c-0.9-3.2-0.9-7.1,0-10.3
		c7-25.8,22.8-45.6,43.9-61.3c25-18.6,53.5-28.6,84.2-32.2c36.5-4.3,71.7,0.3,105.1,15.9c27.4,12.7,50.3,30.8,63.9,58.3
		c11.7,23.5,11.7,24.9,0.1,48.2c-13.2,26.7-35.3,44.6-61.7,57.5C230.3,267.6,202.3,273.1,171.2,273.4 M205.8,165.1
		c4.6,24.1-12,38.7-26.9,41c-18.5,2.9-35.6-9.3-38.4-27.2c-3.2-20.5,9.2-35.4,32.1-39.2c2.1-4.5,4.2-8.7,6.3-13.1
		c-17.7-0.2-35.3,0.8-52.8,3.6c-2.1,0.3-4.5,1.5-5.8,3c-18.1,23-18.1,57.1,0,80.1c1.1,1.4,3.3,2.6,5.1,2.9c31.9,4.9,63.8,4.9,95.6,0
		c2-0.3,4.4-1.7,5.6-3.3c17.6-23.2,17.8-55,0.7-78.6c-3-4.1-5.8-5.1-11.2-4.2C223.7,143.2,220,157.7,205.8,165.1 M50.9,139.3
		c38.5-19.9,80-25.8,122.5-25.8c42.5,0,84,6,122.5,25.9c-8.4-11.3-18.9-20.2-30.7-27.5c-24.3-15.2-51.1-22.9-79.6-24.6
		c-35.2-2.2-68.6,4.3-99.5,21.9C72.4,116.7,60.4,126.6,50.9,139.3 M50.8,207.8c0.5,0.6,0.9,1.2,1.4,1.8c12.5,15,27.9,26,45.5,34.1
		c33.8,15.6,69.3,19.6,105.9,13.8c27.8-4.4,53.4-14.5,75.3-32.7c6.2-5.1,11.6-11.2,17.4-16.8c-0.3-0.3-0.5-0.6-0.8-0.9
		c-38.3,20.2-79.8,26.1-122.3,26.1C130.9,233.3,89.4,227.4,50.8,207.8 M103.4,134.4c-18,4.4-34.7,9.9-49.8,19.3
		c-7.1,4.4-13.5,9.7-18.2,16.8c-1.3,2-1.6,3.8,0.1,5.6c4,4.3,7.6,9,12.1,12.5c13.3,10.4,28.9,16.1,45,20.7c3.4,1,6.8,1.8,10.8,2.8
		C90.1,186,90.1,160.5,103.4,134.4 M243.2,134.3c13.3,26.1,13.3,51.7,0,78.2c6.8-2,12.7-3.5,18.4-5.4c15-4.9,29.8-10.7,41.4-21.8
		c12.5-12,12.8-12.2,0.1-23.9C286.5,146.2,265.3,140,243.2,134.3 M193.3,173.4c0-11-8.7-19.9-19.7-20.1c-11-0.2-20.2,9-20.3,20
		c0,11,9,20.1,20.2,20C184.5,193.2,193.3,184.4,193.3,173.4 M196.7,133.4c-4.3,0-7.7,2.5-9.3,6.4c-0.8,2-0.6,3.1,1.5,4.3
		c3.2,1.9,6.2,4.2,8.8,6.9c1.9,1.9,3.2,1.7,4.9,0.3c3.3-2.5,4.8-7.1,3.6-11.1C204.9,136.1,201,133.4,196.7,133.4"/>
	<path class="st0" d="M152.6,35.8c0.1,3.8-2.2,5.8-6.8,7.2c-9.4,2.9-18.9,5.6-28,9.3c-14.2,5.9-26.4,14.9-37.4,25.6
		c-3.6,3.5-6.6,4-9.6,1.7c-3.7-2.8-4-7.5-0.3-11.1C82,57,95,47.2,110.1,40.8C121,36.2,132.6,33,144,29.5
		C148.6,28,152.5,31.2,152.6,35.8"/>
</g>
</svg>
