<?xml version="1.0" encoding="utf-8"?>
<!-- Generator: Adobe Illustrator 24.2.1, SVG Export Plug-In . SVG Version: 6.00 Build 0)  -->
<svg version="1.1" id="Layer_1" xmlns="http://www.w3.org/2000/svg" xmlns:xlink="http://www.w3.org/1999/xlink" x="0px" y="0px"
	 viewBox="0 0 400 400" style="enable-background:new 0 0 400 400;" xml:space="preserve">
<style type="text/css">
	.st0{fill:url(#SVGID_1_);}
	.st1{fill:url(#SVGID_2_);}
	.st2{fill:url(#SVGID_3_);}
	.st3{fill:url(#SVGID_4_);}
	.st4{fill:url(#SVGID_5_);}
</style>
<g>
	<linearGradient id="SVGID_1_" gradientUnits="userSpaceOnUse" x1="-4.7502" y1="196.363" x2="168.2031" y2="200.3852">
		<stop  offset="0" style="stop-color:#812CD3"/>
		<stop  offset="0.9996" style="stop-color:#4B2DD0"/>
	</linearGradient>
	<path class="st0" d="M0.1,128.5c0.1-0.2,0.2-0.5,0.3-0.7c6.1-20.2,16.6-28,38-28c60.1,0.1,120.3,0.2,180.4,0.1
		c19.5,0,36,6.2,50.1,19.8c16.5,15.9,33.4,31.4,49.9,47.2c3.2,3,6.2,4.3,10.6,4.2c20.1-0.4,37.5,6.5,51.5,21
		c12.5,12.9,18.8,28.5,19.1,46.5c0.2,13.2-7.6,24-20.2,27.9c-2.4,0.7-3.4,2-4.2,4.3c-5.9,17.4-21.9,29-40.2,29.2
		c-18.5,0.2-34.8-11-41-28.6c-1.1-3.1-2.6-3.7-5.6-3.7c-55.1,0-110.1,0-165.2-0.2c-3,0-4.5,0.7-5.5,3.8
		c-6.3,17.5-22.4,28.6-40.7,28.5c-18.3-0.1-34.4-11.6-40.4-29c-0.8-2.3-1.6-3.2-4.2-3.4C17.9,266.4,5.5,256,1.4,241.6
		c-0.4-1.5-0.9-3-1.4-4.4C0,200.9,0.1,164.7,0.1,128.5z M367.1,196.6c-3.2-2.1-5.9-4.1-8.8-5.7c-9.3-5.2-19.5-7.4-30.1-6.6
		c-6.9,0.5-12-1.7-16.9-6.5c-17.3-16.8-35-33-52.5-49.6C248,117.9,235.5,113,220.6,113c-61.7,0.1-123.4-0.1-185.1-0.1
		c-14.4,0-22.4,8.1-22.5,22.5c-0.1,29.7-0.1,59.4-0.1,89.1c0,1.4,0.1,2.8,0.2,4.6c2.7,0,5-0.1,7.3,0c4.2,0.2,6.9,2.7,6.9,6.4
		c0,3.7-2.8,6.2-6.9,6.4c-1.5,0.1-3,0-4.7,0c3.1,7.6,11.1,12.8,18.6,12.3c0.2-1.2,0.5-2.5,0.7-3.7c3-21.2,21.6-37,43.3-36.7
		c21.4,0.3,39.7,16.6,41.9,37.8c0.3,2.7,1.1,3.5,3.8,3.5c54.8,0,109.6,0,164.4,0.2c2.5,0,3.3-0.8,3.6-3.3
		c2.6-20.3,18.7-36.1,38.3-37.8c21-1.8,39.6,10.7,45.7,30.7c0.8,2.7,1.3,5.5,1.9,8.2c5.8-2.1,9.1-7.3,9.1-14.1c0-8.1-2-15.6-5.1-23
		c-1.8-4.3-4.2-6.8-9.3-5.9c-2,0.3-4.4,0.5-6.1-0.4c-2-1-4.3-3-4.6-4.9c-0.4-1.9,1.4-4.3,2.4-6.4
		C364.6,197.6,365.7,197.4,367.1,196.6z M47.4,256.6c-0.1,16.7,13.4,30.4,30,30.5c16.6,0.1,30.3-13.5,30.4-30.2
		c0.1-16.7-13.4-30.3-30.1-30.5C61.1,226.4,47.5,239.9,47.4,256.6z M365,257c0-16.7-13.7-30.3-30.3-30.2
		c-16.7,0.1-30.1,13.6-30.1,30.4c0,16.7,13.6,30.3,30.3,30.2C351.6,287.3,365,273.7,365,257z"/>
	<linearGradient id="SVGID_2_" gradientUnits="userSpaceOnUse" x1="-3.7281" y1="152.4124" x2="169.2252" y2="156.4346">
		<stop  offset="0" style="stop-color:#812CD3"/>
		<stop  offset="0.9996" style="stop-color:#4B2DD0"/>
	</linearGradient>
	<path class="st1" d="M102.8,190.4c-22.6,0-45.3,0-67.9-0.1c-7,0-9-2-9-9.1c0-17.7,0-35.4,0.1-53.1c0-6.6,2.1-8.7,8.6-8.7
		c45.8,0,91.6,0.1,137.4,0.1c6.8,0,8.7,2,8.7,8.9c0,17.7,0,35.4-0.1,53.1c0,6.9-2,8.9-8.8,8.9C148.8,190.4,125.8,190.4,102.8,190.4z
		 M39.1,132.5c0,15,0,29.7,0,44.6c43,0,85.7,0.1,128.5,0.1c0-15,0-29.7,0-44.6C124.7,132.6,82.1,132.6,39.1,132.5z"/>
	<linearGradient id="SVGID_3_" gradientUnits="userSpaceOnUse" x1="-3.6775" y1="150.2345" x2="169.2758" y2="154.2567">
		<stop  offset="0" style="stop-color:#812CD3"/>
		<stop  offset="0.9996" style="stop-color:#4B2DD0"/>
	</linearGradient>
	<path class="st2" d="M248.1,190.5c-15.2,0-30.5,0-45.7,0c-6.7,0-8.7-2-8.7-8.5c0-18,0-35.9,0.1-53.9c0-6.4,2.1-8.7,8.3-8.5
		c9.1,0.3,18.2,0.4,27.2,1.4c7.2,0.9,13.6,4.5,19,9.4c17.4,16.1,34.6,32.3,51.9,48.5c2.2,2.1,3,4.6,2,7.4c-1.1,3-3.6,4.2-6.8,4.2
		C279.6,190.5,263.9,190.5,248.1,190.5z M279.7,177.3c-14-13-26.9-25.4-40.2-37.4c-9.4-8.5-21.1-7.9-32.7-7.1c0,15,0,29.7,0,44.4
		C230.9,177.3,254.7,177.3,279.7,177.3z"/>
	<linearGradient id="SVGID_4_" gradientUnits="userSpaceOnUse" x1="-6.1101" y1="254.8386" x2="166.8432" y2="258.8607">
		<stop  offset="0" style="stop-color:#812CD3"/>
		<stop  offset="0.9996" style="stop-color:#4B2DD0"/>
	</linearGradient>
	<path class="st3" d="M77.6,278.7c-12.2,0-22.1-10-22-22.1c0.1-12,9.9-21.8,21.9-21.8c12.3,0,22.1,9.7,22.2,21.9
		C99.7,268.9,89.8,278.8,77.6,278.7z M86.7,256.8c0-5-4.2-9.2-9.2-9.1c-4.9,0-8.9,4-8.9,8.9c-0.1,5.1,3.9,9.3,8.9,9.4
		C82.4,266,86.7,261.8,86.7,256.8z"/>
	<linearGradient id="SVGID_5_" gradientUnits="userSpaceOnUse" x1="-5.9769" y1="249.1097" x2="166.9764" y2="253.1319">
		<stop  offset="0" style="stop-color:#812CD3"/>
		<stop  offset="0.9996" style="stop-color:#4B2DD0"/>
	</linearGradient>
	<path class="st4" d="M334.8,279c-12.2,0-22.1-10-22-22.1c0.1-12.2,10.1-21.9,22.3-21.8c12,0.1,21.8,9.9,21.8,21.9
		C356.9,269.1,347,279,334.8,279z M343.8,256.9c0-5-4.2-9.1-9.2-9c-4.9,0.1-8.8,4.1-8.8,9c0,5.1,4.1,9.2,9.1,9.2
		C339.8,266.2,343.9,262,343.8,256.9z"/>
</g>
</svg>
